<svg width="75" height="151" viewBox="0 0 75 151" fill="none" xmlns="http://www.w3.org/2000/svg">
<ellipse cx="28.6445" cy="80.0355" rx="17.1875" ry="17.6078" fill="#A5D1FF" fill-opacity="0.5"/>
<ellipse cx="60.4154" cy="112.583" rx="14.5833" ry="14.9399" fill="#A5D1FF" fill-opacity="0.5"/>
<path d="M52.3008 105.619C51.8586 105.266 52.7566 102.897 53.8975 102.347C55.0384 101.797 56.7297 102.376 56.6244 103.429C56.5192 104.482 52.743 105.971 52.3008 105.619Z" fill="white" fill-opacity="0.8"/>
<path d="M50.5195 107.247C50.5195 106.981 50.9362 106.18 51.1445 106.18C51.3529 106.18 51.5612 106.447 51.5612 106.714C51.5612 106.981 51.1445 107.781 50.9362 107.781C50.7279 107.781 50.5195 107.514 50.5195 107.247Z" fill="white" fill-opacity="0.8"/>
<ellipse cx="33.0729" cy="137.928" rx="12.7604" ry="13.0724" fill="#A5D1FF" fill-opacity="0.5"/>
<path d="M25.3893 131.572C25.0402 131.268 25.8571 129.364 26.8089 128.956C27.7606 128.549 29.1229 129.084 29 129.941C28.8771 130.798 25.7384 131.876 25.3893 131.572Z" fill="white" fill-opacity="0.8"/>
<path d="M23.8719 132.918C23.8795 132.741 24.3186 132.226 24.5267 132.236C24.7349 132.245 24.9354 132.432 24.9278 132.61C24.9202 132.787 24.4811 133.302 24.273 133.292C24.0649 133.283 23.8643 133.096 23.8719 132.918Z" fill="white" fill-opacity="0.8"/>
<path d="M17.73 71.611C17.2074 71.1946 18.2687 68.3938 19.617 67.7443C20.9653 67.0949 22.9641 67.7788 22.8397 69.0232C22.7153 70.2675 18.2526 72.0274 17.73 71.611Z" fill="white" fill-opacity="0.8"/>
<path d="M15.625 73.6326C15.625 73.3658 16.1458 72.5654 16.4063 72.5654C16.6667 72.5654 16.9271 72.8322 16.9271 73.099C16.9271 73.3658 16.4063 74.1661 16.1458 74.1661C15.8854 74.1661 15.625 73.8994 15.625 73.6326Z" fill="white" fill-opacity="0.8"/>
<ellipse cx="36.1979" cy="28.546" rx="11.1979" ry="11.4717" fill="#A5D1FF" fill-opacity="0.5"/>
<path d="M29.9466 23.2223C29.6067 22.9507 30.297 21.1238 31.1741 20.7002C32.0511 20.2766 33.3513 20.7227 33.2703 21.5344C33.1894 22.346 30.2866 23.4939 29.9466 23.2223Z" fill="white" fill-opacity="0.8"/>
<path d="M28.6445 24.5442C28.6445 24.2774 28.8529 23.4771 28.957 23.4771C29.0612 23.4771 29.1654 23.7438 29.1654 24.0106C29.1654 24.2774 28.957 25.0778 28.8529 25.0778C28.7487 25.0778 28.6445 24.811 28.6445 24.5442Z" fill="white" fill-opacity="0.8"/>
<ellipse cx="8.58092" cy="9.07068" rx="8.58092" ry="9.07068" fill="#A5D1FF" fill-opacity="0.5"/>
<path d="M3.41343 4.66047C3.17864 4.44938 3.728 3.12809 4.36803 2.84546C5.00806 2.56283 5.92411 2.93412 5.84148 3.52863C5.75885 4.12315 3.64821 4.87156 3.41343 4.66047Z" fill="white" fill-opacity="0.8"/>
<path d="M2.39362 5.59473C2.39873 5.47144 2.69399 5.11453 2.83395 5.12101C2.97391 5.1275 3.10876 5.25727 3.10365 5.38057C3.09854 5.50386 2.80328 5.86077 2.66332 5.85428C2.52336 5.8478 2.38851 5.71802 2.39362 5.59473Z" fill="white" fill-opacity="0.8"/>
<ellipse cx="64.0612" cy="63.6937" rx="7.29167" ry="7.66925" fill="#A5D1FF" fill-opacity="0.5"/>
<path d="M59.4294 60.0245C59.2076 59.8432 59.6579 58.6232 60.2299 58.3404C60.8019 58.0575 61.6499 58.3554 61.5971 58.8974C61.5443 59.4394 59.6511 60.2059 59.4294 60.0245Z" fill="white" fill-opacity="0.8"/>
<path d="M58.5371 60.9047C58.5371 60.7885 58.7581 60.4399 58.8685 60.4399C58.979 60.4399 59.0895 60.5561 59.0895 60.6723C59.0895 60.7885 58.8685 61.1371 58.7581 61.1371C58.6476 61.1371 58.5371 61.0209 58.5371 60.9047Z" fill="white" fill-opacity="0.8"/>
</svg>
