<svg width="124" height="105" viewBox="0 0 124 105" fill="none" xmlns="http://www.w3.org/2000/svg">
<ellipse cx="110.76" cy="13.0724" rx="12.7604" ry="13.0724" fill="#A5D1FF" fill-opacity="0.5"/>
<path d="M103.077 6.71665C102.728 6.41243 103.545 4.50821 104.496 4.1009C105.448 3.69358 106.81 4.22867 106.687 5.08547C106.565 5.94227 103.426 7.02086 103.077 6.71665Z" fill="white" fill-opacity="0.8"/>
<path d="M101.561 8.06328C101.569 7.8856 102.008 7.37123 102.216 7.38057C102.424 7.38992 102.625 7.57695 102.617 7.75463C102.61 7.93232 102.171 8.44669 101.962 8.43734C101.754 8.428 101.554 8.24097 101.561 8.06328Z" fill="white" fill-opacity="0.8"/>
<ellipse cx="77.1875" cy="69.6078" rx="17.1875" ry="17.6078" fill="#A5D1FF" fill-opacity="0.5"/>
<path d="M66.2729 61.1832C65.7503 60.7669 66.8117 57.966 68.16 57.3166C69.5083 56.6672 71.5071 57.3511 71.3827 58.5954C71.2583 59.8398 66.7955 61.5996 66.2729 61.1832Z" fill="white" fill-opacity="0.8"/>
<path d="M64.168 63.2048C64.168 62.938 64.6888 62.1377 64.9492 62.1377C65.2096 62.1377 65.4701 62.4045 65.4701 62.6713C65.4701 62.938 64.9492 63.7384 64.6888 63.7384C64.4284 63.7384 64.168 63.4716 64.168 63.2048Z" fill="white" fill-opacity="0.8"/>
<ellipse cx="60.1979" cy="16.4717" rx="11.1979" ry="11.4717" fill="#A5D1FF" fill-opacity="0.5"/>
<path d="M53.9466 11.1481C53.6067 10.8765 54.297 9.04961 55.1741 8.626C56.0511 8.20238 57.3513 8.64848 57.2703 9.46015C57.1894 10.2718 54.2866 11.4197 53.9466 11.1481Z" fill="white" fill-opacity="0.8"/>
<path d="M52.6445 12.47C52.6445 12.2032 52.8529 11.4028 52.957 11.4028C53.0612 11.4028 53.1654 11.6696 53.1654 11.9364C53.1654 12.2032 52.957 13.0035 52.8529 13.0035C52.7487 13.0035 52.6445 12.7368 52.6445 12.47Z" fill="white" fill-opacity="0.8"/>
<ellipse cx="8.58092" cy="95.0707" rx="8.58092" ry="9.07068" fill="#A5D1FF" fill-opacity="0.5"/>
<path d="M3.41343 90.6605C3.17864 90.4494 3.728 89.1281 4.36803 88.8455C5.00806 88.5628 5.92411 88.9341 5.84148 89.5286C5.75885 90.1232 3.64821 90.8716 3.41343 90.6605Z" fill="white" fill-opacity="0.8"/>
<path d="M2.39362 91.5947C2.39873 91.4714 2.69399 91.1145 2.83395 91.121C2.97391 91.1275 3.10876 91.2573 3.10365 91.3806C3.09854 91.5039 2.80328 91.8608 2.66332 91.8543C2.52336 91.8478 2.38851 91.718 2.39362 91.5947Z" fill="white" fill-opacity="0.8"/>
<ellipse cx="30.2917" cy="57.6693" rx="7.29167" ry="7.66925" fill="#A5D1FF" fill-opacity="0.5"/>
</svg>
