<svg width="120" height="167" viewBox="0 0 120 167" fill="none" xmlns="http://www.w3.org/2000/svg">
<ellipse cx="12.7585" cy="12.8122" rx="12.7585" ry="12.8122" transform="matrix(0.999998 -0.00174233 -0.00177746 0.999998 21.9277 0.884277)" fill="#A5D1FF" fill-opacity="0.5"/>
<path d="M26.9922 7.4586C26.6437 7.16105 27.4638 5.29332 28.4161 4.89246C29.3685 4.4916 30.7296 5.01366 30.6052 5.85361C30.4809 6.69357 27.3408 7.75615 26.9922 7.4586Z" fill="white" fill-opacity="0.8"/>
<path d="M25.4742 8.7814C25.4821 8.60717 25.922 8.10206 26.1301 8.11086C26.3382 8.11966 26.5384 8.30268 26.5305 8.47692C26.5226 8.65115 26.0826 9.15625 25.8746 9.14746C25.6665 9.13866 25.4663 8.95563 25.4742 8.7814Z" fill="white" fill-opacity="0.8"/>
<ellipse cx="17.1849" cy="17.2572" rx="17.1849" ry="17.2572" transform="matrix(0.999998 -0.00174234 -0.00177746 0.999998 0.833984 55.8057)" fill="#A5D1FF" fill-opacity="0.5"/>
<path d="M7.08871 64.795C6.56691 64.3878 7.63294 61.6409 8.98218 61.0021C10.3314 60.3632 12.3287 61.03 12.2022 62.2498C12.0756 63.4697 7.61051 65.2022 7.08871 64.795Z" fill="white" fill-opacity="0.8"/>
<path d="M4.98056 66.7807C4.98103 66.5191 5.50318 65.7335 5.76356 65.733C6.02393 65.7326 6.28385 65.9937 6.28338 66.2553C6.28292 66.5168 5.76077 67.3025 5.50039 67.3029C5.24001 67.3034 4.9801 67.0423 4.98056 66.7807Z" fill="white" fill-opacity="0.8"/>
<ellipse cx="11.1962" cy="11.2433" rx="11.1962" ry="11.2433" transform="matrix(0.999998 -0.00174234 -0.00177746 0.999998 51.8262 55.7168)" fill="#A5D1FF" fill-opacity="0.5"/>
<path d="M56.7628 61.7349C56.4234 61.4692 57.1167 59.6768 57.9944 59.26C58.872 58.8431 60.1712 59.2783 60.0889 60.0743C60.0066 60.8702 57.1022 62.0006 56.7628 61.7349Z" fill="white" fill-opacity="0.8"/>
<path d="M55.4591 63.0322C55.4595 62.7706 55.6692 61.9855 55.7734 61.9853C55.8775 61.9851 55.9812 62.2465 55.9808 62.5081C55.9803 62.7697 55.7706 63.5548 55.6665 63.555C55.5623 63.5551 55.4586 63.2937 55.4591 63.0322Z" fill="white" fill-opacity="0.8"/>
<ellipse cx="8.57963" cy="8.89008" rx="8.57963" ry="8.89008" transform="matrix(0.999998 -0.00174234 -0.00177746 0.999998 71.7422 100.767)" fill="#A5D1FF" fill-opacity="0.5"/>
<path d="M75.1486 105.329C74.9142 105.122 75.4658 103.826 76.1062 103.548C76.7466 103.27 77.6619 103.632 77.5783 104.215C77.4946 104.798 75.383 105.536 75.1486 105.329Z" fill="white" fill-opacity="0.8"/>
<path d="M74.1271 106.246C74.1324 106.125 74.4283 105.774 74.5682 105.781C74.7082 105.787 74.8428 105.914 74.8374 106.035C74.8321 106.156 74.5362 106.507 74.3963 106.5C74.2564 106.494 74.1218 106.367 74.1271 106.246Z" fill="white" fill-opacity="0.8"/>
<ellipse cx="7.29057" cy="7.51655" rx="7.29057" ry="7.51655" transform="matrix(0.999998 -0.00174234 -0.00177746 0.999998 94.8008 65.4434)" fill="#A5D1FF" fill-opacity="0.5"/>
<path d="M97.4539 69.3595C97.2326 69.1821 97.6848 67.9852 98.2573 67.7069C98.8297 67.4286 99.677 67.7192 99.6233 68.2507C99.5696 68.7822 97.6753 69.537 97.4539 69.3595Z" fill="white" fill-opacity="0.8"/>
<path d="M96.5597 70.2242C96.5599 70.1101 96.7815 69.7677 96.8919 69.7675C97.0024 69.7673 97.1127 69.8811 97.1125 69.9952C97.1123 70.1092 96.8907 70.4517 96.7803 70.4518C96.6698 70.452 96.5595 70.3382 96.5597 70.2242Z" fill="white" fill-opacity="0.8"/>
<ellipse cx="114.5" cy="161.472" rx="5.5" ry="5.47173" fill="#A5D1FF" fill-opacity="0.5"/>
<path d="M111.429 158.932C111.262 158.803 111.601 157.931 112.032 157.729C112.463 157.527 113.101 157.74 113.062 158.127C113.022 158.514 111.596 159.062 111.429 158.932Z" fill="white" fill-opacity="0.8"/>
<path d="M110.791 159.562C110.791 159.435 110.893 159.053 110.945 159.053C110.996 159.053 111.047 159.18 111.047 159.308C111.047 159.435 110.945 159.817 110.893 159.817C110.842 159.817 110.791 159.689 110.791 159.562Z" fill="white" fill-opacity="0.8"/>
</svg>
