<svg width="218" height="265" viewBox="0 0 218 265" fill="none" xmlns="http://www.w3.org/2000/svg">
<path d="M50.2368 76.8863C48.9125 76.9183 49.5744 84.1346 50.686 85.4382C51.7976 86.7418 62.0895 88.8295 62.5453 87.7077C63.0011 86.5859 61.6402 80.2777 59.369 79.0421C57.0978 77.8065 51.561 76.8542 50.2368 76.8863Z" fill="#F98938"/>
<path d="M57.8704 73.5472C56.8869 73.1882 54.0528 80.9747 54.2666 82.6755C54.4804 84.3763 61.0496 89.6242 61.8989 88.5794C62.7482 87.5347 64.6532 80.4961 63.5598 78.5229C62.4664 76.5498 58.8538 73.9062 57.8704 73.5472Z" fill="#F98938"/>
<path d="M64.1334 71.2525C63.5179 70.544 58.9932 78.0407 58.6209 79.9495C58.2486 81.8583 61.471 89.6726 62.425 88.8195C63.379 87.9664 66.9834 80.9758 66.79 78.486C66.5966 75.9963 64.7489 71.961 64.1334 71.2525Z" fill="#F98938"/>
<path d="M198.229 35.3504C197.864 34.6028 193.591 37.2425 193.079 38.287C192.566 39.3315 193.97 45.8741 194.78 45.7834C195.59 45.6927 199.12 42.9375 199.288 41.2509C199.455 39.5643 198.595 36.098 198.229 35.3504Z" fill="#EB71C9"/>
<path d="M202.376 38.6802C202.339 38.0052 196.743 38.8136 195.741 39.467C194.738 40.1203 193.21 45.5189 194.085 45.6789C194.96 45.8389 199.845 44.7322 200.784 43.4903C201.723 42.2485 202.412 39.3552 202.376 38.6802Z" fill="#EB71C9"/>
<path d="M205.505 41.5395C205.789 40.979 199.933 40.7951 198.643 41.1803C197.354 41.5654 193.301 45.7715 194.081 46.0357C194.861 46.2999 200.163 46.1307 201.669 45.2522C203.176 44.3737 205.221 42.1 205.505 41.5395Z" fill="#EB71C9"/>
<path d="M146.491 24.1422L152.448 20.4934L154.518 23.9769L153.378 28.6138L146.491 24.1422Z" fill="#71A580"/>
<path d="M52.8518 192.511L60.2499 185.803L63.6766 191.703L63.5332 196.852L52.8518 192.511Z" fill="#71A580"/>
<path d="M119.613 149.553L110.56 143.397L107.656 150.398L108.549 156.008L119.613 149.553Z" fill="#71A580"/>
<path d="M205.072 60.0097L197.224 52.2322L194.314 51.6084L194.229 57.2939L205.072 60.0097Z" fill="#71A580"/>
<path d="M24.4429 135.621L23.733 125.348L30.2605 125.942L34.0952 129.124L24.4429 135.621Z" fill="#71A580"/>
<path d="M20.6475 80.2513L26.8088 88.2337L21.1404 91.7047L16.2716 91.4238L20.6475 80.2513Z" fill="#71A580"/>
<path d="M124.724 68.081L111.708 105.969L114.909 118.74L145.495 111.093C170.563 103.55 175.987 68.9439 175.748 60.9569C175.728 60.2932 175.504 59.6771 175.145 59.1347C163.747 41.9179 131.665 51.9346 124.724 68.081Z" fill="#BED9AA"/>
<path d="M17.5867 126.625L45.347 136.416L54.553 133.568L47.8207 110.565C42.7381 93.4134 28.6743 84.6541 19.5299 85.3915C15.6625 85.7034 12.7361 89.0231 11.0253 92.6532C4.23963 107.051 10.0588 123.376 17.5867 126.625Z" fill="#BED9AA"/>
<path d="M152.437 28.5515L164.546 52.6087L171.805 55.0967L177.129 31.757C181.703 11.4556 168.829 4.23735 165.475 2.19025C165.166 2.00144 164.787 1.9766 164.466 2.13511C154.541 7.0377 145.146 12.6939 152.437 28.5515Z" fill="#BED9AA"/>
<path d="M179.926 40.7472L171.045 55.2694L171.707 59.9522L189.018 63.5795C191.868 62.7831 193.992 61.0941 195.57 58.9347C197.431 56.3867 181.802 38.2096 179.926 40.7472Z" fill="#BED9AA"/>
<path d="M47.105 157.812L71.5945 229.163L87.5089 237.438L107.948 168.052C125.101 109.377 109.666 86.5806 91.0717 78.4905C87.8329 77.0814 84.2048 77.0425 80.8829 78.0807C35.3654 92.3074 40.7327 135.225 47.105 157.812Z" fill="#BED9AA"/>
<path d="M110.805 117.872C156.742 116.745 165.147 82.1855 162.172 50.4623C212.268 74.2669 143.564 137.295 105.295 120.15L110.805 117.872Z" fill="#B4CCA1"/>
<path d="M165.836 52.7378C168.925 54.1182 173.795 28.7655 165.361 2.16223C190.187 4.04469 174.321 61.4505 168.687 55.4987L165.836 52.7378Z" fill="#B4CCA1"/>
<path d="M171.506 59.02C170.952 61.6579 195.742 54.6507 195.957 45.3162C214.725 69.9046 164.255 65.6467 167.443 59.9114L171.506 59.02Z" fill="#B4CCA1"/>
<path d="M65.3955 236.096C93.1095 184.971 126.251 87.8478 87.4868 78.1699C140.135 88.7081 110.201 184.638 88.0225 231.696L65.3955 236.096Z" fill="#B4CCA1"/>
<path d="M31.3499 88.748C42.9718 108.169 36.1412 125.689 25.6162 129.292C29.2926 133.426 35.0065 132.966 43.0608 134.95C41.6377 124.801 45.0373 112.449 46.915 107.542C37.7835 91.8803 32.7335 88.487 31.3499 88.748Z" fill="#B4CCA1"/>
<path d="M69.105 160.369L63.2783 152.111L68.3944 154.813L73.9369 149.408L69.105 160.369Z" fill="#71A580"/>
<path d="M82.3341 202.15L80.9038 191.961L84.1984 196.901L91.5029 194.914L82.3341 202.15Z" fill="#71A580"/>
<path d="M73.287 105.317L72.5644 95.045L75.5089 100.226L82.9312 98.807L73.287 105.317Z" fill="#71A580"/>
<path d="M94.2267 131.4L89.8879 122.176L94.4656 125.8L100.832 121.526L94.2267 131.4Z" fill="#71A580"/>
<path d="M124.572 100.503L127.148 93.7567L127.484 98.0104L132.605 99.5588L124.572 100.503Z" fill="#71A580"/>
<path d="M147.565 89.6699L150.142 82.9235L150.477 87.1771L155.599 88.7256L147.565 89.6699Z" fill="#71A580"/>
<path d="M170.905 28.3113L164.541 25.5192L168.574 25.2115L170.097 19.823L170.905 28.3113Z" fill="#71A580"/>
<path d="M27.224 103.14L22.2399 100.36L25.5461 100.427L27.1672 96.15L27.224 103.14Z" fill="#71A580"/>
<path d="M36.7277 120.727L30.427 120.744L34.3189 119.745L34.3518 115.488L36.7277 120.727Z" fill="#71A580"/>
<path fill-rule="evenodd" clip-rule="evenodd" d="M161.273 257.585H15.8203C23.9007 237.272 51.7645 224.791 86.6487 224.716C86.8546 224.716 87.0617 224.748 87.258 224.81C93.7265 226.864 100.23 228.732 106.569 230.552C131.063 237.586 153.112 243.917 161.273 257.585Z" fill="#FFE8BC"/>
<ellipse cx="105.643" cy="256.126" rx="42.0598" ry="8.54448" fill="#FFE8BC"/>
<path d="M130.947 234.945L154.812 249.249L161.328 257.376L151.06 261.961L137.04 263.003L130.947 261.961L125.587 259.044L123.02 254.042L120.058 252.415L114.292 249.249C114.292 249.249 113.082 245.374 113.146 243.337C113.209 241.3 117.796 239.829 116.467 239.06C115.138 238.29 109.381 236.412 105.87 236.231C102.359 236.05 92.5734 237.532 90.8336 236.536C89.0937 235.54 92.8168 231.104 92.2158 230.492C91.6148 229.881 87.4278 227.987 88.6615 227.783C89.8952 227.58 95.2727 227.262 94.039 226.741C92.8053 226.221 85.4766 224.981 86.8843 224.757C88.292 224.533 94.039 224.757 94.039 224.757L103.529 226.115L117.954 229.328L130.947 234.945Z" fill="#EFD59E"/>
</svg>
