<svg width="226" height="599" viewBox="0 0 226 599" fill="none" xmlns="http://www.w3.org/2000/svg">
<ellipse cx="338.245" cy="278.458" rx="186.5" ry="71.5" transform="rotate(-10.361 338.245 278.458)" fill="#D8AA58"/>
<ellipse cx="159.461" cy="248.557" rx="22.5" ry="75.5" transform="rotate(-2.18495 159.461 248.557)" fill="#D8AA58"/>
<path d="M46.5617 149.05C42.7138 149.754 38.4401 149.993 36.2597 153.774C34.1838 157.373 35.0591 163.278 36.5567 167.047C39.1601 173.599 58.9948 150.858 61.3814 147.503C61.643 147.135 63.6107 145.332 62.9688 144.889C61.9325 144.173 59.8413 144.83 58.7441 145.08C53.8967 146.186 50.9698 152.886 48.2755 156.482C46.8123 158.435 46.0427 158.795 45.8211 161.061C45.6971 162.329 42.8989 161.426 42.4563 160.837C41.2903 159.286 44.5211 156.483 45.421 155.519C46.9257 153.908 47.5361 151.947 45.2383 154.52C42.1734 157.952 38.797 161.491 35.2915 156.597C33.6382 154.289 33.785 151.001 32.1208 148.786C31.4613 147.909 29.7546 148.638 28.8017 148.812C25.5546 149.406 23.4986 151.046 20.8642 152.877C17.7458 155.045 15.721 162.418 15.366 166.049C14.9056 170.757 14.6945 176.418 16.9252 180.931C18.7309 184.583 22.039 187.224 26.3854 186.43C30.3647 185.702 32.2339 184.887 35.2708 181.901C40.5597 176.7 42.4791 168.466 46.677 162.389" stroke="#D8AA58" stroke-width="10" stroke-linecap="round"/>
<path d="M26.1615 155.415C23.6286 163.923 20.1946 172.822 21.8352 181.795C21.9718 182.542 22.2655 182.696 23.0623 182.654C25.5846 182.52 27.2853 181.136 28.7621 179.151C32.3022 174.391 33.7063 167.409 33.0464 161.54C32.916 160.381 32.2313 159.169 30.9103 160.245C29.8127 161.14 30.4519 163.815 30.603 164.93C31.0348 168.116 31.71 171.277 32.2882 174.44C32.4789 175.483 32.6213 175.742 32.2072 174.655C31.7131 173.358 31.3578 172.594 30.1354 171.81C29.5558 171.439 27.298 170.85 27.5549 172.255" stroke="#D8AA58" stroke-width="10" stroke-linecap="round"/>
<path d="M91.7855 112.133C89.7733 112.501 88.8142 113.4 87.4678 114.908C86.4905 116.003 84.6726 117.121 83.9929 118.383C83.2532 119.757 81.6013 120.463 80.6629 121.672C79.2193 123.532 76.9439 124.948 75.084 126.346C71.5132 129.029 67.5532 130.611 63.7558 132.805C60.1869 134.867 56.2468 136.313 52.5977 138.24C49.6533 139.795 45.7953 141.551 42.5249 142.226C39.4771 142.856 35.2767 143.667 32.6206 145.288C30.2496 146.735 27.3684 147.426 25.0772 148.99C23.7598 149.89 21.8613 151.426 21.2464 152.907C21.147 153.147 20.7087 153.57 20.4117 153.338C19.828 152.882 22.7924 151.311 22.8904 151.257C28.8218 147.996 35.2618 146.295 41.4432 143.695C50.3698 139.94 58.912 135.346 68.4609 133.235C68.8439 133.151 76.6808 131.387 76.7736 131.894C77.0679 133.504 72.9879 137.45 72.2832 138.394C68.4945 143.469 64.6538 148.43 60.4267 153.15C58.4848 155.319 56.4298 157.415 54.3761 159.479C54.2076 159.648 52.0159 161.432 52.8026 160.104C54.1714 157.794 56.7453 155.959 58.588 154.062C62.4174 150.121 65.8219 145.856 69.0647 141.425C70.2545 139.799 71.534 138.076 72.2321 136.16C72.5077 135.403 70.578 136.025 70.2718 136.081C66.4124 136.787 63.5095 138.103 62.9473 142.067" stroke="#D8AA58" stroke-width="10" stroke-linecap="round"/>
<path d="M29.1897 190.055C29.9821 189.999 32.4235 191.513 33.2918 191.966C34.5934 192.644 36.6754 192.26 38.0455 192.01C45.6444 190.621 51.3631 185.295 58.1576 181.9C62.0092 179.975 65.8523 178.142 69.7802 176.399C73.9473 174.55 79.0222 174.153 83.4773 173.339C91.31 171.907 98.7106 171.636 106.661 172.317C110.812 172.672 114.882 173.2 119.046 173.269" stroke="#D8AA58" stroke-width="10" stroke-linecap="round"/>
<path d="M35.9464 185.96C39.2329 185.36 43.1019 185.211 46.1784 183.931C49.6932 182.468 51.9719 179.548 55.1326 177.628C59.5891 174.92 63.428 171.416 68.1096 169C71.7334 167.131 75.5762 166.206 79.5578 165.478C81.3447 165.151 83.1316 164.824 84.9184 164.498C90.6068 163.458 73.4819 166.231 67.7935 167.271C59.3047 168.823 49.4521 169.266 41.7394 173.444C41.362 173.649 36.1561 176.725 37.646 176.794C43.022 177.041 48.4783 175.706 52.7884 172.516C54.2367 171.445 55.678 170.39 56.9516 169.114C57.2236 168.842 58.0009 168.473 57.259 169.058C56.3803 169.751 47.8822 175.382 47.5073 174.475C47.0711 173.419 53.6668 168.238 54.4414 167.548C58.4952 163.938 62.4362 160.191 66.5707 156.673C68.4065 155.111 70.488 153.008 72.5633 151.765C73.7098 151.079 74.7096 149.078 74.1331 150.902C73.7067 152.252 71.2119 164.915 67.9346 161.527" stroke="#D8AA58" stroke-width="10" stroke-linecap="round"/>
<path d="M92.3491 173.861C92.6486 175.499 93.7521 176.252 94.9503 177.337C97.2222 179.394 99.6486 181.321 102.173 183.065C108.263 187.273 116.449 189.51 123.848 188.455C131.488 187.365 140.077 186.255 147.008 182.632C149.555 181.3 152.299 179.812 154.491 177.948C155.328 177.236 156.82 176.568 156.595 175.339" stroke="#D8AA58" stroke-width="10" stroke-linecap="round"/>
<path d="M132.921 180.74C138.739 212.563 143.863 244.497 149.681 276.319" stroke="#D8AA58" stroke-width="10" stroke-linecap="round"/>
<path d="M140.087 176.928C141.668 185.575 146.064 211.576 144.484 202.929" stroke="#D8AA58" stroke-width="10" stroke-linecap="round"/>
<path d="M131.858 186.653C132.678 191.136 133.497 195.619 134.317 200.102C135.603 207.135 136.046 214.293 137.152 221.366C139.849 238.6 142.365 255.852 145.503 273.013C145.64 273.763 146.557 279.6 146.32 279.436" stroke="#D8AA58" stroke-width="10" stroke-linecap="round"/>
<path d="M171.866 131.803C173.31 139.699 174.217 147.548 175.205 155.496C176.219 163.641 176.999 171.799 177.696 179.979C180.67 214.86 183.236 249.76 186.736 284.595C187.718 294.367 188.836 304.124 189.81 313.897C190.054 316.348 190.169 317.079 190.006 318.984" stroke="#D8AA58" stroke-width="10" stroke-linecap="round"/>
<path d="M162.935 163.1C164.015 169.005 165.094 174.91 166.174 180.815C166.653 183.435 167.132 186.054 167.611 188.674C167.68 189.053 167.724 189.348 167.833 188.693C169.395 179.295 170.546 169.638 170.788 160.116C170.796 159.822 170.642 157.68 170.913 157.432C172.071 156.376 171.366 160.54 171.411 162.107C171.575 167.878 171.646 173.652 171.836 179.423C172.147 188.872 172.282 198.326 172.255 207.78C172.254 208.454 172.256 209.007 172.163 209.663" stroke="#D8AA58" stroke-width="10" stroke-linecap="round"/>
<path d="M175.621 209.031C176.226 212.339 177.179 215.168 178.761 218.166C183.869 227.851 190.191 236.907 196.558 245.788C202.123 253.549 207.234 261.603 212.996 269.231C214.765 271.573 217.485 273.875 218.706 276.566" stroke="#D8AA58" stroke-width="10" stroke-linecap="round"/>
<path d="M177.105 215.193C177.453 216.413 178.087 217.436 178.852 218.447C182.149 222.809 185.814 226.92 189.207 231.208C197.576 241.785 205.684 252.563 214.583 262.706C218.711 267.41 223.442 271.859 227.113 276.935C228.075 278.265 228.665 279.84 229.874 280.958" stroke="#D8AA58" stroke-width="10" stroke-linecap="round"/>
<path d="M183.291 237.293C184.528 244.063 185.766 250.832 187.004 257.602C187.419 259.871 188.246 264.396 187.309 259.274C186.401 254.307 184.637 249.989 182.982 245.272C182.932 245.13 182.154 243.392 182.318 243.269C183.047 242.721 186.211 246.204 186.577 246.581C190.18 250.292 193.503 254.42 196.294 258.783C197.549 260.745 194.929 256.428 194.567 255.961C193.985 255.211 189.607 249.378 188.317 250.015C187.963 250.19 188.431 251.725 188.494 252.068" stroke="#D8AA58" stroke-width="10" stroke-linecap="round"/>
<path d="M203.298 245.072C208.344 244.15 213.552 243.586 218.326 241.689C223.5 239.633 228.582 236.905 233.384 234.131C238.585 231.127 241.995 227.353 245.448 222.355C250.969 214.364 255.652 205.697 260.969 197.557C264.809 191.677 268.442 185.666 271.849 179.524C272.599 178.171 276.88 172.625 275.678 171.795" stroke="#D8AA58" stroke-width="10" stroke-linecap="round"/>
<path d="M341.117 119.855C337.712 120.478 337.703 119.771 334.424 120.501C331.963 121.048 329.815 122.444 327.41 123.097C325.545 123.603 324.312 125.022 322.817 125.981C319.237 128.278 316.001 131.526 313.352 134.428C309.886 138.225 306.564 141.988 303.351 145.893C299.587 150.469 297.095 155.634 293.553 160.218C289.343 165.666 287.742 172.151 282.909 177.446C280.685 179.883 280.223 182.657 278.262 185.11C276.451 187.374 275.269 189.999 273.532 192.326C271.449 195.117 270.042 198.474 268.838 201.483C268.06 203.426 266.29 205.792 265.069 207.647C263.348 210.26 262.86 211.931 260.669 216.398C257.712 222.425 254.812 227.604 252.229 233.697C251.089 236.388 249.508 242.026 246.385 243.916" stroke="#D8AA58" stroke-width="10" stroke-linecap="round"/>
<path d="M187.044 335.956C188.545 335.851 190.864 338.037 191.988 338.924C194.166 340.644 196.412 342.219 198.669 343.815C203.329 347.111 207.131 351.734 211.506 355.405C217.041 360.051 225.572 362.062 230.465 367.291C234.177 368.137 233.276 373.67 233.961 375.293C234.597 376.8 240.845 372.915 242.294 372.455C249.637 370.12 257.073 368.265 264.646 366.881C269.994 365.903 275.213 364.958 280.662 364.768C284.107 364.647 288.71 363.82 292.078 364.799" stroke="#D8AA58" stroke-width="10" stroke-linecap="round"/>
<path d="M214.812 351.419C215.225 352.825 216.544 353.98 217.336 355.195C218.667 357.239 220.185 359.048 221.691 360.96C224.169 364.108 227.349 366.674 230.738 368.761C230.978 368.909 229.917 367.355 229.75 367.148C227.734 364.656 226.216 361.824 224.457 359.15C223.652 357.927 222.895 356.563 221.963 355.429C221.206 354.508 223.999 356.46 224.053 356.494C227.847 358.857 231.74 361.065 235.467 363.535C235.824 363.772 240.247 366.821 238.576 365.046C237.311 363.702 233.357 358.542 231.244 359.051C230.795 359.159 232.078 370.55 233.805 371.052" stroke="#D8AA58" stroke-width="10" stroke-linecap="round"/>
<path d="M250.955 352.513C245.684 353.476 240.413 354.44 235.142 355.404C234.621 355.499 232.399 355.939 232.471 355.953C236.937 356.857 241.301 358.254 245.773 359.165C254.358 360.914 262.53 361.87 271.236 361.804C271.912 361.799 272.7 361.691 273.345 361.969C273.719 362.13 272.529 361.987 272.122 361.968C269.1 361.829 266.105 361.631 263.076 361.748C256.462 362.003 249.918 363.165 243.292 363.205C239.479 363.228 234.627 363.477 231.033 361.799C227.926 360.348 225.106 358.246 222.671 355.85C222.058 355.247 220.777 351.431 222.487 352.277C226.212 354.12 229.306 357.967 233.597 358.437C239.564 359.09 245.508 359.374 251.506 359.543C264.707 359.917 277.87 360.084 290.96 358.015C293.087 357.679 295.213 357.103 297.356 356.886C299.613 356.658 294.107 357.404 293.907 357.415C288.248 357.732 282.587 357.773 276.923 357.912C276.467 357.923 268.212 357.757 268.063 358.269C267.903 358.82 283.755 364.414 285.374 365.129C285.947 365.382 286.772 365.656 285.823 366.025C283.108 367.078 280.063 367.363 277.218 367.883C274.299 368.417 271.381 368.95 268.463 369.484C267.48 369.664 266.247 370.101 265.235 369.993C261.409 369.581 257.555 370.816 253.658 371.09C252.574 371.166 251.522 371.111 250.483 370.774C249.549 370.472 252.318 370.235 252.596 370.184C262.43 368.386 271.985 366.883 281.987 366.441C287.694 366.188 294.556 366.718 300.031 364.609C319.354 357.163 338.559 348.966 359.041 345.221C359.583 345.122 363.571 344.573 361.944 344.609C359.165 344.671 356.442 345.33 353.711 345.829C347.7 346.928 341.89 348.862 336.065 350.726C327.912 353.335 319.669 354.987 311.267 356.523C307.234 357.26 301.531 358.147 297.814 356.049" stroke="#D8AA58" stroke-width="10" stroke-linecap="round"/>
<path d="M262.61 467.931L223.925 369.714L292.054 366.56L262.61 467.931Z" fill="#AE8336"/>
<ellipse cx="117.583" cy="89.0558" rx="15.5" ry="18.5" transform="rotate(-10.361 117.583 89.0558)" fill="#AE8336"/>
<ellipse cx="149.129" cy="91.3988" rx="17.7913" ry="19.5" transform="rotate(19.1977 149.129 91.3988)" fill="#D8AA58"/>
<ellipse cx="123.35" cy="139.873" rx="44.1342" ry="53.2586" transform="rotate(-96.608 123.35 139.873)" fill="#D8AA58"/>
<path fill-rule="evenodd" clip-rule="evenodd" d="M116.27 130.308L113.439 133.403C112.965 133.101 112.51 132.821 112.074 132.565C112.75 133.527 113.086 134.677 112.949 135.868C112.621 138.715 109.713 140.719 106.454 140.343C103.597 140.014 101.418 137.966 101.145 135.549C100.979 135.995 100.817 136.47 100.656 136.974L98.0101 136.669C101.509 126.232 105.681 125.213 116.27 130.308Z" fill="#093B86"/>
<path d="M127.689 192.424L152.233 184.887L132.28 223.098L127.689 192.424Z" fill="#AE8336"/>
<path d="M24.337 191.497L48.2999 183.557L44.0109 187.9L39.0502 191.348L28.5892 195.294L27.5156 194.982L25.7703 193.776L25.0986 192.882L24.337 191.497Z" fill="#AE8336"/>
</svg>
