<svg width="276" height="417" viewBox="0 0 276 417" fill="none" xmlns="http://www.w3.org/2000/svg">
<ellipse cx="246.604" cy="197.782" rx="150.624" ry="57.838" fill="#D8AA58"/>
<ellipse cx="89.2115" cy="41.8648" rx="89.2115" ry="41.8648" transform="matrix(0.0147062 -0.999892 0.999891 0.0147532 210.139 235.837)" fill="#D8AA58"/>
<ellipse cx="56.1864" cy="19.1793" rx="56.1864" ry="19.1793" transform="matrix(0.716725 -0.697356 0.696213 0.717835 166.527 139.842)" fill="#D8AA58"/>
<ellipse cx="18.1724" cy="61.0718" rx="18.1724" ry="61.0718" transform="matrix(0.989804 0.142438 -0.141994 0.989868 99.5938 84.937)" fill="#D8AA58"/>
<path d="M33.6682 52.3721C30.5089 52.3721 27.0788 51.9406 24.7975 54.6318C22.6254 57.1941 22.4631 62.0203 23.1054 65.2371C24.222 70.8293 43.2833 55.6192 45.6667 53.2965C45.9279 53.0419 47.7531 51.8939 47.3075 51.4476C46.5882 50.7272 44.8313 50.9459 43.9233 50.9854C39.9116 51.1601 36.6131 56.0654 33.9502 58.535C32.5041 59.8761 31.8404 60.0506 31.3351 61.8218C31.0524 62.8128 28.9605 61.6871 28.6944 61.1542C27.9934 59.7499 30.9673 57.9899 31.8222 57.3537C33.2518 56.2901 34.0215 54.8187 31.8222 56.532C28.8887 58.8173 25.6923 61.1417 23.6181 56.7375C22.6399 54.6604 23.2342 52.0652 22.2337 50.061C21.8372 49.2667 20.3754 49.5988 19.593 49.5988C16.9271 49.5988 15.0554 50.6048 12.6964 51.6787C9.90412 52.95 7.22448 58.5226 6.41518 61.3596C5.3655 65.0393 4.37544 69.5137 5.49222 73.4286C6.39625 76.5978 8.64081 79.1806 12.2093 79.1806C15.4764 79.1806 17.0797 78.8043 19.9263 76.8696C24.8836 73.5003 27.6045 67.2276 31.8222 63.0031" stroke="#D8AA58" stroke-width="10" stroke-linecap="round"/>
<path d="M16.5364 54.469C13.2883 60.8705 9.26758 67.4516 9.26758 74.8307C9.26758 75.4451 9.47856 75.6106 10.1177 75.6929C12.141 75.9534 13.6932 75.0997 15.1549 73.7344C18.6587 70.4618 20.7884 65.1104 21.1166 60.3444C21.1814 59.4027 20.8134 58.339 19.6076 59.0033C18.6057 59.5552 18.7249 61.7771 18.683 62.6861C18.5633 65.2842 18.6405 67.898 18.6405 70.4987C18.6405 71.3563 18.716 71.5837 18.5449 70.6583C18.3407 69.5542 18.1694 68.8946 17.3122 68.0932C16.9056 67.7131 15.1974 66.9164 15.1974 68.0719" stroke="#D8AA58" stroke-width="10" stroke-linecap="round"/>
<path d="M74.9592 29.5752C73.3072 29.5752 72.4146 30.1513 71.1259 31.1552C70.1905 31.8839 68.5838 32.5091 67.8605 33.4146C67.0733 34.4002 65.6583 34.7221 64.7371 35.5476C63.3201 36.8175 61.3067 37.6131 59.6261 38.4548C56.3994 40.0707 53.0235 40.7534 49.6879 41.9466C46.5532 43.0679 43.2126 43.646 40.0338 44.6484C37.4687 45.4572 34.1485 46.2934 31.4522 46.3548C28.9395 46.412 25.4845 46.4466 23.1389 47.3502C21.045 48.1568 18.6556 48.2873 16.6081 49.1988C15.4309 49.7228 13.6994 50.6691 12.9957 51.7584C12.882 51.9344 12.4723 52.2075 12.2701 51.9796C11.8726 51.5317 14.4559 50.7126 14.5416 50.684C19.7275 48.9526 25.0909 48.5359 30.3796 47.366C38.0169 45.6765 45.4707 43.2637 53.3635 42.9736C53.68 42.962 60.1624 42.6985 60.1624 43.1158C60.1624 44.4394 56.3479 46.9859 55.6508 47.6346C51.9037 51.1217 48.1318 54.5107 44.0879 57.6518C42.2301 59.0948 40.293 60.4638 38.3616 61.8072C38.2032 61.9174 36.2029 63.0178 37.0208 62.0758C38.4438 60.4367 40.7552 59.3512 42.4946 58.11C46.1095 55.5305 49.4338 52.6321 52.6536 49.578C53.8351 48.4573 55.1019 47.2723 55.9348 45.8492C56.2636 45.2873 54.6402 45.5016 54.3888 45.5016C51.2201 45.5016 48.7228 46.1266 47.7003 49.1988" stroke="#D8AA58" stroke-width="10" stroke-linecap="round"/>
<path d="M13.9102 82.4735C14.5478 82.5444 16.2675 84.1045 16.8916 84.5907C17.8272 85.3195 19.537 85.3175 20.6618 85.3175C26.9007 85.3175 32.2176 81.9113 38.1087 80.1983C41.4482 79.2272 44.7677 78.328 48.1415 77.5123C51.7207 76.647 55.8101 77.0699 59.4678 77.0699C65.8987 77.0699 71.8176 77.9312 78.0348 79.6295C81.2814 80.5163 84.4376 81.5283 87.7363 82.1891" stroke="#D8AA58" stroke-width="10" stroke-linecap="round"/>
<path d="M19.873 80.1984C22.5713 80.1984 25.6666 80.6433 28.2968 80.072C31.3016 79.4193 33.5361 77.4275 36.3262 76.359C40.2601 74.8525 43.8189 72.6227 47.8891 71.382C51.0396 70.4216 54.227 70.2444 57.496 70.2444C58.9631 70.2444 60.4301 70.2444 61.8972 70.2444C66.5675 70.2444 52.5594 69.96 47.8891 69.96C40.9197 69.96 33.0277 68.8793 26.2934 71.0818C25.9639 71.1896 21.381 72.8803 22.5548 73.1516C26.7899 74.1305 31.3188 73.8615 35.2062 71.9508C36.5125 71.3087 37.8107 70.6796 39.0079 69.8494C39.2635 69.6722 39.9347 69.4918 39.2603 69.8494C38.4616 70.2729 30.8922 73.5172 30.7261 72.7408C30.5329 71.8376 36.5255 68.6741 37.2411 68.2378C40.9862 65.9546 44.6614 63.5469 48.457 61.349C50.1425 60.3731 52.1016 59.0025 53.9309 58.3154C54.9415 57.9358 56.0264 56.4892 55.3033 57.8572C54.7685 58.8689 50.9473 68.5821 48.8356 65.4096" stroke="#D8AA58" stroke-width="10" stroke-linecap="round"/>
<path d="M66.4414 78.7764C66.4414 80.1233 67.2088 80.8828 68.0031 81.9206C69.5092 83.8881 71.1569 85.7746 72.9091 87.5296C77.1364 91.7636 83.3152 94.7345 89.3465 94.9714C95.574 95.216 102.56 95.5824 108.592 93.7074C110.809 93.0181 113.205 92.2332 115.217 91.0688C115.986 90.6241 117.268 90.3095 117.268 89.2992" stroke="#D8AA58" stroke-width="10" stroke-linecap="round"/>
<path d="M97.6753 90.1523C97.6753 116.321 97.1074 142.478 97.1074 168.647" stroke="#D8AA58" stroke-width="10" stroke-linecap="round"/>
<path d="M103.923 88.1616C103.923 95.2723 103.639 116.602 103.639 109.492" stroke="#D8AA58" stroke-width="10" stroke-linecap="round"/>
<path d="M95.972 94.7028C95.972 98.3894 95.972 102.076 95.972 105.763C95.972 111.546 95.2841 117.307 95.1359 123.095C94.7748 137.202 94.2683 151.296 94.2683 165.408C94.2683 166.025 94.1489 170.802 93.9844 170.638" stroke="#D8AA58" stroke-width="10" stroke-linecap="round"/>
<path d="M135.723 56.8776C135.723 63.3713 135.303 69.7485 134.934 76.2168C134.556 82.8457 133.991 89.4504 133.357 96.0615C130.653 124.25 127.622 152.394 125.343 180.623C124.704 188.541 124.175 196.468 123.529 204.386C123.367 206.373 123.352 206.97 122.945 208.463" stroke="#D8AA58" stroke-width="10" stroke-linecap="round"/>
<path d="M124.082 80.4827C124.082 85.3386 124.082 90.1945 124.082 95.0503C124.082 97.2044 124.082 99.3585 124.082 101.513C124.082 101.824 124.074 102.066 124.256 101.56C126.862 94.3093 129.179 86.7924 130.755 79.2503C130.803 79.0178 130.992 77.2907 131.244 77.1331C132.317 76.4613 131.152 79.6723 130.96 80.9251C130.252 85.5418 129.47 90.146 128.783 94.7659C127.658 102.331 126.391 109.872 124.997 117.392C124.898 117.928 124.819 118.368 124.65 118.877" stroke="#D8AA58" stroke-width="10" stroke-linecap="round"/>
<path d="M127.49 118.877C127.49 121.597 127.837 123.987 128.658 126.603C131.309 135.053 135.016 143.178 138.785 151.172C142.078 158.157 144.969 165.31 148.439 172.217C149.505 174.338 151.331 176.566 151.91 178.885" stroke="#D8AA58" stroke-width="10" stroke-linecap="round"/>
<path d="M127.773 123.996C127.872 125.018 128.228 125.924 128.688 126.84C130.674 130.79 132.989 134.595 135.061 138.5C140.174 148.134 145.05 157.89 150.647 167.256C153.242 171.6 156.355 175.828 158.534 180.402C159.105 181.6 159.345 182.939 160.143 184.004" stroke="#D8AA58" stroke-width="10" stroke-linecap="round"/>
<path d="M129.477 142.482C129.477 148.049 129.477 153.616 129.477 159.183C129.477 161.049 129.477 164.769 129.477 160.557C129.477 156.473 128.702 152.78 128.073 148.786C128.054 148.666 127.688 147.17 127.836 147.096C128.495 146.766 130.503 149.997 130.739 150.35C133.062 153.828 135.102 157.596 136.686 161.474C137.398 163.218 135.943 159.401 135.723 158.977C135.37 158.296 132.739 153.017 131.622 153.337C131.316 153.424 131.464 154.713 131.464 154.996" stroke="#D8AA58" stroke-width="10" stroke-linecap="round"/>
<path d="M144.242 151.583C148.385 151.583 152.605 151.892 156.673 151.077C161.082 150.194 165.516 148.762 169.734 147.254C174.302 145.62 177.56 143.113 181.029 139.638C186.576 134.083 191.555 127.867 196.962 122.163C200.866 118.044 204.626 113.789 208.225 109.397C209.017 108.43 213.224 104.639 212.389 103.804" stroke="#D8AA58" stroke-width="10" stroke-linecap="round"/>
<path d="M189.39 138.216C187.774 139.835 186.471 141.746 185.147 143.604C184.825 144.055 184.535 144.526 184.216 144.978C184.026 145.248 183.334 145.8 183.664 145.8C184.399 145.8 186.27 143.731 186.898 143.319C189.88 141.362 192.905 139.406 196.079 137.774C197.405 137.091 195.367 137.363 194.785 137.363" stroke="#D8AA58" stroke-width="10" stroke-linecap="round"/>
<path d="M271.922 71.9942C269.127 71.9942 269.222 71.4306 266.511 71.5339C264.476 71.6114 262.567 72.4099 260.562 72.5795C259.006 72.7112 257.82 73.6605 256.494 74.2062C253.316 75.5131 250.273 77.6268 247.747 79.5508C244.442 82.0678 241.256 84.579 238.136 87.2191C234.481 90.3121 231.751 94.0595 228.271 97.1918C224.135 100.915 221.922 105.843 217.313 109.353C215.192 110.968 214.422 113.108 212.507 114.775C210.74 116.313 209.42 118.23 207.702 119.829C205.642 121.747 204.036 124.213 202.642 126.432C201.742 127.866 199.992 129.491 198.752 130.789C197.006 132.618 196.375 133.877 193.986 137.113C190.761 141.478 187.705 145.177 184.768 149.65C183.471 151.625 181.396 155.882 178.641 156.931" stroke="#D8AA58" stroke-width="10" stroke-linecap="round"/>
<path d="M258.176 115.903C258.446 117.62 260.785 119.562 261.907 120.715C267.963 126.94 274.958 132.27 281.592 137.846C288.373 143.546 295.538 150.032 303.515 154.027" stroke="#D8AA58" stroke-width="10" stroke-linecap="round"/>
<path d="M265.732 131.04C265.732 136.461 269.757 142.719 273.957 145.991C274.361 146.306 273.574 145.034 273.319 144.589C271.476 141.371 269.74 138.092 267.846 134.903C266.386 132.444 264.878 130.061 263.089 127.832C262.656 127.293 261.033 126.212 261.72 126.275C262.399 126.337 263.093 126.818 263.648 127.147C266.576 128.881 269.48 130.693 272.247 132.676C275.936 135.319 280.224 138.018 283.457 141.256C284.118 141.919 280.714 141.645 280.503 141.63C279.343 141.547 277.366 141.799 276.367 141.132" stroke="#D8AA58" stroke-width="10" stroke-linecap="round"/>
<path d="M118.129 221.537C119.337 221.672 120.862 223.749 121.626 224.618C123.106 226.304 124.662 227.884 126.223 229.482C129.447 232.783 131.796 237.014 134.738 240.573C138.46 245.075 144.946 247.916 148.074 252.789C150.9 254.002 149.38 258.274 149.689 259.664C149.975 260.956 155.504 258.774 156.721 258.619C162.894 257.829 169.071 257.435 175.289 257.435C179.68 257.435 183.964 257.443 188.32 258.084C191.075 258.489 194.852 258.501 197.386 259.77" stroke="#D8AA58" stroke-width="10" stroke-linecap="round"/>
<path d="M137.941 237.881C138.065 239.06 138.946 240.172 139.398 241.254C140.159 243.073 141.103 244.734 142.021 246.474C143.532 249.34 145.686 251.844 148.075 253.998C148.244 254.15 147.627 252.759 147.525 252.571C146.285 250.294 145.49 247.82 144.481 245.437C144.02 244.346 143.616 243.15 143.041 242.113C142.573 241.269 144.508 243.229 144.546 243.264C147.217 245.696 149.989 248.02 152.592 250.528C152.841 250.768 155.912 253.838 154.842 252.182C154.032 250.929 151.641 246.247 149.888 246.345C149.515 246.366 148.88 255.617 150.18 256.268" stroke="#D8AA58" stroke-width="10" stroke-linecap="round"/>
<path d="M166.497 244.01C162.17 244.01 157.842 244.01 153.515 244.01C153.087 244.01 151.258 244.037 151.313 244.059C154.73 245.427 157.994 247.174 161.414 248.55C167.981 251.19 174.335 253.14 181.261 254.354C181.798 254.449 182.44 254.477 182.912 254.792C183.186 254.975 182.262 254.688 181.941 254.614C179.56 254.064 177.21 253.47 174.786 253.122C169.494 252.363 164.127 252.336 158.857 251.403C155.824 250.867 151.933 250.36 149.322 248.501C147.064 246.894 145.129 244.811 143.543 242.551C143.143 241.981 142.679 238.759 143.915 239.681C146.607 241.69 148.506 245.201 151.847 246.199C156.493 247.587 161.174 248.677 165.915 249.685C176.348 251.902 186.781 253.95 197.481 254.208C199.219 254.25 200.993 254.102 202.726 254.241C204.553 254.387 200.07 254.18 199.91 254.16C195.368 253.588 190.864 252.798 186.344 252.084C185.98 252.027 179.446 250.694 179.254 251.079C179.046 251.495 190.827 258.252 192.01 259.056C192.429 259.341 193.044 259.68 192.236 259.835C189.927 260.278 187.466 260.062 185.13 260.062C182.734 260.062 180.338 260.062 177.942 260.062C177.135 260.062 176.092 260.231 175.304 259.997C172.324 259.112 169.083 259.535 165.947 259.186C165.075 259.089 164.247 258.892 163.47 258.473C162.772 258.096 165.006 258.311 165.235 258.311C173.309 258.311 181.118 258.504 189.128 259.608C193.7 260.237 199.074 261.657 203.73 260.775C220.163 257.661 236.611 253.933 253.427 253.933C253.872 253.933 257.12 254.076 255.823 253.868C253.606 253.513 251.347 253.641 249.105 253.641C244.169 253.641 239.273 254.334 234.374 254.971C227.518 255.861 220.729 255.976 213.831 255.976C210.52 255.976 205.86 255.851 203.212 253.641" stroke="#D8AA58" stroke-width="10" stroke-linecap="round"/>
<rect width="123.572" height="10.5157" transform="matrix(0.990692 -0.136123 0.135697 0.99075 203.396 255.453)" fill="#D8AA58"/>
<path d="M158.993 337.548L142.526 253.765L197.111 261.167L158.993 337.548Z" fill="#AE8336"/>
<rect width="17.6207" height="97.0692" transform="matrix(0.994599 0.103796 -0.103469 0.994633 153.674 303.346)" fill="#AE8336"/>
<rect width="23.9843" height="149.315" transform="matrix(0.999497 0.0317188 -0.031618 0.9995 196.396 248.794)" fill="#D8AA58"/>
<rect width="21.7876" height="64.7002" transform="matrix(0.93083 -0.365452 0.364443 0.931226 172.705 249.021)" fill="#D8AA58"/>
<path d="M335.003 315.077L273.497 255.923L351.137 231.214L335.003 315.077Z" fill="#AE8336"/>
<ellipse cx="98.8074" cy="14.9651" rx="12.5183" ry="14.9651" fill="#AE8336"/>
<ellipse cx="14.3744" cy="15.7679" rx="14.3744" ry="15.7679" transform="matrix(0.869513 0.49391 -0.49272 0.870188 118.799 0.598145)" fill="#D8AA58"/>
<path d="M175.129 405.675L199.762 387.474L223.587 404.462V415.787L175.129 417V405.675Z" fill="#D8AA58"/>
<path d="M132.324 406.046L151.62 389.092L170.283 404.916V415.465L132.324 416.596V406.046Z" fill="#AE8336"/>
<ellipse cx="35.7009" cy="43.0138" rx="35.7009" ry="43.0138" transform="matrix(0.0653519 -0.997862 0.997849 0.0655597 50.752 89.0455)" fill="#D8AA58"/>
<path fill-rule="evenodd" clip-rule="evenodd" d="M91.7715 47.6023L89.0732 49.6522C88.7399 49.3422 88.4186 49.0532 88.1085 48.7851C88.5071 49.6497 88.6079 50.6143 88.326 51.5426C87.6526 53.7594 85.0513 54.9293 82.5157 54.1556C80.2935 53.4776 78.8593 51.5317 78.9919 49.5687C78.7964 49.8992 78.5988 50.2529 78.398 50.6293L76.3401 50.0014C80.6334 42.2091 84.096 42.0067 91.7715 47.6023Z" fill="#093B86"/>
<path d="M239.571 108.791L237.956 87.3543L238.428 74.2329L255.32 74.8159L244.82 92.2078L239.571 108.791Z" fill="#AE8336"/>
<path d="M208.661 103.858L218.634 85.2773L228.671 75.0153L240.152 84.6529L221.944 93.1203L208.661 103.858Z" fill="#AE8336"/>
<path d="M266.434 108.005L267.843 86.5376L267.193 73.4233L249.714 74.3088L260.796 91.5145L266.434 108.005Z" fill="#AE8336"/>
<path d="M292.922 93.0261C296.153 98.2841 297.339 101.154 297.364 101.924C297.471 105.247 268 76.4432 256.411 76.4432C242.137 76.4432 208.808 106.122 222.086 83.7235C229.759 70.7807 242.137 58.2424 256.411 58.2424C270.684 58.2424 286.865 78.87 292.922 93.0261Z" fill="#AE8336"/>
<path d="M91.8213 98.6886L112.416 96.2618L91.0137 123.765L91.8213 98.6886Z" fill="#AE8336"/>
<path d="M9.8457 82.9146L30.0366 80.0834L25.9984 82.9146L21.5564 84.9369L12.6724 86.5548L11.8648 86.1503L10.6533 84.9369L10.2495 84.128L9.8457 82.9146Z" fill="#AE8336"/>
</svg>
