<svg width="1440" height="14383" viewBox="0 0 1440 14383" fill="none" xmlns="http://www.w3.org/2000/svg">
<g clip-path="url(#clip0_711_1694)">
<rect width="1440" height="14383" fill="#093B86"/>
<ellipse cx="340.5" cy="384.5" rx="562.5" ry="14.5" fill="#3363AB"/>
<ellipse cx="489.527" cy="543.024" rx="148.294" ry="18" transform="rotate(0.782498 489.527 543.024)" fill="#3363AB"/>
<ellipse cx="397.5" cy="523" rx="224.5" ry="18" fill="#3363AB"/>
<ellipse cx="1437.5" cy="495" rx="562.5" ry="28" fill="#3363AB"/>
<path d="M1145.08 745.009C1035.55 744.059 773 815.377 773 815.377L1212.79 968L1428 803.016C1428 803.016 1254.62 745.96 1145.08 745.009Z" fill="#8D743E"/>
<path d="M119.685 769.049C210.255 767.087 527 824.318 527 824.318L-108.491 962L-120 821.702C-120 821.702 29.1152 771.012 119.685 769.049Z" fill="#8D743E"/>
<path d="M675.02 781.098C518.588 747.358 1.53711 933.068 1.53711 933.068V1053H1438V781.098C1438 781.098 1220.27 861.336 1141.68 871.826C1063.09 882.317 831.451 814.837 675.02 781.098Z" fill="#C9B895"/>
<ellipse rx="63.5052" ry="12.6802" transform="matrix(0.984987 0.172628 0.294605 -0.955619 797.975 846.891)" fill="#DECBA3"/>
<ellipse rx="44.6234" ry="10.9075" transform="matrix(0.984987 0.172628 0.294605 -0.955619 843.323 937.773)" fill="#DECBA3"/>
<ellipse rx="23.1181" ry="8.20772" transform="matrix(0.991139 0.13283 0.229452 -0.97332 848.66 952.032)" fill="#DECBA3"/>
<path d="M189.18 866.835L-12 935.732V1052.83H314.024C314.024 1052.83 354.26 1036.95 353.508 1011.43C352.756 985.917 298.231 967.487 314.024 957.848C329.818 948.208 398.257 924.675 439.997 922.407C481.737 920.138 592.668 897.173 613.35 884.697C634.032 872.222 618.239 856.232 625.383 848.577C632.528 840.922 656.97 811.831 642.305 809.279C627.64 806.728 551.304 815.8 565.969 809.279C580.635 802.758 659.039 781.464 642.305 778.658C625.571 775.853 580.635 778.658 580.635 778.658L467.824 795.67L296.351 835.931L189.18 866.835Z" fill="#B09B6E"/>
<ellipse rx="47.8451" ry="13.0324" transform="matrix(0.968172 -0.250288 -0.413947 -0.910301 1361.11 878.937)" fill="#DECBA3"/>
<path d="M1227.8 851.412L1309.02 826.462C1309.02 826.462 1291.35 853.397 1281.57 857.366C1271.79 861.335 1213.88 893.374 1190.94 896.209C1168.01 899.045 1076.25 924.279 1077.76 912.937C1079.26 901.596 1132.66 872.96 1132.66 872.96L1155.97 869.558L1227.8 851.412Z" fill="#B09B6E"/>
<path d="M1094.12 1019.31C1077.11 1024.42 1067.58 1023.96 1050.58 1019.31L1046.49 796.911C1066.13 769.939 1076.52 770.79 1094.12 796.911V1019.31Z" fill="#71A580"/>
<path d="M1118.67 843.951C1114.95 849.831 1091.14 855.366 1091.14 855.366C1091.14 855.366 1087.79 869.201 1091.14 870.93C1094.49 872.66 1141 866.434 1141 853.29V807.634C1134.67 788.003 1118.69 799.56 1118.67 807.634C1118.66 815.708 1122.39 838.071 1118.67 843.951Z" fill="#71A580"/>
<path d="M1028.26 899.379C1031.98 905.259 1055.79 910.793 1055.79 910.793C1055.79 910.793 1059.14 924.628 1055.79 926.357C1052.44 928.087 1005.93 921.861 1005.93 908.717V863.061C1012.26 843.43 1028.24 854.987 1028.26 863.061C1028.27 871.135 1024.54 893.499 1028.26 899.379Z" fill="#71A580"/>
<path d="M1101.95 802.917L1092.92 803.721L1093.33 807.636L1101.95 802.917Z" fill="#71A580"/>
<path d="M1037.68 819.889L1048.66 820.868L1048.17 825.633L1037.68 819.889Z" fill="#71A580"/>
<path d="M1109.02 927.555L1093.65 928.855L1093 922.187L1109.02 927.555Z" fill="#71A580"/>
<path d="M1039.91 973.461L1050.89 974.44L1050.4 979.205L1039.91 973.461Z" fill="#71A580"/>
<path d="M1104.61 1000.34L1093.66 1001.67L1093 996.922L1104.61 1000.34Z" fill="#71A580"/>
<path d="M1126.93 874.39L1119.79 866.566L1123.72 863.471L1126.93 874.39Z" fill="#71A580"/>
<path d="M1112.84 828.882L1123.82 829.861L1123.33 834.626L1112.84 828.882Z" fill="#71A580"/>
<path d="M997.492 884.224L1008.48 885.203L1007.99 889.968L997.492 884.224Z" fill="#71A580"/>
<path d="M1037.12 875.004L1048.06 873.687L1048.73 878.434L1037.12 875.004Z" fill="#71A580"/>
<path d="M1034.67 932.988L1033.46 922.792L1038.58 922.271L1034.67 932.988Z" fill="#71A580"/>
<path d="M1028.05 862.576C1029.51 870.585 1023.86 891.55 1027.78 898.084C1031.7 904.619 1046.59 907.911 1048.94 908.558C1051.29 909.205 1048.94 918.009 1048.94 918.009C1048.94 918.009 1020.08 911.879 1017.06 906.003C1014.04 900.128 1017.06 887.611 1017.06 883.779V852.103C1016.78 851.3 1026.6 854.568 1028.05 862.576Z" fill="#5A978C"/>
<path d="M1094.28 854.657L1117.64 845.206C1117.64 845.206 1119.84 842.396 1120.11 840.608C1120.39 838.819 1124.51 851.847 1118.74 854.657C1112.97 857.467 1096.48 863.854 1094.28 864.365C1092.08 864.875 1094.28 854.657 1094.28 854.657Z" fill="#5A978C"/>
<path d="M1093.46 870.495C1095.38 870.751 1093.73 895.274 1094.28 896.552C1094.83 897.829 1094.28 922.352 1094.28 922.352L1108.85 927.717L1094.28 928.994V937.424V996.944L1104.45 1000.26L1094.28 1001.54L1094.01 1019.42C1094.01 1019.42 1084.66 1021.72 1083.84 1021.98C1083.01 1022.23 1073.12 1023 1073.12 1023C1073.12 1023 1091.53 870.24 1093.46 870.495Z" fill="#5A978C"/>
<ellipse rx="47.1159" ry="5.95649" transform="matrix(-0.999984 0.00567381 0.00567381 0.999984 282.149 878.224)" fill="#917F59"/>
<path d="M324.068 759.931C326.455 756.658 339.123 746.292 339.123 746.292L333.432 766.842V761.022L324.068 773.571L325.537 767.751L317.092 775.208C317.092 775.208 321.681 763.205 324.068 759.931Z" fill="#71A580"/>
<path d="M331.321 723.901L337.806 751.799L345.336 742.067L354.959 723.901H348.056L354.959 711.79C354.959 711.79 350.357 712.655 350.566 709.194C350.775 705.734 354.959 688 354.959 688C354.959 688 345.336 704.869 342.408 709.194C339.479 713.52 337.806 704.869 337.806 704.869V726.928L331.321 723.901Z" fill="#71A580"/>
<path d="M338.895 747.898C322.189 796.799 317.541 824.139 314.568 872.816V877.562H327.6C327.875 826.797 330.183 798.402 338.895 747.898Z" fill="#6F4742"/>
<path d="M367.267 727.936C358.886 731.105 337.517 749.275 337.517 749.275L366.01 741.458C366.01 741.458 359.096 742.725 358.467 741.458C357.839 740.19 382.56 736.598 382.56 736.598C382.56 736.598 374.599 735.542 373.342 734.697C372.085 733.851 393.245 730.471 393.245 730.471C393.245 730.471 383.398 730.893 384.236 729.415C385.074 727.936 397.645 722.654 397.645 722.654C397.645 722.654 375.647 724.766 367.267 727.936Z" fill="#71A580"/>
<path d="M324.324 724.807L339.123 748.816L313.224 734.121C313.224 734.121 322.679 737.639 324.324 736.605C325.968 735.57 304.591 723.565 304.591 723.565L311.58 724.807L298.425 717.356C298.425 717.356 303.975 719.012 305.824 719.219C307.674 719.426 291.847 704.524 291.847 704.524L301.508 707.628L324.324 724.807Z" fill="#71A580"/>
<path d="M353.9 762.825C351.075 760.221 337.517 744.226 337.517 744.226V764.871C337.517 764.871 339.212 761.523 340.059 760.221C340.907 758.919 345.709 774.914 345.709 774.914C345.709 774.914 347.121 772.682 347.686 771.008C348.251 769.334 359.549 783.47 359.549 783.47C359.549 783.47 356.724 765.429 353.9 762.825Z" fill="#71A580"/>
<path d="M365.163 744.501C360.294 745.029 337.516 748.198 337.516 748.198L366.554 757.176L365.163 753.655L379.595 760.52L374.727 757.176L394.201 760.52L382.03 753.655H390.376L379.595 748.198H387.768C387.768 748.198 370.032 743.973 365.163 744.501Z" fill="#71A580"/>
<path d="M321.063 742.623C325.977 742.384 343.06 746.45 343.06 746.45L321.363 755.443L329.055 749.378L309.727 756.31C309.727 756.31 312.287 752.553 314.121 751.793L298.077 758.442L299.53 754.604L288.987 758.973L297.813 750.461L294.516 749.85L305.911 747.105L299.75 746.063C299.75 746.063 316.149 742.862 321.063 742.623Z" fill="#71A580"/>
<path d="M342.916 727.422L343.37 737.789L351.172 724.386L342.916 727.422Z" fill="#5A978C"/>
<path d="M367.237 729.424C363.91 730.686 361.385 733.325 361.385 733.325L372.86 731.374L383.531 725.752C383.531 725.752 370.565 728.161 367.237 729.424Z" fill="#5A978C"/>
<path d="M366.434 757.078L365.286 753.75L342.337 749.619L366.434 757.078Z" fill="#5A978C"/>
<path d="M304.699 723.572L311.469 724.834L316.977 730.801L304.699 723.572Z" fill="#5A978C"/>
<path d="M320.879 742.734C318.955 742.645 299.206 745.647 299.88 746.062L320.879 745.029L330.059 743.538C330.059 743.538 322.802 742.823 320.879 742.734Z" fill="#5A978C"/>
<path d="M331.092 761.344V756.848L327.244 759.096L326.731 763.733L331.092 761.344Z" fill="#5A978C"/>
<path d="M345.779 774.863L347.615 771.077L340.845 760.405L345.779 774.863Z" fill="#5A978C"/>
<path d="M330.059 811.238L337.518 755.815L333.501 773.831L327.42 799.305L323.748 829.483L322.371 877.447H327.42L330.059 811.238Z" fill="#B47D6C"/>
<path d="M324.068 759.931C326.455 756.658 339.123 746.292 339.123 746.292L333.432 766.842V761.022L324.068 773.571L325.537 767.751L317.092 775.208C317.092 775.208 321.681 763.205 324.068 759.931Z" fill="#71A580"/>
<path d="M331.321 723.901L337.806 751.799L345.336 742.067L354.959 723.901H348.056L354.959 711.79C354.959 711.79 350.357 712.655 350.566 709.194C350.775 705.734 354.959 688 354.959 688C354.959 688 345.336 704.869 342.408 709.194C339.479 713.52 337.806 704.869 337.806 704.869V726.928L331.321 723.901Z" fill="#71A580"/>
<path d="M338.895 747.898C322.189 796.799 317.541 824.139 314.568 872.816V877.562H327.6C327.875 826.797 330.183 798.402 338.895 747.898Z" fill="#6F4742"/>
<path d="M367.267 727.936C358.886 731.105 337.517 749.275 337.517 749.275L366.01 741.458C366.01 741.458 359.096 742.725 358.467 741.458C357.839 740.19 382.56 736.598 382.56 736.598C382.56 736.598 374.599 735.542 373.342 734.697C372.085 733.851 393.245 730.471 393.245 730.471C393.245 730.471 383.398 730.893 384.236 729.415C385.074 727.936 397.645 722.654 397.645 722.654C397.645 722.654 375.647 724.766 367.267 727.936Z" fill="#71A580"/>
<path d="M324.324 724.807L339.123 748.816L313.224 734.121C313.224 734.121 322.679 737.639 324.324 736.605C325.968 735.57 304.591 723.565 304.591 723.565L311.58 724.807L298.425 717.356C298.425 717.356 303.975 719.012 305.824 719.219C307.674 719.426 291.847 704.524 291.847 704.524L301.508 707.628L324.324 724.807Z" fill="#71A580"/>
<path d="M353.9 762.825C351.075 760.221 337.517 744.226 337.517 744.226V764.871C337.517 764.871 339.212 761.523 340.059 760.221C340.907 758.919 345.709 774.914 345.709 774.914C345.709 774.914 347.121 772.682 347.686 771.008C348.251 769.334 359.549 783.47 359.549 783.47C359.549 783.47 356.724 765.429 353.9 762.825Z" fill="#71A580"/>
<path d="M365.163 744.501C360.294 745.029 337.516 748.198 337.516 748.198L366.554 757.176L365.163 753.655L379.595 760.52L374.727 757.176L394.201 760.52L382.03 753.655H390.376L379.595 748.198H387.768C387.768 748.198 370.032 743.973 365.163 744.501Z" fill="#71A580"/>
<path d="M321.063 742.623C325.977 742.384 343.06 746.45 343.06 746.45L321.363 755.443L329.055 749.378L309.727 756.31C309.727 756.31 312.287 752.553 314.121 751.793L298.077 758.442L299.53 754.604L288.987 758.973L297.813 750.461L294.516 749.85L305.911 747.105L299.75 746.063C299.75 746.063 316.149 742.862 321.063 742.623Z" fill="#71A580"/>
<path d="M342.916 727.422L343.37 737.789L351.172 724.386L342.916 727.422Z" fill="#5A978C"/>
<path d="M367.237 729.424C363.91 730.686 361.385 733.325 361.385 733.325L372.86 731.374L383.531 725.752C383.531 725.752 370.565 728.161 367.237 729.424Z" fill="#5A978C"/>
<path d="M366.434 757.078L365.286 753.75L342.337 749.619L366.434 757.078Z" fill="#5A978C"/>
<path d="M304.699 723.572L311.469 724.834L316.977 730.801L304.699 723.572Z" fill="#5A978C"/>
<path d="M320.879 742.734C318.955 742.645 299.206 745.647 299.88 746.062L320.879 745.029L330.059 743.538C330.059 743.538 322.802 742.823 320.879 742.734Z" fill="#5A978C"/>
<path d="M331.092 761.344V756.848L327.244 759.096L326.731 763.733L331.092 761.344Z" fill="#5A978C"/>
<path d="M345.779 774.863L347.615 771.077L340.845 760.405L345.779 774.863Z" fill="#5A978C"/>
<path d="M330.059 811.238L337.518 755.815L333.501 773.831L327.42 799.305L323.748 829.483L322.371 877.447H327.42L330.059 811.238Z" fill="#B47D6C"/>
<path d="M1229.3 789.621C1235.21 791.53 1238.52 791.359 1244.43 789.621L1245.86 706.447C1239.03 696.359 1235.42 696.678 1229.3 706.447V789.621Z" fill="#71A580"/>
<path d="M1220.76 724.039C1222.06 726.238 1230.33 728.307 1230.33 728.307C1230.33 728.307 1231.5 733.482 1230.33 734.128C1229.17 734.775 1213 732.447 1213 727.531V710.456C1215.2 703.115 1220.76 707.437 1220.76 710.456C1220.77 713.476 1219.47 721.84 1220.76 724.039Z" fill="#71A580"/>
<path d="M1252.2 744.768C1250.9 746.967 1242.62 749.036 1242.62 749.036C1242.62 749.036 1241.46 754.211 1242.62 754.857C1243.79 755.504 1259.96 753.176 1259.96 748.26V731.185C1257.76 723.844 1252.2 728.166 1252.2 731.185C1252.19 734.205 1253.49 742.569 1252.2 744.768Z" fill="#71A580"/>
<path d="M1226.58 708.693L1229.71 708.993L1229.57 710.458L1226.58 708.693Z" fill="#71A580"/>
<path d="M1248.92 715.04L1245.1 715.406L1245.27 717.188L1248.92 715.04Z" fill="#71A580"/>
<path d="M1224.12 755.305L1229.46 755.791L1229.69 753.298L1224.12 755.305Z" fill="#71A580"/>
<path d="M1248.14 772.473L1244.32 772.84L1244.5 774.622L1248.14 772.473Z" fill="#71A580"/>
<path d="M1225.65 782.527L1229.46 783.022L1229.69 781.247L1225.65 782.527Z" fill="#71A580"/>
<path d="M1217.89 735.422L1220.37 732.496L1219.01 731.339L1217.89 735.422Z" fill="#71A580"/>
<path d="M1222.79 718.403L1218.97 718.769L1219.14 720.551L1222.79 718.403Z" fill="#71A580"/>
<path d="M1262.89 739.1L1259.07 739.466L1259.24 741.248L1262.89 739.1Z" fill="#71A580"/>
<path d="M1249.11 735.652L1245.31 735.159L1245.08 736.935L1249.11 735.652Z" fill="#71A580"/>
<path d="M1249.97 757.337L1250.38 753.524L1248.61 753.329L1249.97 757.337Z" fill="#71A580"/>
<path d="M1252.27 731.004C1251.76 733.999 1253.73 741.84 1252.36 744.283C1251 746.727 1245.82 747.958 1245.01 748.2C1244.19 748.442 1245.01 751.735 1245.01 751.735C1245.01 751.735 1255.04 749.442 1256.09 747.245C1257.14 745.048 1256.09 740.367 1256.09 738.933V727.087C1256.19 726.787 1252.77 728.009 1252.27 731.004Z" fill="#5A978C"/>
<path d="M1229.24 728.043L1221.12 724.508C1221.12 724.508 1220.36 723.457 1220.26 722.788C1220.17 722.119 1218.73 726.992 1220.74 728.043C1222.75 729.093 1228.48 731.482 1229.24 731.673C1230.01 731.864 1229.24 728.043 1229.24 728.043Z" fill="#5A978C"/>
<path d="M1229.53 733.966C1228.86 734.061 1229.43 743.233 1229.24 743.71C1229.05 744.188 1229.24 753.359 1229.24 753.359L1224.18 755.365L1229.24 755.843V758.996V781.255L1225.71 782.497L1229.24 782.975L1229.34 789.662C1229.34 789.662 1232.59 790.522 1232.87 790.618C1233.16 790.713 1236.6 791 1236.6 791C1236.6 791 1230.2 733.87 1229.53 733.966Z" fill="#5A978C"/>
<circle cx="679.5" cy="284.5" r="3.5" fill="white"/>
<circle cx="424.5" cy="191.5" r="3.5" fill="white"/>
<circle cx="583.5" cy="157.5" r="3.5" fill="white"/>
<circle cx="295.5" cy="319.5" r="3.5" fill="white"/>
<circle cx="126.5" cy="150.5" r="3.5" fill="white"/>
<path d="M854 164.5C854 166.433 852.433 168 850.5 168C848.567 168 847 166.433 847 164.5C847 162.567 848.567 161 850.5 161C852.433 161 854 162.567 854 164.5Z" fill="white"/>
<circle cx="493.5" cy="111.5" r="3.5" fill="white"/>
<circle cx="1090.5" cy="323.5" r="3.5" fill="white"/>
<circle cx="1065.5" cy="143.5" r="3.5" fill="white"/>
<circle cx="1385.5" cy="101.5" r="3.5" fill="white"/>
<circle cx="1094.5" cy="230.5" r="3.5" fill="white"/>
<circle cx="1331.5" cy="470.5" r="3.5" fill="white"/>
<circle cx="119.5" cy="291.5" r="3.5" fill="white"/>
<circle cx="160.5" cy="451.5" r="3.5" fill="white"/>
<path d="M-3 1053H1437V14378.5H-3V1053Z" fill="#C9B895"/>
<path d="M1292.38 7412.14C1290.77 7411.11 1289.24 7425.08 1290.16 7428.42C1291.09 7431.76 1302.9 7444.11 1303.82 7442.39C1304.73 7440.68 1305.12 7427.83 1302.77 7423.66C1300.41 7419.49 1294 7413.17 1292.38 7412.14Z" fill="#F98938"/>
<path d="M1303.32 7411.28C1302.17 7409.75 1295.8 7422.28 1295.49 7425.73C1295.18 7429.18 1301.87 7444.9 1303.33 7443.62C1304.79 7442.34 1309.7 7430.45 1308.97 7425.72C1308.23 7420.99 1304.47 7412.81 1303.32 7411.28Z" fill="#F98938"/>
<path d="M1313.43 7412.58C1312.82 7410.76 1302.85 7420.67 1301.47 7423.85C1300.1 7427.03 1301.53 7444.05 1303.32 7443.3C1305.11 7442.54 1313.49 7432.78 1314.27 7428.06C1315.06 7423.34 1314.04 7414.39 1313.43 7412.58Z" fill="#F98938"/>
<ellipse rx="46.9061" ry="12.7265" transform="matrix(-0.957105 -0.28974 -0.28974 0.957105 208.749 2871.39)" fill="#C9B895"/>
<ellipse rx="53.1957" ry="17.0001" transform="matrix(-0.957105 -0.28974 -0.28974 0.957105 234.43 2902.54)" fill="#C9B895"/>
<path d="M-18.0007 14396.5L577.499 14028L1160.52 13725.9L1304.74 13472.2L1342.47 13236.2L1110.54 12899.9L726.433 12723L226.246 12539.9L-61.3367 12035.5L163.512 11634.5L442.279 11159.2L1144.97 10557.1L1236.57 10125.1L917.196 9803L657.999 9382L516.499 9200.5L350.345 9137L162.999 9137L55.8803 9220L-26.5012 9437.5L14.9987 9595L162.999 9724.5L310.999 9756.5L408.499 9756.5L616.499 9682.5L841.999 9566L1082.32 9406.73L1395.64 9075.45L1278 8785.86L917.196 8505.53L486.411 8309.55L350.345 8000.79L806.66 7371.41L1251.76 7104.53L1555.21 6709.38L1565 6392.89L1308.17 6036.07L1087.69 5821.67L765.26 5677.46L315.395 5512.02L-196.507 4934.72L-71.664 4517.87" stroke="#B39C6B" stroke-width="70" stroke-dasharray="100 100"/>
<path d="M1464 1242L1051.72 1353.15L686.918 1601L535 1960L664.93 2348.39L1255.61 2589" stroke="#B29C6B" stroke-opacity="0.74" stroke-width="70" stroke-dasharray="100 100"/>
<path d="M1326.5 2642L1544.5 2864.5L1868.5 3210.5L1455.5 3618L1148.5 3953L740.998 4120.5L-42.002 4328.5" stroke="#B39C6B" stroke-width="70" stroke-dasharray="100 100"/>
</g>
<defs>
<clipPath id="clip0_711_1694">
<rect width="1440" height="14383" fill="white"/>
</clipPath>
</defs>
</svg>
