<svg width="1440" height="1053" viewBox="0 0 1440 1053" fill="none" xmlns="http://www.w3.org/2000/svg">
<g clip-path="url(#clip0_528_1628)">
<rect width="1440" height="1053" fill="#F7CD82"/>
<ellipse cx="342.5" cy="384.5" rx="562.5" ry="14.5" fill="#F4D98D"/>
<ellipse cx="491.527" cy="543.024" rx="148.294" ry="18" transform="rotate(0.782498 491.527 543.024)" fill="#F4D98D"/>
<ellipse cx="399.5" cy="523" rx="224.5" ry="18" fill="#F4D98D"/>
<ellipse cx="1439.5" cy="495" rx="562.5" ry="28" fill="#F4D98D"/>
<path d="M1147.08 745.009C1037.55 744.059 775 815.377 775 815.377L1214.79 968L1430 803.016C1430 803.016 1256.62 745.96 1147.08 745.009Z" fill="#8D743E"/>
<path d="M121.685 769.049C212.255 767.087 529 824.318 529 824.318L-106.491 962L-118 821.702C-118 821.702 31.1152 771.012 121.685 769.049Z" fill="#8D743E"/>
<path d="M677.02 781.098C520.588 747.358 3.53711 933.068 3.53711 933.068V1053H1440V781.098C1440 781.098 1222.27 861.336 1143.68 871.826C1065.09 882.317 833.451 814.837 677.02 781.098Z" fill="#C9B895"/>
<ellipse rx="63.5052" ry="12.6802" transform="matrix(0.984987 0.172628 0.294605 -0.955619 799.975 846.891)" fill="#DECBA3"/>
<ellipse rx="44.6234" ry="10.9075" transform="matrix(0.984987 0.172628 0.294605 -0.955619 845.323 937.773)" fill="#DECBA3"/>
<ellipse rx="23.1181" ry="8.20772" transform="matrix(0.991139 0.13283 0.229452 -0.97332 850.66 952.032)" fill="#DECBA3"/>
<path d="M191.18 866.835L-10 935.732V1052.83H316.024C316.024 1052.83 356.26 1036.95 355.508 1011.43C354.756 985.917 300.231 967.487 316.024 957.848C331.818 948.208 400.257 924.675 441.997 922.407C483.737 920.138 594.668 897.173 615.35 884.697C636.032 872.222 620.239 856.232 627.383 848.577C634.528 840.922 658.97 811.831 644.305 809.279C629.64 806.728 553.304 815.8 567.969 809.279C582.635 802.758 661.039 781.464 644.305 778.658C627.571 775.853 582.635 778.658 582.635 778.658L469.824 795.67L298.351 835.931L191.18 866.835Z" fill="#B09B6E"/>
<ellipse rx="47.8451" ry="13.0324" transform="matrix(0.968172 -0.250288 -0.413947 -0.910301 1363.11 878.936)" fill="#DECBA3"/>
<ellipse rx="47.1159" ry="5.95649" transform="matrix(-0.999984 0.00567381 0.00567381 0.999984 284.149 878.224)" fill="#917F59"/>
<path d="M326.068 759.931C328.455 756.658 341.123 746.292 341.123 746.292L335.432 766.842V761.022L326.068 773.571L327.537 767.751L319.092 775.208C319.092 775.208 323.681 763.205 326.068 759.931Z" fill="#71A580"/>
<path d="M333.321 723.901L339.806 751.799L347.336 742.067L356.959 723.901H350.056L356.959 711.79C356.959 711.79 352.357 712.655 352.566 709.194C352.775 705.734 356.959 688 356.959 688C356.959 688 347.336 704.869 344.408 709.194C341.479 713.52 339.806 704.869 339.806 704.869V726.928L333.321 723.901Z" fill="#71A580"/>
<path d="M340.895 747.898C324.189 796.799 319.541 824.139 316.568 872.816V877.562H329.6C329.875 826.797 332.183 798.402 340.895 747.898Z" fill="#6F4742"/>
<path d="M369.267 727.936C360.886 731.105 339.517 749.275 339.517 749.275L368.01 741.458C368.01 741.458 361.096 742.725 360.467 741.458C359.839 740.19 384.56 736.598 384.56 736.598C384.56 736.598 376.599 735.542 375.342 734.697C374.085 733.852 395.245 730.471 395.245 730.471C395.245 730.471 385.398 730.894 386.236 729.415C387.074 727.936 399.645 722.654 399.645 722.654C399.645 722.654 377.647 724.767 369.267 727.936Z" fill="#71A580"/>
<path d="M326.324 724.807L341.123 748.816L315.224 734.121C315.224 734.121 324.679 737.639 326.324 736.604C327.968 735.569 306.591 723.565 306.591 723.565L313.58 724.807L300.425 717.356C300.425 717.356 305.975 719.012 307.824 719.219C309.674 719.426 293.847 704.523 293.847 704.523L303.508 707.628L326.324 724.807Z" fill="#71A580"/>
<path d="M355.9 762.825C353.075 760.221 339.517 744.226 339.517 744.226V764.871C339.517 764.871 341.212 761.523 342.059 760.221C342.907 758.919 347.709 774.914 347.709 774.914C347.709 774.914 349.121 772.682 349.686 771.008C350.251 769.334 361.549 783.47 361.549 783.47C361.549 783.47 358.724 765.429 355.9 762.825Z" fill="#71A580"/>
<path d="M367.163 744.501C362.294 745.029 339.516 748.198 339.516 748.198L368.554 757.176L367.163 753.655L381.595 760.52L376.727 757.176L396.201 760.52L384.03 753.655H392.376L381.595 748.198H389.768C389.768 748.198 372.032 743.973 367.163 744.501Z" fill="#71A580"/>
<path d="M323.063 742.623C327.977 742.384 345.06 746.45 345.06 746.45L323.363 755.443L331.055 749.378L311.727 756.31C311.727 756.31 314.287 752.553 316.121 751.793L300.077 758.442L301.53 754.604L290.987 758.973L299.813 750.461L296.516 749.85L307.911 747.105L301.75 746.063C301.75 746.063 318.149 742.862 323.063 742.623Z" fill="#71A580"/>
<path d="M344.916 727.422L345.37 737.788L353.172 724.386L344.916 727.422Z" fill="#5A978C"/>
<path d="M369.237 729.424C365.91 730.686 363.385 733.325 363.385 733.325L374.86 731.375L385.531 725.752C385.531 725.752 372.565 728.162 369.237 729.424Z" fill="#5A978C"/>
<path d="M368.434 757.078L367.286 753.75L344.337 749.619L368.434 757.078Z" fill="#5A978C"/>
<path d="M306.699 723.572L313.469 724.834L318.977 730.801L306.699 723.572Z" fill="#5A978C"/>
<path d="M322.879 742.734C320.955 742.645 301.206 745.647 301.88 746.062L322.879 745.029L332.059 743.538C332.059 743.538 324.802 742.823 322.879 742.734Z" fill="#5A978C"/>
<path d="M333.092 761.344V756.848L329.244 759.096L328.731 763.733L333.092 761.344Z" fill="#5A978C"/>
<path d="M347.779 774.863L349.615 771.077L342.845 760.405L347.779 774.863Z" fill="#5A978C"/>
<path d="M332.059 811.238L339.518 755.815L335.501 773.831L329.42 799.305L325.748 829.483L324.371 877.447H329.42L332.059 811.238Z" fill="#B47D6C"/>
<path d="M326.068 759.931C328.455 756.658 341.123 746.292 341.123 746.292L335.432 766.842V761.022L326.068 773.571L327.537 767.751L319.092 775.208C319.092 775.208 323.681 763.205 326.068 759.931Z" fill="#71A580"/>
<path d="M333.321 723.901L339.806 751.799L347.336 742.067L356.959 723.901H350.056L356.959 711.79C356.959 711.79 352.357 712.655 352.566 709.194C352.775 705.734 356.959 688 356.959 688C356.959 688 347.336 704.869 344.408 709.194C341.479 713.52 339.806 704.869 339.806 704.869V726.928L333.321 723.901Z" fill="#71A580"/>
<path d="M340.895 747.898C324.189 796.799 319.541 824.139 316.568 872.816V877.562H329.6C329.875 826.797 332.183 798.402 340.895 747.898Z" fill="#6F4742"/>
<path d="M369.267 727.936C360.886 731.105 339.517 749.275 339.517 749.275L368.01 741.458C368.01 741.458 361.096 742.725 360.467 741.458C359.839 740.19 384.56 736.598 384.56 736.598C384.56 736.598 376.599 735.542 375.342 734.697C374.085 733.852 395.245 730.471 395.245 730.471C395.245 730.471 385.398 730.894 386.236 729.415C387.074 727.936 399.645 722.654 399.645 722.654C399.645 722.654 377.647 724.767 369.267 727.936Z" fill="#71A580"/>
<path d="M326.324 724.807L341.123 748.816L315.224 734.121C315.224 734.121 324.679 737.639 326.324 736.604C327.968 735.569 306.591 723.565 306.591 723.565L313.58 724.807L300.425 717.356C300.425 717.356 305.975 719.012 307.824 719.219C309.674 719.426 293.847 704.523 293.847 704.523L303.508 707.628L326.324 724.807Z" fill="#71A580"/>
<path d="M355.9 762.825C353.075 760.221 339.517 744.226 339.517 744.226V764.871C339.517 764.871 341.212 761.523 342.059 760.221C342.907 758.919 347.709 774.914 347.709 774.914C347.709 774.914 349.121 772.682 349.686 771.008C350.251 769.334 361.549 783.47 361.549 783.47C361.549 783.47 358.724 765.429 355.9 762.825Z" fill="#71A580"/>
<path d="M367.163 744.501C362.294 745.029 339.516 748.198 339.516 748.198L368.554 757.176L367.163 753.655L381.595 760.52L376.727 757.176L396.201 760.52L384.03 753.655H392.376L381.595 748.198H389.768C389.768 748.198 372.032 743.973 367.163 744.501Z" fill="#71A580"/>
<path d="M323.063 742.623C327.977 742.384 345.06 746.45 345.06 746.45L323.363 755.443L331.055 749.378L311.727 756.31C311.727 756.31 314.287 752.553 316.121 751.793L300.077 758.442L301.53 754.604L290.987 758.973L299.813 750.461L296.516 749.85L307.911 747.105L301.75 746.063C301.75 746.063 318.149 742.862 323.063 742.623Z" fill="#71A580"/>
<path d="M344.916 727.422L345.37 737.788L353.172 724.386L344.916 727.422Z" fill="#5A978C"/>
<path d="M369.237 729.424C365.91 730.686 363.385 733.325 363.385 733.325L374.86 731.375L385.531 725.752C385.531 725.752 372.565 728.162 369.237 729.424Z" fill="#5A978C"/>
<path d="M368.434 757.078L367.286 753.75L344.337 749.619L368.434 757.078Z" fill="#5A978C"/>
<path d="M306.699 723.572L313.469 724.834L318.977 730.801L306.699 723.572Z" fill="#5A978C"/>
<path d="M322.879 742.734C320.955 742.645 301.206 745.647 301.88 746.062L322.879 745.029L332.059 743.538C332.059 743.538 324.802 742.823 322.879 742.734Z" fill="#5A978C"/>
<path d="M333.092 761.344V756.848L329.244 759.096L328.731 763.733L333.092 761.344Z" fill="#5A978C"/>
<path d="M347.779 774.863L349.615 771.077L342.845 760.405L347.779 774.863Z" fill="#5A978C"/>
<path d="M332.059 811.238L339.518 755.815L335.501 773.831L329.42 799.305L325.748 829.483L324.371 877.447H329.42L332.059 811.238Z" fill="#B47D6C"/>
<path d="M1231.3 789.621C1237.21 791.53 1240.52 791.359 1246.43 789.621L1247.86 706.447C1241.03 696.359 1237.42 696.678 1231.3 706.447V789.621Z" fill="#71A580"/>
<path d="M1222.76 724.039C1224.06 726.238 1232.33 728.308 1232.33 728.308C1232.33 728.308 1233.5 733.482 1232.33 734.129C1231.17 734.775 1215 732.447 1215 727.531V710.457C1217.2 703.115 1222.76 707.437 1222.76 710.457C1222.77 713.476 1221.47 721.84 1222.76 724.039Z" fill="#71A580"/>
<path d="M1254.2 744.767C1252.9 746.966 1244.62 749.036 1244.62 749.036C1244.62 749.036 1243.46 754.21 1244.62 754.857C1245.79 755.504 1261.96 753.175 1261.96 748.26V731.185C1259.76 723.843 1254.2 728.166 1254.2 731.185C1254.19 734.205 1255.49 742.568 1254.2 744.767Z" fill="#71A580"/>
<path d="M1228.58 708.693L1231.71 708.994L1231.57 710.458L1228.58 708.693Z" fill="#71A580"/>
<path d="M1250.92 715.04L1247.1 715.406L1247.27 717.188L1250.92 715.04Z" fill="#71A580"/>
<path d="M1226.12 755.305L1231.46 755.791L1231.69 753.297L1226.12 755.305Z" fill="#71A580"/>
<path d="M1250.14 772.473L1246.32 772.839L1246.5 774.621L1250.14 772.473Z" fill="#71A580"/>
<path d="M1227.65 782.527L1231.46 783.022L1231.69 781.247L1227.65 782.527Z" fill="#71A580"/>
<path d="M1219.89 735.422L1222.37 732.496L1221.01 731.339L1219.89 735.422Z" fill="#71A580"/>
<path d="M1224.79 718.403L1220.97 718.77L1221.14 720.552L1224.79 718.403Z" fill="#71A580"/>
<path d="M1264.89 739.1L1261.07 739.466L1261.24 741.248L1264.89 739.1Z" fill="#71A580"/>
<path d="M1251.11 735.652L1247.31 735.159L1247.08 736.935L1251.11 735.652Z" fill="#71A580"/>
<path d="M1251.97 757.337L1252.38 753.524L1250.61 753.329L1251.97 757.337Z" fill="#71A580"/>
<path d="M1254.27 731.004C1253.76 733.999 1255.73 741.84 1254.36 744.283C1253 746.727 1247.82 747.958 1247.01 748.2C1246.19 748.442 1247.01 751.735 1247.01 751.735C1247.01 751.735 1257.04 749.442 1258.09 747.245C1259.14 745.048 1258.09 740.367 1258.09 738.933V727.087C1258.19 726.787 1254.77 728.009 1254.27 731.004Z" fill="#5A978C"/>
<path d="M1231.24 728.043L1223.12 724.508C1223.12 724.508 1222.36 723.457 1222.26 722.788C1222.17 722.12 1220.73 726.992 1222.74 728.043C1224.75 729.094 1230.48 731.482 1231.24 731.673C1232.01 731.864 1231.24 728.043 1231.24 728.043Z" fill="#5A978C"/>
<path d="M1231.53 733.966C1230.86 734.061 1231.43 743.233 1231.24 743.71C1231.05 744.188 1231.24 753.36 1231.24 753.36L1226.18 755.366L1231.24 755.843V758.996V781.256L1227.71 782.498L1231.24 782.975L1231.34 789.663C1231.34 789.663 1234.59 790.523 1234.87 790.618C1235.16 790.714 1238.6 791 1238.6 791C1238.6 791 1232.2 733.87 1231.53 733.966Z" fill="#5A978C"/>
<ellipse cx="1032.6" cy="1001.46" rx="63" ry="16.5" transform="rotate(-172.617 1032.6 1001.46)" fill="#B09B6E"/>
<path d="M1096.12 1019.31C1079.11 1024.42 1069.58 1023.96 1052.58 1019.31L1048.49 796.911C1068.13 769.939 1078.52 770.79 1096.12 796.911V1019.31Z" fill="#71A580"/>
<path d="M1120.67 843.952C1116.95 849.832 1093.14 855.366 1093.14 855.366C1093.14 855.366 1089.79 869.201 1093.14 870.93C1096.49 872.66 1143 866.434 1143 853.29V807.634C1136.67 788.003 1120.69 799.56 1120.67 807.634C1120.66 815.708 1124.39 838.072 1120.67 843.952Z" fill="#71A580"/>
<path d="M1030.26 899.378C1033.98 905.258 1057.79 910.793 1057.79 910.793C1057.79 910.793 1061.14 924.628 1057.79 926.357C1054.44 928.087 1007.93 921.861 1007.93 908.717V863.061C1014.26 843.43 1030.24 854.987 1030.26 863.061C1030.27 871.135 1026.54 893.498 1030.26 899.378Z" fill="#71A580"/>
<path d="M1103.95 802.917L1094.92 803.722L1095.33 807.637L1103.95 802.917Z" fill="#71A580"/>
<path d="M1039.68 819.89L1050.66 820.869L1050.17 825.634L1039.68 819.89Z" fill="#71A580"/>
<path d="M1111.02 927.555L1095.65 928.855L1095 922.187L1111.02 927.555Z" fill="#71A580"/>
<path d="M1041.91 973.461L1052.89 974.44L1052.4 979.205L1041.91 973.461Z" fill="#71A580"/>
<path d="M1106.61 1000.34L1095.66 1001.67L1095 996.922L1106.61 1000.34Z" fill="#71A580"/>
<path d="M1128.93 874.39L1121.79 866.566L1125.72 863.471L1128.93 874.39Z" fill="#71A580"/>
<path d="M1114.84 828.882L1125.82 829.861L1125.33 834.626L1114.84 828.882Z" fill="#71A580"/>
<path d="M999.492 884.224L1010.48 885.203L1009.99 889.968L999.492 884.224Z" fill="#71A580"/>
<path d="M1039.12 875.004L1050.06 873.687L1050.73 878.434L1039.12 875.004Z" fill="#71A580"/>
<path d="M1036.67 932.988L1035.46 922.792L1040.58 922.271L1036.67 932.988Z" fill="#71A580"/>
<path d="M1030.05 862.576C1031.51 870.585 1025.86 891.549 1029.78 898.084C1033.7 904.618 1048.59 907.911 1050.94 908.557C1053.29 909.204 1050.94 918.009 1050.94 918.009C1050.94 918.009 1022.08 911.878 1019.06 906.003C1016.04 900.128 1019.06 887.61 1019.06 883.779V852.103C1018.78 851.299 1028.6 854.567 1030.05 862.576Z" fill="#5A978C"/>
<path d="M1096.28 854.658L1119.64 845.206C1119.64 845.206 1121.84 842.396 1122.11 840.608C1122.39 838.82 1126.51 851.848 1120.74 854.658C1114.97 857.468 1098.48 863.854 1096.28 864.365C1094.08 864.876 1096.28 854.658 1096.28 854.658Z" fill="#5A978C"/>
<path d="M1095.46 870.495C1097.38 870.751 1095.73 895.274 1096.28 896.552C1096.83 897.829 1096.28 922.352 1096.28 922.352L1110.85 927.717L1096.28 928.994V937.424V996.944L1106.45 1000.26L1096.28 1001.54L1096.01 1019.42C1096.01 1019.42 1086.66 1021.72 1085.84 1021.98C1085.01 1022.23 1075.12 1023 1075.12 1023C1075.12 1023 1093.53 870.24 1095.46 870.495Z" fill="#5A978C"/>
</g>
<defs>
<clipPath id="clip0_528_1628">
<rect width="1440" height="1053" fill="white"/>
</clipPath>
</defs>
</svg>
