<svg width="1440" height="14395" viewBox="0 0 1440 14395" fill="none" xmlns="http://www.w3.org/2000/svg">
<g clip-path="url(#clip0_378_1301)">
<rect width="1440" height="14395" fill="#F7CD82"/>
<rect y="978" width="1440" height="13417" fill="#C9B895"/>
<ellipse cx="342.5" cy="384.5" rx="562.5" ry="14.5" fill="#F4D98D"/>
<ellipse cx="491.527" cy="543.024" rx="148.294" ry="18" transform="rotate(0.782498 491.527 543.024)" fill="#F4D98D"/>
<ellipse cx="399.5" cy="523" rx="224.5" ry="18" fill="#F4D98D"/>
<ellipse cx="1439.5" cy="495" rx="562.5" ry="28" fill="#F4D98D"/>
<path d="M1147.08 745.009C1037.55 744.059 775 815.377 775 815.377L1214.79 968L1430 803.016C1430 803.016 1256.62 745.96 1147.08 745.009Z" fill="#8D743E"/>
<path d="M121.685 769.049C212.255 767.087 529 824.318 529 824.318L-106.491 962L-118 821.702C-118 821.702 31.1152 771.012 121.685 769.049Z" fill="#8D743E"/>
<path d="M677.02 781.098C520.588 747.358 3.53711 933.068 3.53711 933.068V1053H1440V781.098C1440 781.098 1222.27 861.336 1143.68 871.826C1065.09 882.317 833.451 814.837 677.02 781.098Z" fill="#C9B895"/>
<ellipse rx="63.5052" ry="12.6802" transform="matrix(0.984987 0.172628 0.294605 -0.955619 799.974 846.891)" fill="#DECBA3"/>
<ellipse rx="44.6234" ry="10.9075" transform="matrix(0.984987 0.172628 0.294605 -0.955619 845.322 937.773)" fill="#DECBA3"/>
<ellipse rx="23.1181" ry="8.20772" transform="matrix(0.991139 0.13283 0.229452 -0.97332 850.66 952.032)" fill="#DECBA3"/>
<path d="M191.18 866.835L-10 935.732V1052.83H316.024C316.024 1052.83 356.26 1036.95 355.508 1011.43C354.756 985.917 300.231 967.487 316.024 957.848C331.818 948.208 400.257 924.675 441.997 922.407C483.737 920.138 594.668 897.173 615.35 884.697C636.032 872.222 620.239 856.232 627.383 848.577C634.528 840.922 658.97 811.831 644.305 809.279C629.64 806.728 553.304 815.8 567.969 809.279C582.635 802.758 661.039 781.464 644.305 778.658C627.571 775.853 582.635 778.658 582.635 778.658L469.824 795.67L298.351 835.931L191.18 866.835Z" fill="#B09B6E"/>
<ellipse rx="47.8451" ry="13.0324" transform="matrix(0.968172 -0.250288 -0.413947 -0.910301 1363.11 878.937)" fill="#DECBA3"/>
<ellipse rx="47.1159" ry="5.95649" transform="matrix(-0.999984 0.00567381 0.00567381 0.999984 284.149 878.224)" fill="#917F59"/>
<path d="M326.07 759.931C328.457 756.658 341.125 746.292 341.125 746.292L335.434 766.842V761.022L326.07 773.571L327.539 767.751L319.094 775.208C319.094 775.208 323.683 763.205 326.07 759.931Z" fill="#71A580"/>
<path d="M333.322 723.901L339.807 751.799L347.337 742.067L356.96 723.901H350.057L356.96 711.79C356.96 711.79 352.358 712.655 352.567 709.194C352.776 705.734 356.96 688 356.96 688C356.96 688 347.337 704.869 344.409 709.194C341.48 713.52 339.807 704.869 339.807 704.869V726.928L333.322 723.901Z" fill="#71A580"/>
<path d="M340.896 747.898C324.19 796.799 319.542 824.139 316.569 872.816V877.562H329.601C329.876 826.797 332.184 798.402 340.896 747.898Z" fill="#6F4742"/>
<path d="M369.268 727.936C360.887 731.105 339.518 749.275 339.518 749.275L368.011 741.458C368.011 741.458 361.097 742.725 360.468 741.458C359.84 740.19 384.561 736.598 384.561 736.598C384.561 736.598 376.6 735.542 375.343 734.697C374.086 733.851 395.246 730.471 395.246 730.471C395.246 730.471 385.399 730.893 386.237 729.415C387.075 727.936 399.646 722.654 399.646 722.654C399.646 722.654 377.648 724.766 369.268 727.936Z" fill="#71A580"/>
<path d="M326.326 724.807L341.125 748.816L315.226 734.121C315.226 734.121 324.681 737.639 326.326 736.605C327.97 735.57 306.593 723.565 306.593 723.565L313.582 724.807L300.427 717.356C300.427 717.356 305.976 719.012 307.826 719.219C309.676 719.426 293.849 704.524 293.849 704.524L303.51 707.628L326.326 724.807Z" fill="#71A580"/>
<path d="M355.901 762.825C353.076 760.221 339.518 744.226 339.518 744.226V764.871C339.518 764.871 341.213 761.523 342.06 760.221C342.908 758.919 347.71 774.914 347.71 774.914C347.71 774.914 349.122 772.682 349.687 771.008C350.252 769.334 361.55 783.47 361.55 783.47C361.55 783.47 358.725 765.429 355.901 762.825Z" fill="#71A580"/>
<path d="M367.165 744.501C362.296 745.029 339.518 748.198 339.518 748.198L368.556 757.176L367.165 753.655L381.597 760.52L376.729 757.176L396.203 760.52L384.031 753.655H392.378L381.597 748.198H389.77C389.77 748.198 372.034 743.973 367.165 744.501Z" fill="#71A580"/>
<path d="M323.065 742.623C327.979 742.384 345.062 746.45 345.062 746.45L323.365 755.443L331.057 749.378L311.729 756.31C311.729 756.31 314.289 752.553 316.123 751.793L300.079 758.442L301.532 754.604L290.989 758.973L299.815 750.461L296.518 749.85L307.913 747.105L301.752 746.063C301.752 746.063 318.151 742.862 323.065 742.623Z" fill="#71A580"/>
<path d="M344.917 727.422L345.371 737.789L353.173 724.386L344.917 727.422Z" fill="#5A978C"/>
<path d="M369.237 729.424C365.91 730.686 363.385 733.325 363.385 733.325L374.86 731.374L385.531 725.752C385.531 725.752 372.565 728.161 369.237 729.424Z" fill="#5A978C"/>
<path d="M368.435 757.078L367.287 753.75L344.338 749.619L368.435 757.078Z" fill="#5A978C"/>
<path d="M306.701 723.572L313.471 724.834L318.979 730.801L306.701 723.572Z" fill="#5A978C"/>
<path d="M322.88 742.734C320.956 742.645 301.207 745.647 301.881 746.062L322.88 745.029L332.06 743.538C332.06 743.538 324.803 742.823 322.88 742.734Z" fill="#5A978C"/>
<path d="M333.092 761.344V756.848L329.244 759.096L328.731 763.733L333.092 761.344Z" fill="#5A978C"/>
<path d="M347.78 774.863L349.616 771.077L342.846 760.405L347.78 774.863Z" fill="#5A978C"/>
<path d="M332.059 811.238L339.518 755.815L335.501 773.831L329.42 799.305L325.748 829.483L324.371 877.447H329.42L332.059 811.238Z" fill="#B47D6C"/>
<path d="M326.07 759.931C328.457 756.658 341.125 746.292 341.125 746.292L335.434 766.842V761.022L326.07 773.571L327.539 767.751L319.094 775.208C319.094 775.208 323.683 763.205 326.07 759.931Z" fill="#71A580"/>
<path d="M333.322 723.901L339.807 751.799L347.337 742.067L356.96 723.901H350.057L356.96 711.79C356.96 711.79 352.358 712.655 352.567 709.194C352.776 705.734 356.96 688 356.96 688C356.96 688 347.337 704.869 344.409 709.194C341.48 713.52 339.807 704.869 339.807 704.869V726.928L333.322 723.901Z" fill="#71A580"/>
<path d="M340.896 747.898C324.19 796.799 319.542 824.139 316.569 872.816V877.562H329.601C329.876 826.797 332.184 798.402 340.896 747.898Z" fill="#6F4742"/>
<path d="M369.268 727.936C360.887 731.105 339.518 749.275 339.518 749.275L368.011 741.458C368.011 741.458 361.097 742.725 360.468 741.458C359.84 740.19 384.561 736.598 384.561 736.598C384.561 736.598 376.6 735.542 375.343 734.697C374.086 733.851 395.246 730.471 395.246 730.471C395.246 730.471 385.399 730.893 386.237 729.415C387.075 727.936 399.646 722.654 399.646 722.654C399.646 722.654 377.648 724.766 369.268 727.936Z" fill="#71A580"/>
<path d="M326.326 724.807L341.125 748.816L315.226 734.121C315.226 734.121 324.681 737.639 326.326 736.605C327.97 735.57 306.593 723.565 306.593 723.565L313.582 724.807L300.427 717.356C300.427 717.356 305.976 719.012 307.826 719.219C309.676 719.426 293.849 704.524 293.849 704.524L303.51 707.628L326.326 724.807Z" fill="#71A580"/>
<path d="M355.901 762.825C353.076 760.221 339.518 744.226 339.518 744.226V764.871C339.518 764.871 341.213 761.523 342.06 760.221C342.908 758.919 347.71 774.914 347.71 774.914C347.71 774.914 349.122 772.682 349.687 771.008C350.252 769.334 361.55 783.47 361.55 783.47C361.55 783.47 358.725 765.429 355.901 762.825Z" fill="#71A580"/>
<path d="M367.165 744.501C362.296 745.029 339.518 748.198 339.518 748.198L368.556 757.176L367.165 753.655L381.597 760.52L376.729 757.176L396.203 760.52L384.031 753.655H392.378L381.597 748.198H389.77C389.77 748.198 372.034 743.973 367.165 744.501Z" fill="#71A580"/>
<path d="M323.065 742.623C327.979 742.384 345.062 746.45 345.062 746.45L323.365 755.443L331.057 749.378L311.729 756.31C311.729 756.31 314.289 752.553 316.123 751.793L300.079 758.442L301.532 754.604L290.989 758.973L299.815 750.461L296.518 749.85L307.913 747.105L301.752 746.063C301.752 746.063 318.151 742.862 323.065 742.623Z" fill="#71A580"/>
<path d="M344.917 727.422L345.371 737.789L353.173 724.386L344.917 727.422Z" fill="#5A978C"/>
<path d="M369.237 729.424C365.91 730.686 363.385 733.325 363.385 733.325L374.86 731.374L385.531 725.752C385.531 725.752 372.565 728.161 369.237 729.424Z" fill="#5A978C"/>
<path d="M368.435 757.078L367.287 753.75L344.338 749.619L368.435 757.078Z" fill="#5A978C"/>
<path d="M306.701 723.572L313.471 724.834L318.979 730.801L306.701 723.572Z" fill="#5A978C"/>
<path d="M322.88 742.734C320.956 742.645 301.207 745.647 301.881 746.062L322.88 745.029L332.06 743.538C332.06 743.538 324.803 742.823 322.88 742.734Z" fill="#5A978C"/>
<path d="M333.092 761.344V756.848L329.244 759.096L328.731 763.733L333.092 761.344Z" fill="#5A978C"/>
<path d="M347.78 774.863L349.616 771.077L342.846 760.405L347.78 774.863Z" fill="#5A978C"/>
<path d="M332.059 811.238L339.518 755.815L335.501 773.831L329.42 799.305L325.748 829.483L324.371 877.447H329.42L332.059 811.238Z" fill="#B47D6C"/>
<path d="M1231.3 789.621C1237.21 791.53 1240.52 791.359 1246.43 789.621L1247.86 706.447C1241.03 696.359 1237.42 696.678 1231.3 706.447V789.621Z" fill="#71A580"/>
<path d="M1222.76 724.039C1224.06 726.238 1232.33 728.307 1232.33 728.307C1232.33 728.307 1233.5 733.482 1232.33 734.128C1231.17 734.775 1215 732.447 1215 727.531V710.456C1217.2 703.115 1222.76 707.437 1222.76 710.456C1222.77 713.476 1221.47 721.84 1222.76 724.039Z" fill="#71A580"/>
<path d="M1254.2 744.768C1252.9 746.967 1244.62 749.036 1244.62 749.036C1244.62 749.036 1243.46 754.211 1244.62 754.857C1245.79 755.504 1261.96 753.176 1261.96 748.26V731.185C1259.76 723.844 1254.2 728.166 1254.2 731.185C1254.19 734.205 1255.49 742.569 1254.2 744.768Z" fill="#71A580"/>
<path d="M1228.58 708.693L1231.71 708.993L1231.57 710.458L1228.58 708.693Z" fill="#71A580"/>
<path d="M1250.92 715.04L1247.1 715.406L1247.27 717.188L1250.92 715.04Z" fill="#71A580"/>
<path d="M1226.12 755.305L1231.46 755.791L1231.69 753.298L1226.12 755.305Z" fill="#71A580"/>
<path d="M1250.14 772.473L1246.33 772.84L1246.5 774.622L1250.14 772.473Z" fill="#71A580"/>
<path d="M1227.65 782.527L1231.46 783.022L1231.69 781.247L1227.65 782.527Z" fill="#71A580"/>
<path d="M1219.89 735.422L1222.37 732.496L1221.01 731.339L1219.89 735.422Z" fill="#71A580"/>
<path d="M1224.79 718.403L1220.97 718.769L1221.14 720.551L1224.79 718.403Z" fill="#71A580"/>
<path d="M1264.89 739.1L1261.07 739.466L1261.24 741.248L1264.89 739.1Z" fill="#71A580"/>
<path d="M1251.11 735.652L1247.31 735.159L1247.08 736.935L1251.11 735.652Z" fill="#71A580"/>
<path d="M1251.97 757.337L1252.38 753.524L1250.6 753.329L1251.97 757.337Z" fill="#71A580"/>
<path d="M1254.27 731.004C1253.76 733.999 1255.72 741.84 1254.36 744.283C1253 746.727 1247.82 747.958 1247 748.2C1246.19 748.442 1247 751.735 1247 751.735C1247 751.735 1257.04 749.442 1258.09 747.245C1259.14 745.048 1258.09 740.367 1258.09 738.933V727.087C1258.18 726.787 1254.77 728.009 1254.27 731.004Z" fill="#5A978C"/>
<path d="M1231.24 728.043L1223.12 724.508C1223.12 724.508 1222.36 723.457 1222.26 722.788C1222.17 722.119 1220.73 726.992 1222.74 728.043C1224.75 729.093 1230.48 731.482 1231.24 731.673C1232.01 731.864 1231.24 728.043 1231.24 728.043Z" fill="#5A978C"/>
<path d="M1231.53 733.966C1230.86 734.061 1231.43 743.233 1231.24 743.71C1231.05 744.188 1231.24 753.359 1231.24 753.359L1226.18 755.365L1231.24 755.843V758.996V781.255L1227.71 782.497L1231.24 782.975L1231.34 789.662C1231.34 789.662 1234.59 790.522 1234.87 790.618C1235.16 790.713 1238.6 791 1238.6 791C1238.6 791 1232.2 733.87 1231.53 733.966Z" fill="#5A978C"/>
<ellipse cx="1032.6" cy="1001.46" rx="63" ry="16.5" transform="rotate(-172.617 1032.6 1001.46)" fill="#B09B6E"/>
<path d="M1096.12 1019.31C1079.11 1024.42 1069.58 1023.96 1052.58 1019.31L1048.49 796.911C1068.13 769.939 1078.52 770.79 1096.12 796.911V1019.31Z" fill="#71A580"/>
<path d="M1120.67 843.951C1116.95 849.831 1093.14 855.366 1093.14 855.366C1093.14 855.366 1089.79 869.201 1093.14 870.93C1096.49 872.66 1143 866.434 1143 853.29V807.634C1136.67 788.003 1120.69 799.56 1120.67 807.634C1120.66 815.708 1124.4 838.071 1120.67 843.951Z" fill="#71A580"/>
<path d="M1030.26 899.379C1033.98 905.259 1057.79 910.793 1057.79 910.793C1057.79 910.793 1061.14 924.628 1057.79 926.357C1054.44 928.087 1007.93 921.861 1007.93 908.717V863.061C1014.26 843.43 1030.24 854.987 1030.26 863.061C1030.27 871.135 1026.54 893.499 1030.26 899.379Z" fill="#71A580"/>
<path d="M1103.95 802.917L1094.92 803.721L1095.33 807.636L1103.95 802.917Z" fill="#71A580"/>
<path d="M1039.68 819.889L1050.66 820.868L1050.17 825.633L1039.68 819.889Z" fill="#71A580"/>
<path d="M1111.02 927.555L1095.65 928.855L1095 922.187L1111.02 927.555Z" fill="#71A580"/>
<path d="M1041.91 973.461L1052.89 974.44L1052.4 979.205L1041.91 973.461Z" fill="#71A580"/>
<path d="M1106.61 1000.34L1095.67 1001.67L1095 996.922L1106.61 1000.34Z" fill="#71A580"/>
<path d="M1128.93 874.39L1121.79 866.566L1125.72 863.471L1128.93 874.39Z" fill="#71A580"/>
<path d="M1114.84 828.882L1125.82 829.861L1125.33 834.626L1114.84 828.882Z" fill="#71A580"/>
<path d="M999.491 884.224L1010.48 885.203L1009.98 889.968L999.491 884.224Z" fill="#71A580"/>
<path d="M1039.12 875.004L1050.07 873.687L1050.73 878.434L1039.12 875.004Z" fill="#71A580"/>
<path d="M1036.67 932.988L1035.47 922.792L1040.58 922.271L1036.67 932.988Z" fill="#71A580"/>
<path d="M1030.05 862.576C1031.51 870.585 1025.86 891.55 1029.78 898.084C1033.7 904.619 1048.59 907.911 1050.94 908.558C1053.29 909.205 1050.94 918.009 1050.94 918.009C1050.94 918.009 1022.08 911.879 1019.06 906.003C1016.04 900.128 1019.06 887.611 1019.06 883.779V852.103C1018.78 851.3 1028.6 854.568 1030.05 862.576Z" fill="#5A978C"/>
<path d="M1096.28 854.657L1119.64 845.206C1119.64 845.206 1121.84 842.396 1122.11 840.608C1122.39 838.819 1126.51 851.847 1120.74 854.657C1114.97 857.467 1098.48 863.854 1096.28 864.365C1094.08 864.875 1096.28 854.657 1096.28 854.657Z" fill="#5A978C"/>
<path d="M1095.46 870.495C1097.38 870.751 1095.73 895.274 1096.28 896.552C1096.83 897.829 1096.28 922.352 1096.28 922.352L1110.85 927.717L1096.28 928.994V937.424V996.944L1106.45 1000.26L1096.28 1001.54L1096.01 1019.42C1096.01 1019.42 1086.66 1021.72 1085.84 1021.98C1085.02 1022.23 1075.12 1023 1075.12 1023C1075.12 1023 1093.53 870.24 1095.46 870.495Z" fill="#5A978C"/>
<path d="M1292.38 7412.14C1290.77 7411.11 1289.24 7425.08 1290.16 7428.42C1291.09 7431.76 1302.9 7444.11 1303.82 7442.39C1304.73 7440.68 1305.12 7427.83 1302.77 7423.66C1300.41 7419.49 1294 7413.17 1292.38 7412.14Z" fill="#F98938"/>
<path d="M1303.32 7411.28C1302.17 7409.75 1295.8 7422.28 1295.49 7425.73C1295.18 7429.18 1301.87 7444.9 1303.33 7443.62C1304.79 7442.34 1309.7 7430.45 1308.97 7425.72C1308.23 7420.99 1304.47 7412.81 1303.32 7411.28Z" fill="#F98938"/>
<path d="M1313.43 7412.58C1312.82 7410.76 1302.85 7420.67 1301.47 7423.85C1300.1 7427.03 1301.53 7444.05 1303.32 7443.3C1305.11 7442.54 1313.49 7432.78 1314.27 7428.06C1315.06 7423.34 1314.04 7414.39 1313.43 7412.58Z" fill="#F98938"/>
<ellipse rx="46.9061" ry="12.7265" transform="matrix(-0.957105 -0.28974 -0.28974 0.957105 208.749 2871.39)" fill="#C9B895"/>
<ellipse rx="53.1957" ry="17.0001" transform="matrix(-0.957105 -0.28974 -0.28974 0.957105 234.43 2902.54)" fill="#C9B895"/>
<path d="M-18.0007 14396.5L577.499 14028L1160.52 13725.9L1304.74 13472.2L1342.47 13236.2L1110.54 12899.9L726.433 12723L226.246 12539.9L-61.3367 12035.5L163.512 11634.5L442.279 11159.2L1144.97 10557.1L1236.57 10125.1L917.196 9803L657.999 9382L516.499 9200.5L350.345 9137L162.999 9137L55.8803 9220L-26.5012 9437.5L14.9987 9595L162.999 9724.5L310.999 9756.5L408.499 9756.5L616.499 9682.5L841.999 9566L1082.32 9406.73L1395.64 9075.45L1278 8785.86L917.196 8505.53L486.411 8309.55L350.345 8000.79L806.66 7371.41L1251.76 7104.53L1555.21 6709.38L1565 6392.89L1308.17 6036.07L1087.69 5821.67L765.26 5677.46L315.395 5512.02L-196.507 4934.72L-71.664 4517.87" stroke="#B39C6B" stroke-width="70" stroke-dasharray="100 100"/>
<path d="M1464 1242L1051.72 1353.15L686.918 1601L535 1960L664.93 2348.39L1255.61 2589" stroke="#B29C6B" stroke-opacity="0.74" stroke-width="70" stroke-dasharray="100 100"/>
<path d="M1326.5 2642L1544.5 2864.5L1868.5 3210.5L1455.5 3618L1148.5 3953L740.999 4120.5L-42.001 4328.5" stroke="#B39C6B" stroke-width="70" stroke-dasharray="100 100"/>
</g>
<defs>
<clipPath id="clip0_378_1301">
<rect width="1440" height="14395" fill="white"/>
</clipPath>
</defs>
</svg>
