<svg width="518" height="470" viewBox="0 0 518 470" fill="none" xmlns="http://www.w3.org/2000/svg">
<rect x="454.427" y="200.591" width="46.1193" height="161.004" rx="2" fill="#5A5244"/>
<path fill-rule="evenodd" clip-rule="evenodd" d="M483.188 187.665L484.521 432.832C484.544 437.216 479.317 439.506 476.111 436.516L158.279 140.118L-254.896 216.693L-326.622 385.516C-328.751 390.528 -336.224 389.007 -336.224 383.561V205.413C-336.224 200.561 -335.046 195.781 -332.793 191.483L-259.485 51.6646C-256.593 46.148 -251.418 42.293 -245.261 41.3514C-94.9302 18.3618 241.281 26.6213 401.592 36.7471C404.524 36.9323 407.35 37.2685 410.152 38.1499C437.305 46.6892 457.561 78.9301 460.783 91.9988L481.354 173.268C482.546 177.975 483.162 182.809 483.188 187.665Z" fill="#8FBD9C"/>
<path fill-rule="evenodd" clip-rule="evenodd" d="M454.857 408.116H355.724C356.476 403.523 356.865 398.818 356.865 394.028C356.865 343.062 312.753 301.745 258.338 301.745C203.923 301.745 159.81 343.062 159.81 394.028C159.81 398.818 160.2 403.523 160.951 408.116H-113.416C-112.582 403.282 -112.148 398.322 -112.148 393.267C-112.148 342.301 -156.26 300.985 -210.675 300.985C-265.09 300.985 -309.203 342.301 -309.203 393.267C-309.203 398.322 -308.769 403.282 -307.934 408.116H-359.515V205.413C-359.515 200.561 -358.337 195.781 -356.084 191.483L-282.776 51.6646C-279.884 46.148 -274.709 42.293 -268.552 41.3514C-118.221 18.3618 217.99 26.6213 378.301 36.7471C381.233 36.9323 384.059 37.2685 386.861 38.1499C414.014 46.6893 434.27 78.9302 437.492 91.9988L458.023 173.107C459.241 177.92 459.857 182.866 459.857 187.83V403.116C459.857 405.878 457.619 408.116 454.857 408.116Z" fill="#6CA37C"/>
<path d="M-19.3438 70.9548C-19.3438 68.1934 -17.1052 65.9548 -14.3438 65.9548H206.253C209.014 65.9548 211.253 68.1934 211.253 70.9548V182.763C211.253 183.315 210.805 183.763 210.253 183.763H-18.3437C-18.896 183.763 -19.3438 183.315 -19.3438 182.763V70.9548Z" fill="url(#paint0_linear_183_5125)"/>
<path d="M248.986 70.9548C248.986 68.1934 251.224 65.9548 253.986 65.9548H369.151C376.883 65.9548 383.151 72.2228 383.151 79.9548V182.763C383.151 183.315 382.703 183.763 382.151 183.763H249.986C249.434 183.763 248.986 183.315 248.986 182.763V70.9548Z" fill="url(#paint1_linear_183_5125)"/>
<path d="M160.312 383.575L159.262 413.378C159.167 416.065 156.964 418.196 154.275 418.202L-109.77 418.745C-112.535 418.751 -114.78 416.511 -114.78 413.745L-114.78 383.413L160.312 383.575Z" fill="#597B63"/>
<rect x="387.344" y="69.259" width="37.7339" height="7.85385" rx="1" fill="#5A5244"/>
<rect x="395.729" y="84.9668" width="37.7339" height="7.85385" rx="1" fill="#5A5244"/>
<rect x="404.114" y="100.674" width="37.7339" height="7.85385" rx="1" fill="#5A5244"/>
<rect x="408.307" y="116.382" width="37.7339" height="7.85385" rx="1" fill="#5A5244"/>
<rect x="135.784" y="219.105" width="75.4679" height="15.7077" rx="1" fill="#5A5244"/>
<rect width="54.4279" height="8.63364" rx="1" transform="matrix(0.725167 -0.688573 0.73451 0.678597 81.2798 154.482)" fill="white"/>
<rect width="77.3398" height="8.63364" rx="1" transform="matrix(0.725167 -0.688573 0.734511 0.678597 119.014 154.551)" fill="white"/>
<rect x="165.43" y="391.89" width="35.3423" height="289.283" rx="5" transform="rotate(90 165.43 391.89)" fill="#5A5244"/>
<rect x="491.232" y="394.477" width="35.3423" height="122.512" rx="5" transform="rotate(90 491.232 394.477)" fill="#5A5244"/>
<ellipse cx="258.693" cy="394.915" rx="79.6606" ry="74.6116" fill="#817E7A"/>
<ellipse rx="33.597" ry="31.4676" transform="matrix(1 0 0 -1 258.693 393.062)" fill="#D0CCC0"/>
<defs>
<linearGradient id="paint0_linear_183_5125" x1="95.9544" y1="65.9548" x2="95.9544" y2="183.763" gradientUnits="userSpaceOnUse">
<stop stop-color="#E9FDF8"/>
<stop offset="1" stop-color="#D9F8F0" stop-opacity="0.54"/>
</linearGradient>
<linearGradient id="paint1_linear_183_5125" x1="316.068" y1="65.9548" x2="316.068" y2="183.763" gradientUnits="userSpaceOnUse">
<stop stop-color="#D9F8F0"/>
<stop offset="1" stop-color="#D9F8F0" stop-opacity="0.51"/>
</linearGradient>
</defs>
</svg>
