<svg width="470" height="227" viewBox="0 0 470 227" fill="none" xmlns="http://www.w3.org/2000/svg">
<g filter="url(#filter0_d_373_2150)">
<path d="M4.76953 89.7839C11.97 79.2546 16.2884 73.6428 32.0695 72.0036C32.0695 72.0036 41.7454 70.2939 49.0024 77.4744C56.2593 84.6549 56.2593 98.674 56.2593 98.674L41.3998 128.422L30.6872 136.97L20.3201 126.37H14.0999V119.19L4.76953 106.538V89.7839Z" fill="#EEB182"/>
<path d="M3.99746 82.5982C1.10267 91.0013 1.57619 95.7127 3.99746 104.116C3.99746 104.116 20.2279 98.2805 24.1953 97.9158C28.1627 97.5511 38.983 103.386 41.1471 106.304C43.3111 109.222 42.2291 127.822 42.2291 127.822L57.7382 142.774C57.7382 142.774 71.4438 155.174 76.854 157.363C82.2641 159.551 101.38 161.01 101.38 161.01L127.709 157.363C127.709 157.363 170.269 151.527 179.286 152.621C188.303 153.715 234.109 166.48 240.961 166.48C247.814 166.48 283.521 155.539 283.521 155.539L292.177 157.727L304.801 152.986L376.576 133.657C376.576 133.657 378.379 128.916 376.576 124.904C374.772 120.892 370.083 117.974 370.083 117.974C370.083 117.974 319.949 123.445 314.179 123.445C308.408 123.445 290.374 135.116 290.374 135.116L266.209 129.28L286.407 121.622L359.984 70.563C359.984 70.563 357.82 66.1866 352.771 62.9042C347.722 59.6219 339.426 64.7277 339.426 64.7277C339.426 64.7277 295.063 83.6923 290.374 87.7041C285.685 91.7158 273.062 105.939 273.062 105.939C273.062 105.939 229.059 104.116 221.485 102.657C213.911 101.198 195.877 107.398 195.877 107.398C195.877 107.398 190.106 103.751 184.696 104.116C179.286 104.48 169.548 107.398 169.548 107.398C169.548 107.398 96.6911 100.469 92.7237 101.198C88.7563 101.928 66.7551 104.116 66.7551 104.116L57.3775 96.0923C57.3775 96.0923 54.4921 77.8571 51.9673 75.6689C49.4426 73.4806 42.9505 66.916 33.2122 67.2807C23.474 67.6454 14.8436 70.6738 3.99746 82.5982Z" fill="#306875"/>
<path fill-rule="evenodd" clip-rule="evenodd" d="M94.9712 71.2207L165.024 73.3577C170.544 73.5261 174.884 78.1377 174.718 83.658L174.292 97.7739C174.125 103.294 169.515 107.633 163.995 107.464L91.7293 105.26L91.7336 105.116C83.6233 103.778 77.5505 96.4307 77.8118 87.7663C78.0731 79.1018 84.5776 72.1384 92.7537 71.2969L92.758 71.1532L94.8743 71.2178C94.8904 71.2182 94.9066 71.2187 94.9227 71.2192C94.9389 71.2197 94.955 71.2202 94.9712 71.2207Z" fill="#FABB32"/>
<path d="M200.914 158.685L145.741 133.003L105.352 135.535C105.352 135.535 90.2065 142.769 75.782 139.152C61.3576 135.535 58.4727 121.79 58.4727 121.79C59.271 114.222 60.1504 110.54 65.6849 109.13L102.828 110.577H151.511L207.405 147.11L200.914 158.685Z" fill="#57919F"/>
<path d="M205.842 147.549L200.762 158.479L219.27 175.966L238.14 177.059L243.947 170.866L242.132 160.3L214.915 151.921L205.842 147.549Z" fill="#EEB182"/>
<path d="M93.9062 157.486C84.173 158.348 78.9782 156.813 69.8371 153.117L46.8457 198.624L58.3414 200.444L93.9062 157.486Z" fill="#306875"/>
<path d="M47.3342 197.66L58.4721 199.854L52.3642 212.286L43.0228 217.04L45.5378 211.189L30.0885 222.159L24.6992 213.749L35.4778 203.876L47.3342 197.66Z" fill="#EEB182"/>
<path d="M344.87 50.5961C340.701 54.3789 340.201 64.1671 340.201 64.1671C340.201 64.1671 348.622 62.058 351.108 62.9135C353.594 63.769 361.173 71.067 361.173 71.067C361.173 71.067 386.602 61.4769 390.448 56.9504C394.294 52.4239 425.393 9.68642 425.393 9.68642C425.393 9.68642 419.903 3.95039 415.217 3.70815C410.531 3.46591 390.675 10.0727 390.675 10.0727L377.482 34.8346C365.203 44.5224 349.039 46.8133 344.87 50.5961Z" fill="#8EB439"/>
<path d="M372.961 108.362L365.75 118.901C365.75 118.901 370.798 119.264 374.404 123.262C378.009 127.26 376.206 133.438 376.206 133.438C376.206 133.438 389.908 131.621 397.84 131.984C405.773 132.348 413.344 136.345 419.114 139.253C424.883 142.16 441.829 159.241 441.829 159.241C441.829 159.241 450.843 157.424 458.054 149.792C465.266 142.16 467.069 133.438 467.069 133.438C467.069 133.438 431.733 110.906 428.849 109.815C425.964 108.725 416.95 105.454 410.821 105.818C404.691 106.181 397.84 108.362 397.84 108.362H372.961Z" fill="#8EB439"/>
<path fill-rule="evenodd" clip-rule="evenodd" d="M365.75 118.901L372.961 108.362H397.84C397.84 108.362 404.691 106.181 410.821 105.818C415.786 105.523 422.644 107.613 426.603 108.998C422.239 109.914 412.101 112.437 409.167 117.44C406.025 122.797 405.677 131.287 405.677 131.287L404.319 133.023C402.208 132.465 400.038 132.085 397.84 131.984C389.908 131.621 376.206 133.438 376.206 133.438C376.206 133.438 378.009 127.26 374.404 123.262C370.798 119.264 365.75 118.901 365.75 118.901Z" fill="#56773C"/>
<rect width="7.79908" height="9.44247" transform="matrix(0.752398 -0.658709 0.654489 0.756071 18.0547 132.085)" fill="black"/>
<ellipse cx="1.66491" cy="5.68625" rx="1.66491" ry="5.68625" transform="matrix(0.7605 -0.649338 0.645089 0.764107 15.8418 133.043)" fill="black"/>
<rect width="8.30482" height="34.1482" transform="matrix(0.99984 0.0179004 -0.0176994 0.999843 122.447 72.127)" fill="black"/>
<rect width="8.30484" height="34.2982" transform="matrix(0.999572 0.0292644 -0.028936 0.999581 146.389 72.7891)" fill="black"/>
<path d="M28.0215 132.648C28.0215 132.648 36.6194 139.402 43.7843 136.025C50.9493 132.648 58.4724 122.855 61.6966 120.154C64.9209 117.452 76.743 89.0864 76.743 89.0864" stroke="black" stroke-width="3"/>
<rect x="72.8672" y="86.3027" width="4.98288" height="3.89753" fill="black"/>
<path fill-rule="evenodd" clip-rule="evenodd" d="M341.448 57.9372C343.849 57.3964 349.275 56.2995 351.188 56.9578C353.675 57.8132 361.253 65.1112 361.253 65.1112C361.253 65.1112 386.683 55.5211 390.528 50.9946C393.644 47.3272 414.651 18.5755 422.512 7.79492C424.271 9.15623 425.473 10.4122 425.473 10.4122C425.473 10.4122 394.374 53.1496 390.528 57.6761C386.683 62.2026 361.253 71.7927 361.253 71.7927C361.253 71.7927 353.675 64.4948 351.188 63.6393C348.702 62.7838 340.281 64.8929 340.281 64.8929C340.281 64.8929 340.455 61.4999 341.448 57.9372Z" fill="#56773C"/>
</g>
<defs>
<filter id="filter0_d_373_2150" x="0" y="3.70166" width="469.068" height="222.457" filterUnits="userSpaceOnUse" color-interpolation-filters="sRGB">
<feFlood flood-opacity="0" result="BackgroundImageFix"/>
<feColorMatrix in="SourceAlpha" type="matrix" values="0 0 0 0 0 0 0 0 0 0 0 0 0 0 0 0 0 0 127 0" result="hardAlpha"/>
<feOffset dy="2"/>
<feGaussianBlur stdDeviation="1"/>
<feComposite in2="hardAlpha" operator="out"/>
<feColorMatrix type="matrix" values="0 0 0 0 0 0 0 0 0 0 0 0 0 0 0 0 0 0 0.26 0"/>
<feBlend mode="normal" in2="BackgroundImageFix" result="effect1_dropShadow_373_2150"/>
<feBlend mode="normal" in="SourceGraphic" in2="effect1_dropShadow_373_2150" result="shape"/>
</filter>
</defs>
</svg>
