<svg width="1440" height="1090" viewBox="0 0 1440 1090" fill="none" xmlns="http://www.w3.org/2000/svg">
<g clip-path="url(#clip0_1662_2084)">
<rect width="1440" height="1090" fill="#BEEDFF"/>
<ellipse cx="338.5" cy="151.5" rx="562.5" ry="14.5" fill="white"/>
<ellipse cx="496.526" cy="412.024" rx="148.294" ry="18" transform="rotate(0.782498 496.526 412.024)" fill="white"/>
<ellipse cx="285.5" cy="378" rx="224.5" ry="18" fill="white"/>
<rect y="524" width="1440" height="566" fill="#63CCF3"/>
<rect x="268" y="779" width="92" height="77" fill="#395885"/>
<ellipse cx="975.5" cy="956" rx="326.5" ry="9" fill="#A0DCF2"/>
<rect x="666" y="921" width="92" height="149" fill="#395885"/>
<ellipse cx="722.5" cy="533" rx="326.5" ry="9" fill="#A0DCF2"/>
<ellipse cx="1181.5" cy="585" rx="326.5" ry="9" fill="#A0DCF2"/>
<ellipse cx="1307.5" cy="817" rx="326.5" ry="9" fill="#395885"/>
<ellipse cx="1125.5" cy="795" rx="326.5" ry="4" fill="#395885"/>
<ellipse cx="479.5" cy="701" rx="326.5" ry="9" fill="#A0DCF2"/>
<ellipse cx="170.5" cy="560" rx="326.5" ry="9" fill="#A0DCF2"/>
<path d="M753.886 930.865C537.387 1004.37 815.322 1067.57 786.886 1092.37C728.048 1143.68 535.598 1108.86 390.386 1108.86C174.995 1108.86 -34.1135 1177.25 -34.1135 1083.37C-34.1135 1048.89 -202.572 896.158 -162.114 869.365C-136.046 852.102 -283.955 778.17 -245.613 766.067C-142.113 755.067 261.042 769.865 346.386 769.865C412.887 789.865 221.517 807.084 279.886 822.26C342.977 838.664 480.791 853.59 591.386 874.161C680.777 890.788 786.886 898.865 753.886 930.865Z" fill="white"/>
<path d="M267.728 601.5C267.728 622.211 246.013 639 219.228 639C192.442 639 154.728 704.711 154.728 684C154.728 663.289 192.442 564 219.228 564C246.013 564 267.728 580.789 267.728 601.5Z" fill="black"/>
<path d="M274 766.5C274 849.619 241.541 917 201.5 917C161.459 917 115.5 921.119 115.5 838C115.5 754.881 161.459 616 201.5 616C241.541 616 274 683.381 274 766.5Z" fill="black"/>
<path d="M304 615.5C282.5 620.5 288.531 621.5 275 621.5C261.469 621.5 260.5 623.299 260.5 617.5C260.5 611.701 258.5 597.5 267 597.5C281 607 289 606.5 304 615.5Z" fill="#D8AA58"/>
<path d="M224.5 628.5C270 638.5 307 836 233 904C207.348 927.573 185 928 195 870.5C193.256 862.166 177.452 849.874 176.5 833C203.5 766 189 637.818 189 632C189 620.954 208.559 606 218.5 606C228.441 606 218 617.5 224.5 628.5Z" fill="white"/>
<path d="M219.904 731C230 783.5 202.136 842.5 194.404 842.5C186.672 842.5 180.404 814.518 180.404 780C180.404 745.482 147.5 689.5 169 694.5C176.732 694.5 200.5 678.5 219.904 731Z" fill="black"/>
<ellipse cx="242.5" cy="594.5" rx="3.5" ry="6.5" fill="white"/>
<path d="M155 887L155 913H105.5L57 902L112.5 898.51L155 887Z" fill="black"/>
<path d="M138 876L138 902H88.5L40 891L95.5 887.51L138 876Z" fill="black"/>
<ellipse cx="311" cy="917" rx="74" ry="21" fill="#718CB3"/>
<path d="M251 917L251 931H225.745L201 925.077L229.316 923.198L251 917Z" fill="black"/>
<path d="M320.89 767.967C320.89 778.995 307.354 787.934 290.658 787.934C273.961 787.934 250.452 822.923 250.452 811.895C250.452 800.868 273.961 748 290.658 748C307.354 748 320.89 756.94 320.89 767.967Z" fill="black"/>
<path d="M324.8 855.823C324.8 900.081 304.566 935.958 279.607 935.958C254.648 935.958 226 938.151 226 893.894C226 849.637 254.648 775.688 279.607 775.688C304.566 775.688 324.8 811.566 324.8 855.823Z" fill="black"/>
<path d="M343.5 775.422C330.098 778.084 333.857 778.616 325.423 778.616C316.989 778.616 316.384 779.574 316.384 776.487C316.384 773.399 315.138 765.837 320.436 765.837C329.163 770.896 334.15 770.63 343.5 775.422Z" fill="#D8AA58"/>
<path d="M293.944 782.344C322.306 787.668 345.37 892.829 299.243 929.036C283.252 941.588 269.322 941.815 275.556 911.199C274.468 906.761 264.617 900.216 264.024 891.232C280.854 855.557 271.816 787.305 271.816 784.207C271.816 778.326 284.008 770.363 290.204 770.363C296.401 770.363 289.893 776.487 293.944 782.344Z" fill="white"/>
<path d="M291.08 836.921C297.373 864.875 280.004 896.29 275.184 896.29C270.365 896.29 266.458 881.39 266.458 863.011C266.458 844.632 245.947 814.824 259.349 817.486C264.168 817.486 278.984 808.966 291.08 836.921Z" fill="black"/>
<ellipse cx="305.164" cy="764.24" rx="2.1817" ry="3.46099" fill="white"/>
<ellipse cx="338.5" cy="151.5" rx="562.5" ry="14.5" fill="white"/>
<ellipse cx="496.526" cy="412.024" rx="148.294" ry="18" transform="rotate(0.782498 496.526 412.024)" fill="white"/>
<ellipse cx="285.5" cy="378" rx="224.5" ry="18" fill="white"/>
<rect y="524" width="1440" height="566" fill="#63CCF3"/>
</g>
<defs>
<clipPath id="clip0_1662_2084">
<rect width="1440" height="1090" fill="white"/>
</clipPath>
</defs>
</svg>
