<svg width="390" height="844" viewBox="0 0 390 844" fill="none" xmlns="http://www.w3.org/2000/svg">
<g clip-path="url(#clip0_1447_2014)">
<rect width="390" height="844" fill="#BEEDFF"/>
<rect x="-427" y="378" width="1440" height="566" fill="#63CCF3"/>
<ellipse cx="331.5" cy="45" rx="169.5" ry="9" fill="white"/>
<ellipse cx="80.5" cy="143" rx="169.5" ry="9" fill="white"/>
<rect x="231" y="702" width="92" height="149" fill="#395885"/>
<rect x="-8" y="587" width="92" height="149" fill="#395885"/>
<path d="M295.5 722.5C193.797 780.958 448.858 830.151 435.5 849.875C407.86 890.686 165.983 849.875 97.7682 849.875C-3.41421 849.875 -101.645 904.267 -101.645 829.594C-101.645 802.175 -180.781 680.701 -161.775 659.391C-149.529 645.661 -219.011 586.861 -201 577.235C-152.38 568.486 37.0073 580.256 77.0988 580.256C108.338 596.162 18.4401 609.857 45.8596 621.927C75.4973 634.974 140.237 646.845 192.19 663.206C234.182 676.43 385.5 693 295.5 722.5Z" fill="white"/>
<ellipse cx="168.5" cy="730" rx="42.5" ry="14" fill="#718CB3"/>
<path d="M67 716L66.9999 730H41.7449L17 724.077L45.3163 722.198L67 716Z" fill="black"/>
<path d="M136.89 566.967C136.89 577.995 123.354 586.934 106.658 586.934C89.961 586.934 66.4522 621.923 66.4522 610.895C66.4522 599.868 89.961 547 106.658 547C123.354 547 136.89 555.94 136.89 566.967Z" fill="black"/>
<path d="M140.8 654.823C140.8 699.081 120.566 734.958 95.6074 734.958C70.6484 734.958 42 737.151 42 692.894C42 648.637 70.6484 574.688 95.6074 574.688C120.566 574.688 140.8 610.566 140.8 654.823Z" fill="black"/>
<path d="M159.5 574.422C146.098 577.084 149.857 577.616 141.423 577.616C132.989 577.616 132.384 578.574 132.384 575.487C132.384 572.399 131.138 564.837 136.436 564.837C145.163 569.896 150.15 569.63 159.5 574.422Z" fill="#D8AA58"/>
<path d="M109.944 581.344C138.306 586.668 161.37 691.829 115.243 728.036C99.2525 740.588 85.3225 740.815 91.5557 710.199C90.4684 705.761 80.6173 699.216 80.0239 690.232C96.8541 654.557 87.8159 586.305 87.8159 583.207C87.8159 577.326 100.008 569.363 106.204 569.363C112.401 569.363 105.893 575.487 109.944 581.344Z" fill="white"/>
<path d="M107.08 635.921C113.373 663.875 96.0041 695.29 91.1845 695.29C86.3648 695.29 82.4577 680.39 82.4577 662.011C82.4577 643.632 61.9468 613.824 75.3487 616.486C80.1684 616.486 94.9838 607.967 107.08 635.921Z" fill="black"/>
<ellipse cx="121.164" cy="563.24" rx="2.1817" ry="3.46099" fill="white"/>
<path d="M131.772 735.677L131.772 743.603H117.239L103 740.25L119.294 739.186L131.772 735.677Z" fill="black"/>
<path d="M171.989 651.304C171.989 657.547 164.2 662.608 154.592 662.608C144.984 662.608 131.457 682.417 131.457 676.173C131.457 669.93 144.984 640 154.592 640C164.2 640 171.989 645.061 171.989 651.304Z" fill="black"/>
<path d="M174.239 701.043C174.239 726.099 162.596 746.41 148.233 746.41C133.871 746.41 117.386 747.652 117.386 722.596C117.386 697.54 133.871 655.675 148.233 655.675C162.596 655.675 174.239 675.987 174.239 701.043Z" fill="black"/>
<path d="M185 655.524C177.288 657.032 179.451 657.333 174.597 657.333C169.744 657.333 169.396 657.875 169.396 656.127C169.396 654.379 168.679 650.098 171.728 650.098C176.749 652.962 179.619 652.811 185 655.524Z" fill="#D8AA58"/>
<path d="M157.011 659.758C174.084 662.762 187.967 722.083 160.2 742.508C150.575 749.588 142.189 749.716 145.942 732.446C145.287 729.942 139.357 726.25 139 721.182C149.131 701.058 143.69 662.557 143.69 660.809C143.69 657.492 151.029 653 154.76 653C158.49 653 154.572 656.454 157.011 659.758Z" fill="white"/>
<path d="M154.835 690.341C158.457 706.167 148.462 723.953 145.689 723.953C142.915 723.953 140.667 715.517 140.667 705.112C140.667 694.707 128.864 677.831 136.576 679.339C139.35 679.339 147.875 674.516 154.835 690.341Z" fill="black"/>
<ellipse cx="162.94" cy="649.194" rx="1.25543" ry="1.95939" fill="white"/>
<path d="M150 426H396V511H232.183L150 426Z" fill="#AE8336"/>
<line x1="325" y1="208" x2="325" y2="426" stroke="#634C1B" stroke-width="4"/>
<path d="M328 208V406H386H444L328 208Z" fill="white"/>
<ellipse cx="59.5" cy="529" rx="233.5" ry="6" fill="#A0DCF2"/>
<ellipse cx="312" cy="569" rx="107" ry="6" fill="#A0DCF2"/>
<ellipse cx="9" cy="420" rx="107" ry="6" fill="#A0DCF2"/>
<ellipse cx="333.5" cy="513" rx="148.5" ry="3" fill="#395885"/>
</g>
<defs>
<clipPath id="clip0_1447_2014">
<rect width="390" height="844" fill="white"/>
</clipPath>
</defs>
</svg>
