<svg width="193" height="203" viewBox="0 0 193 203" fill="none" xmlns="http://www.w3.org/2000/svg">
<path fill-rule="evenodd" clip-rule="evenodd" d="M16.9955 169.163C15.5035 167.425 3.56866 171.48 0.336277 172.638C-2.89611 173.797 18.2389 183.499 18.2389 183.499L29.6131 202.181H50.5692L58.183 178.536C58.183 178.536 81.6434 169.163 76.173 169.163H59.0166C56.53 169.163 47.8275 180.169 47.8275 180.169C47.8275 180.169 39.1249 162.791 36.1412 160.184C33.1574 157.578 29.1791 183.499 29.1791 183.499C29.1791 183.499 18.4875 170.901 16.9955 169.163Z" fill="#71A580"/>
<ellipse cx="137.5" cy="111.5" rx="45.5" ry="17.5" fill="#8D743E"/>
<path fill-rule="evenodd" clip-rule="evenodd" d="M72.2117 28.0614C69.2084 22.7393 45.1837 35.1575 38.6769 38.7056C32.1702 42.2536 74.7146 71.9685 74.7146 71.9685L97.6107 129.181H139.795L155.122 56.7687C155.122 56.7687 202.347 28.0614 191.335 28.0614H156.8C151.794 28.0614 134.276 61.7678 134.276 61.7678C134.276 61.7678 116.758 8.5472 110.752 0.564106C104.746 -7.41899 96.7372 71.9685 96.7372 71.9685C96.7372 71.9685 75.2151 33.3835 72.2117 28.0614Z" fill="#71A580"/>
</svg>
