<svg width="393" height="414" viewBox="0 0 393 414" fill="none" xmlns="http://www.w3.org/2000/svg">
<path d="M393 300.586C393 315.883 295.607 384 243.802 384C191.997 384 187 370.796 187 355.5C187 340.204 180.5 362.5 243.802 328.607C384.863 241.56 393 285.29 393 300.586Z" fill="#8D743E"/>
<path d="M144.934 136.174C147.089 148.917 138.726 182.277 144.527 192.676C150.329 203.074 172.349 208.312 175.827 209.342C179.305 210.371 175.827 224.382 175.827 224.382C175.827 224.382 133.146 214.626 128.674 205.277C124.203 195.928 128.674 176.01 128.674 169.912V119.508C128.258 118.23 142.778 123.43 144.934 136.174Z" fill="#5A978C"/>
<path d="M242.897 123.572L277.449 108.532C277.449 108.532 280.701 104.061 281.107 101.216C281.514 98.3701 287.611 119.101 279.075 123.572C270.539 128.044 246.149 138.206 242.897 139.019C239.646 139.832 242.897 123.572 242.897 123.572Z" fill="#5A978C"/>
<path d="M241.678 148.775C244.523 149.181 242.084 188.204 242.897 190.237C243.71 192.269 242.897 231.292 242.897 231.292L264.441 239.828L242.897 241.861V255.275V349.987L257.937 355.271L242.897 357.304L242.491 385.758C242.491 385.758 228.67 389.416 227.451 389.823C226.231 390.229 211.598 391.449 211.598 391.449C211.598 391.449 238.832 148.368 241.678 148.775Z" fill="#5A978C"/>
<path d="M107.235 104.598C105.261 103.509 104.495 120.025 105.83 123.877C107.166 127.729 121.946 141.348 122.895 139.27C123.844 137.191 123.351 122.069 120.277 117.352C117.203 112.635 109.21 105.686 107.235 104.598Z" fill="#EB71C9"/>
<path d="M120.011 102.777C118.548 101.061 111.997 116.241 111.885 120.317C111.773 124.392 120.789 142.355 122.411 140.746C124.033 139.137 128.915 124.815 127.706 119.317C126.496 113.818 121.474 104.493 120.011 102.777Z" fill="#EB71C9"/>
<path d="M131.978 103.551C131.125 101.463 120.154 113.833 118.773 117.669C117.392 121.504 120.337 141.386 122.381 140.365C124.425 139.344 133.541 127.268 134.112 121.667C134.684 116.066 132.83 105.638 131.978 103.551Z" fill="#EB71C9"/>
<path d="M242.651 385.583C217.503 393.702 203.404 392.976 178.256 385.583L172.202 31.684C201.252 -11.2362 216.627 -9.88101 242.651 31.684V385.583Z" fill="#71A580"/>
<path d="M278.977 106.536C273.473 115.893 238.248 124.699 238.248 124.699C238.248 124.699 233.295 146.715 238.248 149.467C243.202 152.218 312 142.312 312 121.397V48.7458C302.643 17.5077 278.998 35.8978 278.977 48.7458C278.957 61.5938 284.481 97.1799 278.977 106.536Z" fill="#71A580"/>
<path d="M145.233 194.735C150.737 204.092 185.962 212.898 185.962 212.898C185.962 212.898 190.915 234.914 185.962 237.666C181.008 240.417 112.21 230.511 112.21 209.596V136.945C121.567 105.707 145.212 124.097 145.233 136.945C145.253 149.793 139.729 185.379 145.233 194.735Z" fill="#71A580"/>
<path d="M254.235 41.2408L240.886 42.5208L241.483 48.7506L254.235 41.2408Z" fill="#71A580"/>
<path d="M159.169 68.2479L175.417 69.8057L174.69 77.3879L159.169 68.2479Z" fill="#71A580"/>
<path d="M264.702 239.571L241.966 241.639L241.001 231.029L264.702 239.571Z" fill="#71A580"/>
<path d="M162.471 312.62L178.719 314.178L177.992 321.76L162.471 312.62Z" fill="#71A580"/>
<path d="M258.169 355.398L241.984 357.505L241.001 349.951L258.169 355.398Z" fill="#71A580"/>
<path d="M291.182 154.972L280.628 142.522L286.438 137.597L291.182 154.972Z" fill="#71A580"/>
<path d="M270.347 82.5579L286.595 84.1157L285.868 91.6979L270.347 82.5579Z" fill="#71A580"/>
<path d="M99.7276 170.62L115.975 172.178L115.248 179.76L99.7276 170.62Z" fill="#71A580"/>
<path d="M158.347 155.949L174.534 153.854L175.512 161.408L158.347 155.949Z" fill="#71A580"/>
<path d="M154.716 248.217L152.938 231.992L160.51 231.163L154.716 248.217Z" fill="#71A580"/>
<path d="M248 396.823C231.602 420.221 186.216 412.923 111.607 412.923C36.9988 412.923 -15.4144 410.561 4.1073 393.174C22.0675 370.849 33.5202 351.1 107.703 335C184.229 351.1 228.218 376.215 248 396.823Z" fill="#FFE8BC"/>
<path d="M211.571 359.682L224.42 369.555L248 397L239 407L229 411.5L215 413.5H199L185.5 409L169.399 394C169.399 394 166.336 384.704 166.496 379.817C166.657 374.931 178.271 371.401 174.907 369.555C171.543 367.709 156.965 363.202 148.074 362.768C139.183 362.333 115.553 357.935 111.148 355.546C106.743 353.157 110.107 350.095 108.585 348.629C107.063 347.163 101.856 341.592 104.98 341.103C108.104 340.614 124.364 342.352 121.24 341.103C118.117 339.854 101.416 335.776 104.98 335.239C108.545 334.702 118.117 335.239 118.117 335.239L142.146 338.497L178.671 346.207L211.571 359.682Z" fill="#EFD59E"/>
</svg>
