<svg width="204" height="287" viewBox="0 0 204 287" fill="none" xmlns="http://www.w3.org/2000/svg">
<path d="M142.806 234L183.612 245.7L188.673 265.577L169.061 278.4L158.306 282.677L126.357 286.5L105.796 281.1L102 267.3L116.867 252.9L142.806 234Z" fill="#DE8563"/>
<path d="M185.51 253.577L182.663 245.477L195 266.177L189.622 272.477L184.245 277.277L157.99 282.677L169.378 275.777L182.663 266.177L185.51 253.577Z" fill="#C1623C"/>
<ellipse cx="68.7185" cy="50.2391" rx="25.6892" ry="32.3414" fill="#F9DACD"/>
<path d="M63.2598 80.3823C63.9716 84.5632 64.1385 86.784 63.2598 90.1161H73.8566C72.6765 86.5619 72.9725 84.3687 73.8566 80.3823H63.2598Z" fill="#F9DACD"/>
<path d="M72.5722 40.5051C76.5861 35.7952 72.5722 29.9863 72.5722 29.9863L40.9424 34.0682C40.9424 34.0682 36.4468 46.471 40.9424 49.2969C45.438 52.1229 46.5619 51.8089 52.9842 52.1229C59.4065 52.4369 68.5583 45.215 72.5722 40.5051Z" fill="#A24D3D"/>
<path d="M30.9873 39.7201C30.5057 35.3242 45.5981 40.8889 45.5981 40.8889V48.2677C45.5981 48.2677 41.7447 49.6807 42.5475 57.5305C43.3502 65.3804 47.3642 132.104 47.3642 132.104C47.3642 132.104 24.7256 139.797 24.7256 130.377C24.7256 120.957 31.469 44.116 30.9873 39.7201Z" fill="#A24D3D"/>
<rect x="60.3696" y="89.1743" width="18.6247" height="21.3516" fill="#F9DACD"/>
<path d="M83.0081 42.0751C78.1914 41.256 73.6958 33.5972 73.6958 33.5972L90.0727 27.4744C90.0727 27.4744 95.5316 37.3652 93.7655 40.0341C91.9993 42.7031 87.8249 42.8942 83.0081 42.0751Z" fill="#A24D3D"/>
<ellipse cx="44.3137" cy="59.3448" rx="6.74341" ry="6.59387" fill="#F9DACD"/>
<path d="M16.0801 144.042L26.8459 120.26L37.8914 125.863L16.0801 166.731L8.66992 161.4L16.0801 144.042Z" fill="#F9DACD"/>
<path d="M132.854 64.61L114.317 89.2061L117.708 103.557C117.708 103.557 148.105 72.3131 148.71 66.0823C149.315 59.8516 143.337 55.2027 143.337 55.2027L115.726 31.585L107.797 39.3288L132.854 64.61Z" fill="#F9DACD"/>
<path d="M82.7598 90.1679L75.2692 89.2744L69.1734 108.317C69.1734 108.317 83.4281 100.37 87.4204 96.892C91.4127 93.4142 82.7598 90.1679 82.7598 90.1679Z" fill="#E6BE9A"/>
<path d="M55.7745 90.3124L63.2248 89.1393L70.0613 107.94C70.0613 107.94 55.506 100.532 51.3805 97.206C47.255 93.8801 55.7745 90.3124 55.7745 90.3124Z" fill="#E6BE9A"/>
<path d="M51.2178 269.25V216.97H68.7185L64.544 269.25H51.2178Z" fill="#F9DACD"/>
<path d="M123.469 189.966L110.143 182.116V166.731L123.469 161.55C123.469 161.55 140.648 173.325 143.699 177.406C146.75 181.488 146.107 186.512 146.107 186.512L141.291 229.529H128.286L123.469 189.966Z" fill="#F9DACD"/>
<path d="M35.483 101.734L50.4148 96.2391L70.0028 106.915L88.3064 94.0412L111.106 90.9012C111.106 90.9012 108.376 86.6623 111.106 83.3654C113.835 80.0684 120.418 79.1265 120.418 79.1265L130.051 101.734C130.051 101.734 124.913 108.799 120.418 108.485C115.922 108.171 115.762 101.734 115.762 101.734L93.4442 118.219C93.4442 118.219 91.6781 131.72 93.4442 134.546C95.2103 137.372 104.041 147.577 104.683 152.758C105.326 157.939 78.673 166.888 78.673 166.888C78.673 166.888 45.9194 167.987 43.8321 163.12C41.7447 158.253 55.3922 144.908 54.9105 141.925C54.4289 138.942 50.4148 111.625 50.4148 111.625L38.2125 125.284C38.2125 125.284 42.2265 124.97 43.8321 129.993C45.4376 135.017 38.2125 136.116 38.2125 136.116L15.2528 125.284C15.2528 125.284 13.1656 120.103 19.7484 118.219C26.3313 116.335 26.1707 119.318 26.1707 119.318L35.483 101.734Z" fill="#E3BB97"/>
<ellipse rx="8.88497" ry="10.3332" transform="matrix(0.956184 0.292766 -0.304971 0.952362 11.6471 166.613)" fill="#F9DACD"/>
<ellipse rx="8.79284" ry="10.4432" transform="matrix(-0.673243 0.739421 -0.754232 -0.656608 106.066 30.2783)" fill="#F9DACD"/>
<path fill-rule="evenodd" clip-rule="evenodd" d="M35.859 21.4786C37.8189 11.1774 41.3886 6.081 56.6907 0.156562C72.449 -0.8025 77.4422 2.65878 84.905 10.1566C96.8014 11.8905 100.601 17.4692 101.187 20.9076C102.051 25.9801 84.9849 32.8207 66.6036 35.6178C50.8642 40.2916 27.1785 41.3666 25.2764 35.6178C24.1423 32.19 27.1398 26.8808 35.859 21.4786Z" fill="#E6BE9A"/>
<path d="M52.5024 130.15L55.3925 141.925L93.7657 136.273V126.697L52.5024 130.15Z" fill="#BE776B"/>
<rect x="2.73868" y="2.24816" width="11.3734" height="6.17072" rx="2.5" transform="matrix(0.995409 -0.0957154 0.100063 0.994981 65.937 129.322)" stroke="#F7CD82" stroke-width="5"/>
<path d="M90.0726 90.1162H81.7237C81.7237 90.1162 83.8109 104.56 80.9209 112.724C78.0308 120.888 61.9751 136.43 61.9751 136.43L68.0763 144.751C68.0763 144.751 87.5037 119.789 90.0726 113.823C92.6416 107.857 90.0726 90.1162 90.0726 90.1162Z" fill="#A56951"/>
<path d="M69.404 137.08L37.0053 129.052L30.1846 153.696L60.4991 163.591L69.404 162.657C69.404 162.657 70.1619 153.696 69.9724 151.829C69.7829 149.962 69.404 137.08 69.404 137.08Z" fill="#A36950"/>
<path d="M48.167 211.646V163.591H78.3518L70.047 211.646C61.9861 214.707 57.1461 214.405 48.167 211.646Z" fill="#E3BB97"/>
<path d="M107.012 183.058L77.0674 164.178L101.274 150.717L126.198 158.933C126.198 158.933 115.081 160.856 111.315 166.8C107.55 172.744 107.012 183.058 107.012 183.058Z" fill="#E3BB97"/>
<rect x="43.3506" y="208.806" width="31.1481" height="10.9898" rx="5" fill="#E3BB97"/>
<path d="M102.135 182.288C100.566 181.026 99.9163 178.955 100.553 177.061C103.968 166.897 107.769 161.074 118.611 155.521C120.339 154.636 122.442 154.91 123.943 156.118V156.118C126.812 158.425 126.244 162.901 122.865 164.442L117.347 166.96C116.127 167.517 115.181 168.525 114.72 169.763L110.679 180.604C109.482 183.816 105.403 184.916 102.713 182.753L102.135 182.288Z" fill="#E3BB97"/>
<path d="M50.5658 262.459L57.2939 266.393L65.6214 265.808L67.6709 269.599C67.6709 269.599 74.7612 265.323 79.5215 268.766C84.2819 272.209 84.7885 279.099 84.7885 279.099C76.162 283.991 70.6013 284.628 60.231 284.445C51.7911 282.942 48.4779 281.385 43.6639 278.055C44.4326 271.713 45.9677 268.302 50.5658 262.459Z" fill="#A96D51"/>
<path d="M126.79 223.728L133.878 227.004L142.108 225.63L144.524 229.208C144.524 229.208 151.156 224.278 156.236 227.252C161.316 230.226 162.505 237.036 162.505 237.036C154.406 242.725 148.935 243.888 138.596 244.692C130.046 243.998 126.594 242.763 121.472 239.906C121.606 233.521 122.795 229.98 126.79 223.728Z" fill="#A96D51"/>
<path fill-rule="evenodd" clip-rule="evenodd" d="M35.6621 101.299L41.9947 98.9063L43.651 119.208L38.6738 124.922C38.6738 124.922 42.6741 124.583 44.3374 129.617C46.0007 134.65 38.8068 135.795 38.8068 135.795L15.7705 125.055C15.7705 125.055 13.6249 119.866 20.1685 117.937C26.712 116.008 26.5884 119.003 26.5884 119.003L35.6621 101.299Z" fill="#E3BB97"/>
<path d="M33.5563 133.918L29.7029 141.297L26.8129 135.174L22.9595 128.895L33.5563 133.918Z" fill="#E2BAAA"/>
<path d="M51.2178 219.796H68.3974C61.3033 221.828 57.5531 223.396 51.2178 226.861V219.796Z" fill="#E2BAAA"/>
<path d="M139.043 191.065C135.511 191.85 123.469 189.966 123.469 189.966L127.643 224.192L133.744 227.018L141.612 225.605L146.107 186.983C146.107 186.983 142.575 190.28 139.043 191.065Z" fill="#E2BAAA"/>
<path d="M35.9648 21.1946L37.8915 14.1298C37.8915 14.1298 47.8461 13.6588 53.6262 13.3448C59.4062 13.0308 84.4532 10.0479 84.4532 10.0479C84.4532 10.0479 68.0763 15.8567 64.223 16.9557C60.3696 18.0547 35.9648 21.1946 35.9648 21.1946Z" fill="#DDAE83"/>
<path d="M63.5806 81.9524C68.3971 82.6077 70.1107 82.5345 73.5351 82.1356L63.9069 86.3483C63.9269 85.0728 63.9069 84.1503 63.5806 81.9524Z" fill="#E2BAAA"/>
<path d="M66.6313 138.628C68.558 140.983 69.5213 142.71 69.5213 142.71L70.003 150.874V153.543L69.3608 162.649L60.6907 163.557L60.209 142.71C60.9407 139.941 61.1725 138.36 62.9385 135.488C62.9385 135.488 64.7046 136.273 66.6313 138.628Z" fill="#8F5B44"/>
<path d="M121.06 80.3824L126.68 93.8841C125.395 86.4046 124.922 82.2112 125.235 74.7305L121.06 80.3824Z" fill="#E2BAAA"/>
</svg>
