<svg width="391" height="294" viewBox="0 0 391 294" fill="none" xmlns="http://www.w3.org/2000/svg">
<ellipse cx="325.5" cy="166" rx="65.5" ry="21" fill="#8D743E"/>
<path d="M221.998 99.4335C231.566 93.7105 236.98 90.9718 248.017 99.4335C258.626 119.657 256.35 112.91 279.257 117.659C282.47 129.949 295.744 152.157 295.964 157.917C312.642 157.346 334.476 161.155 333.111 163.719C331.745 166.283 321.161 168.257 322.801 169.05C337.882 171.614 347.301 172.564 352.093 180.339C348.24 181.132 343.093 182.221 340.475 183.004C337.856 183.788 348.545 188.745 354.057 191.158C350.927 193.249 348.406 194.156 343.256 195.548C328.269 199.675 322.33 202.217 242.944 200.409L208.579 195.548C191.655 176.977 190.498 164.143 195.815 139.102C199.58 124.083 202.866 115.576 221.998 99.4335Z" fill="#FCC17A"/>
<path d="M273.962 161.346C281.348 158.841 294.479 158.841 294.479 158.841C294.479 158.841 280.856 155.866 273.962 155.083C267.068 154.3 255.415 164.321 250.655 167.609C245.895 170.897 235.883 195.791 235.883 195.791C235.883 195.791 266.576 163.851 273.962 161.346Z" fill="#EDB16A"/>
<path d="M281.158 54.2118H263.154C263.154 54.2118 224.036 2.88942 218.634 1.81701C213.233 0.744606 205.735 54.217 241.222 77.3452L233.365 90.3673C245.06 110.404 254.244 116.294 274.284 119.322C295.507 114.257 304.559 108.778 314.712 93.4314L307.347 77.3452C325.717 79.875 346.408 3.36467 326.497 0.1318C306.585 -3.10107 281.158 54.2118 281.158 54.2118Z" fill="#FCC17A"/>
<path fill-rule="evenodd" clip-rule="evenodd" d="M296.687 85.4863L294.723 88.3971C294.319 88.1863 293.932 87.9931 293.562 87.8175C294.187 88.5699 294.559 89.5152 294.559 90.5419C294.559 92.9956 292.434 94.9848 289.812 94.9848C287.515 94.9848 285.598 93.4564 285.16 91.4264C285.07 91.8224 284.984 92.2425 284.902 92.6868H282.774C284.597 83.4655 287.816 82.1901 296.687 85.4863Z" fill="#093B86"/>
<path fill-rule="evenodd" clip-rule="evenodd" d="M250.694 84.6845L252.658 87.5954C253.062 87.3846 253.449 87.1913 253.819 87.0158C253.194 87.7681 252.822 88.7135 252.822 89.7402C252.822 92.1939 254.947 94.183 257.568 94.183C259.866 94.183 261.783 92.6546 262.221 90.6247C262.311 91.0206 262.397 91.4407 262.479 91.885H264.606C262.784 82.6637 259.565 81.3884 250.694 84.6845Z" fill="#093B86"/>
<path d="M273.609 112.143C270.068 110.701 268.798 109.35 267.553 106.168C269.204 104.338 270.445 103.646 273.609 103.411C276.862 103.732 278.198 104.317 279.665 106.168C278.916 109.313 277.415 110.533 273.609 112.143Z" fill="#093B86"/>
<path fill-rule="evenodd" clip-rule="evenodd" d="M326.64 0.766008C320.584 0.153203 282.284 63.5785 298.651 68.481C310.87 72.1407 318.651 70.4012 325.668 57.3806L328.44 58.0633L327.458 54.6929H331.222L328.44 52.7012L331.713 49.9436L328.907 50.4487C330.169 47.3847 331.424 43.9092 332.696 39.9855C336.242 20.1571 332.696 1.37881 326.64 0.766008Z" fill="#F8E6C7"/>
<path fill-rule="evenodd" clip-rule="evenodd" d="M245.293 69.4002C255.932 64.6509 248.586 46.162 238.582 25.7378C238.582 25.7378 225.324 0.919215 218.941 1.37882C212.558 1.83842 209.131 23.1665 212.067 39.6791C213.915 46.811 216.533 52.6706 219.577 57.2973H215.995L219.47 59.7485L217.925 62.6082L220.628 61.9954V65.2637L223.35 62.1912C230.442 69.9963 238.86 72.2717 245.293 69.4002Z" fill="#F8E6C7"/>
<path d="M274.263 119.191C293.674 107.192 301.909 98.9873 308.471 79.8178L315.018 93.7592C310.683 99.5231 308.229 102.746 302.088 107.854C292.306 114.701 286.001 116.71 274.263 119.191Z" fill="#EDB16A"/>
<path d="M272.718 119.1C254.107 106.038 246.41 97.3878 241.082 77.8857L232.854 90.2355C236.813 96.2314 242.271 104.403 248.075 109.845C257.404 117.228 261.159 115.968 272.718 119.1Z" fill="#EDB16A"/>
<path d="M284.621 167.314C284.289 165.19 295.576 159.728 303.212 157.907C319.788 158.781 332.955 161.121 333.588 163.673C332.426 165.19 325.78 167.946 322.798 168.376C319.817 168.807 353.105 172.018 353.105 180.211C353.105 180.211 340.559 182.79 340.891 183.852C341.223 184.914 355 191.135 355 191.135C340.417 198.366 324.172 201.354 296.406 200.694C296.406 200.694 315.993 196.294 315.827 195.535C315.661 194.776 292.92 186.887 292.588 185.218C292.256 183.549 302.382 176.418 302.216 175.356C302.05 174.294 284.953 169.438 284.621 167.314Z" fill="#F8E6C7"/>
<path d="M0 254.519C0 281.148 27.6038 290.448 126.857 290.448C256.886 294.397 362.5 301.5 333 254.519C292.5 214 267.722 178.434 162.536 148C49.6858 174.207 0 234.816 0 254.519Z" fill="#FFE8BC"/>
<path d="M329.736 200.867L350.361 222.015C350.361 222.015 387.001 264.748 385.001 274.374C383 284 376 287 325 291C274 295 270 288.5 264.5 285.5C259 282.5 260.5 282.5 261 281.5C261.5 280.5 288.044 264.374 283.5 258C278.956 251.626 257.127 254.463 257.385 243.996C257.642 233.529 276.285 225.969 270.885 222.015C265.485 218.061 242.085 208.407 227.813 207.477C213.542 206.547 175.613 197.126 168.542 192.009C161.47 186.891 166.87 180.332 164.427 177.192C161.984 174.052 153.627 162.119 158.642 161.072C163.656 160.025 189.756 163.747 184.742 161.072C179.727 158.397 152.92 149.662 158.642 148.511C164.363 147.361 179.727 148.511 179.727 148.511L218.299 155.49L276.928 172.005L329.736 200.867Z" fill="#EFD59E"/>
</svg>
