<svg width="233" height="184" viewBox="0 0 233 184" fill="none" xmlns="http://www.w3.org/2000/svg">
<path d="M216.547 43.5659C209.82 47.7262 203.222 53.6311 203.222 53.6311V64.148C203.222 64.148 212.129 68.571 221.28 67.499C226.096 66.9347 233 65.7167 233 65.7167C233 65.7167 227.789 62.2246 224.21 59.6061C219.937 56.4799 218.098 53.6311 218.098 53.6311C218.098 53.6311 221.977 49.3263 226.074 45.3481C229.933 41.601 233 35.4185 233 35.4185C233 35.4185 224.235 38.8108 216.547 43.5659Z" fill="#FF8829"/>
<path d="M222.332 42.3643L201.888 55.2635" stroke="#F4A939"/>
<path d="M223.666 44.3486L202.333 57.744" stroke="#F4A939"/>
<path d="M217 55.2637L202.333 59.7288" stroke="#F4A939"/>
<path d="M220.555 59.7285L202.777 61.2169" stroke="#F4A939"/>
<path d="M223.666 64.6899L202.333 62.7054" stroke="#F4A939"/>
<path d="M183.221 83.1556C178.554 81.9692 174.332 73.4812 174.332 73.4812C174.332 73.4812 192.554 62.0703 189.665 67.7758C186.776 73.4812 193.221 82.1633 188.999 83.1556C184.776 84.1479 185.167 83.6503 183.221 83.1556Z" fill="#FA8A06"/>
<path d="M181 71.1396L184.556 81.5583" stroke="#F4A939"/>
<path d="M176.555 71.6357L182.332 81.5582" stroke="#F4A939"/>
<path d="M186.332 70.1475L188.999 81.0622" stroke="#F4A939"/>
<path d="M183.666 70.6436L187.067 81.6331" stroke="#F4A939"/>
<path d="M144.972 29.2171C141.359 33.249 137.639 41.8682 137.639 41.8682L170.973 51.2946C170.973 51.2946 182.234 57.1561 182.11 54.7674C181.973 52.1277 168.777 38.6434 168.777 38.6434C168.777 38.6434 161.671 37.291 157.221 32.6899C154.36 29.7312 150.972 25 150.972 25C150.972 25 148.586 25.1851 144.972 29.2171Z" fill="#FA8A06"/>
<path d="M153.667 30.4575C146.023 40.38 143.519 44.0182 143.223 44.5971" stroke="#F4A939"/>
<path d="M150.11 28.4727C142.466 38.3951 139.962 42.0334 139.666 42.6122" stroke="#F4A939"/>
<path d="M160.776 37.4033C153.132 47.3258 150.628 50.964 150.332 51.5429" stroke="#F4A939"/>
<path d="M165.222 38.3955C157.577 48.318 155.074 51.9562 154.777 52.535" stroke="#F4A939"/>
<path d="M167.888 40.876C160.243 50.7985 157.74 54.4367 157.443 55.0155" stroke="#F4A939"/>
<path d="M171.444 43.3564C163.8 53.2789 161.296 56.9172 161 57.496" stroke="#F4A939"/>
<path d="M174.11 46.8296C166.466 56.7521 163.962 60.3903 163.666 60.9691" stroke="#F4A939"/>
<path d="M153.667 30.4575C146.023 40.38 143.519 44.0182 143.223 44.5971" stroke="#F4A939"/>
<path d="M157.222 33.4341C149.577 43.3566 147.074 46.9948 146.777 47.5736" stroke="#F4A939"/>
<path d="M158.455 78.4626C156.037 75.0875 152.887 73.4018 150.661 73.6428C148.434 73.8838 147.328 85.6116 150.661 88.3432C152.464 89.8209 154.134 88.3432 156.923 88.3432C159.713 88.3432 161.025 87.0746 161 83.5234C160.982 81.0389 159.661 80.1462 158.455 78.4626Z" fill="#FF8829"/>
<path d="M151.223 76.1006L152.36 87.1089" stroke="#F4A939"/>
<path d="M153.443 76.1006L158.332 86.0231" stroke="#F4A939"/>
<path d="M152.111 76.1006L155.068 86.594" stroke="#F4A939"/>
<path d="M133.418 41.8684C121.603 45.2046 101 57.7443 101 60.9691C101 64.194 120.187 75.1623 133.418 79.5738C149.356 84.888 159.69 77.4675 175.862 73.1242C188.82 69.6442 203.418 64.543 203.418 64.543V53.3803C203.418 53.3803 190.872 54.7862 177.862 53.0312C161.495 50.8231 149.401 37.3551 133.418 41.8684Z" fill="#D33929"/>
<ellipse cx="2.22222" cy="2.48062" rx="2.22222" ry="2.48062" transform="matrix(-1 0 0 1 123.418 52.7827)" fill="#1B365D"/>
<path d="M139 77.0983C136.41 73.7232 136.308 72.4148 133.923 72.6558C131.537 72.8968 130.352 84.6246 133.923 87.3562C135.854 88.834 137.376 87.9397 140.633 87.3562C143.889 86.7727 143.667 86.2765 142.556 84.044C139.861 78.6291 140.333 78.8347 139 77.0983Z" fill="#FF8829"/>
<path d="M133.443 75.1084L134.581 86.1167" stroke="#F4A939"/>
<path d="M135.666 75.1084L140.555 85.0309" stroke="#F4A939"/>
<path d="M134.332 75.1084L137.289 85.6018" stroke="#F4A939"/>
<path d="M126.777 44.8447C126.777 44.8447 133.118 53.2152 133.431 59.8233C133.782 67.2327 126.777 77.0928 126.777 77.0928" stroke="#C52818" stroke-width="2"/>
<path d="M130.428 131.467C122.835 136.277 115.387 143.105 115.387 143.105V155.265C115.387 155.265 125.441 160.379 135.771 159.139C141.207 158.487 149 157.079 149 157.079C149 157.079 143.118 153.041 139.078 150.013C134.255 146.399 132.178 143.105 132.178 143.105C132.178 143.105 136.557 138.127 141.182 133.528C145.539 129.195 149 122.046 149 122.046C149 122.046 139.106 125.969 130.428 131.467Z" fill="#FF8829"/>
<path d="M136.961 130.078L113.883 144.992" stroke="#F4A939"/>
<path d="M138.465 132.372L114.384 147.86" stroke="#F4A939"/>
<path d="M130.939 144.992L114.384 150.155" stroke="#F4A939"/>
<path d="M134.953 150.155L114.886 151.876" stroke="#F4A939"/>
<path d="M138.465 155.892L114.384 153.597" stroke="#F4A939"/>
<path d="M92.811 177.242C87.543 175.871 82.7773 166.056 82.7773 166.056C82.7773 166.056 103.346 152.862 100.085 159.459C96.8245 166.056 104.099 176.095 99.3329 177.242C94.5669 178.39 95.0078 177.814 92.811 177.242Z" fill="#FA8A06"/>
<path d="M90.3027 163.349L94.3162 175.395" stroke="#F4A939"/>
<path d="M85.2871 163.922L91.809 175.395" stroke="#F4A939"/>
<path d="M96.3242 162.202L99.3343 174.822" stroke="#F4A939"/>
<path d="M93.3145 162.775L97.1538 175.482" stroke="#F4A939"/>
<path d="M49.6367 114.876C45.5579 119.538 41.359 129.504 41.359 129.504L78.9852 140.403C78.9852 140.403 91.6974 147.18 91.5574 144.419C91.4027 141.366 76.5069 125.775 76.5069 125.775C76.5069 125.775 68.4861 124.211 63.4632 118.891C60.2332 115.47 56.4095 110 56.4095 110C56.4095 110 53.7156 110.214 49.6367 114.876Z" fill="#FA8A06"/>
<path d="M59.4497 116.31C50.8208 127.783 47.9946 131.99 47.6602 132.659" stroke="#F4A939"/>
<path d="M55.436 114.016C46.8071 125.488 43.9809 129.695 43.6465 130.364" stroke="#F4A939"/>
<path d="M67.4771 124.341C58.8481 135.814 56.022 140.02 55.6875 140.69" stroke="#F4A939"/>
<path d="M72.4946 125.488C63.8657 136.961 61.0395 141.168 60.7051 141.837" stroke="#F4A939"/>
<path d="M75.5044 128.356C66.8754 139.829 64.0493 144.036 63.7148 144.705" stroke="#F4A939"/>
<path d="M79.5181 131.225C70.8891 142.697 68.063 146.904 67.7285 147.573" stroke="#F4A939"/>
<path d="M82.5278 135.24C73.8989 146.713 71.0727 150.92 70.7383 151.589" stroke="#F4A939"/>
<path d="M59.4497 116.31C50.8208 127.783 47.9946 131.99 47.6602 132.659" stroke="#F4A939"/>
<path d="M63.4634 119.752C54.8344 131.225 52.0083 135.432 51.6738 136.101" stroke="#F4A939"/>
<path d="M64.8554 171.816C62.1263 167.913 58.5712 165.964 56.0576 166.243C53.5439 166.522 52.2956 180.082 56.0576 183.24C58.0927 184.949 59.9785 183.24 63.1269 183.24C66.2753 183.24 67.7571 181.774 67.7281 177.667C67.7078 174.795 66.2167 173.763 64.8554 171.816Z" fill="#FF8829"/>
<path d="M56.6914 169.085L57.9756 181.814" stroke="#F4A939"/>
<path d="M59.1992 169.085L64.7177 180.558" stroke="#F4A939"/>
<path d="M57.6934 169.085L61.031 181.218" stroke="#F4A939"/>
<path d="M36.5923 129.504C23.2561 133.362 -0.000427246 147.861 -0.000427246 151.589C-0.000427246 155.318 21.6576 168 36.5923 173.101C54.583 179.246 66.2478 170.666 84.503 165.644C99.1298 161.62 115.607 155.722 115.607 155.722V142.815C115.607 142.815 101.446 144.44 86.7606 142.411C68.2853 139.858 54.6338 124.286 36.5923 129.504Z" fill="#D33929"/>
<ellipse cx="2.50842" cy="2.86822" rx="2.50842" ry="2.86822" transform="matrix(-1 0 0 1 25.3047 142.124)" fill="#1B365D"/>
<path d="M42.8943 170.239C39.9702 166.336 39.8557 164.823 37.1625 165.102C34.4693 165.381 33.1318 178.941 37.1625 182.099C39.343 183.808 41.0608 182.774 44.7368 182.099C48.4128 181.425 48.1619 180.851 46.9077 178.27C43.8658 172.009 44.3986 172.246 42.8943 170.239Z" fill="#FF8829"/>
<path d="M36.623 167.938L37.9073 180.666" stroke="#F4A939"/>
<path d="M39.1328 167.938L44.6513 179.411" stroke="#F4A939"/>
<path d="M37.627 167.938L40.9646 180.071" stroke="#F4A939"/>
<path d="M29.0977 132.946C29.0977 132.946 36.2549 142.624 36.6085 150.265C37.005 158.832 29.0977 170.233 29.0977 170.233" stroke="#C52818" stroke-width="2"/>
<path d="M86.2835 15.375C81.4933 18.8203 76.7946 23.7102 76.7946 23.7102V32.4196C76.7946 32.4196 83.1373 36.0824 89.654 35.1946C93.0836 34.7274 98 33.7187 98 33.7187C98 33.7187 94.2892 30.8268 91.7405 28.6584C88.6975 26.0694 87.3876 23.7102 87.3876 23.7102C87.3876 23.7102 90.1502 20.1454 93.068 16.8509C95.8163 13.7479 98 8.62793 98 8.62793C98 8.62793 91.7584 11.4372 86.2835 15.375Z" fill="#FF8829"/>
<path d="M90.4043 14.3799L75.8454 25.0621" stroke="#F4A939"/>
<path d="M91.3535 16.0234L76.1616 27.1165" stroke="#F4A939"/>
<path d="M86.6055 25.062L76.161 28.7597" stroke="#F4A939"/>
<path d="M89.1367 28.7598L76.4768 29.9923" stroke="#F4A939"/>
<path d="M91.3535 32.8682L76.1616 31.2248" stroke="#F4A939"/>
<path d="M62.5526 48.16C59.2292 47.1775 56.2227 40.1484 56.2227 40.1484C56.2227 40.1484 69.1991 30.6987 67.1418 35.4235C65.0846 40.1484 69.6738 47.3382 66.6671 48.16C63.6604 48.9817 63.9385 48.5697 62.5526 48.16Z" fill="#FA8A06"/>
<path d="M60.9688 38.2095L63.5007 46.8374" stroke="#F4A939"/>
<path d="M57.8047 38.6201L61.9192 46.8372" stroke="#F4A939"/>
<path d="M64.7676 37.3877L66.6666 46.4265" stroke="#F4A939"/>
<path d="M62.8672 37.7983L65.2893 46.899" stroke="#F4A939"/>
<path d="M35.3144 3.49225C32.7411 6.83122 30.0922 13.969 30.0922 13.969L53.8295 21.7752C53.8295 21.7752 61.8493 26.6292 61.761 24.6512C61.6634 22.4651 52.266 11.2985 52.266 11.2985C52.266 11.2985 47.2059 10.1785 44.0371 6.36822C41.9994 3.91802 39.5871 0 39.5871 0C39.5871 0 37.8876 0.153276 35.3144 3.49225Z" fill="#FA8A06"/>
<path d="M41.5041 4.51953C36.0603 12.7366 34.2774 15.7495 34.0664 16.2288" stroke="#F4A939"/>
<path d="M38.9729 2.87598C33.5291 11.093 31.7462 14.106 31.5352 14.5853" stroke="#F4A939"/>
<path d="M46.5705 10.2715C41.1268 18.4885 39.3438 21.5015 39.1328 21.9808" stroke="#F4A939"/>
<path d="M49.7346 11.0933C44.2908 19.3103 42.5079 22.3232 42.2969 22.8026" stroke="#F4A939"/>
<path d="M51.633 13.1475C46.1893 21.3645 44.4063 24.3774 44.1953 24.8568" stroke="#F4A939"/>
<path d="M54.1643 15.2017C48.7205 23.4187 46.9376 26.4316 46.7266 26.911" stroke="#F4A939"/>
<path d="M56.0627 18.0776C50.6189 26.2947 48.836 29.3076 48.625 29.7869" stroke="#F4A939"/>
<path d="M41.5041 4.51953C36.0603 12.7366 34.2774 15.7495 34.0664 16.2288" stroke="#F4A939"/>
<path d="M44.0354 6.98438C38.5916 15.2014 36.8087 18.2143 36.5977 18.6937" stroke="#F4A939"/>
<path d="M44.914 44.2738C43.1922 41.4789 40.9495 40.0829 39.3637 40.2824C37.7779 40.482 36.9904 50.1941 39.3637 52.4562C40.6476 53.68 41.8373 52.4562 43.8235 52.4562C45.8098 52.4562 46.7446 51.4057 46.7263 48.4648C46.7135 46.4073 45.7728 45.6681 44.914 44.2738Z" fill="#FF8829"/>
<path d="M39.7656 42.3179L40.5758 51.4341" stroke="#F4A939"/>
<path d="M41.3477 42.3179L44.8291 50.5349" stroke="#F4A939"/>
<path d="M40.3984 42.3179L42.504 51.0077" stroke="#F4A939"/>
<path d="M27.0851 13.9688C18.6717 16.7316 3.99978 27.1161 3.99978 29.7866C3.99978 32.4571 17.6632 41.5403 27.0851 45.1936C38.435 49.5944 45.794 43.4493 57.3107 39.8525C66.5383 36.9706 76.9336 32.7462 76.9336 32.7462V23.5021C76.9336 23.5021 67.9994 24.6664 58.735 23.213C47.0794 21.3844 38.467 10.2312 27.0851 13.9688Z" fill="#D33929"/>
<ellipse cx="1.58249" cy="2.05426" rx="1.58249" ry="2.05426" transform="matrix(-1 0 0 1 19.9648 23.0078)" fill="#1B365D"/>
<path d="M31.0595 43.1439C29.2148 40.3489 29.1425 39.2654 27.4435 39.465C25.7444 39.6645 24.9006 49.3766 27.4435 51.6387C28.8191 52.8625 29.9028 52.122 32.2219 51.6387C34.541 51.1555 34.3827 50.7447 33.5915 48.8958C31.6724 44.4116 32.0086 44.5819 31.0595 43.1439Z" fill="#FF8829"/>
<path d="M27.1035 41.4961L27.9137 50.6123" stroke="#F4A939"/>
<path d="M28.6875 41.4961L32.169 49.7131" stroke="#F4A939"/>
<path d="M27.7363 41.4961L29.8419 50.1859" stroke="#F4A939"/>
<path d="M22.3555 16.4341C22.3555 16.4341 26.8708 23.3659 27.0938 28.8382C27.344 34.9741 22.3555 43.1395 22.3555 43.1395" stroke="#C52818" stroke-width="2"/>
</svg>
