<svg width="246" height="172" viewBox="0 0 246 172" fill="none" xmlns="http://www.w3.org/2000/svg">
<path d="M211.826 38.0821C202.03 48.2566 193.303 61.1054 193.303 61.1054L198.389 77.645C198.389 77.645 216.165 79.7921 231.711 73.1653C239.893 69.6778 251.424 64.0347 251.424 64.0347C251.424 64.0347 240.587 61.3562 233.037 59.1706C224.024 56.5612 219.417 53.0741 219.417 53.0741C219.417 53.0741 224.145 44.2097 229.414 35.7411C234.376 27.7645 236.77 16.3857 236.77 16.3857C236.77 16.3857 223.023 26.4531 211.826 38.0821Z" fill="#FF8829"/>
<path d="M221.402 33.0674L191.75 64.3917" stroke="#F4A939"/>
<path d="M224.703 35.4685L193.731 68.053" stroke="#F4A939"/>
<path d="M218.279 56.2332L194.691 71.174" stroke="#F4A939"/>
<path d="M226.682 61.3354L196.192 73.2746" stroke="#F4A939"/>
<path d="M234.541 67.4585L196.13 75.8557" stroke="#F4A939"/>
<path d="M172.472 118.335C163.706 118.989 152.188 107.92 152.188 107.92C152.188 107.92 178.659 80.1358 176.347 90.6683C174.035 101.201 189.548 111.375 182.616 115.216C175.683 119.056 176.128 118.062 172.472 118.335Z" fill="#FA8A06"/>
<path d="M162.76 100.638L174.041 115.103" stroke="#F4A939"/>
<path d="M155.195 103.818L170.138 116.303" stroke="#F4A939"/>
<path d="M171.643 96.198L181.603 111.923" stroke="#F4A939"/>
<path d="M167.201 98.4177L178.487 113.864" stroke="#F4A939"/>
<path d="M79.2358 54.1588C74.8423 62.4507 72.4809 78.0142 72.4809 78.0142L135.558 74.8416C135.558 74.8416 158.163 77.9794 156.79 74.2899C155.273 70.2124 125.585 56.131 125.585 56.131C125.585 56.131 112.456 57.8406 102.419 53.0071C95.9644 49.899 87.7293 44.2873 87.7293 44.2873C87.7293 44.2873 83.6292 45.8669 79.2358 54.1588Z" fill="#FA8A06"/>
<path d="M95.0973 51.4154C86.4764 71.1474 83.8408 78.2209 83.6006 79.2912" stroke="#F4A939"/>
<path d="M87.8961 50.2144C79.2752 69.9465 76.6396 77.02 76.3994 78.0903" stroke="#F4A939"/>
<path d="M110.941 58.4998C102.32 78.2319 99.6845 85.3054 99.4443 86.3757" stroke="#F4A939"/>
<path d="M119.222 57.6607C110.601 77.3928 107.966 84.4663 107.726 85.5365" stroke="#F4A939"/>
<path d="M125.103 60.1222C116.482 79.8542 113.847 86.9277 113.606 87.998" stroke="#F4A939"/>
<path d="M132.546 62.1036C123.926 81.8357 121.29 88.9092 121.05 89.9794" stroke="#F4A939"/>
<path d="M138.906 66.1256C130.285 85.8576 127.649 92.9311 127.409 94.0014" stroke="#F4A939"/>
<path d="M95.0973 51.4154C86.4764 71.1474 83.8408 78.2209 83.6006 79.2912" stroke="#F4A939"/>
<path d="M102.779 54.1776C94.1581 73.9096 91.5224 80.9831 91.2822 82.0534" stroke="#F4A939"/>
<path d="M126.721 124.327C120.845 120.324 114.5 119.374 110.708 120.955C106.915 122.536 110.646 141.577 117.818 144.074C121.698 145.424 123.916 142.198 128.812 140.692C133.709 139.186 135.4 136.483 133.637 130.912C132.404 127.014 129.653 126.323 126.721 124.327Z" fill="#FF8829"/>
<path d="M112.883 124.518L120.204 141.216" stroke="#F4A939"/>
<path d="M116.783 123.318L130.165 136.283" stroke="#F4A939"/>
<path d="M114.443 124.038L124.709 138.944" stroke="#F4A939"/>
<path d="M65.0688 80.2939C45.9415 91.9195 15.8372 122.764 17.3969 127.836C18.9567 132.907 57.9451 139.798 83.3058 139.592C113.856 139.344 128.408 122.095 154.699 106.533C175.764 94.0637 198.923 78.1598 198.923 78.1598L193.524 60.6045C193.524 60.6045 172.179 69.5893 148.492 73.8532C118.69 79.2177 90.9446 64.5666 65.0688 80.2939Z" fill="#D33929"/>
<circle cx="4.08151" cy="4.08151" r="4.08151" transform="matrix(-0.955818 0.29396 0.29396 0.955818 52.793 102.858)" fill="#1B365D"/>
<path d="M91.9085 132.685C85.7285 128.776 84.9176 126.773 80.8456 128.44C76.7736 130.107 80.3659 149.191 87.9557 151.559C92.0617 152.84 94.3008 150.612 99.7355 147.936C105.17 145.26 104.54 144.6 101.51 141.689C94.1599 134.628 95.0881 134.696 91.9085 132.685Z" fill="#FF8829"/>
<path d="M81.1934 132.555L88.515 149.253" stroke="#F4A939"/>
<path d="M85.0938 131.355L98.4756 144.321" stroke="#F4A939"/>
<path d="M82.7539 132.075L93.02 146.981" stroke="#F4A939"/>
<path d="M54.8516 88.5603C54.8516 88.5603 70.0313 98.3009 73.7774 108.524C77.9777 119.987 70.449 139.276 70.449 139.276" stroke="#C52818" stroke-width="2"/>
</svg>
