<svg width="81" height="96" viewBox="0 0 81 96" fill="none" xmlns="http://www.w3.org/2000/svg">
<path d="M16.3423 29.5576C14.7771 27.1704 14.1146 25.8124 15.6426 23.143C16.1216 22.3063 17.9064 21.2074 18.5261 21.0102C19.1459 20.813 19.4131 20.8028 21.4902 21.1889L29.0078 24.3591C31.3673 25.152 32.699 25.312 35.0975 25.0388C36.7627 24.5321 37.6901 23.7008 39.3287 20.9348C40.2674 19.7134 40.8554 18.2767 43.0211 15.039C44.2733 12.9656 44.3431 11.8315 48.9231 9.60874C50.3451 9.11022 51.138 9.35402 52.5335 12.1525C54.2381 16.2503 53.9096 17.7727 53.2869 20.4664C52.5086 23.7267 52.1414 25.6061 54.5519 31.235C55.2469 33.1074 55.8649 34.1145 60.0214 35.3373L66.5151 37.8985C69.2327 39.1998 70.2237 40.524 71.5803 43.3447C72.1331 45.6608 71.7538 47.0189 69.6662 49.5626C68.1592 50.9539 67.2335 51.6725 63.8995 51.678C63.8995 51.678 60.6984 51.6719 57.8364 52.4855C54.9745 53.299 54.2517 53.591 52.9857 55.7116C51.7197 57.8323 53.6978 60.5841 53.6851 64.2764C53.6229 67.8281 54.2507 70.2066 55.6238 74.597C56.4512 77.9069 55.8818 78.933 53.7908 79.9011C51.0427 81.0542 50.153 80.1705 48.7519 79.1674C47.3508 78.1642 46.3262 76.7483 44.4413 73.4343L38.5953 63.5624C36.7765 60.7047 35.5276 60.2688 32.7481 62.2913C29.5709 64.6971 27.0027 66.2356 21.322 69.2456C20.0874 69.5361 19.3616 69.5685 17.6575 68.0278C16.6768 66.6235 16.1395 65.821 16.1491 63.226C16.5345 59.7649 17.5092 57.6998 20.5965 53.8182C22.9593 51.331 23.9418 49.7336 24.7473 46.3276C25.9724 42.083 24.7894 40.1872 22.512 36.8492L16.3423 29.5576Z" fill="#439A6B"/>
<ellipse cx="0.809116" cy="0.901842" rx="0.809116" ry="0.901842" transform="matrix(0.832659 -0.553787 0.448065 0.894001 17.5234 64.8923)" fill="#E0F36D"/>
<ellipse cx="1.13276" cy="1.26258" rx="1.13276" ry="1.26258" transform="matrix(0.832659 -0.553787 0.448065 0.894001 19.625 62.6338)" fill="#E0F36D"/>
<ellipse cx="1.13276" cy="1.26258" rx="1.13276" ry="1.26258" transform="matrix(0.832659 -0.553787 0.448065 0.894001 22.2676 60.0176)" fill="#E0F36D"/>
<ellipse cx="1.13276" cy="1.26258" rx="1.13276" ry="1.26258" transform="matrix(0.832659 -0.553787 0.448065 0.894001 25.5547 56.5405)" fill="#E0F36D"/>
<ellipse cx="1.29459" cy="1.44295" rx="1.29459" ry="1.44295" transform="matrix(0.832659 -0.553787 0.448065 0.894001 41.3984 53.7429)" fill="#E0F36D"/>
<ellipse cx="1.29459" cy="1.44295" rx="1.29459" ry="1.44295" transform="matrix(0.832659 -0.553787 0.448065 0.894001 42.9082 59.6196)" fill="#E0F36D"/>
<ellipse cx="1.13276" cy="1.26258" rx="1.13276" ry="1.26258" transform="matrix(0.832659 -0.553787 0.448065 0.894001 44.9004 64.3137)" fill="#E0F36D"/>
<ellipse cx="0.970939" cy="1.08221" rx="0.970939" ry="1.08221" transform="matrix(0.832659 -0.553787 0.448065 0.894001 47.6484 69.7966)" fill="#E0F36D"/>
<ellipse cx="1.13276" cy="1.26258" rx="1.13276" ry="1.26258" transform="matrix(0.832659 -0.553787 0.448065 0.894001 49.1562 73.5229)" fill="#E0F36D"/>
<ellipse cx="0.647293" cy="0.721474" rx="0.647293" ry="0.721474" transform="matrix(0.832659 -0.553787 0.448065 0.894001 51.4746 76.7122)" fill="#E0F36D"/>
<ellipse cx="1.29459" cy="1.44295" rx="1.29459" ry="1.44295" transform="matrix(0.832659 -0.553787 0.448065 0.894001 48.623 41.6284)" fill="#E0F36D"/>
<ellipse cx="0.970939" cy="1.08221" rx="0.970939" ry="1.08221" transform="matrix(0.832659 -0.553787 0.448065 0.894001 53.7422 42.5239)" fill="#E0F36D"/>
<ellipse cx="0.970939" cy="1.08221" rx="0.970939" ry="1.08221" transform="matrix(0.832659 -0.553787 0.448065 0.894001 53.7422 42.5239)" fill="#E0F36D"/>
<ellipse cx="0.970939" cy="1.08221" rx="0.970939" ry="1.08221" transform="matrix(0.832659 -0.553787 0.448065 0.894001 57.8379 42.8101)" fill="#E0F36D"/>
<ellipse cx="0.970939" cy="1.08221" rx="0.970939" ry="1.08221" transform="matrix(0.832659 -0.553787 0.448065 0.894001 61.8262 43.5972)" fill="#E0F36D"/>
<ellipse cx="0.970939" cy="1.08221" rx="0.970939" ry="1.08221" transform="matrix(0.832659 -0.553787 0.448065 0.894001 65.5449 44.5645)" fill="#E0F36D"/>
<ellipse cx="0.647293" cy="0.721474" rx="0.647293" ry="0.721474" transform="matrix(0.832659 -0.553787 0.448065 0.894001 68.9941 45.7102)" fill="#E0F36D"/>
<ellipse cx="1.29459" cy="1.44295" rx="1.29459" ry="1.44295" transform="matrix(0.832659 -0.553787 0.448065 0.894001 42.2109 31.7031)" fill="#E0F36D"/>
<ellipse cx="1.29459" cy="1.44295" rx="1.29459" ry="1.44295" transform="matrix(0.832659 -0.553787 0.448065 0.894001 43.1816 27.1875)" fill="#E0F36D"/>
<ellipse cx="0.970939" cy="1.08221" rx="0.970939" ry="1.08221" transform="matrix(0.832659 -0.553787 0.448065 0.894001 44.9062 23.46)" fill="#E0F36D"/>
<ellipse cx="0.970939" cy="1.08221" rx="0.970939" ry="1.08221" transform="matrix(0.832659 -0.553787 0.448065 0.894001 46.1992 19.5898)" fill="#E0F36D"/>
<ellipse cx="0.809116" cy="0.901842" rx="0.809116" ry="0.901842" transform="matrix(0.832659 -0.553787 0.448065 0.894001 47.4941 15.719)" fill="#E0F36D"/>
<ellipse cx="0.48547" cy="0.541105" rx="0.48547" ry="0.541105" transform="matrix(0.832659 -0.553787 0.448065 0.894001 48.9492 12.1709)" fill="#E0F36D"/>
<ellipse cx="1.45641" cy="1.62332" rx="1.45641" ry="1.62332" transform="matrix(0.832659 -0.553787 0.448065 0.894001 31.5371 49.1216)" fill="#E0F36D"/>
<ellipse cx="1.78006" cy="1.98405" rx="1.78006" ry="1.98405" transform="matrix(0.832659 -0.553787 0.448065 0.894001 34.502 45.0002)" fill="#E0F36D"/>
<ellipse cx="1.78006" cy="1.98405" rx="1.78006" ry="1.98405" transform="matrix(0.832659 -0.553787 0.448065 0.894001 37.791 41.5232)" fill="#E0F36D"/>
<ellipse cx="1.29459" cy="1.44295" rx="1.29459" ry="1.44295" transform="matrix(0.832659 -0.553787 0.448065 0.894001 34.0723 38.4058)" fill="#E0F36D"/>
<ellipse cx="1.29459" cy="1.44295" rx="1.29459" ry="1.44295" transform="matrix(0.832659 -0.553787 0.448065 0.894001 40.4316 36.7566)" fill="#E0F36D"/>
<ellipse cx="1.29459" cy="1.44295" rx="1.29459" ry="1.44295" transform="matrix(0.832659 -0.553787 0.448065 0.894001 44.1484 42.0239)" fill="#E0F36D"/>
<ellipse cx="1.29459" cy="1.44295" rx="1.29459" ry="1.44295" transform="matrix(0.832659 -0.553787 0.448065 0.894001 39.7285 47.5432)" fill="#E0F36D"/>
<ellipse cx="1.29459" cy="1.44295" rx="1.29459" ry="1.44295" transform="matrix(0.832659 -0.553787 0.448065 0.894001 30.3535 35.2891)" fill="#E0F36D"/>
<ellipse cx="1.13276" cy="1.26258" rx="1.13276" ry="1.26258" transform="matrix(0.832659 -0.553787 0.448065 0.894001 26.959 32.8169)" fill="#E0F36D"/>
<ellipse cx="0.970939" cy="1.08221" rx="0.970939" ry="1.08221" transform="matrix(0.832659 -0.553787 0.448065 0.894001 23.4023 30.0225)" fill="#E0F36D"/>
<ellipse cx="0.647293" cy="0.721474" rx="0.647293" ry="0.721474" transform="matrix(0.832659 -0.553787 0.448065 0.894001 20.1152 27.0486)" fill="#E0F36D"/>
<ellipse cx="0.647293" cy="0.721474" rx="0.647293" ry="0.721474" transform="matrix(0.832659 -0.553787 0.448065 0.894001 17.1504 24.7192)" fill="#E0F36D"/>
<ellipse cx="1.29459" cy="1.44295" rx="1.29459" ry="1.44295" transform="matrix(0.832659 -0.553787 0.448065 0.894001 28.1406 53.1006)" fill="#E0F36D"/>
</svg>
