<svg width="67" height="67" viewBox="0 0 67 67" fill="none" xmlns="http://www.w3.org/2000/svg">
<path d="M18.2901 5.89064C17.9184 3.11071 17.9367 1.65227 20.8248 0.311819C21.7301 -0.108331 24.0839 -0.0368882 24.8081 0.137468C25.5323 0.311824 25.8067 0.447587 27.705 1.88086L33.6798 8.50571C35.6572 10.4212 36.9185 11.2691 39.4736 12.3411C41.4076 12.8283 42.7621 12.6544 45.8105 11.2951C47.3735 10.811 48.6918 9.9631 52.5096 8.50571C54.8188 7.49972 55.462 6.61777 61.2003 7.28534C62.8851 7.64798 63.5611 8.27332 63.554 11.2951C63.2021 15.5372 62.102 16.5945 60.1139 18.443C57.6829 20.6669 56.3635 21.9929 55.9497 27.8572C55.7044 29.7503 55.8185 30.9002 59.3897 34.1334L64.6403 39.7122C66.7217 42.2331 67.0516 43.8412 66.9941 46.8601C66.3813 49.0363 65.3131 49.933 61.9245 50.8699C59.703 51.1852 58.4072 51.2687 55.0444 49.4752C55.0444 49.4752 51.8215 47.7438 48.5264 46.8601C45.2313 45.9763 44.3554 45.8232 42.0084 46.8601C39.6614 47.8969 40.265 51.1951 38.3872 54.1823C36.5306 57.0287 35.9619 59.296 35.1282 63.5965C34.2902 66.7267 33.1981 67.2517 30.6019 66.909C27.25 66.3619 26.7997 65.1656 25.8944 63.5965C24.9891 62.0275 24.6716 60.3268 24.446 56.623L23.5407 45.4654C23.1512 42.1673 22.1127 41.1403 18.2901 41.2813C13.873 41.5186 10.5077 41.3811 3.26244 40.7583C1.87151 40.3279 1.12369 39.9628 0.184492 37.7945C-0.0944324 36.1269 -0.230644 35.1864 1.08977 33.0874C3.22635 30.4887 5.25167 29.3398 10.3236 27.8572C13.9611 27.1147 15.7579 26.3493 18.2901 24.0218C21.6686 21.2407 21.434 19.0654 20.8248 15.1306L18.2901 5.89064Z" fill="#439A6B"/>
<ellipse cx="2.53858" cy="36.0511" rx="0.905279" ry="0.871691" fill="#E0F36D"/>
<ellipse cx="6.15948" cy="35.7025" rx="1.26739" ry="1.22037" fill="#E0F36D"/>
<ellipse cx="10.1424" cy="35.005" rx="1.26739" ry="1.22037" fill="#E0F36D"/>
<ellipse cx="15.2122" cy="33.9591" rx="1.26739" ry="1.22037" fill="#E0F36D"/>
<ellipse cx="32.7741" cy="40.4095" rx="1.44845" ry="1.39471" fill="#E0F36D"/>
<ellipse cx="31.3259" cy="45.9885" rx="1.44845" ry="1.39471" fill="#E0F36D"/>
<ellipse cx="30.783" cy="50.6957" rx="1.26739" ry="1.22037" fill="#E0F36D"/>
<ellipse cx="30.602" cy="56.4486" rx="1.08633" ry="1.04603" fill="#E0F36D"/>
<ellipse cx="30.4207" cy="60.4584" rx="1.26739" ry="1.22037" fill="#E0F36D"/>
<ellipse cx="30.6017" cy="63.7708" rx="0.724223" ry="0.697353" fill="#E0F36D"/>
<ellipse cx="46.1726" cy="34.4822" rx="1.44845" ry="1.39471" fill="#E0F36D"/>
<ellipse cx="50.518" cy="37.6201" rx="1.08633" ry="1.04603" fill="#E0F36D"/>
<ellipse cx="50.518" cy="37.6201" rx="1.08633" ry="1.04603" fill="#E0F36D"/>
<ellipse cx="54.5014" cy="40.0608" rx="1.08633" ry="1.04603" fill="#E0F36D"/>
<ellipse cx="58.122" cy="42.8505" rx="1.08633" ry="1.04603" fill="#E0F36D"/>
<ellipse cx="61.3813" cy="45.6398" rx="1.08633" ry="1.04603" fill="#E0F36D"/>
<ellipse cx="63.9161" cy="48.0804" rx="0.724223" ry="0.697353" fill="#E0F36D"/>
<ellipse cx="44.7243" cy="22.9759" rx="1.44845" ry="1.39471" fill="#E0F36D"/>
<ellipse cx="47.9831" cy="19.8377" rx="1.44845" ry="1.39471" fill="#E0F36D"/>
<ellipse cx="51.2421" cy="17.3971" rx="1.08633" ry="1.04603" fill="#E0F36D"/>
<ellipse cx="54.5014" cy="14.9562" rx="1.08633" ry="1.04603" fill="#E0F36D"/>
<ellipse cx="57.5791" cy="12.3411" rx="0.905279" ry="0.871691" fill="#E0F36D"/>
<ellipse cx="60.4758" cy="9.90046" rx="0.543167" ry="0.523014" fill="#E0F36D"/>
<ellipse cx="25.3512" cy="31.5183" rx="1.6295" ry="1.56904" fill="#E0F36D"/>
<ellipse cx="30.7831" cy="30.1235" rx="1.99161" ry="1.91772" fill="#E0F36D"/>
<ellipse cx="35.8525" cy="29.0778" rx="1.99161" ry="1.91772" fill="#E0F36D"/>
<ellipse cx="33.1369" cy="24.0219" rx="1.44845" ry="1.39471" fill="#E0F36D"/>
<ellipse cx="40.3786" cy="26.1138" rx="1.44845" ry="1.39471" fill="#E0F36D"/>
<ellipse cx="41.465" cy="32.3899" rx="1.44845" ry="1.39471" fill="#E0F36D"/>
<ellipse cx="34.2233" cy="34.4822" rx="1.44845" ry="1.39471" fill="#E0F36D"/>
<ellipse cx="30.9641" cy="19.4891" rx="1.44845" ry="1.39471" fill="#E0F36D"/>
<ellipse cx="28.6102" cy="15.4792" rx="1.26739" ry="1.22037" fill="#E0F36D"/>
<ellipse cx="26.2563" cy="11.121" rx="1.08633" ry="1.04603" fill="#E0F36D"/>
<ellipse cx="24.0841" cy="6.5881" rx="0.724223" ry="0.697353" fill="#E0F36D"/>
<ellipse cx="22.2731" cy="3.10141" rx="0.724223" ry="0.697353" fill="#E0F36D"/>
<ellipse cx="19.7385" cy="32.7386" rx="1.44845" ry="1.39471" fill="#E0F36D"/>
</svg>
