<svg width="275" height="80" viewBox="0 0 275 80" fill="none" xmlns="http://www.w3.org/2000/svg">
<path d="M81.4536 49.9733V27.1588C81.4538 27.0109 81.4941 26.866 81.5701 26.7395C81.6461 26.613 81.755 26.5099 81.8849 26.4411C82.1876 26.2672 82.5302 26.1758 82.8787 26.1758C83.2272 26.1758 83.5697 26.2672 83.8725 26.4411C84.0003 26.5107 84.1065 26.6147 84.1793 26.7413C84.2521 26.868 84.2887 27.0125 84.285 27.1588V36.9418H93.4354V27.1588C93.4317 27.0125 93.4683 26.868 93.5411 26.7413C93.6139 26.6147 93.7201 26.5107 93.8479 26.4411C94.1507 26.2672 94.4932 26.1758 94.8417 26.1758C95.1902 26.1758 95.5328 26.2672 95.8355 26.4411C95.9633 26.5107 96.0695 26.6147 96.1423 26.7413C96.2151 26.868 96.2517 27.0125 96.248 27.1588V49.9733C96.2524 50.1248 96.2165 50.2748 96.1439 50.4076C96.0714 50.5404 95.9649 50.6513 95.8355 50.7287C95.5328 50.9026 95.1902 50.9941 94.8417 50.9941C94.4932 50.9941 94.1507 50.9026 93.8479 50.7287C93.7185 50.6513 93.612 50.5404 93.5395 50.4076C93.467 50.2748 93.431 50.1248 93.4354 49.9733V39.3215H84.3787V49.9733C84.3831 50.1248 84.3472 50.2748 84.2747 50.4076C84.2021 50.5404 84.0956 50.6513 83.9662 50.7287C83.6635 50.9026 83.321 50.9941 82.9724 50.9941C82.6239 50.9941 82.2814 50.9026 81.9786 50.7287C81.8296 50.6651 81.7012 50.5606 81.6084 50.427C81.5156 50.2934 81.4619 50.1361 81.4536 49.9733Z" fill="white"/>
<path d="M99.5858 46.8004C99.5028 46.0382 99.6521 45.2686 100.014 44.5939C100.376 43.9191 100.933 43.3713 101.611 43.0232C103.462 42.2283 105.47 41.8729 107.48 41.9844H109.093V41.2667C109.12 40.1975 108.797 39.1489 108.174 38.2827C107.847 37.8616 107.424 37.5264 106.941 37.306C106.457 37.0856 105.928 36.9866 105.399 37.0173C104.54 36.9978 103.688 37.172 102.905 37.5273C102.522 37.7225 102.128 37.8928 101.723 38.0372C101.567 38.0372 101.413 37.9953 101.278 37.9156C101.143 37.8359 101.031 37.7215 100.955 37.5839C100.776 37.2943 100.679 36.9615 100.673 36.6207C100.673 36.0919 101.18 35.6387 102.211 35.242C103.245 34.8389 104.346 34.6339 105.455 34.6377C106.356 34.5648 107.262 34.6966 108.106 35.0235C108.95 35.3504 109.71 35.864 110.33 36.5263C111.396 37.853 111.949 39.5235 111.886 41.229V49.9166C111.891 50.0614 111.86 50.2051 111.794 50.334C111.728 50.4629 111.631 50.5728 111.511 50.6532C111.218 50.8499 110.87 50.949 110.518 50.9365C110.189 50.9475 109.865 50.8478 109.599 50.6532C109.484 50.5763 109.391 50.4724 109.325 50.3506C109.26 50.2288 109.225 50.0928 109.224 49.9544V48.6324C108.617 49.4124 107.847 50.0485 106.969 50.4956C106.091 50.9427 105.126 51.1899 104.142 51.2198C102.943 51.2657 101.772 50.8543 100.861 50.0677C100.429 49.6468 100.091 49.1372 99.871 48.5736C99.651 48.0099 99.5538 47.4052 99.5858 46.8004ZM102.417 46.4793C102.399 46.8268 102.452 47.1743 102.575 47.4996C102.698 47.8249 102.887 48.1207 103.13 48.3679C103.637 48.8477 104.309 49.1116 105.005 49.1045C106.025 49.0653 106.998 48.6562 107.742 47.9524C108.125 47.6836 108.443 47.3322 108.673 46.9237C108.904 46.5153 109.04 46.0602 109.074 45.5917V43.7975H107.892C107.255 43.7975 106.692 43.7975 106.224 43.7975C105.727 43.8402 105.232 43.9095 104.742 44.0052C104.304 44.074 103.884 44.2279 103.505 44.4585C103.173 44.6419 102.899 44.9171 102.717 45.2517C102.501 45.6228 102.396 46.0494 102.417 46.4793Z" fill="white"/>
<path d="M115.168 44.6849V41.2853C115.09 39.5399 115.704 37.8348 116.874 36.5449C117.524 35.8914 118.306 35.385 119.166 35.0593C120.026 34.7337 120.945 34.5963 121.862 34.6563C123.08 34.6225 124.288 34.8814 125.387 35.4117C126.343 35.9028 126.831 36.4505 126.831 37.0171C126.813 37.356 126.688 37.6803 126.474 37.9425C126.382 38.0785 126.26 38.1905 126.116 38.2693C125.973 38.3481 125.813 38.3914 125.649 38.3958C125.241 38.2525 124.851 38.0624 124.487 37.8292C123.745 37.4241 122.911 37.2223 122.068 37.2437C121.516 37.2054 120.961 37.2775 120.437 37.4558C119.912 37.634 119.428 37.915 119.012 38.2824C118.646 38.683 118.365 39.1538 118.184 39.6666C118.004 40.1793 117.928 40.7235 117.961 41.2665V44.6282C117.961 47.31 119.349 48.651 122.105 48.651C122.961 48.6746 123.808 48.4728 124.562 48.0655C124.941 47.8137 125.351 47.6106 125.781 47.4611C125.953 47.4617 126.124 47.5009 126.279 47.5761C126.435 47.6512 126.572 47.7603 126.681 47.8955C126.893 48.1573 127.012 48.4831 127.018 48.8209C127.018 49.3875 126.531 49.9352 125.537 50.4451C124.408 51.0086 123.158 51.2812 121.899 51.2384C121.008 51.3323 120.108 51.2279 119.262 50.9326C118.415 50.6373 117.644 50.1584 117.002 49.5296C116.36 48.9008 115.862 48.1375 115.545 47.2938C115.229 46.4501 115.1 45.5466 115.168 44.6471V44.6849Z" fill="white"/>
<path d="M129.831 49.9726V26.176C129.831 26.0372 129.865 25.9006 129.93 25.7785C129.996 25.6565 130.091 25.5529 130.206 25.4772C130.5 25.2805 130.847 25.1814 131.2 25.1939C131.559 25.1787 131.913 25.2778 132.212 25.4772C132.337 25.5454 132.442 25.6463 132.514 25.7693C132.587 25.8923 132.625 26.0329 132.625 26.176V42.0593L140.313 35.0714C140.481 34.9286 140.693 34.8485 140.913 34.8447C141.27 34.8517 141.611 34.9932 141.869 35.2414C142.005 35.3544 142.116 35.4954 142.194 35.655C142.271 35.8146 142.314 35.9891 142.319 36.1668C142.322 36.2954 142.297 36.4231 142.245 36.5407C142.193 36.6583 142.116 36.7628 142.019 36.8467L137.331 41.0205L142.957 49.1982C143.057 49.35 143.115 49.5261 143.125 49.7082C143.115 49.896 143.064 50.0794 142.977 50.2456C142.89 50.4119 142.768 50.5571 142.619 50.6714C142.338 50.9495 141.963 51.1112 141.569 51.1246C141.414 51.1266 141.262 51.0875 141.127 51.0112C140.992 50.935 140.879 50.8243 140.8 50.6903L135.438 42.7769L132.625 45.3266V50.0103C132.613 50.1528 132.568 50.2904 132.493 50.4119C132.418 50.5333 132.315 50.6352 132.194 50.7091C131.921 50.9065 131.591 51.0062 131.256 50.9924C130.907 51.002 130.564 50.8959 130.281 50.6903C130.153 50.618 130.044 50.5145 129.965 50.3891C129.887 50.2637 129.841 50.1205 129.831 49.9726Z" fill="white"/>
<path d="M145.938 50.0102V27.1957C145.923 27.0529 145.945 26.9087 146.001 26.7766C146.057 26.6445 146.145 26.5288 146.257 26.4402C146.519 26.252 146.835 26.1528 147.157 26.1569H153.007C154.764 26.0672 156.507 26.5078 158.014 27.4223C158.682 27.9596 159.205 28.6589 159.533 29.4548C159.861 30.2508 159.983 31.1174 159.889 31.9739C159.929 33.2012 159.671 34.4199 159.139 35.5245C158.687 36.4214 157.937 37.13 157.02 37.5264C158.079 37.9464 158.978 38.6935 159.589 39.6606C160.237 40.8075 160.537 42.1208 160.451 43.4378V44.0422C160.532 45.0188 160.406 46.0016 160.083 46.926C159.76 47.8504 159.246 48.6955 158.576 49.4058C157.232 50.5382 155.506 51.1063 153.757 50.9923H147.213C146.883 51.0094 146.558 50.9091 146.294 50.709C146.185 50.6289 146.095 50.5239 146.033 50.4025C145.971 50.281 145.939 50.1467 145.938 50.0102ZM148.769 36.3744H152.97C154.08 36.4713 155.184 36.1255 156.045 35.4112C156.403 35.0012 156.675 34.5215 156.843 34.0019C157.01 33.4822 157.071 32.9334 157.02 32.3894C157.02 29.9719 155.632 28.7632 152.876 28.7632H148.769V36.3744ZM148.769 48.4237H153.307C156.195 48.4237 157.62 46.8751 157.62 43.7589V43.1923C157.678 42.5809 157.611 41.9641 157.424 41.3796C157.237 40.795 156.934 40.2551 156.532 39.7928C155.634 39.0318 154.478 38.6525 153.307 38.7351H148.769V48.4237Z" fill="white"/>
<path d="M163.282 44.6848V41.1153C163.277 40.264 163.452 39.4213 163.794 38.6431C164.137 37.8649 164.64 37.169 165.27 36.6015C166.518 35.3732 168.187 34.6747 169.931 34.6501C171.676 34.6255 173.364 35.2767 174.645 36.4693C175.256 37.0302 175.739 37.7169 176.063 38.4827C176.386 39.2485 176.542 40.0755 176.52 40.9075C176.54 41.4518 176.464 41.9953 176.295 42.5128C176.159 42.874 175.9 43.1749 175.564 43.3627C175.279 43.5275 174.968 43.6425 174.645 43.7027C174.271 43.7266 173.895 43.7266 173.52 43.7027H166.095V44.7225C166.071 45.29 166.178 45.8553 166.41 46.3734C166.641 46.8915 166.989 47.348 167.426 47.7065C168.19 48.2722 169.081 48.6404 170.019 48.7787C170.957 48.917 171.915 48.8212 172.808 48.4998C173.268 48.3137 173.713 48.0927 174.139 47.8388C174.372 47.656 174.652 47.5446 174.945 47.5177C175.103 47.5177 175.258 47.5553 175.398 47.6275C175.538 47.6998 175.66 47.8045 175.752 47.9332C175.962 48.1736 176.082 48.4813 176.089 48.8019C176.089 49.3308 175.583 49.8596 174.57 50.3884C173.405 50.9662 172.119 51.2514 170.82 51.2194C168.855 51.2904 166.935 50.6165 165.439 49.3308C164.761 48.7647 164.216 48.0545 163.843 47.2512C163.471 46.448 163.279 45.5715 163.282 44.6848ZM166.095 41.8329H172.32C172.727 41.8718 173.137 41.7932 173.502 41.6063C173.617 41.4962 173.704 41.3599 173.757 41.2087C173.809 41.0575 173.824 40.896 173.802 40.7375C173.802 39.7358 173.406 38.775 172.703 38.0666C172 37.3583 171.046 36.9603 170.051 36.9603C169.55 36.9474 169.051 37.036 168.584 37.2209C168.117 37.4059 167.691 37.6833 167.333 38.0368C166.965 38.3649 166.672 38.7695 166.474 39.2228C166.277 39.6761 166.179 40.1671 166.189 40.662L166.095 41.8329Z" fill="white"/>
<path d="M178.527 46.8003C178.444 46.0381 178.593 45.2685 178.955 44.5938C179.317 43.9191 179.874 43.3712 180.552 43.0231C182.397 42.231 184.399 41.8757 186.402 41.9843H188.033V41.2666C188.054 40.1954 187.724 39.147 187.096 38.2826C186.772 37.859 186.349 37.5221 185.865 37.3014C185.381 37.0808 184.851 36.9832 184.321 37.0173C183.477 37.0257 182.645 37.219 181.883 37.5838C181.504 37.7867 181.109 37.9573 180.702 38.0938C180.548 38.0945 180.396 38.0526 180.264 37.9727C180.132 37.8927 180.024 37.7779 179.952 37.6405C179.755 37.3585 179.65 37.0219 179.652 36.6773C179.652 36.1485 180.158 35.6952 181.189 35.2986C182.23 34.8953 183.337 34.6904 184.452 34.6943C185.35 34.6215 186.253 34.7535 187.094 35.0804C187.935 35.4074 188.692 35.9209 189.308 36.5829C190.379 37.9078 190.939 39.5779 190.884 41.2855V49.9732C190.885 50.1194 190.849 50.2636 190.78 50.3923C190.712 50.5211 190.612 50.6303 190.49 50.7097C190.166 50.9337 189.774 51.0342 189.383 50.993C189.06 51.0042 188.743 50.9043 188.483 50.7097C188.367 50.6354 188.271 50.532 188.205 50.4097C188.14 50.2873 188.106 50.15 188.108 50.0109V48.6889C187.496 49.4675 186.722 50.1023 185.842 50.5491C184.961 50.996 183.994 51.2441 183.008 51.2763C181.81 51.3204 180.638 50.9092 179.727 50.1243C179.299 49.691 178.971 49.1693 178.764 48.5953C178.556 48.0213 178.476 47.4089 178.527 46.8003ZM181.358 46.4792C181.337 46.8253 181.388 47.172 181.507 47.4972C181.627 47.8224 181.812 48.119 182.052 48.3678C182.573 48.8169 183.242 49.0528 183.927 49.0289C184.953 48.9875 185.93 48.579 186.683 47.8768C187.062 47.6042 187.377 47.2519 187.607 46.8442C187.837 46.4365 187.976 45.9833 188.015 45.516V43.7218H186.833C186.171 43.7218 185.608 43.7218 185.146 43.7218C184.655 43.7659 184.167 43.8352 183.683 43.9296C183.241 44.0038 182.815 44.1573 182.427 44.3829C182.103 44.5773 181.832 44.8499 181.639 45.1761C181.415 45.5709 181.316 46.026 181.358 46.4792Z" fill="white"/>
<path d="M194.671 49.9728V35.8838C194.671 35.745 194.705 35.6084 194.771 35.4863C194.836 35.3642 194.931 35.2606 195.046 35.185C195.34 34.9882 195.688 34.8892 196.04 34.9017C196.366 34.8943 196.684 35.0012 196.94 35.2038C197.058 35.2786 197.156 35.3815 197.224 35.5034C197.293 35.6253 197.331 35.7625 197.334 35.9026V37.3191C197.715 36.5347 198.315 35.8787 199.059 35.4305C199.897 34.9067 200.867 34.6378 201.853 34.6561C202.641 34.652 203.42 34.8185 204.138 35.1443C204.857 35.4702 205.497 35.9478 206.016 36.5448C207.172 37.7938 207.804 39.4453 207.778 41.153V49.8973C207.779 50.0503 207.739 50.2008 207.663 50.3334C207.588 50.4661 207.479 50.5762 207.347 50.6527C207.047 50.8324 206.702 50.924 206.353 50.9172C206.017 50.9171 205.686 50.8257 205.397 50.6527C205.267 50.5753 205.161 50.4645 205.088 50.3316C205.016 50.1988 204.98 50.0488 204.984 49.8973V41.2474C204.974 40.219 204.563 39.2357 203.841 38.5089C203.514 38.1335 203.114 37.8303 202.666 37.6186C202.217 37.4068 201.73 37.2911 201.235 37.2786C200.74 37.2662 200.247 37.3574 199.789 37.5464C199.33 37.7354 198.916 38.0181 198.572 38.3767C198.204 38.7549 197.916 39.2043 197.726 39.6977C197.536 40.1912 197.447 40.7184 197.465 41.2474V49.9728C197.455 50.1157 197.41 50.2539 197.335 50.3756C197.26 50.4973 197.157 50.5989 197.034 50.6716C196.755 50.8537 196.429 50.9506 196.096 50.9506C195.764 50.9506 195.438 50.8537 195.159 50.6716C195.026 50.6058 194.911 50.5073 194.826 50.3852C194.741 50.263 194.688 50.1212 194.671 49.9728Z" fill="white"/>
<path d="M211.66 57.7537V35.8835C211.656 35.7441 211.688 35.6061 211.754 35.4834C211.82 35.3607 211.917 35.2577 212.035 35.1847C212.315 34.9897 212.65 34.8904 212.991 34.9014C213.332 34.8848 213.669 34.9846 213.947 35.1847C214.063 35.2646 214.158 35.3717 214.223 35.4967C214.288 35.6218 214.322 35.761 214.322 35.9024V37.3188C214.776 36.5202 215.431 35.8566 216.221 35.3955C217.012 34.9345 217.909 34.6923 218.822 34.6936C219.634 34.6764 220.44 34.8362 221.184 35.1623C221.929 35.4883 222.594 35.9727 223.135 36.5823C224.292 37.8313 224.923 39.4827 224.898 41.1905V44.6467C224.877 46.3613 224.206 48.003 223.023 49.236C222.516 49.8503 221.883 50.3472 221.168 50.6927C220.452 51.0382 219.672 51.2242 218.879 51.2379C217.918 51.2429 216.976 50.9745 216.16 50.4636C215.372 50.0231 214.722 49.3688 214.285 48.575V57.7348C214.27 57.8765 214.223 58.013 214.149 58.134C214.074 58.255 213.973 58.3574 213.853 58.4336C213.567 58.6486 213.217 58.7615 212.86 58.7546C212.511 58.7589 212.17 58.6532 211.885 58.4525C211.801 58.3582 211.737 58.2474 211.699 58.1271C211.66 58.0067 211.647 57.8795 211.66 57.7537ZM214.453 45.591C214.591 46.3457 215.006 47.0203 215.616 47.4796C215.961 47.8445 216.378 48.1333 216.84 48.3277C217.302 48.5221 217.799 48.6179 218.299 48.6091C218.8 48.6002 219.293 48.4868 219.748 48.2762C220.202 48.0655 220.609 47.7621 220.941 47.3852C221.677 46.6428 222.095 45.6392 222.104 44.59V41.2283C222.09 40.1967 221.672 39.2123 220.941 38.4898C220.589 38.1077 220.163 37.8031 219.689 37.595C219.214 37.387 218.702 37.2801 218.185 37.2811C217.7 37.2773 217.219 37.3723 216.771 37.5606C216.323 37.7488 215.917 38.0263 215.579 38.3764C215.203 38.746 214.909 39.1909 214.716 39.6821C214.522 40.1733 214.432 40.7001 214.453 41.2283V45.591Z" fill="white"/>
<path d="M227.654 44.6847V41.2285C227.638 40.3778 227.796 39.533 228.119 38.7466C228.442 37.9603 228.922 37.2493 229.529 36.658C230.143 36.046 230.873 35.5636 231.674 35.2393C232.476 34.915 233.334 34.7552 234.198 34.7694C235.064 34.7569 235.925 34.9174 236.729 35.2415C237.534 35.5657 238.267 36.0471 238.886 36.658C239.519 37.2394 240.023 37.9485 240.365 38.7393C240.708 39.5301 240.881 40.3847 240.873 41.2474V44.7036C240.871 45.5666 240.692 46.4199 240.347 47.2097C240.002 47.9996 239.498 48.7089 238.867 49.2929C237.689 50.5196 236.079 51.2317 234.385 51.2759C233.516 51.2794 232.655 51.1035 231.855 50.7593C231.055 50.415 230.334 49.9095 229.735 49.274C229.094 48.6938 228.579 47.9869 228.221 47.1974C227.863 46.4078 227.67 45.5525 227.654 44.6847ZM230.448 44.6847C230.45 45.7408 230.868 46.7529 231.61 47.4987C231.945 47.8816 232.358 48.1876 232.821 48.3961C233.283 48.6046 233.785 48.7108 234.292 48.7074C234.808 48.7104 235.32 48.6024 235.792 48.3908C236.264 48.1791 236.686 47.8685 237.029 47.4798C237.76 46.7356 238.171 45.7315 238.173 44.6847V41.2285C238.167 40.1992 237.755 39.2145 237.029 38.49C236.68 38.1102 236.256 37.807 235.785 37.599C235.314 37.3911 234.806 37.283 234.292 37.2813C233.783 37.2801 233.279 37.3872 232.814 37.5954C232.348 37.8037 231.932 38.1085 231.592 38.49C230.872 39.2191 230.462 40.2009 230.448 41.2285V44.6847Z" fill="white"/>
<path d="M244.268 45.8742V28.3289C244.277 28.1834 244.323 28.0426 244.402 27.9202C244.481 27.7978 244.589 27.6979 244.718 27.6302C244.995 27.4435 245.322 27.3448 245.655 27.3469C246.001 27.3418 246.34 27.4405 246.63 27.6302C246.758 27.6979 246.867 27.7978 246.946 27.9202C247.025 28.0426 247.071 28.1834 247.08 28.3289V34.8447H251.262C251.382 34.8439 251.501 34.8748 251.606 34.9344C251.712 34.994 251.8 35.0803 251.862 35.1846C252.028 35.4146 252.114 35.6935 252.105 35.9778C252.114 36.2506 252.028 36.5178 251.862 36.7333C251.795 36.8317 251.705 36.9124 251.601 36.9683C251.496 37.0242 251.38 37.0537 251.262 37.0544H247.024V45.742C246.985 46.1035 247.019 46.4694 247.126 46.8169C247.232 47.1645 247.408 47.4864 247.643 47.7628C248.269 48.2279 249.044 48.4431 249.818 48.3672H250.849C251.016 48.3544 251.184 48.38 251.34 48.4422C251.496 48.5044 251.636 48.6014 251.749 48.726C251.976 48.9876 252.101 49.3231 252.101 49.6703C252.101 50.0176 251.976 50.3531 251.749 50.6146C251.639 50.739 251.503 50.8374 251.35 50.9027C251.198 50.968 251.033 50.9986 250.868 50.9924H249.837C246.143 50.9924 244.268 49.2926 244.268 45.8742Z" fill="white"/>
<path d="M30.7141 26.5347C30.2738 26.5334 29.8459 26.3875 29.4953 26.1192C29.063 25.7955 28.7736 25.3142 28.689 24.7783C28.6439 24.5128 28.6556 24.2405 28.7236 23.9799C28.7915 23.7194 28.914 23.4764 29.0828 23.2674C29.234 23.0439 29.4312 22.8558 29.6608 22.7157C29.8905 22.5756 30.1474 22.4868 30.4141 22.4553C30.6764 22.4072 30.9459 22.4161 31.2046 22.4812C31.4633 22.5463 31.7052 22.6663 31.9142 22.833C32.3481 23.157 32.637 23.6409 32.7178 24.1788C32.7986 24.7167 32.6648 25.265 32.3454 25.7037C32.02 26.1348 31.5441 26.4251 31.0141 26.5159L30.7141 26.5347ZM30.7141 23.7207H30.6016C30.4004 23.7517 30.219 23.86 30.0953 24.0229C30.0008 24.1816 29.9675 24.3698 30.0016 24.5517C30.0127 24.6533 30.0451 24.7514 30.0969 24.8393C30.1486 24.9272 30.2184 25.003 30.3016 25.0616C30.3815 25.121 30.4726 25.1633 30.5694 25.186C30.6661 25.2088 30.7664 25.2114 30.8641 25.1938C30.9621 25.1813 31.0562 25.1478 31.1403 25.0957C31.2243 25.0436 31.2964 24.974 31.3516 24.8916C31.4132 24.8133 31.4583 24.7231 31.4842 24.6266C31.5101 24.5301 31.5162 24.4293 31.5021 24.3304C31.4881 24.2314 31.4542 24.1364 31.4026 24.0511C31.3509 23.9657 31.2825 23.8919 31.2016 23.834C31.0588 23.7365 30.885 23.6961 30.7141 23.7207Z" fill="white"/>
<path d="M37.0329 22.6636C36.6009 22.665 36.18 22.5259 35.8328 22.267C35.3877 21.9439 35.0883 21.456 35.0004 20.9106C34.9125 20.3651 35.0433 19.8068 35.364 19.3585C35.6848 18.9102 36.1692 18.6086 36.7108 18.5201C37.2523 18.4315 37.8066 18.5633 38.2517 18.8864C38.6808 19.2213 38.9687 19.7069 39.058 20.2462C39.0973 20.5118 39.0827 20.7826 39.015 21.0423C38.9473 21.302 38.828 21.5452 38.6642 21.7571C38.513 21.9806 38.3158 22.1687 38.0861 22.3088C37.8565 22.4489 37.5996 22.5377 37.3329 22.5692L37.0329 22.6636ZM37.0329 19.8496H36.9204C36.7223 19.888 36.5472 20.0034 36.4328 20.1706C36.3713 20.249 36.3262 20.3392 36.3003 20.4357C36.2744 20.5322 36.2683 20.633 36.2823 20.7319C36.2964 20.8308 36.3302 20.9259 36.3819 21.0112C36.4336 21.0965 36.5019 21.1704 36.5828 21.2283C36.7443 21.3492 36.9456 21.4032 37.1454 21.3794C37.3465 21.3483 37.528 21.24 37.6516 21.0772C37.7668 20.9127 37.8139 20.7095 37.7829 20.5106C37.773 20.4086 37.7411 20.3101 37.6892 20.222C37.6374 20.1339 37.5669 20.0583 37.4829 20.0007C37.3548 19.897 37.197 19.8375 37.0329 19.8307V19.8496Z" fill="white"/>
<path d="M30.62 57.301C30.1347 57.2898 29.6686 57.1082 29.3022 56.7874C28.9358 56.4667 28.6923 56.0271 28.6137 55.5446C28.5384 55.0051 28.6728 54.4571 28.9887 54.0148C29.146 53.7989 29.345 53.6173 29.5738 53.481C29.8026 53.3447 30.0564 53.2564 30.32 53.2216C30.5854 53.1789 30.8566 53.1903 31.1175 53.2552C31.3784 53.3201 31.6237 53.4371 31.8388 53.5993C32.0543 53.7596 32.2361 53.9613 32.3736 54.1928C32.5111 54.4243 32.6017 54.6809 32.64 54.9479C32.6784 55.2149 32.6638 55.4869 32.5971 55.7482C32.5304 56.0095 32.4129 56.2548 32.2514 56.47C32.0611 56.7255 31.815 56.9334 31.5321 57.0775C31.2492 57.2216 30.9371 57.2981 30.62 57.301ZM30.62 54.4681H30.5075C30.4066 54.4792 30.3093 54.512 30.222 54.5641C30.1347 54.6162 30.0594 54.6865 30.0013 54.7703C29.937 54.8481 29.8903 54.9391 29.8644 55.0369C29.8385 55.1348 29.834 55.2371 29.8513 55.3368C29.8821 55.5395 29.9896 55.7222 30.1513 55.8468C30.3146 55.9628 30.5163 56.0102 30.7138 55.979C30.8147 55.9678 30.912 55.9351 30.9993 55.883C31.0867 55.8309 31.1619 55.7606 31.2201 55.6768C31.3385 55.5112 31.3872 55.3052 31.3556 55.1036C31.324 54.902 31.2146 54.7211 31.0513 54.6003C30.9239 54.5138 30.7737 54.4678 30.62 54.4681Z" fill="white"/>
<path d="M41.6645 32.8812C41.1867 32.8774 40.7241 32.7111 40.352 32.4091C39.9411 32.0573 39.6848 31.5561 39.6392 31.0149C39.5935 30.4736 39.7621 29.9361 40.1082 29.5195C40.2802 29.3126 40.4916 29.1425 40.7299 29.0193C40.9682 28.896 41.2286 28.8221 41.4958 28.8018C41.7618 28.7693 42.0317 28.7946 42.2873 28.8761C42.5428 28.9575 42.778 29.0932 42.9771 29.274C43.1867 29.4448 43.3597 29.6568 43.4854 29.897C43.6111 30.1373 43.687 30.4008 43.7084 30.6716C43.746 31.214 43.571 31.7497 43.2209 32.1636C43.051 32.3683 42.8426 32.5371 42.6077 32.6603C42.3728 32.7834 42.1159 32.8585 41.852 32.8812H41.6645ZM41.6645 30.0672C41.5622 30.0747 41.4625 30.1038 41.3721 30.1526C41.2816 30.2014 41.2024 30.2688 41.1395 30.3505C41.0755 30.4252 41.0275 30.5124 40.9985 30.6066C40.9694 30.7009 40.96 30.8001 40.9708 30.8982C40.9873 31.102 41.0814 31.2914 41.2333 31.427C41.3911 31.5564 41.5933 31.6175 41.7958 31.597C41.9925 31.5794 42.1745 31.4844 42.3021 31.3326C42.369 31.2553 42.42 31.1655 42.4522 31.0682C42.4844 30.971 42.4971 30.8682 42.4896 30.766C42.4684 30.569 42.3747 30.387 42.2271 30.2561C42.1538 30.1892 42.0678 30.138 41.9744 30.1055C41.8809 30.0731 41.7819 30.06 41.6833 30.0672H41.6645Z" fill="white"/>
<path d="M57.265 30.2179C56.6244 29.3447 55.8954 28.5409 55.0899 27.8194C53.3882 26.2412 51.3705 25.0489 49.1726 24.3227C46.9747 23.5965 44.6478 23.3534 42.3487 23.6097C40.0497 23.8659 37.8318 24.6157 35.8448 25.8084C33.8578 27.0011 32.1477 28.609 30.8299 30.5237C29.512 32.4384 28.617 34.6154 28.2053 36.908C27.7935 39.2006 27.8745 41.5555 28.4428 43.8139C29.011 46.0723 30.0534 48.1817 31.4997 50C32.9459 51.8183 34.7623 53.3031 36.8265 54.3545L35.6265 58.5472L37.5016 59.076L38.9079 54.1089C38.9707 53.8827 38.9525 53.6415 38.8565 53.4274C38.7605 53.2134 38.5929 53.0401 38.3829 52.938C36.4821 52.1007 34.7857 50.8556 33.4122 49.2895C32.0388 47.7234 31.0214 45.8741 30.4311 43.8709C29.8408 41.8677 29.6919 39.7589 29.9948 37.6917C30.2976 35.6245 31.045 33.6488 32.1845 31.9027C33.3241 30.1566 34.8285 28.6821 36.5925 27.5824C38.3565 26.4826 40.3377 25.784 42.3975 25.5355C44.4574 25.2869 46.5463 25.4943 48.5184 26.1432C50.4904 26.7922 52.298 27.8669 53.8148 29.2925L54.1711 29.6324C54.6445 29.577 55.1227 29.577 55.5961 29.6324C56.1796 29.7378 56.7428 29.9354 57.265 30.2179Z" fill="white"/>
<path d="M57.2649 30.218C58.3039 31.5678 59.1032 33.0886 59.6275 34.7129C60.3623 36.537 60.5955 38.5269 60.3025 40.4732C59.5948 45.6081 56.8983 50.2523 52.8022 53.3913C50.9271 54.6378 47.1769 56.0165 45.0768 54.4112C44.2812 53.8283 43.6512 53.0455 43.2498 52.1408C42.8484 51.236 42.6896 50.2411 42.7892 49.2553C42.8823 48.2393 43.1877 47.2547 43.6854 46.3661C44.1831 45.4775 44.8618 44.705 45.6769 44.0993C49.5395 41.0398 49.5208 38.6223 49.5208 37.4514C49.577 35.4482 50.3804 33.5399 51.7709 32.1066C52.5438 31.4453 53.5323 31.0955 54.546 31.1245H55.371H55.5773C55.1502 30.5597 54.68 30.0293 54.171 29.5381C52.9323 29.5824 51.7467 30.056 50.8146 30.879C49.0711 32.6395 48.0874 35.0215 48.077 37.5081C48.077 38.3957 48.077 40.2277 44.7956 42.834C43.8115 43.5725 42.9949 44.5137 42.4 45.5948C41.8052 46.6759 41.4456 47.8722 41.3454 49.1042C41.2238 50.3438 41.4263 51.594 41.9329 52.7304C42.4394 53.8668 43.2324 54.85 44.233 55.5821C45.2206 56.2774 46.4037 56.6349 47.6082 56.602C49.7762 56.5182 51.8788 55.8319 53.6835 54.6189C58.0931 51.2001 60.9949 46.1752 61.7651 40.6243C62.4401 34.7129 59.8337 31.4456 57.2649 30.218Z" fill="white"/>
<path d="M59.6279 34.7128C59.1036 33.0884 58.3043 31.5677 57.2653 30.2179C56.7398 29.955 56.1767 29.7766 55.5965 29.689C55.123 29.6336 54.6448 29.6336 54.1714 29.689C54.6804 30.1802 55.1506 30.7106 55.5777 31.2755C56.4742 31.4858 57.3086 31.9069 58.0126 32.5043C58.7165 33.1017 59.27 33.8585 59.6279 34.7128Z" fill="white"/>
<path d="M24.3763 45.8934C24.213 45.8966 24.0516 45.8576 23.9075 45.7801C23.7891 45.7143 23.6849 45.6252 23.6011 45.5182C23.5174 45.4111 23.4558 45.2883 23.42 45.1569C22.9852 43.409 22.7648 41.614 22.7637 39.8121C22.7436 37.0138 23.2714 34.239 24.3171 31.6464C25.3628 29.0539 26.9058 26.6944 28.8578 24.7031L30.2453 26.0629C26.646 29.6904 24.6229 34.6081 24.6201 39.7365C24.6279 41.0046 24.7535 42.2692 24.9951 43.5138L28.8578 42.2484L29.4578 44.137L24.5826 45.7423L24.3763 45.8934Z" fill="white"/>
<path d="M44.1206 61.2476C39.4673 61.2589 34.94 59.7256 31.2388 56.8849L32.4201 55.3174C35.7733 57.9163 39.8895 59.3182 44.1206 59.3023C46.8832 59.3009 49.6134 58.7037 52.1278 57.5509C54.6421 56.3981 56.8822 54.7164 58.6975 52.6189C60.5127 50.5214 61.8611 48.0568 62.6518 45.3907C63.4426 42.7246 63.6574 39.9189 63.2818 37.1622C62.9063 34.4055 61.9491 31.7618 60.4746 29.4088C59 27.0558 57.0424 25.048 54.7333 23.5206C52.4242 21.9931 49.8171 20.9813 47.0875 20.5533C44.3578 20.1252 41.5687 20.2908 38.9079 21.0389L38.3828 19.1503C40.2501 18.6212 42.1809 18.3543 44.1206 18.3571C46.9698 18.2719 49.807 18.7636 52.4641 19.803C55.1213 20.8424 57.5442 22.4084 59.5895 24.4082C61.6348 26.408 63.2607 28.8009 64.3711 31.4452C65.4814 34.0895 66.0535 36.9313 66.0535 39.8024C66.0535 42.6734 65.4814 45.5152 64.3711 48.1595C63.2607 50.8038 61.6348 53.1967 59.5895 55.1965C57.5442 57.1963 55.1213 58.7623 52.4641 59.8017C49.807 60.8411 46.9698 61.3328 44.1206 61.2476Z" fill="white"/>
<path d="M32.0637 49.1045L30.9199 47.5181L35.2139 44.3641C34.5046 42.9604 34.1381 41.4064 34.1451 39.8314C34.1389 37.8277 34.731 35.8685 35.8444 34.2081C36.9579 32.5477 38.5414 31.2629 40.3891 30.5205L41.1204 32.4091C39.6205 33.008 38.3359 34.0502 37.4355 35.3987C36.5352 36.7472 36.0613 38.3386 36.0764 39.9636C36.0785 41.4791 36.5006 42.9638 37.2952 44.2508C37.428 44.4581 37.4768 44.7088 37.4314 44.9513C37.3861 45.1938 37.2501 45.4095 37.0514 45.5539L32.0637 49.1045Z" fill="white"/>
<path d="M55.4274 30.5015C57.94 30.8604 61.7464 33.6933 61.0527 40.6434C60.3156 45.9821 57.5198 50.8133 53.2711 54.0904C51.396 55.318 47.3083 57.0366 44.6832 55.0913C43.7881 54.4398 43.0781 53.5633 42.6241 52.5493C42.1701 51.5353 41.9879 50.4192 42.0955 49.3122C42.1998 48.1967 42.5358 47.1159 43.0817 46.1398C43.6277 45.1637 44.3713 44.3141 45.2644 43.6463C49.0146 40.6434 48.8084 38.4526 48.8271 37.565C48.7521 35.6952 49.9709 29.7272 55.4274 30.5015Z" fill="white"/>
</svg>
