<svg width="42" height="28" viewBox="0 0 42 28" fill="none" xmlns="http://www.w3.org/2000/svg">
<path d="M38.9406 0H2.60908C1.17409 0 0 0.853482 0 1.89663C0 2.93977 1.17409 3.79325 2.60908 3.79325H38.9406C40.3755 3.79325 41.5496 2.93977 41.5496 1.89663C41.5496 0.853482 40.3755 0 38.9406 0Z" fill="white"/>
<path d="M38.9406 11.8062H2.60908C1.17409 11.8062 0 12.6596 0 13.7028C0 14.7459 1.17409 15.5994 2.60908 15.5994H38.9406C40.3755 15.5994 41.5496 14.7459 41.5496 13.7028C41.5496 12.6596 40.3755 11.8062 38.9406 11.8062Z" fill="white"/>
<path d="M38.9406 23.5654H2.60908C1.17409 23.5654 0 24.4189 0 25.4621C0 26.5052 1.17409 27.3587 2.60908 27.3587H38.9406C40.3755 27.3587 41.5496 26.5052 41.5496 25.4621C41.5496 24.4189 40.3755 23.5654 38.9406 23.5654Z" fill="white"/>
</svg>
