<svg width="20" height="25" viewBox="0 0 20 25" fill="none" xmlns="http://www.w3.org/2000/svg">
<path fill-rule="evenodd" clip-rule="evenodd" d="M3.18234 8.54555C2.8311 6.93131 2.98863 3.12492 3.10222 1.14844H17.395C17.4999 3.13143 17.6459 6.95496 17.3213 8.54555C17.0516 9.70782 14.8889 11.3442 13.0226 12.5677C14.8889 13.7911 17.0516 15.4275 17.3214 16.5898C17.6387 18.1448 17.5062 21.8341 17.4022 23.8512H3.09459C2.98189 21.8408 2.83905 18.1678 3.18241 16.5898C3.43142 15.4275 5.58487 13.7912 7.44711 12.5677C5.58485 11.3442 3.43135 9.70784 3.18234 8.54555Z" fill="#F3EFE3"/>
<rect x="0.324219" width="19.6752" height="2.29731" rx="1.14865" fill="#7E451F"/>
<rect y="22.7021" width="19.6752" height="2.29731" rx="1.14865" fill="#7E451F"/>
<path d="M9.6468 9.89695C10.1871 10.5725 9.6468 19 9.6468 19H10.478V4H4.76367C4.76367 4 4.91952 5.69466 5.49095 6.51908C6.06237 7.34351 9.10653 9.22137 9.6468 9.89695Z" fill="#E5C37D"/>
<path d="M10.3389 17L15.9926 22.6995H4.68518L10.3389 17Z" fill="#E5C37D"/>
<path d="M11.3063 9.89695C10.7661 10.5725 11.3063 19 11.3063 19H10.4752V4H16.1895C16.1895 4 16.0336 5.69466 15.4622 6.51908C14.8908 7.34351 11.8466 9.22137 11.3063 9.89695Z" fill="#E5C37D"/>
</svg>
