<svg width="70" height="140" viewBox="0 0 70 140" fill="none" xmlns="http://www.w3.org/2000/svg">
<path d="M33.8554 5.63266C45.2336 3.84961 62.2987 11.0061 65.0181 17.0675C66.5102 20.3933 67.0778 22.8487 67.2477 25.0316C67.3251 26.0263 67.32 26.9645 67.2821 27.9027C67.2516 28.658 67.1999 29.4134 67.153 30.1983C66.9201 34.0977 64.6907 37.4826 61.5035 40.7747C56.9901 45.4366 52.539 44.9801 46.5215 46.7423C40.4377 48.524 36.9135 49.2613 30.6299 49.7811C24.8073 50.2628 21.1468 51.7593 15.6784 49.5375C11.306 47.761 7.52323 44.7036 6.02498 41.8874C5.61409 41.115 5.32261 40.4542 5.12179 39.7126C4.92096 38.971 3.99548 36.9959 3.95287 35.7833C3.89001 33.9945 3.76769 32.7248 3.89004 28.7566C4.17289 19.5825 22.4771 7.41572 33.8554 5.63266Z" fill="#E37EC4"/>
<path d="M42.2061 17.7921C42.924 19.9867 42.9174 23.6307 42.9174 23.6307L40.2053 24.1493C40.2053 24.1493 41.1944 20.3746 40.6926 18.0815C40.2994 16.2847 38.8237 14.7169 39.2457 13.7547C39.6677 12.7925 41.5894 15.9072 42.2061 17.7921Z" fill="#DC68A6"/>
<path d="M25.4022 22.6732C25.4376 25.4484 27.4511 29.4091 27.4511 29.4091L30.1417 28.8945C30.1417 28.8945 27.6772 25.0882 27.3718 22.2965C27.1325 20.1091 28.1478 17.7079 27.336 16.8116C26.5241 15.9152 25.3718 20.2897 25.4022 22.6732Z" fill="#DC68A6"/>
<path d="M51.2338 16.8159C52.2923 18.842 52.2483 22.677 52.2483 22.677L50.3446 23.041C50.3446 23.041 50.6715 19.2518 49.8102 17.0881C49.1352 15.3927 47.6307 14.3375 47.8923 13.3104C48.1538 12.2833 50.3248 15.0757 51.2338 16.8159Z" fill="#DC68A6"/>
<path d="M14.4523 26.8006C14.0967 29.0971 15.3475 32.6845 15.3475 32.6845L17.2512 32.3204C17.2512 32.3204 15.749 28.8811 15.876 26.5283C15.9755 24.6848 17.0565 23.1352 16.4868 22.2671C15.9172 21.399 14.7578 24.8282 14.4523 26.8006Z" fill="#DC68A6"/>
<path d="M61.1452 17.6932C62.273 19.4033 62.3975 22.9027 62.3975 22.9027L60.1041 23.3412C60.1041 23.3412 60.765 20.2846 59.8247 18.4238C59.0879 16.9657 57.4995 15.897 57.7113 14.9278C57.9232 13.9587 60.1766 16.2244 61.1452 17.6932Z" fill="#DC68A6"/>
<path d="M6.08293 31.9962C5.56254 34.0215 6.54914 37.356 6.54914 37.356L8.84258 36.9174C8.84258 36.9174 7.25753 34.2903 7.55424 32.193C7.78673 30.5495 8.94233 28.9561 8.4376 28.1239C7.93288 27.2918 6.52987 30.2567 6.08293 31.9962Z" fill="#DC68A6"/>
<path d="M14.8109 49.6649C10.4385 47.8884 7.88829 44.2317 6.41029 42.3647C4.93229 40.4977 4.39259 38.4866 6.25258 36.5958C8.11258 34.705 7.92108 36.8584 11.2003 36.2313C14.4795 35.6043 13.4771 32.87 15.6557 31.5862C17.9961 30.207 20.9404 33.6171 23.4947 32.7984C26.0671 31.9739 25.5799 29.4912 28.0694 28.4079C31.031 27.119 33.2654 29.8211 36.1292 28.2942C38.458 27.0527 38.4987 24.0386 41.0324 23.4307C43.2291 22.9036 44.4149 25.2065 46.6415 24.8564C48.7214 24.5294 49.2823 22.0553 51.3837 22.0971C53.5608 22.1404 53.975 24.9901 56.1388 25.255C59.0341 25.6094 59.9312 20.5441 62.7229 21.4491C65.3806 22.3107 66.4146 28.0301 66.4146 28.0301C66.3842 28.7854 66.9867 30.4753 66.9398 31.2602C66.7069 35.1596 64.5963 37.6756 61.4091 40.9677C56.8957 45.6296 51.6715 45.1075 45.654 46.8697C39.5702 48.6514 36.046 49.3887 29.7624 49.9086C23.9398 50.3903 20.2793 51.8867 14.8109 49.6649Z" fill="#D34C94"/>
<path d="M55.563 27.4842C58.4604 27.8178 57.456 25.4286 59.9836 26.6389C63.9451 28.5359 62.9603 32.8811 60.1071 37.2879C56.7243 42.5127 51.9342 41.9818 46.3156 43.8869C39.9016 46.0617 36.0694 46.5694 29.369 47.1274C24.2923 47.5503 18.6036 48.233 16.331 47.1632C14.0584 46.0935 8.71438 41.9039 9.94775 39.0742C10.5955 37.5882 10.7143 38.9276 13.0513 38.4808C15.2942 38.0519 15.6966 35.2082 17.7167 34.0677C20.0016 32.7776 21.7905 35.701 24.2836 34.9981C27.0095 34.2295 26.1055 31.8701 28.6946 30.6677C31.5394 29.3465 33.6146 31.8199 36.4538 30.4847C38.7571 29.4015 39.143 26.8592 41.6017 26.309C43.6318 25.8546 44.8306 27.7217 46.8462 27.1966C48.6341 26.7309 48.9502 24.5435 50.7841 24.3972C52.9505 24.2243 53.4029 27.2355 55.563 27.4842Z" fill="#742651"/>
<path d="M51.4341 32.7782C51.9724 29.9858 49.0141 25.4634 49.0141 25.4634C49.0141 25.4634 47.3918 27.13 46.538 27.13C45.6842 27.13 44.1474 26.7597 44.1474 26.7597C44.1474 26.7597 46.6114 28.7829 46.8796 31.4819C47.178 34.4855 43.5339 34.3114 43.2376 37.3152C42.8078 41.6733 50.633 39.8711 51.4341 44.1671C52.2775 48.6904 43.983 49.9111 45.6282 54.1671C47.2969 58.4835 53.7243 52.8721 56.4715 56.4819C59.2306 60.1073 53.4416 65.1573 56.4715 68.5189C59.5712 71.9581 64.4953 65.3449 67.827 68.5189C72.1557 72.6428 64.2855 76.1827 67.827 81.1115C72.0048 86.926 76.2373 77.869 82.3415 81.1115C86.395 83.2647 87.0368 86.9187 90.8501 89.5374C92.4125 90.6103 92.4115 92.3084 94.2093 92.7782C96.219 93.3033 97.5327 92.0991 99.5028 92.7782C101.875 93.5958 102.053 97.8387 104.455 97.13C107.408 96.2587 105.199 91.0097 102.918 88.7967C100.383 86.3374 95.1096 92.3534 94.2093 88.7967C93.9622 87.8203 94.2093 86.2041 94.2093 86.2041C93.3947 84.6266 91.5377 86.7215 89.9403 86.2041C86.2253 85.0007 87.8153 79.5871 84.7321 77.0374C80.6522 73.6633 73.7203 79.9549 71.7544 74.8152C70.2476 70.8755 76.4582 68.3672 74.9135 64.4448C72.7657 58.9912 63.9762 69.3559 60.9112 64.4448C58.8367 61.1209 63.1078 57.3975 60.9112 54.1671C59.0039 51.362 54.1003 54.12 53.3124 50.7411C52.658 47.9345 56.5901 47.0592 56.4715 44.1671C56.2883 39.7022 46.9095 41.6196 48.0189 37.3152C48.5526 35.2444 50.8958 35.5705 51.4341 32.7782Z" fill="#E3BAD7"/>
<path d="M28.2967 42.4606C29.3023 39.8174 26.1322 33.7035 26.1322 33.7035C26.1322 33.7035 24.5465 35.35 23.2814 35.1081C22.0164 34.8662 20.7533 34.1665 20.7533 34.1665C20.7533 34.1665 23.0694 38.0832 24.0543 40.2254C25.0391 42.3675 19.929 41.9472 19.1407 44.8467C17.9969 49.0532 26.404 48.8309 26.5472 53.2205C26.698 57.8424 17.8971 57.399 18.9226 61.9168C19.9626 66.4986 27.5294 62.2477 29.8016 66.3476C32.0836 70.4653 25.269 74.2901 27.8742 78.2018C30.5394 82.2037 36.707 76.6678 39.6553 80.4546C43.4859 85.3746 34.754 87.2993 37.6389 92.8559C41.0423 99.4109 46.8837 91.3311 52.6975 95.7354C56.5581 98.66 56.6388 102.386 60.1758 105.721C61.6249 107.088 61.352 108.76 63.142 109.579C65.143 110.495 66.6987 109.57 68.6339 110.629C70.9641 111.905 70.4694 116.119 73.0747 115.898C76.2779 115.625 74.8264 110.018 72.8146 107.386C70.5789 104.461 64.144 109.34 63.7795 105.658C63.6794 104.648 64.1946 103.105 64.1946 103.105C63.6021 101.39 61.3401 103.085 59.7657 102.258C56.1041 100.336 58.6205 95.3201 55.8301 92.1975C52.1374 88.0652 43.9384 92.886 42.7218 87.4344C41.7893 83.2556 48.6343 82.0175 47.6597 77.8483C46.3047 72.0514 35.5262 80.5149 33.1327 75.0704C31.5127 71.3854 36.54 68.5658 34.7784 64.9487C33.2487 61.8079 27.7197 63.5512 27.4433 60.0673C27.2138 57.1735 31.4334 57.0916 31.7734 54.2199C32.2984 49.7864 24.0392 49.7328 25.8794 45.7139C26.7647 43.7804 27.2911 45.1037 28.2967 42.4606Z" fill="#E3BAD7"/>
<path d="M36.8047 30.2774L39.793 27.3145C39.793 27.3145 37.0474 31.9227 42.1514 34.3154C44.7241 35.5215 45.2229 33.5688 46.0552 35.0429C48.0858 38.6395 41.1403 37.7228 42.1514 41.2707C43.1222 44.6773 48.235 41.578 48.584 45.0645C48.9481 48.7021 41.2945 46.1197 42.1514 49.7014C42.9366 52.9837 48.5676 49.4558 50.1278 52.5467C51.6989 55.6594 44.7211 57.5093 47.2975 60.1344C49.501 62.3796 49.3558 59.8709 52.0576 61.7151C56.2779 64.596 44.5596 65.0852 47.2975 68.9866C50.2007 73.1238 52.0576 67.4159 54.2447 68.9866C56.3031 70.4649 48.8423 72.4636 54.2447 75.2043C58.1192 77.1698 57.0267 73.2836 60.9346 75.2043C65.6736 77.5334 58.136 83.0464 63.379 84.478C66.695 85.3834 66.9819 81.9073 69.5543 83.8457C72.2808 85.9002 66.0558 87.1688 68.5251 89.4311C70.6014 91.3332 70.6273 90.1548 73.1566 91.6441C77.3393 94.107 67.8796 96.8796 71.8701 99.5479C75.4519 101.943 76.5299 97.2795 80.2325 99.5479C84.3128 102.048 75.914 104.604 80.2325 106.819C84.6352 109.078 84.4829 101.04 88.8522 103.342C91.8767 104.935 88.9949 106.63 92.5831 106.819C95.183 106.957 96.0377 104.478 98.1152 105.766C102.875 108.716 109.972 118.166 102.875 117.674C98.0951 117.343 98.7702 111.122 93.9983 110.719C88.6201 110.263 86.5455 121.062 83.0628 117.674C80.2214 114.91 89.3874 110.922 85.8932 108.716C82.8912 106.821 79.3846 112.734 76.5016 110.719C73.8261 108.849 78.4916 105.717 76.5016 103.342C73.6018 99.8806 68.2283 105.594 66.8526 101.55C65.8118 98.4906 69.7859 99.3899 68.5251 96.3864C66.9731 92.6891 62.4867 98.0813 60.9346 94.3841C59.531 91.0405 65.1091 92.6703 63.379 89.4311C61.6069 86.1131 59.2666 89.2734 56.3031 86.5857C52.8208 83.4274 60.3238 81.7986 56.3031 79.1034C53.5814 77.279 49.564 81.3062 47.2975 79.1034C45.3871 77.2468 48.5909 75.0706 47.2975 72.8858C45.5032 69.8552 38.0912 72.3513 37.9058 68.9866C37.7757 66.6256 42.5117 66.3785 42.1514 64.0336C41.771 61.5589 36.335 62.6112 35.976 60.1344C35.5781 57.3889 41.981 57.9426 42.1514 55.1813C42.3308 52.2726 35.6797 52.6037 35.976 49.7014C36.2486 47.0309 42.4729 47.7313 42.1514 45.0645C41.8551 42.6072 35.976 44.3565 35.976 41.8872C35.976 40.5069 38.0373 39.4853 37.9058 38.1092C37.659 35.5256 34.6628 37.7486 33.1457 35.4746C31.3471 32.7786 30.2814 29.9803 31.4258 30.2774C35.076 31.2251 36.8047 30.2774 36.8047 30.2774Z" fill="#DAA8CB"/>
<path d="M58.6438 45.1571C54.3954 40.5434 53.8409 26.703 53.8409 26.703L53.1114 25.5552C53.1114 25.5552 54.2665 42.0667 58.0359 46.305C61.1922 49.8539 65.4238 45.3163 67.7632 50.0134C70.1282 54.7618 65.1988 59.478 66.6689 64.9356C68.9645 73.4577 77.6727 66.2543 81.7463 73.2356C84.878 78.6026 82.0507 86.3685 85.7588 90.895C90.0607 96.146 94.9734 89.1636 100.107 92.4843C105.367 95.8875 109.469 107.495 110.685 107.406C111.901 107.318 105.116 95.055 99.5908 91.4247C94.4767 88.0647 89.8984 95.1644 85.7588 89.6588C82.2712 85.0203 85.3999 78.172 82.5366 72.7058C78.7371 65.4519 69.7836 72.872 67.4593 64.4059C65.9482 58.9017 70.7712 54.3638 68.3712 49.572C65.9823 44.8022 61.8963 48.6891 58.6438 45.1571Z" fill="#D34C94"/>
<path d="M31.2394 54.3788C25.3079 47.9172 26.9444 32.2485 26.9444 32.2485L25.9906 30.7407C25.9906 30.7407 24.8253 49.5838 30.0614 55.479C34.4459 60.4154 42.0168 56.6235 44.8904 62.5969C47.7952 68.6353 39.0796 72.4145 40.429 78.9745C42.5362 89.218 57.7277 83.8051 62.9494 92.8649C66.9637 99.8299 61.0432 107.665 66.1294 113.864C72.0299 121.056 81.4309 113.961 89.0081 119.245C96.7734 124.659 100.898 139.681 102.853 139.953C104.807 140.224 97.144 123.987 88.9981 118.237C81.4587 112.916 71.9499 119.907 66.3544 112.48C61.6402 106.223 67.8738 99.5067 64.3055 92.5125C59.5703 83.2309 43.9484 88.8117 41.7853 78.6221C40.379 71.9976 48.8926 68.3856 45.9398 62.2878C43.0006 56.2181 35.7803 59.3256 31.2394 54.3788Z" fill="#D34C94"/>
<path d="M18.958 57.632C13.8569 51.7438 15.4141 37.3039 15.4141 37.3039L14.5979 35.9256C14.5979 35.9256 13.423 53.2828 17.9245 58.6566C21.6938 63.1564 28.3081 59.5895 30.755 65.059C33.2285 70.5882 25.6191 74.155 26.7359 80.18C28.4798 89.588 41.733 84.4519 46.1948 92.7389C49.6248 99.1098 44.4105 106.382 48.779 112.037C53.8469 118.598 62.0806 111.972 68.6225 116.759C75.3268 121.665 78.7839 135.451 80.4804 135.681C82.1768 135.912 75.6547 121.042 68.6225 115.832C62.1137 111.009 53.7872 117.541 48.9865 110.761C44.9419 105.048 50.4188 98.8031 47.3768 92.4008C43.3399 83.9048 29.7109 89.1997 27.9179 79.8419C26.7523 73.7581 34.1847 70.3472 31.67 64.7639C29.1669 59.2063 22.8632 62.1397 18.958 57.632Z" fill="#D34C94"/>
<path d="M52.9677 36.6147C52.4235 31.0307 43.8287 26.1113 43.8287 26.1113H40.817C40.817 26.1113 51.3517 30.7564 51.9292 36.6147C52.569 43.1046 43.0902 42.8231 42.8941 49.3399C42.6633 57.0065 52.9677 58.4546 55.2525 63.0751C58.7926 70.2345 50.4074 75.969 55.2525 82.3649C60.1837 88.8745 71.9679 81.8599 72.2843 88.0206C72.5486 93.1678 67.4032 92.5653 68.5456 97.615C70.7851 107.514 92.0269 88.702 93.574 98.7259C94.559 105.108 87.1662 105.009 89.2122 111.148C91.8133 118.952 100.931 108.832 108.217 112.966C116.8 117.836 115.279 134.478 116.629 135.69C117.979 136.902 117.177 116.262 108.217 111.148C101.327 107.215 93.4408 118.396 90.5623 111.148C88.1808 105.152 95.7294 103.933 94.5087 97.615C92.8109 88.8285 68.7162 106.591 69.5841 96.807C70.0311 91.7686 73.6047 93.0703 73.3228 88.0206C72.8829 80.1396 61.5044 87.6326 56.0833 81.7589C50.4215 75.6244 60.2109 70.5807 56.7064 63.0751C53.6353 56.4977 43.8869 56.5633 43.8287 49.3399C43.7782 43.0686 53.5763 42.8582 52.9677 36.6147Z" fill="#D34C94"/>
<path d="M37.2441 43.2093C33.941 40.5137 34.6694 29.6294 34.6694 29.6294L36.1528 28.5183C36.1528 28.5183 34.2598 39.4777 37.7221 42.3114C41.5577 45.4506 45.7417 37.1428 49.9793 39.5699C54.9645 42.4253 51.1429 51.9117 53.0317 55.7283C55.9584 61.6419 63.4676 56.6768 65.3077 63.4146C67.1806 70.2721 57.2922 77.6659 61.0672 80.3942C64.2212 82.6737 66.2062 77.9849 68.894 80.9847C74.1631 86.8656 52.4132 97.7356 58.0803 103.067C61.6882 106.462 65.0287 100.031 67.9935 104.246C71.7627 109.605 66.9169 112.855 66.1941 120.802C65.3426 130.164 67.71 135.343 67.8598 136.993C68.0096 138.643 64.5486 130.572 65.4184 120.788C66.0874 113.263 70.6597 110.79 67.3721 105.413C64.6521 100.965 60.4017 107.006 56.9431 103.433C52.1329 98.4639 74.528 84.7089 67.9018 81.5607C64.4896 79.9395 63.673 83.548 60.5891 81.2921C55.7762 77.7715 65.7823 70.9191 64.5397 63.8915C63.2418 56.5517 55.5259 63.0061 52.3625 56.9854C49.5903 51.7092 54.1193 43.3066 49.5491 40.3781C45.5813 37.8355 40.9373 46.2233 37.2441 43.2093Z" fill="#D34C94"/>
</svg>
