<svg width="254" height="541" viewBox="0 0 254 541" fill="none" xmlns="http://www.w3.org/2000/svg">
<path d="M-150.289 455.134C-156.962 433.07 -155.476 422.616 -138.879 409.077L251.528 396.072C254.908 419.435 254.739 433.772 251.528 461.095C251.673 474.136 247.259 481.647 198.55 496.857L106.45 530.452C75.9916 539.256 59.6579 544.691 6.19963 538.038C-23.1673 532.981 -40.8928 531.591 -73.6749 530.452C-93.3371 529.546 -102.467 526.96 -112.797 515.822C-134.214 489.381 -141.882 476.313 -150.289 455.134Z" fill="#BFBAB7"/>
<path d="M-32.9225 324.005C-58.7807 359.075 -80.8146 378.184 -138.878 409.076C-160.784 435.952 -123.105 441.116 -88.3455 456.76C-56.9986 466.066 -38.1668 468.746 1.30951 461.636C51.5796 459.054 76.1497 462.317 116.231 473.015C162.177 478.064 181.024 473.244 207.516 456.76C237.93 429.098 245.93 416.237 250.713 396.072C241.08 353.865 220.196 344.839 187.955 324.005C133.418 306.829 105.731 305.029 56.8829 301.852L55.9176 301.789C11.0052 299.848 -8.47115 299.622 -32.9225 324.005Z" fill="#DDD7D7"/>
<path d="M75.4995 115.5L81.207 100.543H93.8845L102.877 64.7486H87.5458L105.382 35.2528L126.437 7.69299L164.348 64.7486H153.439L159.778 100.543H171.424L176 115.5H164.348L169.876 160.688L175.405 204.466L180.244 242.788L185.437 283.905L192.209 337.53C142.311 347.829 114.097 348.447 63.2227 337.53L67.1249 302.135L71.658 261.018L75.8096 223.361L80.2694 182.909L87.5458 115.5H75.4995Z" fill="white"/>
<path d="M87.5458 115.5H164.348M87.5458 115.5H75.4995L81.207 100.543H93.8845M87.5458 115.5L80.2694 182.909L75.8096 223.361L71.658 261.018L67.1249 302.135L63.2227 337.53C114.097 348.447 142.311 347.829 192.209 337.53L185.437 283.905L180.244 242.788L175.405 204.466L169.876 160.688L164.348 115.5M164.348 115.5H176L171.424 100.543H159.778M93.8845 100.543L102.877 64.7486M93.8845 100.543H159.778M102.877 64.7486H153.439M102.877 64.7486H87.5458L105.382 35.2528L126.437 7.69299L164.348 64.7486H153.439M153.439 64.7486L159.778 100.543" stroke="white" stroke-width="4"/>
<path d="M168.584 149.51L83.0255 159.024L78.3374 201.969L173.272 190.077L168.584 149.51Z" fill="#D33929"/>
<path d="M67.2031 301.469L72.7703 250.728L179.865 238.175L186.018 286.67L67.2031 301.469Z" fill="#D33929"/>
<path d="M168.584 149.51L83.0255 159.024L78.3374 201.969L173.272 190.077L168.584 149.51Z" stroke="#D33929" stroke-width="5"/>
<path d="M67.2031 301.469L72.7703 250.728L179.865 238.175L186.018 286.67L67.2031 301.469Z" stroke="#D33929" stroke-width="5"/>
<path d="M72.3633 254.099L180.122 241.324" stroke="#D33929" stroke-width="5"/>
<path d="M73.1191 117.575H178.596" stroke="#FABB32"/>
<path d="M80.8086 100.01H171.866" stroke="#FABB32"/>
<path d="M72.9531 117.575L80.766 100.01" stroke="#FABB32"/>
<path d="M171.867 100.01L178.648 117.575" stroke="#FABB32"/>
<path d="M109 96V66H147V96H109Z" fill="#FABB32" stroke="#F3EFE3"/>
<path d="M78.9688 66.4675L128.935 1L175.377 66.4675H78.9688Z" fill="#4F4F4F" stroke="#4F4F4F"/>
<path d="M56 118.355L79.331 96H175.946L199.875 118.355H56Z" fill="#4F4F4F" stroke="#4F4F4F"/>
<path d="M-267.215 389.725C-273.647 367.697 -272.779 357.116 -259.291 342.964L69.1797 317.877C72.8848 341.315 73.2685 355.767 71.5666 383.398C72.1669 396.535 68.724 404.239 28.2413 421.06L-48.1271 457.74C-73.4677 467.546 -87.0306 473.524 -132.318 468.461C-157.247 464.267 -172.233 463.41 -199.897 463.269C-216.497 462.96 -224.284 460.633 -233.397 449.727C-252.413 423.742 -259.354 410.808 -267.215 389.725Z" fill="#BFBAB7"/>
<path d="M-173.138 253.989C-193.638 290.121 -211.502 310.052 -259.291 342.964C-276.762 370.718 -244.825 374.766 -214.963 389.462C-188.209 397.877 -172.244 400 -139.243 391.624C-96.981 387.479 -76.1591 390.013 -41.9948 399.563C-3.09635 403.239 12.6069 397.805 34.3234 380.38C58.9344 351.574 65.2028 338.368 68.4928 317.902C58.8268 275.667 40.8986 267.213 12.9683 247.209C-33.6142 231.575 -57.0081 230.611 -98.2833 228.909L-99.099 228.875C-137.012 228.298 -153.431 228.668 -173.138 253.989Z" fill="#DDD7D7"/>
</svg>
