<svg width="430" height="494" viewBox="0 0 430 494" fill="none" xmlns="http://www.w3.org/2000/svg">
<ellipse cx="19.4436" cy="19.5254" rx="19.4436" ry="19.5254" transform="matrix(-0.975824 -0.218558 -0.215122 0.976587 200.781 235.477)" fill="#A5D1FF" fill-opacity="0.5"/>
<path d="M191.073 243.584C191.69 243.256 191.087 240.207 189.803 239.296C188.519 238.385 186.321 238.711 186.229 240.002C186.136 241.293 190.457 243.911 191.073 243.584Z" fill="white" fill-opacity="0.8"/>
<path d="M192.895 246.053C192.941 245.792 192.453 244.895 192.141 244.839C191.828 244.783 191.47 244.99 191.424 245.251C191.378 245.513 191.866 246.41 192.178 246.466C192.491 246.521 192.849 246.315 192.895 246.053Z" fill="white" fill-opacity="0.8"/>
<ellipse cx="26.1893" cy="26.2995" rx="26.1893" ry="26.2995" transform="matrix(-0.975824 -0.218558 -0.215122 0.976587 227.428 347.448)" fill="#A5D1FF" fill-opacity="0.5"/>
<path d="M215.151 358.754C216.062 358.321 215.384 353.882 213.588 352.485C211.791 351.089 208.6 351.421 208.385 353.278C208.17 355.134 214.24 359.187 215.151 358.754Z" fill="white" fill-opacity="0.8"/>
<path d="M217.632 362.405C217.717 362.015 217.2 360.674 216.813 360.587C216.426 360.501 215.953 360.803 215.867 361.192C215.781 361.582 216.298 362.923 216.686 363.01C217.073 363.097 217.546 362.794 217.632 362.405Z" fill="white" fill-opacity="0.8"/>
<ellipse cx="17.0627" cy="17.1345" rx="17.0627" ry="17.1345" transform="matrix(-0.975824 -0.218558 -0.215122 0.976587 138.18 307.171)" fill="#A5D1FF" fill-opacity="0.5"/>
<path d="M128.848 314.493C129.441 314.21 129.001 311.314 127.833 310.404C126.666 309.494 124.589 309.712 124.448 310.923C124.308 312.134 128.255 314.776 128.848 314.493Z" fill="white" fill-opacity="0.8"/>
<path d="M130.358 316.854C130.444 316.464 130.391 315.227 130.237 315.192C130.082 315.158 129.841 315.512 129.755 315.902C129.669 316.291 129.722 317.528 129.877 317.563C130.032 317.598 130.272 317.243 130.358 316.854Z" fill="white" fill-opacity="0.8"/>
<ellipse cx="13.0751" cy="13.5482" rx="13.0751" ry="13.5482" transform="matrix(-0.975824 -0.218558 -0.215122 0.976587 93.6621 367.61)" fill="#A5D1FF" fill-opacity="0.5"/>
<path d="M87.0877 373.272C87.5047 373.042 87.1126 370.931 86.2518 370.305C85.391 369.68 83.9095 369.917 83.8413 370.812C83.773 371.707 86.6708 373.502 87.0877 373.272Z" fill="white" fill-opacity="0.8"/>
<path d="M88.3034 374.974C88.3355 374.792 88.0112 374.173 87.8011 374.136C87.5909 374.098 87.3486 374.243 87.3166 374.425C87.2845 374.607 87.6087 375.226 87.8189 375.263C88.0291 375.301 88.2714 375.156 88.3034 374.974Z" fill="white" fill-opacity="0.8"/>
<ellipse cx="11.1106" cy="11.455" rx="11.1106" ry="11.455" transform="matrix(-0.975824 -0.218558 -0.215122 0.976587 71.0312 307.439)" fill="#A5D1FF" fill-opacity="0.5"/>
<path d="M65.7887 312.388C66.1767 312.197 65.8994 310.267 65.1398 309.664C64.3802 309.06 63.0235 309.213 62.9277 310.021C62.832 310.83 65.4007 312.579 65.7887 312.388Z" fill="white" fill-opacity="0.8"/>
<path d="M66.8348 313.97C66.8722 313.8 66.6558 313.217 66.4916 313.18C66.3273 313.144 66.1256 313.277 66.0882 313.446C66.0509 313.616 66.2673 314.199 66.4315 314.235C66.5958 314.272 66.7975 314.139 66.8348 313.97Z" fill="white" fill-opacity="0.8"/>
<ellipse cx="8.38185" cy="8.33877" rx="8.38185" ry="8.33877" transform="matrix(-0.976203 -0.216858 -0.216858 0.976203 19.9805 437.468)" fill="#A5D1FF" fill-opacity="0.5"/>
<path d="M15.3968 441.027C15.688 440.89 15.4715 439.481 14.8975 439.038C14.3234 438.595 13.303 438.701 13.2342 439.29C13.1654 439.879 15.1056 441.165 15.3968 441.027Z" fill="white" fill-opacity="0.8"/>
<path d="M16.1384 442.175C16.1805 441.986 16.1544 441.384 16.0783 441.367C16.0022 441.351 15.884 441.523 15.842 441.712C15.7999 441.902 15.826 442.503 15.9021 442.52C15.9782 442.537 16.0964 442.365 16.1384 442.175Z" fill="white" fill-opacity="0.8"/>
<ellipse cx="26.0876" cy="26.1974" rx="26.0876" ry="26.1974" transform="matrix(0.939095 -0.343657 0.340349 0.940299 191.119 54.4146)" fill="#A5D1FF" fill-opacity="0.5"/>
<path d="M206.724 63.6576C205.769 63.3463 205.858 58.8692 207.448 57.2571C209.037 55.6451 212.229 55.5625 212.683 57.3709C213.137 59.1793 207.678 63.9689 206.724 63.6576Z" fill="white" fill-opacity="0.8"/>
<path d="M204.902 67.5373C204.695 66.9642 204.528 65.0781 204.756 64.9947C204.984 64.9113 205.419 65.401 205.627 65.9741C205.834 66.5472 206.001 68.4333 205.773 68.5167C205.545 68.6001 205.109 68.1104 204.902 67.5373Z" fill="white" fill-opacity="0.8"/>
<ellipse cx="19.9908" cy="20.7142" rx="19.9908" ry="20.7142" transform="matrix(0.939095 -0.343657 0.340349 0.940299 270.627 137.18)" fill="#A5D1FF" fill-opacity="0.5"/>
<path d="M281.72 144.456C281.042 144.19 281.217 140.912 282.397 139.793C283.578 138.673 285.871 138.737 286.152 140.081C286.434 141.424 282.398 144.721 281.72 144.456Z" fill="white" fill-opacity="0.8"/>
<path d="M280.214 147.278C280.129 147.009 280.498 146.005 280.809 145.907C281.12 145.809 281.516 145.98 281.601 146.249C281.686 146.518 281.317 147.522 281.006 147.62C280.695 147.719 280.299 147.548 280.214 147.278Z" fill="white" fill-opacity="0.8"/>
<ellipse cx="16.9873" cy="17.5138" rx="16.9873" ry="17.5138" transform="matrix(0.939095 -0.343657 0.340349 0.940299 292.963 41.4636)" fill="#A5D1FF" fill-opacity="0.5"/>
<path d="M301.893 47.9227C301.267 47.7106 301.303 44.7296 302.335 43.664C303.367 42.5985 305.453 42.5596 305.759 43.7661C306.065 44.9727 302.519 48.1348 301.893 47.9227Z" fill="white" fill-opacity="0.8"/>
<path d="M300.623 50.5291C300.533 50.2793 300.745 49.3529 300.987 49.2644C301.229 49.176 301.561 49.3373 301.651 49.5872C301.742 49.837 301.529 50.7634 301.288 50.8518C301.046 50.9403 300.714 50.7789 300.623 50.5291Z" fill="white" fill-opacity="0.8"/>
<ellipse cx="412.622" cy="236.021" rx="12.8152" ry="12.7493" transform="rotate(-20 412.622 236.021)" fill="#A5D1FF" fill-opacity="0.5"/>
<path d="M403.874 232.907C403.406 232.757 403.454 230.579 404.236 229.793C405.018 229.007 406.586 228.964 406.807 229.843C407.029 230.723 404.343 233.058 403.874 232.907Z" fill="white" fill-opacity="0.8"/>
<path d="M402.978 234.796C402.876 234.517 402.796 233.6 402.908 233.559C403.02 233.518 403.234 233.756 403.335 234.035C403.437 234.313 403.517 235.231 403.405 235.272C403.293 235.312 403.079 235.074 402.978 234.796Z" fill="white" fill-opacity="0.8"/>
<ellipse cx="19.6148" cy="19.6973" rx="19.6148" ry="19.6973" transform="matrix(-0.966076 -0.258258 -0.254857 0.966979 411.363 158.563)" fill="#A5D1FF" fill-opacity="0.5"/>
<path d="M401.245 166.334C401.881 166.029 401.399 162.931 400.142 161.959C398.885 160.988 396.656 161.227 396.51 162.524C396.363 163.821 400.61 166.639 401.245 166.334Z" fill="white" fill-opacity="0.8"/>
<path d="M402.977 168.898C403.034 168.636 402.58 167.712 402.267 167.643C401.954 167.574 401.585 167.767 401.528 168.029C401.471 168.291 401.925 169.215 402.238 169.284C402.551 169.353 402.92 169.16 402.977 168.898Z" fill="white" fill-opacity="0.8"/>
<ellipse cx="17.213" cy="17.2854" rx="17.213" ry="17.2854" transform="matrix(-0.966076 -0.258258 -0.254857 0.966979 345.309 228.246)" fill="#A5D1FF" fill-opacity="0.5"/>
<path d="M335.6 235.242C336.209 234.981 335.886 232.044 334.746 231.078C333.607 230.113 331.504 230.247 331.313 231.462C331.121 232.677 334.991 235.503 335.6 235.242Z" fill="white" fill-opacity="0.8"/>
<path d="M337.026 237.684C337.128 237.295 337.126 236.046 336.971 236.004C336.817 235.963 336.56 236.311 336.457 236.699C336.355 237.088 336.357 238.338 336.511 238.379C336.666 238.42 336.923 238.073 337.026 237.684Z" fill="white" fill-opacity="0.8"/>
<ellipse cx="13.1903" cy="13.6675" rx="13.1903" ry="13.6675" transform="matrix(-0.966076 -0.258258 -0.254857 0.966979 297.943 287.331)" fill="#A5D1FF" fill-opacity="0.5"/>
<path d="M291.082 292.767C291.512 292.553 291.204 290.409 290.362 289.743C289.52 289.077 288.017 289.254 287.911 290.154C287.805 291.053 290.652 292.982 291.082 292.767Z" fill="white" fill-opacity="0.8"/>
<path d="M292.239 294.533C292.279 294.351 291.978 293.713 291.767 293.667C291.557 293.621 291.307 293.757 291.267 293.939C291.227 294.121 291.529 294.758 291.739 294.805C291.949 294.851 292.199 294.715 292.239 294.533Z" fill="white" fill-opacity="0.8"/>
<ellipse cx="11.2085" cy="11.5559" rx="11.2085" ry="11.5559" transform="matrix(-0.966076 -0.258258 -0.254857 0.966979 277.615 225.748)" fill="#A5D1FF" fill-opacity="0.5"/>
<path d="M272.128 230.52C272.527 230.344 272.327 228.387 271.586 227.747C270.845 227.108 269.472 227.206 269.342 228.017C269.212 228.828 271.729 230.696 272.128 230.52Z" fill="white" fill-opacity="0.8"/>
<path d="M273.116 232.158C273.161 231.988 272.967 231.392 272.803 231.348C272.639 231.304 272.43 231.43 272.385 231.599C272.341 231.769 272.535 232.365 272.699 232.409C272.863 232.453 273.072 232.327 273.116 232.158Z" fill="white" fill-opacity="0.8"/>
</svg>
