<svg width="1440" height="436" viewBox="0 0 1440 436" fill="none" xmlns="http://www.w3.org/2000/svg">
<path d="M444.775 46.3109C381.846 40.9673 215.561 62.3416 173.071 62.3416C130.58 62.3416 30.7599 16.7657 -22.4876 16.7657C-75.7351 16.7657 -163 62.3416 -163 62.3416V182.127H1471V0H1359.13C1321.48 0 1228.97 46.3109 1193.47 46.3109C1157.97 46.3109 1075.14 36.0691 1036.41 36.0691C997.689 36.0691 937.449 46.3109 893.345 62.3416C849.241 78.3723 873.982 88.1689 873.982 88.1689L598.063 72.1382C598.063 72.1382 507.704 51.6545 444.775 46.3109Z" fill="#28637E"/>
<path d="M14.8813 69.6408C-54.905 70.7768 -146 89.521 -146 89.521V270.43H1474V125.021C1474 125.021 1423.92 139.505 1380.24 139.789C1336.56 140.073 1276.36 111.673 1214.03 113.377C1151.7 115.081 1110.69 125.021 1070.2 125.021C1029.71 125.021 829.942 63.6768 726.062 61.6888C622.182 59.7008 486.338 107.697 441.057 106.561C395.776 105.425 381.925 96.337 304.681 89.521C227.436 82.7049 143.799 89.521 143.799 89.521C143.799 89.521 84.6675 68.5048 14.8813 69.6408Z" fill="#E5C37D"/>
<path d="M128.581 85.365H-145.82V347.696H1474V169.374C1474 169.374 1413.38 193.469 1374.02 190.864C1334.67 188.259 1217.68 169.374 1164.5 180.77C1111.32 192.167 1036.34 204.866 926.792 203.563C817.244 202.261 719.927 147.883 645.477 147.883C571.027 147.883 594.426 160.908 510.404 147.883C426.381 134.858 236.002 85.365 128.581 85.365Z" fill="#FAE3B2"/>
<path d="M79 143.367C-71 186.969 -178 251.765 -178 251.765L-146.31 436H1474V251.765C1474 251.765 1413.36 295.602 1373.99 290.863C1334.63 286.124 1217.6 251.765 1164.41 272.499C1111.21 293.233 1036.21 316.336 926.627 313.967C817.046 311.597 719.699 212.667 645.227 212.667C570.754 212.667 594.16 236.363 510.112 212.667C426.065 188.971 229 99.765 79 143.367Z" fill="url(#paint0_linear_155_934)"/>
<defs>
<linearGradient id="paint0_linear_155_934" x1="648" y1="98.9265" x2="648.748" y2="436.493" gradientUnits="userSpaceOnUse">
<stop stop-color="#937F53"/>
<stop offset="0.145833" stop-color="#A29372"/>
<stop offset="0.697917" stop-color="#0D3865"/>
<stop offset="1" stop-color="#032B5E"/>
</linearGradient>
</defs>
</svg>
