<svg width="447" height="549" viewBox="0 0 447 549" fill="none" xmlns="http://www.w3.org/2000/svg">
<ellipse cx="31.9491" cy="32.0835" rx="31.9491" ry="32.0835" transform="matrix(0.945539 0.325509 -0.328835 0.944387 26.1211 17.4363)" fill="#A5D1FF" fill-opacity="0.5"/>
<path d="M32.7198 37.1422C32.1388 36.1525 35.6096 32.4047 38.1915 32.2363C40.7735 32.0679 43.5666 34.4184 42.5842 36.3041C41.6018 38.1899 33.3008 38.1318 32.7198 37.1422Z" fill="white" fill-opacity="0.8"/>
<path d="M28.0456 39.0283C28.207 38.6225 29.6618 37.7876 30.147 37.9789C30.6322 38.1702 30.9559 38.7673 30.7945 39.1731C30.633 39.5789 29.1782 40.4138 28.693 40.2225C28.2078 40.0312 27.8841 39.4341 28.0456 39.0283Z" fill="white" fill-opacity="0.8"/>
<ellipse cx="43.0335" cy="43.2145" rx="43.0335" ry="43.2145" transform="matrix(0.945539 0.325509 -0.328835 0.944387 -68.8047 130.168)" fill="#A5D1FF" fill-opacity="0.5"/>
<ellipse cx="28.0369" cy="28.1549" rx="28.0369" ry="28.1549" transform="matrix(0.945539 0.325509 -0.328835 0.944387 51.9336 171.733)" fill="#A5D1FF" fill-opacity="0.5"/>
<path d="M58.6838 190.018C58.0983 189.111 61.2074 185.438 63.6257 185.17C66.044 184.903 68.7619 186.997 67.915 188.813C67.0682 190.629 59.2693 190.925 58.6838 190.018Z" fill="white" fill-opacity="0.8"/>
<path d="M54.5349 192.019C54.7503 191.4 55.8897 189.714 56.1363 189.799C56.3829 189.884 56.4141 190.588 56.1987 191.206C55.9833 191.825 54.8439 193.511 54.5973 193.426C54.3507 193.341 54.3195 192.638 54.5349 192.019Z" fill="white" fill-opacity="0.8"/>
<ellipse cx="21.4846" cy="22.262" rx="21.4846" ry="22.262" transform="matrix(0.945539 0.325509 -0.328835 0.944387 62.1543 294.652)" fill="#A5D1FF" fill-opacity="0.5"/>
<path d="M66.4763 308.238C66.0909 307.558 68.4581 304.942 70.2015 304.808C71.9448 304.674 73.8138 306.282 73.1382 307.593C72.4626 308.904 66.8617 308.919 66.4763 308.238Z" fill="white" fill-opacity="0.8"/>
<path d="M63.3069 309.573C63.4187 309.291 64.4061 308.703 64.7323 308.832C65.0584 308.961 65.2728 309.372 65.161 309.654C65.0493 309.936 64.0618 310.524 63.7357 310.395C63.4096 310.266 63.1952 309.855 63.3069 309.573Z" fill="white" fill-opacity="0.8"/>
<ellipse cx="18.2566" cy="18.8225" rx="18.2566" ry="18.8225" transform="matrix(0.945539 0.325509 -0.328835 0.944387 145.656 229.956)" fill="#A5D1FF" fill-opacity="0.5"/>
<path d="M148.727 241.396C148.348 240.795 150.399 238.333 151.982 238.144C153.564 237.954 155.331 239.336 154.769 240.55C154.206 241.763 149.105 241.998 148.727 241.396Z" fill="white" fill-opacity="0.8"/>
<path d="M145.902 242.709C145.996 242.439 146.8 241.81 147.062 241.9C147.324 241.991 147.491 242.35 147.397 242.62C147.303 242.89 146.499 243.518 146.237 243.428C145.976 243.338 145.808 242.979 145.902 242.709Z" fill="white" fill-opacity="0.8"/>
<ellipse cx="113.601" cy="473.33" rx="13.7728" ry="13.702" transform="rotate(19.0962 113.601 473.33)" fill="#A5D1FF" fill-opacity="0.5"/>
<path d="M108.415 464.805C108.126 464.362 109.642 462.577 110.827 462.452C112.012 462.327 113.349 463.354 112.938 464.237C112.526 465.121 108.704 465.248 108.415 464.805Z" fill="white" fill-opacity="0.8"/>
<path d="M106.388 465.773C106.492 465.472 107.047 464.653 107.168 464.695C107.289 464.737 107.306 465.08 107.202 465.381C107.097 465.682 106.542 466.501 106.421 466.459C106.3 466.417 106.283 466.074 106.388 465.773Z" fill="white" fill-opacity="0.8"/>
<ellipse cx="19.6148" cy="19.6973" rx="19.6148" ry="19.6973" transform="matrix(0.966076 -0.258258 0.254857 0.966979 235.453 293.751)" fill="#A5D1FF" fill-opacity="0.5"/>
<path d="M245.571 301.522C244.936 301.218 245.418 298.119 246.675 297.147C247.932 296.176 250.16 296.415 250.307 297.712C250.453 299.009 246.206 301.827 245.571 301.522Z" fill="white" fill-opacity="0.8"/>
<path d="M243.839 304.086C243.782 303.824 244.237 302.9 244.549 302.831C244.862 302.762 245.232 302.955 245.289 303.217C245.346 303.479 244.891 304.403 244.578 304.472C244.266 304.541 243.896 304.348 243.839 304.086Z" fill="white" fill-opacity="0.8"/>
<ellipse cx="26.4199" cy="26.5311" rx="26.4199" ry="26.5311" transform="matrix(0.966076 -0.258258 0.254857 0.966979 225.773 383.681)" fill="#A5D1FF" fill-opacity="0.5"/>
<path d="M238.614 394.571C237.678 394.172 238.179 389.67 239.931 388.188C241.684 386.707 244.915 386.909 245.208 388.772C245.501 390.634 239.55 394.97 238.614 394.571Z" fill="white" fill-opacity="0.8"/>
<path d="M236.263 398.353C236.161 397.964 236.627 396.591 237.014 396.487C237.4 396.384 237.89 396.669 237.992 397.058C238.095 397.447 237.629 398.82 237.242 398.924C236.855 399.027 236.366 398.742 236.263 398.353Z" fill="white" fill-opacity="0.8"/>
<ellipse cx="17.213" cy="17.2854" rx="17.213" ry="17.2854" transform="matrix(0.966076 -0.258258 0.254857 0.966979 301.508 363.435)" fill="#A5D1FF" fill-opacity="0.5"/>
<path d="M311.216 370.43C310.607 370.169 310.93 367.232 312.07 366.267C313.21 365.301 315.312 365.435 315.504 366.651C315.695 367.866 311.825 370.691 311.216 370.43Z" fill="white" fill-opacity="0.8"/>
<path d="M309.791 372.872C309.688 372.484 309.69 371.234 309.845 371.193C310 371.151 310.257 371.499 310.359 371.888C310.462 372.277 310.46 373.526 310.305 373.567C310.15 373.609 309.893 373.261 309.791 372.872Z" fill="white" fill-opacity="0.8"/>
<ellipse cx="13.1903" cy="13.6675" rx="13.1903" ry="13.6675" transform="matrix(0.966076 -0.258258 0.254857 0.966979 348.873 422.519)" fill="#A5D1FF" fill-opacity="0.5"/>
<path d="M355.734 427.955C355.305 427.741 355.613 425.597 356.455 424.931C357.297 424.265 358.8 424.442 358.905 425.342C359.011 426.241 356.164 428.17 355.734 427.955Z" fill="white" fill-opacity="0.8"/>
<path d="M354.577 429.721C354.537 429.539 354.839 428.901 355.049 428.855C355.259 428.809 355.509 428.945 355.549 429.127C355.589 429.309 355.288 429.947 355.077 429.993C354.867 430.039 354.617 429.903 354.577 429.721Z" fill="white" fill-opacity="0.8"/>
<ellipse cx="11.2085" cy="11.5559" rx="11.2085" ry="11.5559" transform="matrix(0.966076 -0.258258 0.254857 0.966979 369.203 360.936)" fill="#A5D1FF" fill-opacity="0.5"/>
<path d="M374.69 365.708C374.291 365.532 374.491 363.575 375.232 362.936C375.973 362.297 377.347 362.394 377.477 363.205C377.606 364.016 375.089 365.885 374.69 365.708Z" fill="white" fill-opacity="0.8"/>
<path d="M373.702 367.346C373.657 367.177 373.852 366.58 374.016 366.536C374.18 366.493 374.388 366.618 374.433 366.788C374.478 366.957 374.284 367.553 374.12 367.597C373.956 367.641 373.747 367.516 373.702 367.346Z" fill="white" fill-opacity="0.8"/>
<ellipse cx="436.352" cy="495.857" rx="8.45566" ry="8.4122" transform="rotate(-14.8669 436.352 495.857)" fill="#A5D1FF" fill-opacity="0.5"/>
<path d="M430.787 493.294C430.488 493.168 430.648 491.739 431.209 491.269C431.769 490.799 432.802 490.863 432.896 491.454C432.989 492.045 431.087 493.421 430.787 493.294Z" fill="white" fill-opacity="0.8"/>
<path d="M430.087 494.482C430.037 494.293 430.039 493.686 430.115 493.666C430.191 493.645 430.317 493.814 430.367 494.003C430.417 494.192 430.416 494.8 430.34 494.82C430.264 494.84 430.138 494.671 430.087 494.482Z" fill="white" fill-opacity="0.8"/>
</svg>
