<svg width="89" height="124" viewBox="0 0 89 124" fill="none" xmlns="http://www.w3.org/2000/svg">
<path fill-rule="evenodd" clip-rule="evenodd" d="M14.1624 42.3404C12.5995 34.3425 13.3003 15.4842 13.8058 5.69067L77.4084 5.69067C77.875 15.5165 78.5246 34.4597 77.0806 42.3404C75.8801 48.0994 66.2555 56.2078 57.9501 62.2699C66.2554 68.332 75.88 76.4403 77.0805 82.1993C78.4923 89.9047 77.9028 108.186 77.4397 118.18H13.7716C13.27 108.219 12.6342 90.0186 14.1623 82.1993C15.2704 76.4402 24.8539 68.3319 33.1411 62.2698C24.854 56.2077 15.2705 48.0994 14.1624 42.3404Z" fill="#F3EFE3"/>
<rect x="1.44531" width="87.554" height="11.3827" rx="5.69136" fill="#7E451F"/>
<rect y="112.488" width="87.554" height="11.3827" rx="5.69136" fill="#7E451F"/>
<path d="M42.0154 50.2825C44.4758 53.658 42.0154 95.7657 42.0154 95.7657H45.8006L45.8006 20.8186L19.7773 20.8186C19.7773 20.8186 20.4871 29.2859 23.0894 33.4051C25.6917 37.5244 39.555 46.907 42.0154 50.2825Z" fill="#E5C37D"/>
<path d="M45.3888 84.3152L70.5476 112.555H20.23L45.3888 84.3152Z" fill="#E5C37D"/>
<path d="M49.0666 50.2818C46.6062 53.6573 49.0666 95.7649 49.0666 95.7649H45.2814L45.2814 20.8179H71.3047C71.3047 20.8179 70.595 29.2852 67.9926 33.4044C65.3903 37.5236 51.527 46.9063 49.0666 50.2818Z" fill="#E5C37D"/>
</svg>
