<svg width="390" height="10359" viewBox="0 0 390 10359" fill="none" xmlns="http://www.w3.org/2000/svg">
<g clip-path="url(#clip0_711_2909)">
<rect width="390" height="10359" fill="#093B86"/>
<rect y="610" width="390" height="9511" fill="#C9B895"/>
<path d="M348.326 506.004C293.476 505.561 162 538.822 162 538.822L382.229 610L490 533.057C490 533.057 403.176 506.448 348.326 506.004Z" fill="#8D743E"/>
<path d="M189.068 500.648C129.624 487.079 -66.8555 561.766 -66.8555 561.766V610H479V500.648C479 500.648 396.265 532.918 366.4 537.137C336.535 541.356 248.512 514.217 189.068 500.648Z" fill="#C9B895"/>
<ellipse rx="24.1751" ry="5.07587" transform="matrix(0.983229 0.182376 0.279666 -0.960097 235.791 527.108)" fill="#DECBA3"/>
<ellipse rx="16.9872" ry="4.36627" transform="matrix(0.983229 0.182376 0.279666 -0.960097 253.023 563.659)" fill="#DECBA3"/>
<ellipse rx="8.79417" ry="3.2916" transform="matrix(0.99009 0.140433 0.217415 -0.976079 255.052 569.393)" fill="#DECBA3"/>
<path d="M4.44839 535.129L-72 562.838V609.931H51.8893C51.8893 609.931 67.1789 603.545 66.8931 593.283C66.6074 583.021 45.8877 575.609 51.8893 571.732C57.8908 567.855 83.8976 558.391 99.7588 557.478C115.62 556.566 157.774 547.33 165.633 542.313C173.492 537.296 167.491 530.865 170.206 527.786C172.921 524.707 182.209 513.008 176.636 511.982C171.063 510.955 142.055 514.604 147.628 511.982C153.201 509.359 182.995 500.795 176.636 499.667C170.277 498.539 153.201 499.667 153.201 499.667L110.333 506.508L45.1732 522.7L4.44839 535.129Z" fill="#B09B6E"/>
<path d="M399.121 528.927L429.986 518.892C429.986 518.892 423.27 529.725 419.555 531.321C415.84 532.918 393.834 545.803 385.118 546.943C376.401 548.083 341.535 558.232 342.107 553.671C342.678 549.11 362.969 537.593 362.969 537.593L371.829 536.224L399.121 528.927Z" fill="#B09B6E"/>
<path d="M348.186 583.367C340.275 585.628 335.84 585.425 327.93 583.367L326.025 484.823C335.163 472.871 340 473.249 348.186 484.823V583.367Z" fill="#71A580"/>
<path d="M359.613 505.665C357.882 508.271 346.802 510.723 346.802 510.723C346.802 510.723 345.244 516.853 346.802 517.619C348.36 518.386 370.001 515.627 370.001 509.803V489.573C367.057 480.875 359.62 485.996 359.613 489.573C359.607 493.151 361.345 503.06 359.613 505.665Z" fill="#71A580"/>
<path d="M317.543 530.225C319.274 532.83 330.354 535.282 330.354 535.282C330.354 535.282 331.913 541.413 330.354 542.179C328.796 542.945 307.155 540.186 307.155 534.363V514.133C310.099 505.434 317.537 510.555 317.543 514.133C317.549 517.71 315.812 527.619 317.543 530.225Z" fill="#71A580"/>
<path d="M351.83 487.484L347.631 487.84L347.819 489.575L351.83 487.484Z" fill="#71A580"/>
<path d="M321.926 495.004L327.037 495.438L326.808 497.549L321.926 495.004Z" fill="#71A580"/>
<path d="M355.122 542.709L347.971 543.285L347.667 540.331L355.122 542.709Z" fill="#71A580"/>
<path d="M322.965 563.05L328.076 563.484L327.847 565.595L322.965 563.05Z" fill="#71A580"/>
<path d="M353.068 574.962L347.977 575.548L347.667 573.445L353.068 574.962Z" fill="#71A580"/>
<path d="M363.451 519.153L360.131 515.686L361.958 514.314L363.451 519.153Z" fill="#71A580"/>
<path d="M356.897 498.989L362.008 499.422L361.779 501.534L356.897 498.989Z" fill="#71A580"/>
<path d="M303.229 523.51L308.34 523.943L308.111 526.055L303.229 523.51Z" fill="#71A580"/>
<path d="M321.668 519.425L326.76 518.841L327.067 520.944L321.668 519.425Z" fill="#71A580"/>
<path d="M320.526 545.117L319.967 540.599L322.348 540.368L320.526 545.117Z" fill="#71A580"/>
<path d="M317.449 513.918C318.127 517.466 315.496 526.756 317.321 529.651C319.146 532.546 326.072 534.005 327.166 534.292C328.26 534.578 327.166 538.48 327.166 538.48C327.166 538.48 313.741 535.763 312.334 533.16C310.928 530.557 312.334 525.01 312.334 523.313V509.277C312.203 508.921 316.771 510.369 317.449 513.918Z" fill="#5A978C"/>
<path d="M348.263 510.409L359.132 506.221C359.132 506.221 360.154 504.976 360.282 504.184C360.41 503.391 362.328 509.164 359.643 510.409C356.958 511.654 349.286 514.484 348.263 514.71C347.24 514.937 348.263 510.409 348.263 510.409Z" fill="#5A978C"/>
<path d="M347.88 517.427C348.775 517.54 348.008 528.406 348.263 528.972C348.519 529.538 348.263 540.404 348.263 540.404L355.04 542.781L348.263 543.347V547.082V573.455L352.994 574.926L348.263 575.492L348.136 583.415C348.136 583.415 343.788 584.434 343.405 584.547C343.021 584.661 338.418 585 338.418 585C338.418 585 346.985 517.314 347.88 517.427Z" fill="#5A978C"/>
<path d="M44.709 498.29C45.7565 496.684 51.3164 491.598 51.3164 491.598L48.8185 501.68V498.825L44.709 504.982L45.3536 502.126L41.647 505.785C41.647 505.785 43.6615 499.896 44.709 498.29Z" fill="#71A580"/>
<path d="M47.8912 480.613L50.7373 494.3L54.0424 489.526L58.2656 480.613H55.2359L58.2656 474.671C58.2656 474.671 56.2458 475.096 56.3376 473.398C56.4294 471.7 58.2656 463 58.2656 463C58.2656 463 54.0424 471.276 52.7571 473.398C51.4717 475.52 50.7373 471.276 50.7373 471.276V482.098L47.8912 480.613Z" fill="#71A580"/>
<path d="M51.2148 492.386C43.8828 516.378 41.843 529.791 40.5382 553.671V556H46.2578C46.3786 531.094 47.3915 517.164 51.2148 492.386Z" fill="#6F4742"/>
<path d="M63.6674 482.593C59.9894 484.147 50.6106 493.062 50.6106 493.062L63.1157 489.227C63.1157 489.227 60.0814 489.848 59.8055 489.227C59.5297 488.605 70.3797 486.842 70.3797 486.842C70.3797 486.842 66.8856 486.324 66.3339 485.91C65.7822 485.495 75.0691 483.836 75.0691 483.836C75.0691 483.836 70.7475 484.044 71.1153 483.318C71.4831 482.593 77 480.001 77 480.001C77 480.001 67.3454 481.038 63.6674 482.593Z" fill="#71A580"/>
<path d="M44.8211 481.058L51.3164 492.836L39.9496 485.627C39.9496 485.627 44.0994 487.353 44.8211 486.845C45.5428 486.338 36.1607 480.448 36.1607 480.448L39.2279 481.058L33.4543 477.402C33.4543 477.402 35.8901 478.214 36.702 478.316C37.5139 478.417 30.5675 471.106 30.5675 471.106L34.8075 472.63L44.8211 481.058Z" fill="#71A580"/>
<path d="M57.8 499.709C56.5603 498.432 50.6099 490.585 50.6099 490.585V500.713C50.6099 500.713 51.3537 499.071 51.7256 498.432C52.0975 497.793 54.2049 505.64 54.2049 505.64C54.2049 505.64 54.8248 504.545 55.0727 503.724C55.3206 502.903 60.2793 509.838 60.2793 509.838C60.2793 509.838 59.0396 500.987 57.8 499.709Z" fill="#71A580"/>
<path d="M62.7438 490.72C60.607 490.979 50.6097 492.533 50.6097 492.533L63.3543 496.938L62.7438 495.211L69.0779 498.579L66.9411 496.938L75.4883 498.579L70.1463 495.211H73.8094L69.0779 492.533H72.6646C72.6646 492.533 64.8806 490.461 62.7438 490.72Z" fill="#71A580"/>
<path d="M43.3895 489.798C45.5463 489.681 53.0438 491.676 53.0438 491.676L43.5212 496.088L46.8971 493.113L38.4141 496.513C38.4141 496.513 39.5379 494.67 40.3426 494.297L33.3012 497.559L33.9389 495.676L29.3117 497.82L33.1854 493.644L31.7384 493.344L36.7397 491.997L34.0356 491.486C34.0356 491.486 41.2327 489.916 43.3895 489.798Z" fill="#71A580"/>
<path d="M52.9803 482.341L53.1792 487.426L56.6035 480.851L52.9803 482.341Z" fill="#5A978C"/>
<path d="M63.6534 483.323C62.1929 483.942 61.0849 485.237 61.0849 485.237L66.1211 484.28L70.8047 481.521C70.8047 481.521 65.1138 482.703 63.6534 483.323Z" fill="#5A978C"/>
<path d="M63.3008 496.89L62.7972 495.257L52.7249 493.231L63.3008 496.89Z" fill="#5A978C"/>
<path d="M36.207 480.452L39.1784 481.071L41.5957 483.998L36.207 480.452Z" fill="#5A978C"/>
<path d="M43.309 489.853C42.4648 489.809 33.7968 491.282 34.0928 491.486L43.309 490.979L47.3379 490.247C47.3379 490.247 44.1532 489.897 43.309 489.853Z" fill="#5A978C"/>
<path d="M47.791 498.983V496.777L46.1024 497.88L45.8773 500.155L47.791 498.983Z" fill="#5A978C"/>
<path d="M54.2372 505.616L55.043 503.758L52.0716 498.522L54.2372 505.616Z" fill="#5A978C"/>
<path d="M47.3378 523.461L50.6113 496.271L48.8487 505.109L46.1795 517.606L44.568 532.412L43.9636 555.944H46.1795L47.3378 523.461Z" fill="#B47D6C"/>
<path d="M390 779L277.278 817.783L177.536 904.264L136 1029.53L171.524 1165.04L333.024 1249" stroke="#B29C6B" stroke-opacity="0.74" stroke-width="30" stroke-dasharray="100 100"/>
<path d="M397.416 1294L413.123 1444.68L397.416 1548L287.5 1638L180.5 1658L74.9996 1695L-1.5004 1745.5" stroke="#B29C6B" stroke-opacity="0.74" stroke-width="30" stroke-dasharray="100 100"/>
<path d="M535.5 2706.5L376.5 2561.5L323.5 2507.5L246 2479L156.5 2442.43L92.5002 2394.5L51.5002 2324L-10.4999 2176.5L-32.2131 2111.92" stroke="#B29C6B" stroke-opacity="0.74" stroke-width="30" stroke-dasharray="100 100"/>
<path d="M488.773 2943.88L440.222 3006.45L381.32 3053.58L306.919 3089.4L218.368 3128.22L139.411 3140.82L77.5001 3150L22.4998 3165.5L-58.9999 3209L-69.9999 3229.5L-91.9999 3389.5L6.99999 3610.5L77.5 3664M116.5 3701.5L244.5 3827L351 3976.5L388.5 4068.5" stroke="#B29C6B" stroke-opacity="0.74" stroke-width="30" stroke-dasharray="100 100"/>
<path d="M483.403 5358.38L405.684 5343.15L337.098 5311.74L271.646 5261.4L197.153 5199.76L150.387 5134.91L114.343 5083.74L119.455 5091L38.0104 5014.98L0.257556 4988.36L-22.9995 4987.76" stroke="#B29C6B" stroke-opacity="0.74" stroke-width="30" stroke-dasharray="100 100"/>
<path d="M174.5 5410L196.527 5533.78L149.779 5621L80 5730.5V5849L149.779 5945.5L241 6012L309.5 6060L369 6171.5L413.5 6253L387.5 6425L309.5 6503L185.5 6625.5L102 6671.5L13 6788.5L-53.5 6864.5L5.5 7059.5L64.5 7132.5L128 7196L285.5 7253.5L346.75 7323L408 7392.5L385.5 7677.5L304 7800L187.5 7881.5L96 8000.25L4.5 8119L-30 8155L-72.5 8287.5L31.5 8494.5L93.5 8540L155.5 8585.5L272.5 8648L340.5 8699.5L390 8765L426 8818.5L390 9387.5L340.5 9430.5L244.5 9503.5L134 9544L7 9606" stroke="#B29C6B" stroke-opacity="0.74" stroke-width="30" stroke-dasharray="100 100"/>
<ellipse cx="21" cy="427.5" rx="177" ry="12.5" fill="#3363AB"/>
<ellipse cx="-65" cy="414.5" rx="177" ry="12.5" fill="#3363AB"/>
<ellipse rx="133" ry="15.5" transform="matrix(1 0 0 -1 390 398.5)" fill="#3363AB"/>
<circle cx="126.5" cy="150.5" r="3.5" fill="white"/>
<circle cx="51.5" cy="125.5" r="3.5" fill="white"/>
<circle cx="42.5" cy="332.5" r="3.5" fill="white"/>
<circle cx="308.5" cy="299.5" r="3.5" fill="white"/>
<circle cx="225.5" cy="147.5" r="3.5" fill="white"/>
</g>
<defs>
<clipPath id="clip0_711_2909">
<rect width="390" height="10359" fill="white"/>
</clipPath>
</defs>
</svg>
