<svg width="1728" height="699" viewBox="0 0 1728 699" fill="none" xmlns="http://www.w3.org/2000/svg">
<path d="M238.894 0H0V636.181H1728V8.56618H1666.57C1630.17 8.56618 1538.59 49.6838 1505.6 59.9632C1472.61 70.2426 1334.96 76.5245 1300.27 68.5294C1265.57 60.5343 1203.57 49.6838 1164.32 49.6838H979.465C945.906 49.6838 862.862 27.4118 807.689 27.4118C752.516 27.4118 737.727 68.5294 681.986 68.5294C626.244 68.5294 567.089 27.4118 526.136 39.4044C485.182 51.3971 423.184 87.375 391.9 80.5221C360.616 73.6691 370.286 39.4044 345.828 27.4118C321.369 15.4191 299.755 0 238.894 0Z" fill="#004F77"/>
<path d="M642.739 261.699C576.19 254.829 414.083 315.511 369.148 315.511C324.213 315.511 333.314 294.902 277.003 294.902C220.693 294.902 0 282.308 0 282.308V436.303H1728V202.161H1609.69C1569.87 202.161 1472.04 261.699 1434.5 261.699C1396.96 261.699 1309.37 248.532 1268.41 248.532C1227.46 248.532 1163.76 261.699 1117.11 282.308C1070.47 302.917 1096.64 315.511 1096.64 315.511L804.845 294.902C804.845 294.902 709.288 268.568 642.739 261.699Z" fill="#025B89"/>
<path d="M171.607 294.815C97.168 297.102 0 334.833 0 334.833V699H1728V406.295C1728 406.295 1674.59 435.451 1627.99 436.023C1581.4 436.594 1517.19 379.425 1450.7 382.855C1384.22 386.285 1340.46 406.295 1297.28 406.295C1254.09 406.295 1041.01 282.809 930.199 278.808C819.394 274.806 674.494 371.421 626.194 369.135C577.894 366.848 563.12 348.554 480.726 334.833C398.332 321.113 309.119 334.833 309.119 334.833C309.119 334.833 246.045 292.528 171.607 294.815Z" fill="#E5C37D"/>
<ellipse cx="89.4278" cy="39.9673" rx="89.4278" ry="39.9673" transform="matrix(0.982907 0.183937 -0.183228 0.983101 982.025 449.833)" fill="#D33929"/>
<path fill-rule="evenodd" clip-rule="evenodd" d="M1051.68 530.081C1100.22 539.166 1142.85 528.939 1146.9 507.238C1146.98 506.829 1147.04 506.418 1147.09 506.006C1150.47 511.408 1151.87 516.894 1150.88 522.186C1146.84 543.886 1104.21 554.113 1055.66 545.029C1008.03 536.116 972.407 511.924 974.899 490.52C985.393 507.269 1014.97 523.212 1051.68 530.081Z" fill="#A12C20"/>
<path d="M1146.18 490.017C1143.46 494.448 1141.16 495.633 1136.23 496.346L1144.61 505.249C1150.65 503.969 1153.22 502.174 1154.82 495.007L1146.18 490.017Z" fill="#D33929"/>
<ellipse cx="8.3334" cy="7.75238" rx="8.3334" ry="7.75238" transform="matrix(0.975864 0.218377 -0.217535 0.976053 1147.25 478.343)" fill="#D33929"/>
<path d="M1155.33 474.954L1153.96 481.066C1153.51 483.103 1149.31 485.525 1149.31 485.525L1138.51 475.163C1138.51 475.163 1133 465.681 1128.75 457.396C1124.5 449.111 1121.52 425.529 1121.52 425.529C1121.49 418.754 1122.09 416.261 1124.95 415.603C1130.44 421.276 1130.94 424.312 1130.36 429.646C1130.36 429.646 1136.65 430.138 1137.78 434.668C1138.9 439.197 1137.86 443.853 1137.86 443.853C1137.86 443.853 1154.25 455.159 1153.7 459.007C1153.14 462.855 1146.69 464.466 1146.69 464.466C1146.69 464.466 1156.17 471.171 1155.33 474.954Z" fill="#D33929"/>
<path d="M1169.07 447.477C1171.48 462.682 1159.8 483.596 1159.8 483.596L1152.83 482.036L1154.59 474.178C1155.1 471.85 1146.33 464.693 1146.33 464.693C1146.33 464.693 1151.95 461.367 1152.6 458.457C1153.25 455.547 1144.76 451.204 1145.77 448.067C1146.77 444.931 1152.32 447.395 1153.59 443.095C1154.85 438.794 1140.2 430.628 1141.11 426.554C1142.02 422.479 1144.47 425.166 1145.44 423.55C1146.41 421.934 1138.12 416.718 1140.93 413.681C1143.74 410.643 1159.87 425.862 1159.87 425.862C1159.87 425.862 1166.67 432.273 1169.07 447.477Z" fill="#D33929"/>
<path d="M993.583 460.756C994.163 465.926 995.738 467.978 999.899 470.725L988.532 475.209C983.612 471.476 982.045 468.755 983.64 461.587L993.583 460.756Z" fill="#D33929"/>
<ellipse cx="8.3334" cy="7.75238" rx="8.3334" ry="7.75238" transform="matrix(-0.975864 -0.218377 -0.217535 0.976053 997.562 449.731)" fill="#D33929"/>
<path d="M991.695 443.225L990.333 449.336C989.879 451.374 992.651 455.355 992.651 455.355L1006.83 450.583C1006.83 450.583 1015.84 444.35 1023.2 438.665C1030.57 432.98 1043.28 412.908 1043.28 412.908C1046.18 406.788 1046.69 404.276 1044.38 402.462C1037.01 405.256 1035.27 407.791 1033.53 412.865C1033.53 412.865 1027.62 410.627 1024.68 414.247C1021.74 417.866 1020.7 422.523 1020.7 422.523C1020.7 422.523 1001.07 425.769 999.94 429.487C998.807 433.206 1003.97 437.416 1003.97 437.416C1003.97 437.416 992.538 439.441 991.695 443.225Z" fill="#D33929"/>
<path d="M990.923 412.496C982.291 425.231 983.977 449.135 983.977 449.135L990.948 450.694L992.699 442.837C993.218 440.508 1004.2 437.771 1004.2 437.771C1004.2 437.771 1000.52 432.365 1001.17 429.455C1001.82 426.545 1011.34 426.231 1011.76 422.965C1012.19 419.699 1006.12 419.563 1006.8 415.133C1007.48 410.702 1024.21 409.555 1025.11 405.481C1026.02 401.407 1022.66 402.794 1022.47 400.918C1022.28 399.042 1032 397.855 1030.74 393.908C1029.49 389.961 1008.43 396.86 1008.43 396.86C1008.43 396.86 999.555 399.762 990.923 412.496Z" fill="#D33929"/>
<path d="M1163.09 508.058C1155.8 505.204 1144.82 505.192 1144.82 505.192L1147.85 513.508C1147.85 513.508 1156.88 516.752 1159.88 518.34C1162.88 519.928 1169.36 527.794 1169.36 527.794C1169.36 527.794 1175.94 533.849 1179.27 533.982C1182.59 534.115 1181.27 530.459 1181.27 530.459C1181.27 530.459 1170.38 510.912 1163.09 508.058Z" fill="#D33929"/>
<path d="M1161.9 528.355C1156.21 522.968 1146.04 518.829 1146.04 518.829L1145.73 527.675C1145.73 527.675 1152.89 534.08 1155.08 536.68C1157.26 539.28 1160.32 549.008 1160.32 549.008C1160.32 549.008 1164.15 557.095 1167.18 558.468C1170.22 559.842 1170.36 555.957 1170.36 555.957C1170.36 555.957 1167.59 533.743 1161.9 528.355Z" fill="#D33929"/>
<path d="M1150.93 543.135C1146.89 536.416 1138.2 529.699 1138.2 529.699L1135.54 538.138C1135.54 538.138 1140.72 546.231 1142.13 549.323C1143.54 552.415 1143.89 562.609 1143.89 562.609C1143.89 562.609 1145.42 571.428 1147.97 573.565C1150.53 575.703 1151.71 571.999 1151.71 571.999C1151.71 571.999 1154.97 549.853 1150.93 543.135Z" fill="#D33929"/>
<path d="M972.756 475.278C980.567 475.804 990.504 480.472 990.504 480.472L984.235 486.707C984.235 486.707 974.682 485.792 971.292 485.95C967.903 486.108 958.699 490.465 958.699 490.465C958.699 490.465 950.175 493.14 947.11 491.843C944.045 490.546 946.791 487.8 946.791 487.8C946.791 487.8 964.945 474.752 972.756 475.278Z" fill="#D33929"/>
<path d="M965.214 494.157C972.651 491.706 983.61 492.296 983.61 492.296L980.135 500.433C980.135 500.433 970.937 503.178 967.855 504.599C964.772 506.02 957.873 513.52 957.873 513.52C957.873 513.52 950.974 519.206 947.647 519.156C944.32 519.107 945.837 515.528 945.837 515.528C945.837 515.528 957.777 496.607 965.214 494.157Z" fill="#D33929"/>
<path d="M968.866 512.204C975.375 507.847 986.091 505.473 986.091 505.473L984.92 514.245C984.92 514.245 976.792 519.359 974.202 521.556C971.612 523.753 966.971 532.831 966.971 532.831C966.971 532.831 961.845 540.161 958.626 541.006C955.408 541.852 955.913 537.997 955.913 537.997C955.913 537.997 962.356 516.562 968.866 512.204Z" fill="#D33929"/>
<ellipse cx="10.4351" cy="10.4541" rx="10.4351" ry="10.4541" transform="matrix(0.959716 0.28117 -0.28009 0.959916 1101.37 435.887)" fill="#D33929"/>
<ellipse cx="6.27045" cy="6.28188" rx="6.27045" ry="6.28188" transform="matrix(0.959716 0.28117 -0.28009 0.959916 1104.31 441.31)" fill="black"/>
<rect width="7.40583" height="20.2331" transform="matrix(0.930572 0.36647 -0.365088 0.930832 1101.94 456.559)" fill="#D33929"/>
<ellipse cx="10.4351" cy="10.4542" rx="10.4351" ry="10.4542" transform="matrix(0.986622 0.162727 -0.162101 0.986823 1040.38 423.823)" fill="#D33929"/>
<ellipse cx="6.27102" cy="6.28132" rx="6.27102" ry="6.28132" transform="matrix(0.999727 -0.0125982 0.0125521 1.00011 1042.85 429.884)" fill="black"/>
<rect width="7.40578" height="20.2332" transform="matrix(0.99687 0.0775129 -0.0772195 0.997135 1045.2 443.14)" fill="#D33929"/>
<path d="M1146.24 449.593L1154.02 461.21L1150.21 471.467L1153.69 481.815" stroke="#A22C20" stroke-linecap="round"/>
<path d="M1159.41 493.589C1161.09 492.316 1162.21 489.031 1161.96 488.966C1161.96 488.966 1157.54 491.031 1156.89 491.192C1156.25 491.353 1146.11 490.308 1146.11 490.308L1154.7 495.589C1154.92 495.958 1157.73 494.862 1159.41 493.589Z" fill="#A12C20"/>
<path d="M1010.38 424.692L998.411 431.89L997.505 442.797L989.956 450.676" stroke="#A22C20" stroke-linecap="round"/>
<path d="M979.973 458.524C978.992 456.656 979.369 453.204 979.623 453.252C979.623 453.252 982.75 457.007 983.266 457.428C983.782 457.849 993.398 461.223 993.398 461.223L983.39 462.344C983.033 462.583 980.953 460.393 979.973 458.524Z" fill="#A12C20"/>
<path d="M148.053 281.77C146.823 296.73 145.527 298.305 143.062 299.404C137.819 300.079 135.208 299.696 134.111 290.746C136.028 286.469 124.865 279.868 109.318 269.855C93.7707 259.842 92.8354 240.388 88.4055 238.956C85.0517 234.939 82.5638 233.036 75.177 231.331C71.7137 228.37 72.3068 227.33 76.8526 226.326C76.8526 226.326 85.4745 231.331 88.4055 229.345C91.3365 227.359 78.187 220.687 78.187 220.687C74.8599 217.035 74.9698 215.774 78.187 214.729H86.4252C85.0471 210.65 85.4525 208.746 88.4055 206.071C89.2738 202.393 90.311 201.005 93.7127 200.431C97.2572 201.454 96.8729 203.208 96.7228 206.071V229.345C101.267 240.317 102.252 246.325 112.961 257.861C114.972 259.499 115.784 259.304 116.922 257.861C115.949 252.282 114.25 244.85 121.516 253.254C121.45 245.919 123.007 246.549 126.19 248.885C129.73 247.826 130.758 249.035 131.497 253.254L124.526 267.79L138.072 281.77V248.885C135.855 239.717 136.184 234.141 110.981 231.331C107.748 230.14 105.991 227.836 107.971 226.326C109.951 224.817 118.269 224.976 118.269 224.976C112.842 220.315 110.127 217.638 107.971 212.346C108.698 209.535 110.979 209 116.922 209.089L136.092 226.326L131.497 203.767H121.516L112.961 200.431L96.7228 198.763C96.7228 198.763 93.7127 196.46 93.7919 193.044C93.871 189.628 96.7228 191.138 96.7228 191.138L107.971 192.488L104.01 184.465C106.028 182.781 107.1 181.696 110.981 184.465L116.922 191.138C116.922 191.138 126.19 193.044 126.19 191.138C126.19 189.231 124.526 184.465 124.526 184.465C120.975 181.758 119.14 179.993 116.922 175.172C113.868 177.259 108.466 174.395 105.569 173.821C103.653 170.347 101.766 163.892 105.569 163.892C109.371 163.892 116.064 168.613 118.269 166.911C123.86 161.074 124.936 162.441 129.2 170.882L136.092 166.911C138.743 163.028 141.197 161.048 146.072 157.617C149.603 158.325 150.922 159.385 150.667 163.892L136.092 180.494C136.092 180.494 140.686 191.138 143.062 191.138C145.439 191.138 143.679 183.572 146.072 180.494C149.297 179.761 150.093 180.966 150.667 184.465L145.043 196.46L148.053 209.089L155.023 200.431L157.954 191.138L150.667 176.84C152.588 172.877 153.93 171.126 157.954 170.882L163.578 180.494L167.618 176.84L176.49 166.911C181.228 166.597 182.189 167.745 182.51 170.882V176.84C187.164 176.863 189.402 177.165 189.798 180.494L187.738 184.465H178.866L167.618 195.109H176.49C179.149 197.189 179.221 198.352 176.49 200.431L167.618 203.767L155.023 212.346L146.072 238.956C146.072 238.956 145.043 244.914 150.667 244.914C156.291 244.914 159.618 229.345 159.618 229.345C159.618 229.345 159.618 219.019 159.934 214.173C160.251 209.328 167.618 217.192 167.618 219.019C167.618 220.845 172.529 220.687 172.529 220.687L178.866 213.935C187.009 206.885 185.995 216.477 187.738 219.019C189.481 221.56 195.026 220.687 195.026 220.687C198.809 223.157 197.576 224.305 195.026 226.326C195.026 226.326 187.342 225.373 182.51 226.326C177.678 227.28 167.618 238.956 167.618 238.956H172.529C173.876 238.956 173.322 244.119 172.529 244.914C171.737 245.708 161.915 248.885 161.915 248.885L146.072 263.501C145.766 266.084 146.495 267.142 150.667 267.79C156.092 265.702 155.023 257.861 157.954 256.193C160.885 254.525 157.954 252.539 163.578 253.254C169.202 253.969 161.915 263.501 161.915 263.501H167.618C175.619 263.501 174.35 267.959 167.618 272.477C158.727 273.077 154.003 274.046 148.053 281.77Z" fill="#FF488A"/>
<path d="M651.476 467.763H616.707C616.209 463.294 617.019 460.617 622.088 455.274C626.504 447.84 628.328 443.777 624.755 437.624C618.762 433.397 613.824 431.987 603.968 430.113L599.645 434.444L602.45 446.011H598.909L597.759 438.868C595.201 443.608 594.267 446.448 587.871 449.79C586.025 450.454 585.012 450.703 583.686 448.408L584.606 446.011L591.182 440.021C588.251 438.247 586.609 437.572 583.686 437.624C581.38 435.566 580.949 434.45 582.444 432.555C586.512 433.51 588.764 434.406 592.7 436.979L596.379 430.113H592.7C593.187 431.159 572.045 430.564 567.865 427.947C563.685 425.329 567.162 422.854 572.05 421.771C577.615 423.992 581.099 424.954 590.538 424.168C600.252 425.372 605.248 426.246 616.661 426.702C616.939 424.791 616.573 423.714 614.086 421.771C604.119 417.068 597.085 415.043 581.8 412.601C575.824 414.954 572.266 415.815 565.336 416.057C563.471 414.527 563.101 413.619 564.324 411.863L570.533 409.836C565.815 408.082 564.145 407.001 563.082 404.997C563.082 404.997 563.082 398.775 565.336 398.775C567.589 398.775 575.55 404.941 584.606 408.315L603.968 412.601C609.073 415.237 611.706 417.053 618.179 417.67C619.19 415.334 618.485 414.079 616.661 411.863C609.869 406.45 604.983 403.57 593.85 398.775C590.989 400.396 563.829 393.965 566.853 390.526C569.878 387.088 572.05 385.181 572.05 385.181C575.803 388.955 577.587 391.43 584.606 391.54C584.606 391.54 572.878 379.236 572.556 377.208C572.234 375.18 579.041 373.521 579.041 373.521L581.8 375.549C583.283 380.285 584.617 382.945 590.538 387.715L597.759 384.582C593.907 380.526 592.061 378.223 591.182 373.89C590.281 369.709 588.883 365.503 591.688 365.641C594.494 365.779 596.379 366.793 596.379 366.793L597.759 374.305C599.897 371.868 600.932 366.793 605.485 368.452C610.038 370.111 608.015 370.849 608.015 370.849C607.299 374.716 603.994 375.31 599.645 377.208C599.298 378.665 600.28 379.601 603.324 381.402C606.209 377.357 609.165 375.687 611.326 375.549C613.488 375.411 614.086 379.236 614.086 379.236C614.086 379.236 615.373 381.494 613.35 382.646C611.326 383.798 604.785 387.57 597.391 390.526C603.09 393.15 606.253 394.554 612.706 398.775C619.181 398.612 621.264 397.958 622.088 395.734V390.526C622.088 386.609 624.755 385.595 624.755 385.595C624.755 385.595 628.435 384.351 627.791 386.609C627.147 388.867 625.905 394.444 625.905 394.444C625.905 394.444 627.515 392.831 629.17 392.554C630.826 392.278 636.529 397.255 634.367 398.775C632.206 400.296 629.17 401.448 629.17 401.448L636.529 404.997C636.529 404.997 640.438 408.315 636.529 408.315C632.62 408.315 623.836 402.462 623.836 402.462L619.558 404.213C625.011 410.963 630.688 417.67 638.047 417.67C645.405 417.67 651.402 410.86 654.005 401.448C641.937 394.232 635.408 390.04 629.17 379.236C629.17 379.236 625.905 377.208 629.17 375.549C632.436 373.89 636.529 373.521 636.529 373.521L639.702 374.812C641.228 381.252 643.398 384.892 654.005 391.54V382.646L652.35 377.208C647.961 371.366 644.562 368.14 634.367 362.599C624.411 363.693 618.762 364.049 607.279 359.328C607.279 359.328 606.359 355.134 609.165 354.489C611.97 353.844 624.755 356.148 624.755 356.148C620.407 353.025 618.041 350.488 614.086 343.06C614.086 343.06 618.409 338.359 621.306 340.664C624.203 342.968 627.147 350.802 627.147 350.802C634.439 341.968 639.058 333.935 642.094 333.567C645.129 333.198 645.55 334.696 646.003 335.963L634.367 356.148L646.003 363.982C650.808 370.786 653.347 372.961 657.685 374.812C659.608 374.261 663.524 371.946 660.72 368.452C657.916 364.958 645.665 355.709 646.003 345.871L651.2 341.677L654.005 343.06C657.352 350.385 659.677 353.778 665.273 357.53C670.536 348.961 673.743 344.352 682.382 338.359H686.567L689.602 347.899L683.623 349.926C679.028 352.745 676.722 355.245 673.137 361.447C679.273 361.473 682.74 360.554 688.958 357.53L696.547 350.802L701.606 356.148C691.388 365.82 683.801 368.516 668.584 370.849C665.316 377.602 664.661 381.558 665.273 388.867L671.988 390.526C669.096 385.766 668.412 382.833 668.584 377.208H671.988L674.655 390.526L679.99 385.595L683.623 387.854V389.651L674.655 393.43L683.623 396.379V399.651L677.553 398.038L670.608 395.734L665.273 398.038C664.735 407.07 661.273 411.732 654.511 419.974C656.314 420.616 658.671 420.261 664.399 418.822L677.553 408.315C683.304 402.754 687.103 398.668 694.385 390.526C690.003 385.104 687.609 382.015 684.405 375.687C683.593 374.183 683.485 373.358 685.417 372.001C688.111 370.314 689.396 371.182 691.626 373.245C692.8 378.597 694.503 381.546 699.72 386.701L699.931 386.371C704.479 379.238 707.093 375.138 712.505 370.849C715.667 371.622 716.77 372.61 718.208 374.812C718.343 378.861 717.439 381.109 714.437 385.088L714.728 385.08C721.948 384.863 726.086 384.738 729.752 385.595L730.764 388.867L728.97 389.651C723.461 391.792 719.709 392.176 711.126 390.526C708.409 394.583 706.023 396.613 699.72 399.651H710.252C710.252 399.651 713.655 399.651 715.035 401.31C716.415 402.969 715.035 405.273 715.035 405.273C708.846 406.502 696.823 405.273 692.775 405.273C688.728 405.273 682.382 417.67 682.382 417.67C671.341 422.044 665.466 424.524 658.328 429.237C658.054 433.008 659.674 434.24 666.561 434.444C677.642 425.562 684.507 418.879 693.511 415.412L696.547 418.822C690.807 426.238 686.134 430.45 669.596 438.269C676.133 437.806 680.689 436.305 690.246 431.633C692.037 431.974 692.595 432.769 692.775 435.32L692.767 435.333C690.42 439.182 689.102 441.344 679.99 443.938C666.878 444.118 657.718 442.788 651.476 448.408C648.523 454.983 648.316 459.152 651.476 467.763Z" fill="#199459"/>
<path d="M653.822 467.82H619.053C618.555 463.35 619.364 460.674 624.434 455.331C628.85 447.897 630.673 443.834 627.101 437.681C621.107 433.453 616.17 432.044 606.313 430.169L601.99 434.501C601.99 434.501 606.681 446.068 604.796 446.068C602.91 446.068 602.68 446.586 601.254 446.068C599.829 445.55 600.105 438.925 600.105 438.925C597.546 443.665 596.612 446.504 590.217 449.847C588.371 450.511 587.357 450.76 586.032 448.464L586.951 446.068C586.951 446.068 592.884 441.311 593.528 440.077C594.172 438.844 587.273 438.326 586.032 437.681C584.79 437.036 583.295 434.506 584.79 432.612C588.857 433.567 591.11 434.463 595.046 437.036L598.725 430.169H595.046C595.532 431.215 574.391 430.621 570.211 428.003C566.03 425.386 569.508 422.91 574.396 421.828C579.961 424.048 583.445 425.011 592.884 424.224C602.598 425.429 607.594 426.302 619.007 426.759C619.284 424.848 618.919 423.77 616.431 421.828C606.465 417.124 599.43 415.099 584.146 412.657C578.17 415.011 574.612 415.872 567.681 416.114C565.816 414.584 565.446 413.676 566.669 411.92L572.878 409.892C568.161 408.139 566.491 407.057 565.428 405.053C565.428 405.053 565.428 398.832 567.681 398.832C569.935 398.832 577.896 404.998 586.951 408.371L606.313 412.657C611.419 415.293 614.052 417.11 620.524 417.726C621.535 415.391 620.831 414.135 619.007 411.92C612.215 406.507 607.328 403.627 596.195 398.832C593.335 400.453 566.175 394.022 569.199 390.583C572.223 387.144 574.396 385.237 574.396 385.237C578.149 389.011 579.933 391.487 586.951 391.597C586.951 391.597 575.224 379.292 574.902 377.265C574.58 375.237 581.386 373.578 581.386 373.578L584.146 375.606C585.628 380.342 586.962 383.001 592.884 387.772L600.105 384.638C596.253 380.582 594.406 378.279 593.528 373.947C592.627 369.766 591.228 365.559 594.034 365.698C596.839 365.836 598.725 366.85 598.725 366.85L600.105 374.361C602.243 371.925 603.278 366.85 607.831 368.509C612.384 370.168 610.361 370.905 610.361 370.905C609.644 374.772 606.34 375.367 601.99 377.265C601.644 378.721 602.625 379.657 605.669 381.458C608.554 377.413 611.51 375.744 613.672 375.606C615.833 375.467 616.431 379.292 616.431 379.292C616.431 379.292 617.719 381.551 615.695 382.703C613.672 383.855 607.131 387.627 599.737 390.583C605.436 393.207 608.599 394.611 615.052 398.832C621.527 398.669 623.61 398.014 624.434 395.791V390.583C624.434 386.666 627.101 385.652 627.101 385.652C627.101 385.652 630.78 384.408 630.136 386.666C629.493 388.924 628.251 394.5 628.251 394.5C628.251 394.5 629.861 392.887 631.516 392.611C633.172 392.334 638.875 397.311 636.713 398.832C634.552 400.353 631.516 401.505 631.516 401.505L638.875 405.053C638.875 405.053 642.784 408.371 638.875 408.371C634.965 408.371 626.181 402.519 626.181 402.519L621.904 404.27C627.356 411.019 633.034 417.726 640.392 417.726C647.751 417.726 653.747 410.917 656.351 401.505C644.283 394.288 637.753 390.097 631.516 379.292C631.516 379.292 628.251 377.265 631.516 375.606C634.782 373.947 638.875 373.578 638.875 373.578L642.048 374.868C643.574 381.308 645.744 384.949 656.351 391.597V382.703L654.695 377.265C650.307 371.423 646.907 368.197 636.713 362.656C626.757 363.749 621.108 364.105 609.625 359.384C609.625 359.384 608.705 355.191 611.51 354.545C614.316 353.9 627.101 356.204 627.101 356.204C622.752 353.082 620.386 350.544 616.431 343.117C616.431 343.117 620.754 338.416 623.652 340.72C626.549 343.024 629.493 350.859 629.493 350.859C636.784 342.025 641.404 333.992 644.44 333.623C647.475 333.255 647.895 334.753 648.349 336.02L636.713 356.204L648.349 364.039C653.154 370.843 655.693 373.017 660.03 374.868C661.953 374.317 665.87 372.003 663.066 368.509C660.261 365.015 648.011 355.765 648.349 345.928L653.546 341.734L656.351 343.117C659.698 350.441 662.023 353.835 667.619 357.587C672.882 349.018 676.088 344.408 684.727 338.416H688.912C691.174 342.064 691.93 344.145 691.948 347.955L685.969 349.983C681.374 352.802 679.067 355.302 675.483 361.504C681.619 361.53 685.085 360.611 691.304 357.587L698.892 350.859L703.951 356.204C693.734 365.877 686.147 368.572 670.93 370.905C667.662 377.659 667.006 381.614 667.619 388.924L674.333 390.583C671.442 385.823 670.758 382.889 670.93 377.265H674.333L677.001 390.583L682.336 385.652L685.969 387.91V389.707L677.001 393.486L685.969 396.436V399.708L679.898 398.095L672.954 395.791L667.619 398.095C667.081 407.126 663.618 411.789 656.857 420.031C658.66 420.673 661.017 420.318 666.745 418.879L679.898 408.371C685.65 402.81 689.448 398.725 696.731 390.583C692.348 385.16 689.955 382.072 686.751 375.744C685.939 374.24 685.831 373.415 687.763 372.057C690.456 370.37 691.742 371.238 693.971 373.302C695.146 378.654 696.849 381.602 702.066 386.758L702.276 386.428C706.825 379.295 709.439 375.195 714.851 370.905C718.013 371.678 719.115 372.667 720.554 374.868C720.689 378.917 719.784 381.166 716.783 385.145L717.074 385.136C724.294 384.919 728.432 384.795 732.098 385.652L733.109 388.924L731.316 389.707C725.807 391.849 722.055 392.233 713.471 390.583C710.755 394.64 708.369 396.669 702.066 399.708H712.598C712.598 399.708 716.001 399.708 717.381 401.367C718.76 403.026 717.381 405.33 717.381 405.33C711.191 406.559 699.168 405.33 695.121 405.33C691.074 405.33 684.727 417.726 684.727 417.726C673.687 422.101 667.812 424.581 660.674 429.294C660.399 433.065 662.02 434.297 668.906 434.501C679.987 425.618 686.853 418.936 695.857 415.468L698.892 418.879C693.152 426.295 688.48 430.507 671.942 438.326C678.479 437.862 683.034 436.361 692.592 431.69C694.383 432.031 694.94 432.825 695.121 435.377L695.113 435.39C692.766 439.239 691.447 441.401 682.336 443.994C669.224 444.175 660.064 442.844 653.822 448.464C650.869 455.04 650.662 459.209 653.822 467.82Z" fill="#54B988"/>
<ellipse cx="2.24075" cy="1.40125" rx="2.24075" ry="1.40125" transform="matrix(0.995005 0.0998264 -0.0994262 0.995045 642.785 334.764)" fill="#116B40"/>
<ellipse cx="2.24075" cy="1.40125" rx="2.24075" ry="1.40125" transform="matrix(0.995005 0.0998264 -0.0994262 0.995045 688.133 372.554)" fill="#116B40"/>
<ellipse cx="1.17027" cy="0.777639" rx="1.17027" ry="0.777639" transform="matrix(0.995005 0.0998264 -0.0994262 0.995045 671.27 377.807)" fill="#116B40"/>
<ellipse cx="2.02201" cy="0.777176" rx="2.02201" ry="0.777176" transform="matrix(0.833853 0.551986 -0.550429 0.834882 682.361 385.917)" fill="#116B40"/>
<ellipse cx="1.29797" cy="0.776167" rx="1.29797" ry="0.776167" transform="matrix(0.236366 0.971664 -0.971443 0.237273 685.475 396.455)" fill="#116B40"/>
<ellipse cx="3.16557" cy="1.62613" rx="3.16557" ry="1.62613" transform="matrix(0.985196 -0.171431 0.170757 0.985313 690.246 418.156)" fill="#116B40"/>
<ellipse cx="1.49147" cy="2.15126" rx="1.49147" ry="2.15126" transform="matrix(0.985196 -0.171431 0.170757 0.985313 691.168 432.791)" fill="#116B40"/>
<ellipse cx="2.24075" cy="1.40125" rx="2.24075" ry="1.40125" transform="matrix(0.995005 0.0998264 -0.0994262 0.995045 634.785 404.905)" fill="#116B40"/>
<ellipse cx="1.6507" cy="1.52054" rx="1.6507" ry="1.52054" transform="matrix(0.995005 0.0998264 -0.0994262 0.995045 626.254 385.917)" fill="#116B40"/>
<ellipse cx="1.56643" cy="3.3157" rx="1.56643" ry="3.3157" transform="matrix(0.941653 -0.336584 0.335374 0.942085 611.326 377.018)" fill="#116B40"/>
<ellipse cx="1.56781" cy="3.31279" rx="1.56781" ry="3.31279" transform="matrix(0.672803 -0.739822 0.738461 0.674296 629.908 395.243)" fill="#116B40"/>
<ellipse cx="2.24075" cy="1.40125" rx="2.24075" ry="1.40125" transform="matrix(0.995005 0.0998264 -0.0994262 0.995045 566.994 412.37)" fill="#116B40"/>
<ellipse cx="2.24075" cy="1.40125" rx="2.24075" ry="1.40125" transform="matrix(0.995005 0.0998264 -0.0994262 0.995045 587.045 446.195)" fill="#116B40"/>
<ellipse cx="3.68865" cy="2.0039" rx="3.68865" ry="2.0039" transform="matrix(0.930183 -0.367096 0.365809 0.93069 575.545 376.46)" fill="#116B40"/>
<ellipse cx="2.73652" cy="1.15472" rx="2.73652" ry="1.15472" transform="matrix(0.989512 0.144454 -0.143881 0.989595 592.986 366.84)" fill="#116B40"/>
<ellipse cx="2.16463" cy="1.10679" rx="2.16463" ry="1.10679" transform="matrix(0.85001 0.526766 -0.525222 0.850965 606.326 368.405)" fill="#116B40"/>
<ellipse cx="4.8116" cy="2.69673" rx="4.8116" ry="2.69673" transform="matrix(0.852052 0.523457 -0.521915 0.852997 713.205 370.987)" fill="#116B40"/>
<ellipse cx="2.16108" cy="1.31989" rx="2.16108" ry="1.31989" transform="matrix(0.636233 0.771497 -0.770228 0.637769 698.971 352.114)" fill="#116B40"/>
<ellipse cx="4.68965" cy="3.34804" rx="4.68965" ry="3.34804" transform="matrix(0.476054 0.879416 -0.878605 0.477549 687.758 337.714)" fill="#116B40"/>
<ellipse cx="4.68551" cy="3.35099" rx="4.68551" ry="3.35099" transform="matrix(-0.813175 0.582019 -0.580458 -0.814291 659.078 346.674)" fill="#116B40"/>
<ellipse cx="1.89325" cy="1.62623" rx="1.89325" ry="1.62623" transform="matrix(-0.813175 0.582019 -0.580458 -0.814291 613.809 356.978)" fill="#116B40"/>
<ellipse cx="3.69077" cy="2.00276" rx="3.69077" ry="2.00276" transform="matrix(0.762847 -0.646579 0.645052 0.764139 569.164 391.1)" fill="#116B40"/>
<ellipse cx="4.6004" cy="2.132" rx="4.6004" ry="2.132" transform="matrix(0.99053 -0.137299 0.136753 0.990605 631.891 375.492)" fill="#116B40"/>
<ellipse cx="2.94471" cy="1.61915" rx="2.94471" ry="1.61915" transform="matrix(0.342681 -0.939452 0.939002 0.34391 565.52 405.084)" fill="#116B40"/>
<ellipse cx="2.94294" cy="1.62012" rx="2.94294" ry="1.62012" transform="matrix(0.642812 -0.766024 0.764738 0.644342 568.873 426.305)" fill="#116B40"/>
<ellipse cx="3.68865" cy="2.0039" rx="3.68865" ry="2.0039" transform="matrix(0.930183 -0.367096 0.365809 0.93069 616.477 342.91)" fill="#116B40"/>
<ellipse cx="1.39528" cy="1.53615" rx="1.39528" ry="1.53615" transform="matrix(0.995005 0.0998264 -0.0994262 0.995045 714.65 401.587)" fill="#116B40"/>
<ellipse cx="0.795592" cy="1.63366" rx="0.795592" ry="1.63366" transform="matrix(0.975244 -0.22113 0.220278 0.975437 730.072 385.809)" fill="#116B40"/>
<path d="M292.728 373.485H0V699H1728V521.083C1728 521.083 1663.33 563.417 1621.35 558.84C1579.37 554.263 1454.56 521.083 1397.83 541.105C1341.1 561.128 1261.11 583.439 1144.25 581.151C1027.38 578.863 923.567 483.325 844.144 483.325C764.722 483.325 789.684 506.208 700.05 483.325C610.416 460.442 407.322 373.485 292.728 373.485Z" fill="#FAE3B2"/>
<path d="M1615.12 443.891L1613.77 457.987C1613.77 457.987 1599.71 461.196 1597.07 459.592C1594.43 457.987 1597.11 445.799 1594.43 439.641C1594.43 439.641 1591.7 432.398 1589.36 432.181C1587.02 431.964 1580.1 429.536 1580.1 429.536C1579.05 427.147 1579.31 425.808 1580.1 423.42C1582.26 422.167 1584.6 421.512 1585.64 420.211C1586.68 418.91 1563.61 376.363 1563.61 376.363C1563.61 376.363 1562.22 375.322 1560.97 375.322C1559.71 375.322 1555.64 379.832 1555.64 377.924C1555.64 376.016 1553.39 377.187 1555.64 374.498C1557.9 371.809 1561.88 372.85 1563.61 371.288C1565.34 369.727 1558.89 366.86 1555.64 356.672C1555.64 356.672 1549.8 335.941 1551.71 334.076C1553.61 332.211 1558.33 335.334 1560.97 335.941C1563.61 336.548 1560.67 351.511 1560.97 352.682C1561.27 353.853 1564.99 356.672 1566.29 356.672C1567.59 356.672 1561.86 344.68 1566.29 345.222C1569.06 345.561 1571.31 346.784 1571.31 350.297V359.838C1573.84 371.536 1579.84 389.374 1581.66 389.895C1583.48 390.415 1587.8 386.078 1587.8 386.078L1594.43 377.924C1595.18 371.379 1595.37 367.808 1594.43 362.007V345.222C1594.43 345.222 1593 321.672 1594.43 320.761C1595.85 319.851 1603.34 318.593 1604.21 322.366C1605.07 326.139 1598.54 340.018 1598.41 343.358C1598.28 346.697 1600.27 350.297 1600.27 350.297C1600.27 350.297 1601.7 341.796 1604.21 342.317C1606.72 342.837 1609.79 339.541 1609.01 345.222C1608.23 350.904 1602.87 355.068 1602.91 356.672C1602.95 358.277 1605.81 358.436 1607.67 356.672L1615.12 347.911L1616.98 338.066C1616.98 338.066 1619.05 334.076 1623.6 334.076C1628.14 334.076 1627.58 337.286 1627.32 343.358C1627.06 349.429 1618.53 361.226 1613.77 366.257C1609.01 371.288 1597.41 393.928 1597.07 396.834C1596.72 399.74 1598.22 432.881 1606.07 434.567C1613.92 436.252 1620.83 423.42 1623.6 423.42C1626.37 423.42 1636.58 425.285 1636.58 425.285C1638.97 428.91 1638.91 430.942 1636.58 434.567H1627.32C1622.1 436.169 1619.23 437.331 1615.12 443.891Z" fill="#CE7915"/>
<path d="M1656.2 377.75C1661.22 368.687 1661.68 339.826 1656.2 327.698L1651.19 329.611C1651.19 329.611 1654.3 340.04 1654.13 344.777C1653.96 349.513 1654.26 364.497 1651.19 364.497C1648.12 364.497 1646.3 366.137 1645.43 364.497C1644.57 362.857 1638.55 347.608 1639.03 329.611L1636.31 327.698C1632.12 329.184 1631.1 332.792 1631.98 344.777C1633.55 355.292 1634.31 361.149 1631.98 370.281C1627.03 376.145 1623.15 377.651 1613 375.109C1602.56 375.432 1597.05 370.15 1587.61 354.66C1581.88 339.276 1579.54 334.084 1577.1 331.752C1574.21 342.331 1575.34 348.941 1580.99 361.628C1587.22 373.176 1592.19 378.825 1605 386.676C1610.04 390.422 1612.03 393.513 1613 402.07C1611.96 413.76 1609.4 419.07 1601.8 426.618C1603.21 435.833 1605.08 438.163 1609.8 438.641C1616.88 438.213 1620.33 436.563 1625.32 430.443C1625.5 425.601 1624.93 422.854 1628.78 418.192C1636.49 401.892 1651.19 386.813 1656.2 377.75Z" fill="#C8942F"/>
<path d="M1658.45 377.75C1663.47 368.687 1663.93 339.826 1658.45 327.698L1653.44 329.611C1653.44 329.611 1656.55 340.04 1656.38 344.777C1656.21 349.513 1656.51 364.497 1653.44 364.497C1650.37 364.497 1648.55 366.137 1647.68 364.497C1646.82 362.857 1640.8 347.608 1641.28 329.611L1638.56 327.698C1634.37 329.184 1633.35 332.792 1634.23 344.777C1635.8 355.292 1636.56 361.149 1634.23 370.281C1629.28 376.145 1625.4 377.651 1615.25 375.109C1604.81 375.432 1599.3 370.15 1589.86 354.66C1584.13 339.276 1581.79 334.084 1579.35 331.752C1576.46 342.331 1577.59 348.941 1583.24 361.628C1589.47 373.176 1594.44 378.825 1607.25 386.676C1612.29 390.422 1614.28 393.513 1615.25 402.07C1614.21 413.76 1611.65 419.07 1604.05 426.618C1605.46 435.833 1607.33 438.163 1612.05 438.641C1619.13 438.213 1622.58 436.563 1627.57 430.443C1627.75 425.601 1627.18 422.854 1631.03 418.192C1638.74 401.892 1653.44 386.813 1658.45 377.75Z" fill="#F4A939"/>
<path d="M1618.37 443.931L1617.03 458.027C1617.03 458.027 1602.96 461.236 1600.32 459.632C1597.68 458.027 1600.36 445.839 1597.68 439.681C1597.68 439.681 1594.95 432.438 1592.62 432.221C1590.28 432.004 1583.35 429.576 1583.35 429.576C1582.31 427.187 1582.56 425.848 1583.35 423.46C1585.52 422.207 1587.85 421.552 1588.89 420.251C1589.93 418.95 1566.86 376.403 1566.86 376.403C1566.86 376.403 1565.48 375.362 1564.22 375.362C1562.97 375.362 1558.9 379.873 1558.9 377.964C1558.9 376.056 1556.65 377.227 1558.9 374.538C1561.15 371.849 1565.13 372.89 1566.86 371.328C1568.59 369.767 1562.14 366.9 1558.9 356.712C1558.9 356.712 1553.06 335.981 1554.96 334.116C1556.86 332.251 1561.58 335.374 1564.22 335.981C1566.86 336.588 1563.92 351.551 1564.22 352.722C1564.53 353.893 1568.25 356.712 1569.55 356.712C1570.84 356.712 1565.12 344.72 1569.55 345.263C1572.31 345.601 1574.57 346.824 1574.57 350.337V359.879C1577.09 371.576 1583.09 389.414 1584.91 389.935C1586.73 390.455 1591.06 386.118 1591.06 386.118L1597.68 377.964C1598.43 371.419 1598.63 367.848 1597.68 362.047V345.263C1597.68 345.263 1596.25 321.712 1597.68 320.801C1599.11 319.891 1606.6 318.633 1607.46 322.406C1608.33 326.179 1601.79 340.058 1601.66 343.398C1601.53 346.737 1603.52 350.337 1603.52 350.337C1603.52 350.337 1604.95 341.836 1607.46 342.357C1609.97 342.877 1613.05 339.581 1612.27 345.263C1611.49 350.944 1606.12 355.108 1606.16 356.712C1606.21 358.317 1609.07 358.476 1610.92 356.712L1618.37 347.952L1620.23 338.106C1620.23 338.106 1622.31 334.116 1626.85 334.116C1631.4 334.116 1630.83 337.326 1630.58 343.398C1630.32 349.469 1621.79 361.266 1617.03 366.297C1612.27 371.328 1600.67 393.968 1600.32 396.874C1599.97 399.78 1601.48 432.921 1609.32 434.607C1617.17 436.292 1624.08 423.46 1626.85 423.46C1629.62 423.46 1639.84 425.325 1639.84 425.325C1642.23 428.95 1642.16 430.982 1639.84 434.607H1630.58C1625.35 436.209 1622.48 437.371 1618.37 443.931Z" fill="#FA8A06"/>
</svg>
