<svg width="1440" height="614" viewBox="0 0 1440 614" fill="none" xmlns="http://www.w3.org/2000/svg">
<path d="M171.585 0H-38V557H1478V7.5H1424.11C1392.17 7.5 1311.83 43.5 1282.89 52.5C1253.94 61.5 1133.18 67 1102.74 60C1072.3 53 1017.91 43.5 983.479 43.5H821.299C791.858 43.5 719.002 24 670.598 24C622.194 24 609.219 60 560.316 60C511.413 60 459.515 24 423.587 34.5C387.658 45 333.265 76.5 305.82 70.5C278.374 64.5 286.857 34.5 265.4 24C243.942 13.5 224.98 0 171.585 0Z" fill="#004F77"/>
<path d="M525.884 229.127C467.5 223.112 325.281 276.242 285.859 276.242C246.437 276.242 254.421 258.198 205.019 258.198C155.617 258.198 -38 247.171 -38 247.171V382H1478V177H1374.21C1339.27 177 1253.44 229.127 1220.51 229.127C1187.57 229.127 1110.73 217.599 1074.8 217.599C1038.87 217.599 982.98 229.127 942.061 247.171C901.142 265.215 924.096 276.242 924.096 276.242L668.103 258.198C668.103 258.198 584.269 235.142 525.884 229.127Z" fill="#025B89"/>
<path d="M112.553 258.121C47.247 260.123 -38 293.158 -38 293.158V612H1478V355.725C1478 355.725 1431.14 381.253 1390.26 381.753C1349.38 382.254 1293.05 332.2 1234.72 335.204C1176.4 338.207 1138.01 355.725 1100.12 355.725C1062.23 355.725 875.289 247.61 778.078 244.106C680.866 240.602 553.744 325.193 511.369 323.191C468.995 321.188 456.034 305.171 383.748 293.158C311.463 281.146 233.195 293.158 233.195 293.158C233.195 293.158 177.859 256.119 112.553 258.121Z" fill="#E5C37D"/>
<ellipse cx="1015.47" cy="486.204" rx="39.9495" ry="17.8217" transform="rotate(-10.0834 1015.47 486.204)" fill="#D33929"/>
<path fill-rule="evenodd" clip-rule="evenodd" d="M1014.76 498.151C1036.48 494.288 1052.69 483.301 1050.97 473.61C1050.94 473.427 1050.9 473.245 1050.85 473.065C1053.12 474.785 1054.57 476.853 1054.99 479.217C1056.71 488.908 1040.5 499.895 1018.77 503.758C997.462 507.548 978.764 503.072 976.437 493.751C983.459 499.083 998.331 501.072 1014.76 498.151Z" fill="#A12C20"/>
<path d="M1047.96 466.538C1047.52 468.815 1046.74 469.672 1044.8 470.747L1049.7 473.14C1052.02 471.654 1052.82 470.499 1052.36 467.257L1047.96 466.538Z" fill="#D33929"/>
<ellipse cx="1050.74" cy="464.398" rx="3.72274" ry="3.45683" transform="rotate(-8.07293 1050.74 464.398)" fill="#D33929"/>
<path d="M1049.41 458.812L1049.81 461.576C1049.94 462.497 1048.56 464.169 1048.56 464.169L1042.42 461.55C1042.42 461.55 1038.62 458.462 1035.54 455.676C1032.46 452.891 1027.51 443.522 1027.51 443.522C1026.43 440.7 1026.29 439.565 1027.38 438.84C1030.56 440.341 1031.25 441.529 1031.85 443.846C1031.85 443.846 1034.56 443.059 1035.74 444.771C1036.92 446.483 1037.22 448.589 1037.22 448.589C1037.22 448.589 1045.85 450.723 1046.22 452.415C1046.6 454.108 1044.15 455.798 1044.15 455.798C1044.15 455.798 1049.17 457.1 1049.41 458.812Z" fill="#D33929"/>
<path d="M1050.84 445.181C1054.24 451.145 1052.65 461.71 1052.65 461.71L1049.49 462.158L1048.98 458.604C1048.83 457.551 1044.04 455.948 1044.04 455.948C1044.04 455.948 1045.87 453.675 1045.68 452.358C1045.49 451.042 1041.26 450.568 1041.19 449.101C1041.11 447.634 1043.82 447.788 1043.67 445.794C1043.52 443.801 1036.12 442.703 1035.86 440.86C1035.59 439.017 1037.04 439.752 1037.19 438.925C1037.34 438.098 1033.06 437.229 1033.76 435.518C1034.45 433.808 1043.59 437.615 1043.59 437.615C1043.59 437.615 1047.44 439.217 1050.84 445.181Z" fill="#D33929"/>
<path d="M979.564 478.388C980.62 480.453 981.602 481.06 983.773 481.551L979.727 485.213C977.083 484.432 976 483.543 975.538 480.301L979.564 478.388Z" fill="#D33929"/>
<ellipse cx="3.72274" cy="3.45683" rx="3.72274" ry="3.45683" transform="matrix(-0.99009 0.140433 0.140433 0.99009 979.494 473.16)" fill="#D33929"/>
<path d="M976.018 471.371L976.41 474.135C976.541 475.057 978.326 476.28 978.326 476.28L983.501 472.055C983.501 472.055 986.288 468.034 988.472 464.501C990.657 460.969 992.811 450.592 992.811 450.592C993.061 447.581 992.881 446.452 991.631 446.059C988.988 448.387 988.658 449.719 988.729 452.111C988.729 452.111 985.909 452.108 985.248 454.081C984.588 456.055 984.887 458.161 984.887 458.161C984.887 458.161 977.192 462.61 977.304 464.34C977.415 466.07 980.234 467.013 980.234 467.013C980.234 467.013 975.775 469.659 976.018 471.371Z" fill="#D33929"/>
<path d="M970.86 458.674C969.255 465.347 973.72 475.054 973.72 475.054L976.879 474.605L976.375 471.051C976.226 469.998 980.384 467.125 980.384 467.125C980.384 467.125 977.998 465.45 977.811 464.133C977.625 462.817 981.556 461.185 981.219 459.756C980.882 458.326 978.324 459.226 977.912 457.27C977.5 455.315 984.31 452.2 984.049 450.357C983.787 448.514 982.602 449.622 982.226 448.87C981.851 448.117 985.726 446.091 984.581 444.642C983.435 443.193 975.72 449.39 975.72 449.39C975.72 449.39 972.465 452 970.86 458.674Z" fill="#D33929"/>
<path d="M1057.87 471.399C1054.37 471.357 1049.78 473.083 1049.78 473.083L1052.35 476.075C1052.35 476.075 1056.64 476.004 1058.14 476.193C1059.65 476.383 1063.59 478.643 1063.59 478.643C1063.59 478.643 1067.3 480.132 1068.71 479.664C1070.12 479.195 1068.99 477.878 1068.99 477.878C1068.99 477.878 1061.36 471.44 1057.87 471.399Z" fill="#D33929"/>
<path d="M1060.56 480.054C1057.34 478.703 1052.43 478.58 1052.43 478.58L1053.7 482.319C1053.7 482.319 1057.7 483.862 1059.02 484.603C1060.34 485.343 1063.15 488.919 1063.15 488.919C1063.15 488.919 1066.02 491.689 1067.51 491.784C1068.99 491.879 1068.44 490.235 1068.44 490.235C1068.44 490.235 1063.79 481.405 1060.56 480.054Z" fill="#D33929"/>
<path d="M1058.3 487.948C1055.56 485.782 1050.87 484.35 1050.87 484.35L1051.08 488.291C1051.08 488.291 1054.52 490.849 1055.6 491.917C1056.67 492.985 1058.42 497.183 1058.42 497.183C1058.42 497.183 1060.45 500.621 1061.85 501.11C1063.26 501.599 1063.17 499.868 1063.17 499.868C1063.17 499.868 1061.05 490.114 1058.3 487.948Z" fill="#D33929"/>
<path d="M973.144 487.728C976.491 486.716 981.38 487.097 981.38 487.097L979.74 490.687C979.74 490.687 975.603 491.811 974.211 492.411C972.819 493.012 969.657 496.28 969.657 496.28C969.657 496.28 966.514 498.74 965.029 498.682C963.543 498.624 964.259 497.046 964.259 497.046C964.259 497.046 969.796 488.74 973.144 487.728Z" fill="#D33929"/>
<path d="M972.961 496.793C975.684 494.599 980.358 493.117 980.358 493.117L980.186 497.06C980.186 497.06 976.773 499.655 975.708 500.733C974.643 501.812 972.938 506.029 972.938 506.029C972.938 506.029 970.949 509.488 969.55 509.992C968.152 510.496 968.223 508.764 968.223 508.764C968.223 508.764 970.238 498.988 972.961 496.793Z" fill="#D33929"/>
<path d="M977.327 503.747C979.362 500.903 983.468 498.223 983.468 498.223L984.359 502.067C984.359 502.067 981.765 505.482 981.029 506.807C980.292 508.131 979.78 512.65 979.78 512.65C979.78 512.65 978.79 516.516 977.577 517.377C976.365 518.237 975.97 516.549 975.97 516.549C975.97 516.549 975.291 506.591 977.327 503.747Z" fill="#D33929"/>
<circle cx="1025.71" cy="455.313" r="4.66159" transform="rotate(-4.36416 1025.71 455.313)" fill="#D33929"/>
<circle cx="1025.8" cy="455.399" r="2.80115" transform="rotate(-4.36416 1025.8 455.399)" fill="black"/>
<rect x="1024.2" y="459.554" width="3.30822" height="9.02243" transform="rotate(0.793544 1024.2 459.554)" fill="#D33929"/>
<circle cx="998.803" cy="459.258" r="4.66159" transform="rotate(-11.3149 998.803 459.258)" fill="#D33929"/>
<circle cx="998.931" cy="459.329" r="2.80115" transform="rotate(-21.3824 998.931 459.329)" fill="black"/>
<rect x="998.369" y="462.902" width="3.30822" height="9.02243" transform="rotate(-16.2247 998.369 462.902)" fill="#D33929"/>
<path d="M1041.62 449.665L1046.7 453.285L1046.72 458.165L1049.81 461.933" stroke="#A22C20" stroke-linecap="round"/>
<path d="M1054.05 465.943C1054.55 465.147 1054.51 463.599 1054.39 463.612C1054.39 463.612 1052.87 465.171 1052.62 465.34C1052.38 465.509 1047.98 466.67 1047.98 466.67L1052.39 467.521C1052.54 467.64 1053.55 466.739 1054.05 465.943Z" fill="#A12C20"/>
<path d="M980.913 460.693L977.041 465.583L978.378 470.277L976.462 474.753" stroke="#A22C20" stroke-linecap="round"/>
<path d="M973.524 479.602C972.82 478.977 972.435 477.477 972.548 477.457C972.548 477.457 974.446 478.531 974.728 478.625C975.01 478.719 979.56 478.611 979.56 478.611L975.553 480.657C975.442 480.813 974.228 480.227 973.524 479.602Z" fill="#A12C20"/>
<path d="M132.549 328.544H102.046C101.609 324.631 102.319 322.287 106.767 317.609C110.641 311.1 112.241 307.543 109.107 302.156C103.849 298.455 99.5166 297.221 90.8695 295.579L87.0768 299.372L89.5381 309.499H86.4312L85.4225 303.245C83.1782 307.395 82.3588 309.881 76.7477 312.808C75.1281 313.389 74.2392 313.607 73.076 311.597L73.883 309.499L79.6528 304.254C77.0812 302.701 75.6402 302.11 73.076 302.156C71.0531 300.354 70.6751 299.377 71.9866 297.718C75.5553 298.554 77.5312 299.338 80.9842 301.591L84.2121 295.579H80.9842C81.4112 296.495 62.8636 295.975 59.1962 293.683C55.5288 291.391 58.5793 289.224 62.8679 288.276C67.75 290.22 70.8068 291.063 79.0879 290.374C87.6097 291.429 91.9928 292.194 102.006 292.593C102.249 290.92 101.928 289.977 99.7462 288.276C91.0024 284.158 84.8311 282.385 71.4217 280.247C66.1791 282.308 63.0572 283.061 56.9771 283.273C55.3409 281.933 55.0163 281.139 56.0894 279.601L61.5364 277.826C57.3978 276.291 55.9328 275.344 55 273.589C55 273.589 55 268.142 56.9771 268.142C58.9541 268.142 65.9385 273.541 73.883 276.495L90.8695 280.247C95.3486 282.555 97.6587 284.145 103.337 284.685C104.224 282.64 103.606 281.541 102.006 279.601C96.0472 274.862 91.76 272.34 81.9929 268.142C79.4835 269.562 55.6553 263.931 58.3086 260.92C60.9618 257.909 62.8679 256.24 62.8679 256.24C66.1606 259.544 67.7257 261.711 73.883 261.808C73.883 261.808 63.5942 251.035 63.3117 249.259C63.0293 247.484 69.0008 246.032 69.0008 246.032L71.4217 247.807C72.7223 251.954 73.8926 254.282 79.0879 258.459L85.4225 255.715C82.0434 252.164 80.4234 250.148 79.6528 246.354C78.8621 242.694 77.6353 239.011 80.0966 239.132C82.5578 239.253 84.2121 240.141 84.2121 240.141L85.4225 246.718C87.2986 244.584 88.2066 240.141 92.201 241.593C96.1955 243.046 94.4202 243.691 94.4202 243.691C93.7919 247.077 90.8927 247.598 87.0768 249.259C86.7729 250.535 87.6339 251.354 90.3047 252.931C92.8357 249.39 95.4289 247.928 97.3253 247.807C99.2216 247.686 99.7462 251.035 99.7462 251.035C99.7462 251.035 100.876 253.012 99.1006 254.021C97.3253 255.029 91.5871 258.332 85.0998 260.92C90.0995 263.218 92.8746 264.446 98.5357 268.142C104.217 268 106.044 267.426 106.767 265.479V260.92C106.767 257.491 109.107 256.603 109.107 256.603C109.107 256.603 112.335 255.513 111.77 257.491C111.205 259.468 110.116 264.35 110.116 264.35C110.116 264.35 111.528 262.938 112.98 262.695C114.433 262.453 119.436 266.811 117.54 268.142C115.643 269.474 112.98 270.483 112.98 270.483L119.436 273.589C119.436 273.589 122.866 276.495 119.436 276.495C116.006 276.495 108.3 271.37 108.3 271.37L104.548 272.904C109.331 278.813 114.312 284.685 120.768 284.685C127.223 284.685 132.484 278.723 134.768 270.483C124.181 264.164 118.452 260.494 112.98 251.035C112.98 251.035 110.116 249.259 112.98 247.807C115.845 246.354 119.436 246.032 119.436 246.032L122.22 247.161C123.559 252.8 125.462 255.987 134.768 261.808V254.021L133.316 249.259C129.466 244.145 126.483 241.32 117.54 236.469C108.805 237.426 103.849 237.738 93.7746 233.604C93.7746 233.604 92.9677 229.933 95.4289 229.368C97.8901 228.803 109.107 230.82 109.107 230.82C105.292 228.086 103.216 225.865 99.7462 219.361C99.7462 219.361 103.539 215.246 106.081 217.263C108.623 219.281 111.205 226.14 111.205 226.14C117.602 218.406 121.655 211.373 124.318 211.05C126.981 210.727 127.35 212.039 127.748 213.148L117.54 230.82L127.748 237.68C131.963 243.637 134.191 245.541 137.996 247.161C139.683 246.679 143.12 244.653 140.659 241.593C138.199 238.534 127.451 230.436 127.748 221.823L132.307 218.151L134.768 219.361C137.704 225.775 139.744 228.746 144.654 232.031C149.271 224.528 152.084 220.492 159.663 215.246H163.335L165.998 223.598L160.753 225.373C156.721 227.841 154.698 230.03 151.553 235.46C156.936 235.483 159.977 234.679 165.433 232.031L172.09 226.14L176.529 230.82C167.565 239.289 160.909 241.649 147.559 243.691C144.692 249.605 144.116 253.068 144.654 259.468L150.545 260.92C148.008 256.752 147.408 254.184 147.559 249.259H150.545L152.885 260.92L157.565 256.603L160.753 258.58V260.154L152.885 263.462L160.753 266.044V268.909L155.427 267.497L149.334 265.479L144.654 267.497C144.182 275.404 141.144 279.487 135.212 286.703C136.794 287.265 138.862 286.954 143.887 285.694L155.427 276.495C160.473 271.626 163.805 268.048 170.194 260.92C166.349 256.172 164.25 253.468 161.439 247.928C160.726 246.611 160.632 245.889 162.326 244.7C164.69 243.223 165.817 243.983 167.773 245.79C168.803 250.475 170.298 253.057 174.874 257.571L175.059 257.282C179.05 251.037 181.343 247.447 186.091 243.691C188.865 244.368 189.833 245.234 191.094 247.161C191.213 250.706 190.419 252.675 187.786 256.159L188.041 256.151C194.376 255.961 198.006 255.853 201.222 256.603L202.11 259.468L200.536 260.154C195.703 262.029 192.411 262.365 184.881 260.92C182.498 264.472 180.405 266.249 174.874 268.909H184.114C184.114 268.909 187.1 268.909 188.31 270.362C189.521 271.814 188.31 273.832 188.31 273.832C182.881 274.908 172.333 273.832 168.782 273.832C165.231 273.832 159.663 284.685 159.663 284.685C149.977 288.515 144.823 290.687 138.561 294.813C138.32 298.115 139.741 299.193 145.783 299.372C155.505 291.595 161.528 285.744 169.427 282.708L172.09 285.694C167.055 292.187 162.955 295.875 148.446 302.721C154.181 302.315 158.178 301.001 166.563 296.911C168.134 297.209 168.623 297.905 168.782 300.139L168.775 300.15C166.715 303.52 165.559 305.413 157.565 307.684C146.062 307.842 138.026 306.677 132.549 311.597C129.959 317.355 129.777 321.004 132.549 328.544Z" fill="#199459"/>
<path d="M134.607 328.594H104.104C103.667 324.68 104.377 322.337 108.824 317.659C112.699 311.15 114.298 307.593 111.165 302.206C105.906 298.505 101.574 297.27 92.9272 295.629L89.1344 299.422C89.1344 299.422 93.25 309.549 91.5957 309.549C89.9414 309.549 89.7397 310.002 88.4889 309.549C87.2381 309.096 87.4802 303.295 87.4802 303.295C85.2358 307.445 84.4164 309.931 78.8053 312.858C77.1857 313.439 76.2968 313.657 75.1336 311.647L75.9406 309.549C75.9406 309.549 81.1455 305.384 81.7104 304.304C82.2752 303.224 76.223 302.771 75.1336 302.206C74.0442 301.641 72.7327 299.426 74.0442 297.767C77.6129 298.604 79.5888 299.388 83.0419 301.641L86.2697 295.629H83.0419C83.4689 296.545 64.9212 296.024 61.2538 293.733C57.5864 291.441 60.6369 289.274 64.9255 288.326C69.8076 290.27 72.8644 291.113 81.1455 290.424C89.6673 291.479 94.0504 292.244 104.063 292.643C104.307 290.97 103.986 290.027 101.804 288.326C93.0601 284.208 86.8887 282.435 73.4793 280.297C68.2367 282.358 65.1148 283.111 59.0347 283.323C57.3985 281.983 57.0739 281.189 58.147 279.651L63.594 277.876C59.4554 276.341 57.9905 275.394 57.0576 273.639C57.0576 273.639 57.0576 268.192 59.0347 268.192C61.0117 268.192 67.9962 273.591 75.9406 276.544L92.9272 280.297C97.4062 282.605 99.7163 284.195 105.395 284.735C106.282 282.69 105.664 281.591 104.063 279.651C98.1049 274.912 93.8176 272.39 84.0506 268.192C81.5411 269.612 57.7129 263.981 60.3662 260.97C63.0195 257.959 64.9255 256.29 64.9255 256.29C68.2182 259.594 69.7834 261.761 75.9406 261.858C75.9406 261.858 65.6518 251.085 65.3693 249.309C65.0869 247.534 71.0584 246.081 71.0584 246.081L73.4793 247.857C74.7799 252.004 75.9502 254.332 81.1455 258.509L87.4802 255.765C84.101 252.214 82.481 250.198 81.7104 246.404C80.9197 242.744 79.693 239.061 82.1542 239.182C84.6154 239.303 86.2697 240.191 86.2697 240.191L87.4802 246.767C89.3563 244.634 90.2642 240.191 94.2587 241.643C98.2531 243.096 96.4778 243.741 96.4778 243.741C95.8495 247.127 92.9503 247.648 89.1344 249.309C88.8305 250.584 89.6915 251.404 92.3623 252.981C94.8933 249.439 97.4865 247.978 99.3829 247.857C101.279 247.736 101.804 251.085 101.804 251.085C101.804 251.085 102.934 253.062 101.158 254.07C99.3829 255.079 93.6447 258.381 87.1574 260.97C92.1571 263.267 94.9322 264.496 100.593 268.192C106.274 268.05 108.102 267.476 108.824 265.529V260.97C108.824 257.54 111.165 256.653 111.165 256.653C111.165 256.653 114.392 255.563 113.828 257.54C113.263 259.517 112.173 264.4 112.173 264.4C112.173 264.4 113.585 262.987 115.038 262.745C116.491 262.503 121.494 266.861 119.597 268.192C117.701 269.524 115.038 270.532 115.038 270.532L121.494 273.639C121.494 273.639 124.923 276.544 121.494 276.544C118.064 276.544 110.358 271.42 110.358 271.42L106.605 272.953C111.388 278.863 116.369 284.735 122.825 284.735C129.281 284.735 134.542 278.773 136.826 270.532C126.238 264.214 120.51 260.544 115.038 251.085C115.038 251.085 112.173 249.309 115.038 247.857C117.903 246.404 121.494 246.081 121.494 246.081L124.278 247.211C125.616 252.85 127.52 256.037 136.826 261.858V254.07L135.373 249.309C131.523 244.195 128.541 241.37 119.597 236.519C110.863 237.476 105.906 237.788 95.8322 233.654C95.8322 233.654 95.0253 229.983 97.4865 229.418C99.9478 228.853 111.165 230.87 111.165 230.87C107.349 228.136 105.274 225.915 101.804 219.411C101.804 219.411 105.597 215.296 108.138 217.313C110.68 219.331 113.263 226.19 113.263 226.19C119.66 218.456 123.713 211.422 126.376 211.1C129.039 210.777 129.408 212.088 129.805 213.198L119.597 230.87L129.805 237.729C134.021 243.687 136.248 245.591 140.054 247.211C141.741 246.729 145.177 244.702 142.717 241.643C140.257 238.584 129.509 230.486 129.805 221.873L134.365 218.201L136.826 219.411C139.762 225.824 141.802 228.796 146.711 232.081C151.329 224.578 154.142 220.542 161.721 215.296H165.393C167.376 218.49 168.04 220.312 168.056 223.648L162.81 225.423C158.779 227.891 156.755 230.08 153.611 235.51C158.994 235.533 162.035 234.728 167.491 232.081L174.148 226.19L178.586 230.87C169.622 239.339 162.966 241.699 149.616 243.741C146.749 249.654 146.174 253.118 146.711 259.517L152.602 260.97C150.065 256.802 149.465 254.234 149.616 249.309H152.602L154.942 260.97L159.623 256.653L162.81 258.63V260.203L154.942 263.512L162.81 266.094V268.959L157.484 267.547L151.392 265.529L146.711 267.547C146.239 275.454 143.202 279.536 137.27 286.752C138.851 287.314 140.919 287.004 145.945 285.744L157.484 276.544C162.53 271.675 165.863 268.098 172.252 260.97C168.407 256.222 166.307 253.518 163.496 247.978C162.784 246.661 162.689 245.939 164.384 244.75C166.747 243.273 167.875 244.033 169.831 245.839C170.861 250.525 172.355 253.107 176.932 257.621L177.117 257.332C181.107 251.087 183.401 247.497 188.149 243.741C190.923 244.418 191.89 245.284 193.152 247.211C193.271 250.756 192.477 252.725 189.844 256.209L190.099 256.201C196.434 256.011 200.063 255.902 203.279 256.653L204.167 259.517L202.594 260.203C197.76 262.078 194.469 262.414 186.938 260.97C184.555 264.522 182.462 266.299 176.932 268.959H186.172C186.172 268.959 189.158 268.959 190.368 270.411C191.579 271.864 190.368 273.881 190.368 273.881C184.938 274.958 174.39 273.881 170.84 273.881C167.289 273.881 161.721 284.735 161.721 284.735C152.035 288.565 146.881 290.737 140.619 294.862C140.378 298.164 141.799 299.243 147.841 299.422C157.562 291.645 163.585 285.794 171.485 282.758L174.148 285.744C169.112 292.237 165.013 295.925 150.504 302.771C156.239 302.365 160.236 301.05 168.62 296.961C170.192 297.259 170.681 297.955 170.84 300.188L170.832 300.2C168.773 303.57 167.616 305.463 159.623 307.733C148.119 307.892 140.083 306.727 134.607 311.647C132.017 317.404 131.835 321.054 134.607 328.594Z" fill="#54B988"/>
<ellipse cx="126.76" cy="213.515" rx="1.96581" ry="1.22687" transform="rotate(5.71764 126.76 213.515)" fill="#116B40"/>
<ellipse cx="166.543" cy="246.601" rx="1.96581" ry="1.22687" transform="rotate(5.71764 166.543 246.601)" fill="#116B40"/>
<ellipse cx="150.867" cy="250.564" rx="1.02668" ry="0.680865" transform="rotate(5.71764 150.867 250.564)" fill="#116B40"/>
<ellipse cx="160.751" cy="258.43" rx="1.77285" ry="0.680865" transform="rotate(33.4499 160.751 258.43)" fill="#116B40"/>
<ellipse cx="161.985" cy="267.376" rx="1.13655" ry="0.680865" transform="rotate(76.3011 161.985 267.376)" fill="#116B40"/>
<ellipse cx="169.542" cy="286.039" rx="2.77704" ry="1.42382" transform="rotate(-9.85139 169.542 286.039)" fill="#116B40"/>
<ellipse cx="168.982" cy="299.556" rx="1.30841" ry="1.88361" transform="rotate(-9.85139 168.982 299.556)" fill="#116B40"/>
<ellipse cx="119.739" cy="274.925" rx="1.96581" ry="1.22687" transform="rotate(5.71764 119.739 274.925)" fill="#116B40"/>
<ellipse cx="111.729" cy="258.354" rx="1.44815" ry="1.33131" transform="rotate(5.71764 111.729 258.354)" fill="#116B40"/>
<ellipse cx="99.5948" cy="251.366" rx="1.37394" ry="2.90368" transform="rotate(-19.6321 99.5948 251.366)" fill="#116B40"/>
<ellipse cx="116.698" cy="265.99" rx="1.37394" ry="2.90368" transform="rotate(-47.6584 116.698 265.99)" fill="#116B40"/>
<ellipse cx="60.2654" cy="281.462" rx="1.96581" ry="1.22687" transform="rotate(5.71764 60.2654 281.462)" fill="#116B40"/>
<ellipse cx="77.8572" cy="311.077" rx="1.96581" ry="1.22687" transform="rotate(5.71764 77.8572 311.077)" fill="#116B40"/>
<ellipse cx="69.5879" cy="249.052" rx="3.23522" ry="1.75497" transform="rotate(-21.497 69.5879 249.052)" fill="#116B40"/>
<ellipse cx="83.4652" cy="241.528" rx="2.40069" ry="1.01104" transform="rotate(8.28903 83.4652 241.528)" fill="#116B40"/>
<ellipse cx="94.0427" cy="243.376" rx="1.89799" ry="0.969581" transform="rotate(31.7352 94.0427 243.376)" fill="#116B40"/>
<ellipse cx="189.067" cy="248.032" rx="4.21894" ry="2.36239" transform="rotate(31.5126 189.067 248.032)" fill="#116B40"/>
<ellipse cx="174.531" cy="229.486" rx="1.89366" ry="1.15701" transform="rotate(50.4315 174.531 229.486)" fill="#116B40"/>
<ellipse cx="163.759" cy="219.691" rx="4.10785" ry="2.93592" transform="rotate(61.5233 163.759 219.691)" fill="#116B40"/>
<ellipse cx="134.169" cy="222.524" rx="4.10785" ry="2.93592" transform="rotate(144.462 134.169 222.524)" fill="#116B40"/>
<ellipse cx="97.3251" cy="231.352" rx="1.65983" ry="1.4248" transform="rotate(144.462 97.3251 231.352)" fill="#116B40"/>
<ellipse cx="63.9394" cy="260.672" rx="3.23522" ry="1.75497" transform="rotate(-40.2269 63.9394 260.672)" fill="#116B40"/>
<ellipse cx="119.621" cy="249.053" rx="4.03584" ry="1.86671" transform="rotate(-7.87577 119.621 249.053)" fill="#116B40"/>
<ellipse cx="59.3578" cy="271.731" rx="2.57881" ry="1.42016" transform="rotate(-69.9222 59.3578 271.731)" fill="#116B40"/>
<ellipse cx="62.8277" cy="291.185" rx="2.57881" ry="1.42016" transform="rotate(-49.9409 62.8277 291.185)" fill="#116B40"/>
<ellipse cx="105.497" cy="219.678" rx="3.23522" ry="1.75497" transform="rotate(-21.497 105.497 219.678)" fill="#116B40"/>
<ellipse cx="189.058" cy="272.064" rx="1.22408" ry="1.34498" transform="rotate(5.71764 189.058 272.064)" fill="#116B40"/>
<ellipse cx="202.5" cy="258.03" rx="0.697915" ry="1.43047" transform="rotate(-12.7504 202.5 258.03)" fill="#116B40"/>
<path d="M656.573 308.757L553.816 302.007L533.205 348.598L637.662 360.859L656.573 308.757Z" fill="#683F24"/>
<path d="M576.476 335.603L645.178 341.485" stroke="#513523" stroke-width="2"/>
<line x1="572.66" y1="344.99" x2="641.33" y2="351.071" stroke="#513523" stroke-width="2"/>
<path d="M556.038 294.631L552.822 301.83C552.822 301.83 562.019 309.912 563.423 316.068C564.866 322.392 565.584 326.675 562.779 332.523C560.715 336.828 558.971 339.268 555.055 341.997C550.099 345.45 538.093 345.523 538.093 345.523L537.118 355.647C537.118 355.647 550.498 352.975 557.177 348.687C563.545 344.599 566.621 340.356 569.532 333.372C572.18 327.021 572.047 322.701 570.948 315.909C569.417 306.455 556.038 294.631 556.038 294.631Z" fill="#292823"/>
<path d="M533.209 348.796L520.491 346.885L547.065 291.848L659.92 298.386L656.177 308.765L554.225 302.593L533.209 348.796Z" fill="#373634"/>
<path d="M563.815 315.861C562.067 309.666 554.027 302.597 554.027 302.597L533.593 348.193C533.593 348.193 545.427 348.841 551.558 345.24C557.373 341.824 560.108 338.214 562.569 331.933C564.865 326.072 565.525 321.92 563.815 315.861Z" fill="#683F24"/>
<path d="M552.991 338.078L545.409 335.465" stroke="#492B18" stroke-width="2"/>
<path d="M559.778 321.691L552.195 319.078" stroke="#492B18" stroke-width="2"/>
<path d="M556.397 330.479L548.814 327.865" stroke="#492B18" stroke-width="2"/>
<path d="M520.293 346.889L482.448 365.317L593.684 379.614L637.865 361.053L520.293 346.889Z" fill="#281910"/>
<path d="M648.182 361.826L668.787 305.529C668.787 305.529 679.254 319.247 679.394 329.473C679.484 336.039 678.597 340.077 675.38 345.801C669.34 356.549 648.182 361.826 648.182 361.826Z" fill="#714528"/>
<path d="M670.156 304.707L659.92 298.386L637.473 361.259L648.607 363.204L670.156 304.707Z" fill="#292823"/>
<path d="M586.713 453.056L491.879 436.829L475.597 369.225L482.453 365.514L594.076 379.407L637.473 361.259L644.26 363.691L634.412 432.242L586.713 453.056Z" fill="#373634"/>
<path d="M483.042 365.304L520.887 346.876" stroke="black"/>
<ellipse cx="514.277" cy="362.269" rx="8.71434" ry="4.75328" transform="rotate(-1.20662 514.277 362.269)" fill="#D09B46"/>
<ellipse cx="514.244" cy="360.685" rx="8.71434" ry="4.75328" transform="rotate(-1.20662 514.244 360.685)" fill="#FABB32"/>
<ellipse cx="608.268" cy="366.629" rx="8.71434" ry="4.75328" transform="rotate(-1.20662 608.268 366.629)" fill="#D09B46"/>
<ellipse cx="608.234" cy="365.045" rx="8.71434" ry="4.75328" transform="rotate(-1.20662 608.234 365.045)" fill="#FABB32"/>
<ellipse cx="577.082" cy="372.04" rx="8.71434" ry="4.75328" transform="rotate(-1.20662 577.082 372.04)" fill="#D09B46"/>
<ellipse cx="577.049" cy="370.456" rx="8.71434" ry="4.75328" transform="rotate(-1.20662 577.049 370.456)" fill="#FABB32"/>
<ellipse cx="585.653" cy="365.124" rx="8.71434" ry="4.75328" transform="rotate(-1.20662 585.653 365.124)" fill="#D09B46"/>
<ellipse cx="585.62" cy="363.54" rx="8.71434" ry="4.75328" transform="rotate(-1.20662 585.62 363.54)" fill="#FABB32"/>
<ellipse cx="628.761" cy="361.443" rx="8.71434" ry="4.75328" transform="rotate(-1.20662 628.761 361.443)" fill="#D09B46"/>
<ellipse cx="628.727" cy="359.859" rx="8.71434" ry="4.75328" transform="rotate(-1.20662 628.727 359.859)" fill="#FABB32"/>
<ellipse cx="611.69" cy="359.822" rx="8.71434" ry="4.75328" transform="rotate(-1.20662 611.69 359.822)" fill="#D09B46"/>
<ellipse cx="611.657" cy="358.238" rx="8.71434" ry="4.75328" transform="rotate(-1.20662 611.657 358.238)" fill="#FABB32"/>
<ellipse cx="520.368" cy="369.272" rx="8.71434" ry="4.75328" transform="rotate(-1.20662 520.368 369.272)" fill="#D09B46"/>
<ellipse cx="520.335" cy="367.688" rx="8.71434" ry="4.75328" transform="rotate(-1.20662 520.335 367.688)" fill="#FABB32"/>
<ellipse cx="546.193" cy="372.691" rx="8.71434" ry="4.75328" transform="rotate(-1.20662 546.193 372.691)" fill="#D09B46"/>
<ellipse cx="546.159" cy="371.107" rx="8.71434" ry="4.75328" transform="rotate(-1.20662 546.159 371.107)" fill="#FABB32"/>
<ellipse cx="582.722" cy="357.658" rx="8.71434" ry="4.75328" transform="rotate(-1.20662 582.722 357.658)" fill="#D09B46"/>
<ellipse cx="582.689" cy="356.074" rx="8.71434" ry="4.75328" transform="rotate(-1.20662 582.689 356.074)" fill="#FABB32"/>
<ellipse cx="496.92" cy="365.805" rx="8.71434" ry="4.75328" transform="rotate(-1.20662 496.92 365.805)" fill="#D09B46"/>
<ellipse cx="496.886" cy="364.221" rx="8.71434" ry="4.75328" transform="rotate(-1.20662 496.886 364.221)" fill="#FABB32"/>
<ellipse cx="545.909" cy="359.225" rx="8.71434" ry="4.75328" transform="rotate(-1.20662 545.909 359.225)" fill="#D09B46"/>
<ellipse cx="545.875" cy="357.641" rx="8.71434" ry="4.75328" transform="rotate(-1.20662 545.875 357.641)" fill="#FABB32"/>
<ellipse cx="561.175" cy="369.205" rx="8.71434" ry="4.75328" transform="rotate(-1.20662 561.175 369.205)" fill="#D09B46"/>
<ellipse cx="561.142" cy="367.621" rx="8.71434" ry="4.75328" transform="rotate(-1.20662 561.142 367.621)" fill="#FABB32"/>
<ellipse cx="561.008" cy="361.285" rx="8.71434" ry="4.75328" transform="rotate(-1.20662 561.008 361.285)" fill="#D09B46"/>
<ellipse cx="560.975" cy="359.701" rx="8.71434" ry="4.75328" transform="rotate(-1.20662 560.975 359.701)" fill="#FABB32"/>
<ellipse cx="591.751" cy="372.523" rx="8.71434" ry="4.75328" transform="rotate(-1.20662 591.751 372.523)" fill="#D09B46"/>
<ellipse cx="591.718" cy="370.939" rx="8.71434" ry="4.75328" transform="rotate(-1.20662 591.718 370.939)" fill="#FABB32"/>
<ellipse cx="530.152" cy="363.519" rx="8.71434" ry="4.75328" transform="rotate(-1.20662 530.152 363.519)" fill="#D09B46"/>
<ellipse cx="530.119" cy="361.935" rx="8.71434" ry="4.75328" transform="rotate(-1.20662 530.119 361.935)" fill="#FABB32"/>
<ellipse cx="543.684" cy="366.404" rx="8.71434" ry="4.75328" transform="rotate(-1.20662 543.684 366.404)" fill="#D09B46"/>
<ellipse cx="543.65" cy="364.82" rx="8.71434" ry="4.75328" transform="rotate(-1.20662 543.65 364.82)" fill="#FABB32"/>
<ellipse cx="574.177" cy="365.762" rx="8.71434" ry="4.75328" transform="rotate(-1.20662 574.177 365.762)" fill="#D09B46"/>
<ellipse cx="574.144" cy="364.178" rx="8.71434" ry="4.75328" transform="rotate(-1.20662 574.144 364.178)" fill="#FABB32"/>
<ellipse cx="595.495" cy="362.143" rx="8.71434" ry="4.75328" transform="rotate(-1.20662 595.495 362.143)" fill="#D09B46"/>
<ellipse cx="595.462" cy="360.559" rx="8.71434" ry="4.75328" transform="rotate(-1.20662 595.462 360.559)" fill="#FABB32"/>
<ellipse cx="565.281" cy="357.233" rx="8.71434" ry="4.75328" transform="rotate(-1.20662 565.281 357.233)" fill="#D09B46"/>
<ellipse cx="565.248" cy="355.649" rx="8.71434" ry="4.75328" transform="rotate(-1.20662 565.248 355.649)" fill="#FABB32"/>
<ellipse cx="522.832" cy="354.561" rx="8.71434" ry="4.75328" transform="rotate(-1.20662 522.832 354.561)" fill="#D09B46"/>
<ellipse cx="522.798" cy="352.977" rx="8.71434" ry="4.75328" transform="rotate(-1.20662 522.798 352.977)" fill="#FABB32"/>
<ellipse cx="541.403" cy="352.189" rx="8.71434" ry="4.75328" transform="rotate(-1.20662 541.403 352.189)" fill="#D09B46"/>
<ellipse cx="541.37" cy="350.605" rx="8.71434" ry="4.75328" transform="rotate(-1.20662 541.37 350.605)" fill="#FABB32"/>
<ellipse cx="534.587" cy="348.371" rx="8.71434" ry="4.75328" transform="rotate(-1.20662 534.587 348.371)" fill="#D09B46"/>
<ellipse cx="534.554" cy="346.787" rx="8.71434" ry="4.75328" transform="rotate(-1.20662 534.554 346.787)" fill="#FABB32"/>
<ellipse cx="540.357" cy="358.947" rx="8.71434" ry="4.75328" transform="rotate(-1.20662 540.357 358.947)" fill="#D09B46"/>
<ellipse cx="540.323" cy="357.363" rx="8.71434" ry="4.75328" transform="rotate(-1.20662 540.323 357.363)" fill="#FABB32"/>
<ellipse cx="551.107" cy="361.493" rx="8.71434" ry="4.75328" transform="rotate(-1.20662 551.107 361.493)" fill="#D09B46"/>
<ellipse cx="551.074" cy="359.909" rx="8.71434" ry="4.75328" transform="rotate(-1.20662 551.074 359.909)" fill="#F7C45F"/>
<ellipse cx="510.326" cy="362.748" rx="8.71434" ry="4.75328" transform="rotate(-1.20662 510.326 362.748)" fill="#D09B46"/>
<ellipse cx="510.292" cy="361.164" rx="8.71434" ry="4.75328" transform="rotate(-1.20662 510.292 361.164)" fill="#F7C45F"/>
<ellipse cx="571.133" cy="371.768" rx="8.71434" ry="4.75328" transform="rotate(-1.20662 571.133 371.768)" fill="#D09B46"/>
<ellipse cx="571.1" cy="370.184" rx="8.71434" ry="4.75328" transform="rotate(-1.20662 571.1 370.184)" fill="#F7C45F"/>
<ellipse cx="533.099" cy="371.777" rx="8.71434" ry="4.75328" transform="rotate(-1.20662 533.099 371.777)" fill="#D09B46"/>
<ellipse cx="533.065" cy="370.193" rx="8.71434" ry="4.75328" transform="rotate(-1.20662 533.065 370.193)" fill="#F7C45F"/>
<ellipse cx="601.635" cy="371.522" rx="8.71434" ry="4.75328" transform="rotate(-1.20662 601.635 371.522)" fill="#D09B46"/>
<ellipse cx="601.602" cy="369.938" rx="8.71434" ry="4.75328" transform="rotate(-1.20662 601.602 369.938)" fill="#F7C45F"/>
<path d="M644.074 364.29L594.007 385.55L586.725 453.651L634.618 432.634L644.074 364.29Z" fill="#292823"/>
<path d="M582.921 395.292L487.732 381.053L498.605 426.981L578.121 440.163L582.921 395.292Z" fill="#7D4D2D"/>
<path d="M632.729 380.574L604.487 394.046L600.038 436.73L626.152 425.681L632.729 380.574Z" fill="#7D4D2D"/>
<line x1="503.261" y1="394.24" x2="507.755" y2="419.502" stroke="#513523" stroke-width="2"/>
<line x1="520.394" y1="398.662" x2="523.625" y2="420.385" stroke="#513523" stroke-width="2"/>
<line x1="541.107" y1="403.502" x2="541.54" y2="424.095" stroke="#513523" stroke-width="2"/>
<path d="M562.911 404.628L560.239 428.258" stroke="#513523" stroke-width="2"/>
<path d="M483.042 365.304L475.602 369.423L594.015 385.946L644.462 363.885L637.671 361.255L593.878 379.412L483.042 365.304Z" fill="#222020"/>
<path d="M540.976 397.76L540.784 388.652L533.433 387.618L526.279 386.58L526.488 396.49L528.151 400.209L537.451 401.4L540.976 397.76Z" fill="#2E2D29"/>
<path d="M632.729 380.574L604.483 393.848L600.037 436.73L626.345 425.479L632.729 380.574Z" fill="#714528"/>
<path d="M612.301 398.239L608.748 427.038" stroke="#492B18" stroke-width="2"/>
<path d="M622.716 394.256L619.34 422.061" stroke="#492B18" stroke-width="2"/>
<path d="M666.115 347.977L658.532 345.364" stroke="#492B18" stroke-width="2"/>
<path d="M672.902 331.591L665.319 328.977" stroke="#492B18" stroke-width="2"/>
<path d="M669.521 340.378L661.938 337.765" stroke="#492B18" stroke-width="2"/>
<path d="M670.156 304.707L667.53 311.696C667.53 311.696 674.936 319.42 676.341 325.575C677.783 331.899 677.115 336.212 674.311 342.06C672.247 346.364 670.503 348.805 666.586 351.534C661.63 354.987 651.411 355.221 651.411 355.221L648.603 363.006C648.603 363.006 662.021 362.116 668.7 357.828C675.068 353.74 678.152 349.893 681.064 342.908C683.711 336.558 683.579 332.238 682.479 325.446C680.948 315.992 670.156 304.707 670.156 304.707Z" fill="#21201D"/>
<path d="M539.793 388.618L525.883 386.589L526.075 395.707L527.822 399.318L537.038 400.617L539.978 397.404L539.793 388.618Z" fill="#373634"/>
<path d="M580.071 325.824L647.919 330.532" stroke="#513523" stroke-width="2"/>
<path d="M144.268 329H-120V614H1440V458.227C1440 458.227 1381.62 495.292 1343.72 491.285C1305.82 487.278 1193.15 458.227 1141.93 475.757C1090.72 493.288 1018.5 512.822 913.001 510.819C807.498 508.815 713.775 425.169 642.075 425.169C570.374 425.169 592.909 445.204 511.99 425.169C431.07 405.134 247.722 329 144.268 329Z" fill="#FAE3B2"/>
</svg>
