<svg width="280" height="397" viewBox="0 0 280 397" fill="none" xmlns="http://www.w3.org/2000/svg">
<ellipse cx="215.165" cy="321.078" rx="8.22116" ry="9.24439" transform="rotate(8 215.165 321.078)" fill="#FF8829"/>
<ellipse cx="211.817" cy="339.278" rx="8.22116" ry="9.24439" transform="rotate(8 211.817 339.278)" fill="#FF8829"/>
<ellipse cx="204.651" cy="356.517" rx="10.5701" ry="8.82419" transform="rotate(8 204.651 356.517)" fill="#FF8829"/>
<ellipse cx="189.716" cy="367.148" rx="8.22116" ry="7.98379" transform="rotate(8 189.716 367.148)" fill="#FF8829"/>
<ellipse cx="238.727" cy="260.316" rx="8.22116" ry="7.98379" transform="rotate(8 238.727 260.316)" fill="#FF8829"/>
<ellipse cx="285.86" cy="228.75" rx="8.22116" ry="7.98379" transform="rotate(8 285.86 228.75)" fill="#FF8829"/>
<ellipse cx="167.337" cy="250.707" rx="8.22116" ry="9.24439" transform="rotate(8 167.337 250.707)" fill="#FF8829"/>
<ellipse cx="215.179" cy="304.107" rx="8.22116" ry="9.24439" transform="rotate(8 215.179 304.107)" fill="#FF8829"/>
<ellipse cx="203.284" cy="293.1" rx="8.22116" ry="9.24439" transform="rotate(8 203.284 293.1)" fill="#FF8829"/>
<ellipse cx="276.765" cy="282.211" rx="8.22116" ry="9.24439" transform="rotate(8 276.765 282.211)" fill="#FF8829"/>
<ellipse cx="259.357" cy="282.31" rx="8.22116" ry="9.24439" transform="rotate(8 259.357 282.31)" fill="#FF8829"/>
<ellipse cx="246.452" cy="272.858" rx="8.22116" ry="9.24439" transform="rotate(8 246.452 272.858)" fill="#FF8829"/>
<ellipse cx="191.39" cy="282.093" rx="8.22116" ry="9.24439" transform="rotate(8 191.39 282.093)" fill="#FF8829"/>
<ellipse cx="186.708" cy="270.403" rx="8.22116" ry="9.24439" transform="rotate(8 186.708 270.403)" fill="#FF8829"/>
<ellipse cx="189.821" cy="253.867" rx="8.22116" ry="9.24439" transform="rotate(8 189.821 253.867)" fill="#FF8829"/>
<ellipse cx="134.048" cy="330.045" rx="8.22116" ry="9.24439" transform="rotate(8 134.048 330.045)" fill="#FF8829"/>
<ellipse cx="137.644" cy="293.21" rx="8.22116" ry="9.24439" transform="rotate(8 137.644 293.21)" fill="#FF8829"/>
<ellipse cx="158.487" cy="263.042" rx="8.22116" ry="9.24439" transform="rotate(8 158.487 263.042)" fill="#FF8829"/>
<ellipse cx="147.735" cy="277.655" rx="8.22116" ry="9.24439" transform="rotate(8 147.735 277.655)" fill="#FF8829"/>
<ellipse cx="132.087" cy="310.251" rx="8.22116" ry="9.24439" transform="rotate(8 132.087 310.251)" fill="#FF8829"/>
<ellipse cx="150.989" cy="333.275" rx="8.22116" ry="9.24439" transform="rotate(8 150.989 333.275)" fill="#FF8829"/>
<ellipse cx="129.372" cy="211.425" rx="8.22116" ry="9.24439" transform="rotate(8 129.372 211.425)" fill="#FF8829"/>
<ellipse cx="47.9815" cy="272.971" rx="8.22116" ry="9.24439" transform="rotate(8 47.9815 272.971)" fill="#FF8829"/>
<ellipse cx="116.265" cy="214.675" rx="8.22116" ry="9.24439" transform="rotate(8 116.265 214.675)" fill="#FF8829"/>
<ellipse cx="101.607" cy="217.707" rx="8.22116" ry="9.24439" transform="rotate(8 101.607 217.707)" fill="#FF8829"/>
<ellipse cx="86.2901" cy="219.797" rx="8.22116" ry="9.24439" transform="rotate(8 86.2901 219.797)" fill="#FF8829"/>
<ellipse cx="72.3643" cy="228.873" rx="8.22116" ry="9.24439" transform="rotate(8 72.3643 228.873)" fill="#FF8829"/>
<ellipse cx="58.2042" cy="239.613" rx="8.22116" ry="9.24439" transform="rotate(8 58.2042 239.613)" fill="#FF8829"/>
<ellipse cx="48.2276" cy="254.335" rx="8.22116" ry="9.24439" transform="rotate(8 48.2276 254.335)" fill="#FF8829"/>
<ellipse cx="60.6515" cy="284.086" rx="8.22116" ry="9.24439" transform="rotate(8 60.6515 284.086)" fill="#FF8829"/>
<ellipse cx="125.21" cy="128.52" rx="8.22116" ry="9.24439" transform="rotate(8 125.21 128.52)" fill="#FF8829"/>
<ellipse cx="122.636" cy="146.829" rx="8.22116" ry="9.24439" transform="rotate(8 122.636 146.829)" fill="#FF8829"/>
<ellipse cx="120.956" cy="164.415" rx="8.22116" ry="9.24439" transform="rotate(8 120.956 164.415)" fill="#FF8829"/>
<ellipse cx="131.183" cy="176.036" rx="8.22116" ry="9.24439" transform="rotate(8 131.183 176.036)" fill="#FF8829"/>
<ellipse cx="58.0753" cy="105.507" rx="8.22116" ry="9.24439" transform="rotate(8 58.0753 105.507)" fill="#FF8829"/>
<ellipse cx="119.796" cy="110.786" rx="8.22116" ry="9.24439" transform="rotate(8 119.796 110.786)" fill="#FF8829"/>
<ellipse cx="106.116" cy="101.226" rx="8.22116" ry="9.24439" transform="rotate(8 106.116 101.226)" fill="#FF8829"/>
<ellipse cx="90.0694" cy="97.2729" rx="8.22116" ry="9.24439" transform="rotate(8 90.0694 97.2729)" fill="#FF8829"/>
<ellipse cx="73.3175" cy="98.3134" rx="8.22116" ry="9.24439" transform="rotate(8 73.3175 98.3134)" fill="#FF8829"/>
<path d="M55.5504 86.9055C48.0243 92.6371 39.636 110.129 43.1251 110.619C46.6141 111.109 54.099 105.701 60.094 102.396C60.094 102.396 75.3736 97.7538 83.3026 97.5951C91.2315 97.4365 88.1518 94.0333 102.474 99.0165C116.796 104 120.959 110.95 120.959 110.95L126.059 133.732C126.059 133.732 124.985 144.189 121.16 151.714C117.335 159.238 122.697 168.903 122.697 168.903L132.478 180.886C132.478 180.886 155.052 194.666 144.255 192.725C133.459 190.783 136.209 193.716 115.487 192.076C94.7651 190.437 102.965 191.165 85.3222 192.929C67.6798 194.693 56.9136 203.788 56.9136 203.788C56.9136 203.788 38.7599 214.815 33.4645 218.738C28.1692 222.662 15.8976 248.094 15.8976 248.094C15.8976 248.094 10.2447 263 12.5057 272.228C14.7667 281.457 32.8422 296.303 32.8422 296.303C36.7022 302.574 58.779 305.845 64.6899 300.354C70.6009 294.864 84.8037 286.632 77.8255 285.652C70.8474 284.671 61.4847 283.779 61.4847 283.779C61.4847 283.779 51.7561 279.866 49.0273 273.966C46.2985 268.067 47.3143 258.026 50.0129 252.889C52.7115 247.752 64.8595 231.637 78.8224 225.113C92.7852 218.589 90.7082 222.116 105.578 220.387C120.449 218.658 136.387 214.957 136.387 214.957C136.387 214.957 156.86 212.742 164.672 213.416C172.484 214.089 136.352 234.896 132.995 239.091C129.638 243.287 118.265 259.511 115.391 265.896C112.517 272.281 104.48 287.276 103.544 293.934C102.608 300.592 106.801 318.578 111.776 328.188C116.751 337.798 121.221 348.186 132.888 352.372C144.555 356.558 154.062 345.164 154.062 345.164C154.062 345.164 162.232 334.855 164.798 325.032C167.365 315.209 148.605 333.364 140.076 332.166C131.547 330.967 133.009 320.564 133.009 320.564C133.009 320.564 132.555 306.922 136.109 298.51C139.663 290.099 139.933 290.986 147.503 279.32C155.073 267.654 156.543 271.255 166.285 258.197C176.027 245.139 185.519 228.227 184.525 235.301C183.531 242.375 188.469 249.434 186.487 255.096C184.506 260.758 185.209 278.254 188.135 279.938C191.061 281.623 200.147 290.113 203.848 291.906C207.549 293.699 216.81 300.941 215.582 309.68C214.354 318.418 216.249 324.625 212.482 331.734C208.716 338.842 208.476 348.992 203.297 352.083C198.119 355.175 191.324 366.95 180.777 368.862C170.23 370.774 183.623 373.929 186.995 375.252C190.367 376.575 196.841 378.333 205.991 377.922C215.141 377.51 232.966 366.013 233.785 360.187C234.603 354.362 240.074 349.19 241.946 335.874C243.817 322.559 242.528 309.224 241.621 304.428C240.714 299.633 227.429 281.642 227.429 281.642C227.429 281.642 220.904 271.814 221.722 265.988C222.541 260.163 223.08 239.447 225.757 237.277C228.434 235.107 232.027 255.555 236.497 262.124C240.968 268.693 243.044 268.985 245.773 274.885C248.502 280.785 258.969 282.256 258.969 282.256L288.3 281.71L304.7 283.166C313.617 285.929 314.686 286.914 318.145 294.391C321.603 301.868 318.058 306.26 316.83 314.998C315.602 323.737 317.761 339.316 312.502 345.79C307.244 352.265 298.292 370.95 298.292 370.95C298.292 370.95 285.23 390.755 296.07 386.763C306.91 382.77 313.931 377.816 318.685 372.119C323.439 366.422 334.84 338.746 334.84 338.746C334.84 338.746 346.512 311.956 347.082 302.277C347.651 292.597 346.553 283.532 339.194 274.011C331.835 264.491 316.949 260.701 308.325 257.368C299.701 254.034 296.951 251.101 288.034 249.848C279.118 248.595 267.488 246.961 265.3 242.834C263.113 238.708 279.044 243.493 285.641 235.933C292.238 228.374 289.393 223.306 294.285 213.81C299.178 204.314 307.421 199.107 310.31 198.24C313.199 197.373 315.371 195.981 316.513 199.112C317.654 202.243 322.453 213.101 326.074 218.278C329.696 223.454 339.14 243.452 343.06 238.062C346.981 232.673 345.311 210.797 342.487 202.763C339.663 194.728 331.279 181.244 331.279 181.244C331.279 181.244 322.252 172.337 314.462 168.696C306.672 165.056 303.622 172.689 299.49 176.776C295.358 180.863 288.49 187.536 286.274 194.862C284.058 202.189 281.36 207.326 275.289 211.14C269.218 214.955 263.674 215.024 259.022 214.37C254.37 213.717 248.524 201.863 248.524 201.863C248.17 191.218 245.971 194.714 250.864 185.218C255.756 175.722 264.833 170.208 276.47 163.357C288.107 156.506 295.048 154.935 303.759 146.4C312.47 137.865 321.947 115.434 321.947 115.434C321.947 115.434 331.267 94.1286 328.094 82.7762C324.922 71.4239 318.52 61.0628 311.256 53.677C303.992 46.2911 279.575 34.373 279.575 34.373C279.575 34.373 267.292 28.1611 240.807 28.9246C214.45 29.6844 202.377 38.6961 196.602 43.0062L196.519 43.0681C190.778 47.3531 179.375 52.5398 173.824 61.0949C168.273 69.65 167.747 73.395 166.343 83.3816C164.94 93.3683 166.601 101.24 167.216 108.115C167.831 114.991 167.809 117.958 169.433 123.279C171.057 128.599 173.128 133.557 171.958 141.88L171.958 141.88C170.789 150.202 170.321 153.531 172.333 158.905C174.345 164.28 178.507 171.23 177.338 179.552C176.168 187.875 158.21 172.196 158.21 172.196C158.21 172.196 150.521 162.205 149.46 155.691C148.399 149.177 152.033 137.382 152.033 137.382L155.074 115.744C155.834 110.335 152.469 100.527 152.469 100.527C152.469 100.527 144.978 86.3195 141.123 82.8074C137.268 79.2953 126.047 74.748 126.047 74.748L106.275 71.9694C106.275 71.9694 96.7372 72.3262 86.4605 75.1252C76.1839 77.9242 76.2526 77.5734 69.9594 80.0197C64.173 82.269 63.0765 81.174 55.5504 86.9055Z" fill="#D33929" stroke="#D33929" stroke-width="2"/>
<path d="M62.2079 95.9537C54.8974 100.493 41.1816 108.117 41.9607 110.455C42.7348 112.779 48.929 109.338 51.3577 107.989L51.4035 107.963C53.7991 106.633 67.4217 100.879 70.3108 100.013C73.2 99.1456 81.9716 98.6724 84.7934 98.229C87.6153 97.7855 91.1231 98.2613 94.3315 97.8721C97.5399 97.483 107.666 101.444 107.666 101.444C107.666 101.444 116.332 107.346 118.807 109.374C121.281 111.402 124.685 128.256 124.938 132.071C125.19 135.887 120.631 148.687 120.631 148.687C120.631 148.687 118.217 154.648 118.372 156.35C118.527 158.052 120.605 166.924 121.591 168.323C122.578 169.722 129.44 180.043 132.03 181.247C134.621 182.451 146.463 193.884 145.98 191.694C145.497 189.504 134.281 169.445 132.309 163.769C130.337 158.094 133.774 142.058 137.405 135.924C141.037 129.79 137.246 111.884 135.446 104.987C133.645 98.0891 119.613 91.4206 119.613 91.4206C119.613 91.4206 106.761 85.0085 94.5612 84.5397C82.3609 84.0708 69.5185 91.4146 62.2079 95.9537Z" fill="#F87EAA" stroke="#F87EAA"/>
<path d="M151.985 207.877C156.489 209.422 166.997 213.743 164.942 214.303C162.886 214.862 149.373 215.085 145.536 214.546C141.7 214.006 128.94 217.305 128.94 217.305L118.344 218.98L106.363 220.719C106.363 220.719 96.7172 221.256 92.7628 221.556C88.8084 221.856 80.8076 224.401 80.8076 224.401L62.9553 237.296L54.9591 246.869C54.9591 246.869 50.7106 254.829 49.5895 257.239C48.4684 259.648 48.4691 265.211 48.0563 268.148C47.6435 271.085 50.8903 275.82 50.8903 275.82L56.9405 280.093C56.9405 280.093 58.9476 282.514 63.1677 283.107L72.3752 284.401C72.3752 284.401 77.1955 284.708 79.7631 285.924C82.3307 287.141 67.6542 290.156 67.6542 290.156L58.3288 289.701C58.3288 289.701 51.1574 287.838 47.9405 285.674C44.7236 283.51 44.184 281.3 42.362 278.044C40.0866 273.978 39.8527 270.846 38.0815 266.746C36.3104 262.646 38.198 254.782 40.4402 249.963C42.6824 245.143 48.0819 237.345 48.0819 237.345C48.0819 237.345 57.7306 227.148 62.983 223.18C68.2354 219.212 71.2449 214.5 78.7402 211.275C86.2355 208.05 96.2394 206.461 102.289 205.171C108.338 203.882 114.074 202.977 125.258 204.121C136.443 205.265 147.481 206.332 151.985 207.877Z" fill="#F87EAA" stroke="#F87EAA"/>
<path d="M164.819 322.065C164.41 324.978 156.262 332.319 153.643 334.073C151.025 335.826 144.954 339.641 142.899 340.201C140.844 340.76 140.339 341.538 135.533 339.165C130.727 336.793 129.294 335.743 126.931 332.864C124.568 329.986 124.399 322.749 124.208 318.479C124.018 314.209 123.535 312.019 124.529 304.946C125.523 297.872 131.191 288.484 131.191 288.484C131.191 288.484 136.084 278.988 140.779 273.707C145.475 268.427 148.927 266.366 151.896 262.116C154.866 257.865 163.46 250.162 168.564 241.969C173.669 233.775 176.522 230.357 176.522 230.357C176.522 230.357 184.303 219.994 185.386 223.541C186.469 227.088 188.54 232.046 188.54 232.046L190.699 247.625L190.883 260.381C190.883 260.381 189.867 270.422 192.171 273.716C194.475 277.011 198.601 281.409 202.573 284.089C206.545 286.769 215.557 290.157 219.061 296.166C222.565 302.175 221.279 311.329 221.279 311.329L219.174 326.309C219.174 326.309 219.167 334.795 216.834 342.954C214.502 351.112 211.166 352.341 208.372 355.343C205.579 358.345 199.932 364.765 194.096 366.915C188.259 369.065 184.594 369.823 184.594 369.823C184.594 369.823 180.988 370.165 175.444 370.234C169.899 370.304 188.185 363.963 188.185 363.963C188.185 363.963 191.637 361.902 195.265 358.593C198.893 355.284 202.638 351.142 204.773 347.199C206.909 343.256 211.589 332.457 212.525 325.799L214.104 314.564C214.747 309.987 213.993 306.911 213.24 303.835L213.24 303.834C212.486 300.758 205.705 295.562 202.179 292.52C198.653 289.479 187.842 282.019 184.586 279.864C181.331 277.709 183.393 268.664 183.393 268.664C183.393 268.664 185.631 258.37 185.382 254.516C185.133 250.662 182.521 243.93 182.521 243.93C182.521 243.93 181.326 239.056 182.405 236.377C179.159 241.21 164.594 261.779 164.594 261.779L151.247 275.178L142.726 287.984L136.861 301.587C136.861 301.587 134.331 313.961 133.805 317.706C133.279 321.451 134.34 327.965 134.34 327.965C134.34 327.965 137.42 331.368 139.746 331.695C142.072 332.022 147.638 328.985 147.638 328.985L154.988 324.502C154.988 324.502 165.228 319.152 164.819 322.065Z" fill="#F87EAA" stroke="#F87EAA"/>
<path d="M240.655 256.911C239.074 254.133 229.575 238.238 226.474 237.802C223.373 237.366 232.879 258.928 234.132 261.235C235.385 263.541 243.022 276.543 245.939 278.231C248.857 279.919 252.489 282.133 256.684 283.149C260.879 284.164 281.128 283.176 285.945 282.575C290.761 281.974 310.693 286.053 312.063 287.524C313.434 288.994 319.472 293.729 318.15 300.333C316.827 306.936 314.572 325.792 314.572 325.792C314.572 325.792 313.946 341.467 312.492 343.393C311.039 345.318 300.159 363.812 299.596 365.011C299.033 366.21 292.8 377.392 292.8 377.392C292.8 377.392 291.185 386.081 291.748 384.882C292.311 383.684 308.911 368.876 311.607 363.717C314.304 358.558 320.216 338.94 321.014 336.07C321.811 333.2 326.925 316.452 328.158 307.679C329.391 298.905 332.768 291.712 319.19 281.709C305.611 271.706 285.866 271.913 285.866 271.913C285.866 271.913 256.008 271.125 252.199 270.164C248.391 269.203 242.236 259.689 240.655 256.911Z" fill="#F87EAA" stroke="#F87EAA"/>
<path d="M276.96 233.016C273.003 235.854 263.584 241.118 264.643 241.893C265.702 242.668 280.055 241.937 284.904 238.375C289.753 234.814 291.252 226.962 291.252 226.962C291.252 226.962 293.043 217.03 295.12 213.503C297.197 209.976 302.009 203.863 303.736 202.832C305.462 201.802 312.154 196.378 314.634 198.423C317.114 200.469 320.808 210.748 321.679 212.992C322.55 215.236 328.417 224.123 328.417 224.123C328.417 224.123 329.001 227.175 330.705 229.112C332.41 231.049 335.76 235.339 339.455 238.404C343.151 241.47 333.376 228.215 330.94 220.234C328.503 212.254 329.82 214.136 326.617 209.019C323.415 203.901 324.56 198.121 322.138 195.659C319.717 193.197 315.167 186.193 311.056 187.312C306.945 188.432 294.702 202.412 291.674 207.078C288.646 211.744 286.446 224.589 285.261 227.393C284.076 230.197 280.917 230.177 276.96 233.016Z" fill="#F87EAA" stroke="#F87EAA"/>
<ellipse cx="204.918" cy="62.07" rx="11.353" ry="7.14339" transform="rotate(8 204.918 62.07)" fill="#FF8829"/>
<ellipse cx="16.9682" cy="9.4487" rx="16.9682" ry="9.4487" transform="matrix(0.642684 0.766131 -0.719543 0.694448 277.34 37.8571)" fill="#FF8829"/>
<ellipse cx="12.0013" cy="8.88831" rx="12.0013" ry="8.88831" transform="matrix(0.973022 -0.230712 0.186209 0.98251 230.406 57.9236)" fill="#FF8829"/>
<ellipse cx="238.335" cy="40.8827" rx="6.26374" ry="5.88279" transform="rotate(8 238.335 40.8827)" fill="#FF8829"/>
<ellipse cx="181.909" cy="85.1448" rx="5.87226" ry="7.14339" transform="rotate(8 181.909 85.1448)" fill="#FF8829"/>
</svg>
