<svg width="47" height="51" viewBox="0 0 47 51" fill="none" xmlns="http://www.w3.org/2000/svg">
<path d="M12.6195 4.40652C12.363 2.32698 12.3756 1.23599 14.3684 0.233258C14.993 -0.0810374 16.617 -0.0275944 17.1167 0.102833C17.6163 0.233261 17.8057 0.334819 19.1154 1.40699L23.2378 6.36274C24.6022 7.79562 25.4724 8.42989 27.2353 9.23185C28.5697 9.59623 29.5043 9.46616 31.6076 8.44936C32.686 8.08719 33.5955 7.45294 36.2297 6.36274C37.8229 5.6102 38.2667 4.95045 42.2259 5.44983C43.3884 5.72111 43.8548 6.18889 43.8499 8.44936C43.6071 11.6227 42.8481 12.4136 41.4764 13.7964C39.7991 15.46 38.8887 16.4519 38.6032 20.8387C38.434 22.2549 38.5127 23.1151 40.9767 25.5337L44.5995 29.7069C46.0355 31.5926 46.2632 32.7956 46.2234 35.0539C45.8007 36.6819 45.0637 37.3526 42.7256 38.0534C41.1929 38.2893 40.2988 38.3518 37.9786 37.0101C37.9786 37.0101 35.7549 35.715 33.4814 35.0539C31.2079 34.3928 30.6036 34.2783 28.9842 35.0539C27.3649 35.8295 27.7813 38.2968 26.4858 40.5313C25.2048 42.6606 24.8124 44.3566 24.2372 47.5737C23.659 49.9152 22.9055 50.3079 21.1142 50.0516C18.8015 49.6424 18.4908 48.7474 17.8662 47.5737C17.2416 46.4 17.0225 45.1278 16.8668 42.3571L16.2422 34.0106C15.9735 31.5434 15.2569 30.7752 12.6195 30.8807C9.57185 31.0582 7.24992 30.9553 2.25096 30.4894C1.29127 30.1675 0.775303 29.8944 0.127292 28.2724C-0.0651549 27.0249 -0.159136 26.3214 0.751902 24.7512C2.22606 22.8072 3.62346 21.9478 7.12291 20.8387C9.63262 20.2833 10.8724 19.7107 12.6195 17.9696C14.9505 15.8892 14.7887 14.262 14.3684 11.3185L12.6195 4.40652Z" fill="#F87C1A"/>
<ellipse cx="1.75156" cy="26.9682" rx="0.624609" ry="0.652072" fill="#FDAA30"/>
<ellipse cx="4.24945" cy="26.7073" rx="0.874453" ry="0.912901" fill="#FDAA30"/>
<ellipse cx="6.9975" cy="26.1856" rx="0.874453" ry="0.912901" fill="#FDAA30"/>
<ellipse cx="10.4955" cy="25.4034" rx="0.874453" ry="0.912901" fill="#FDAA30"/>
<ellipse cx="22.6127" cy="30.2284" rx="0.999375" ry="1.04332" fill="#FDAA30"/>
<ellipse cx="21.6127" cy="34.4017" rx="0.999375" ry="1.04332" fill="#FDAA30"/>
<ellipse cx="21.2377" cy="37.9232" rx="0.874453" ry="0.912901" fill="#FDAA30"/>
<ellipse cx="21.1128" cy="42.2268" rx="0.749531" ry="0.782487" fill="#FDAA30"/>
<ellipse cx="20.9897" cy="45.2264" rx="0.874453" ry="0.912901" fill="#FDAA30"/>
<ellipse cx="21.113" cy="47.704" rx="0.499687" ry="0.521658" fill="#FDAA30"/>
<ellipse cx="31.8568" cy="25.7945" rx="0.999375" ry="1.04332" fill="#FDAA30"/>
<ellipse cx="34.857" cy="28.1419" rx="0.749531" ry="0.782487" fill="#FDAA30"/>
<ellipse cx="34.857" cy="28.1419" rx="0.749531" ry="0.782487" fill="#FDAA30"/>
<ellipse cx="37.603" cy="29.9675" rx="0.749531" ry="0.782487" fill="#FDAA30"/>
<ellipse cx="40.103" cy="32.0545" rx="0.749531" ry="0.782487" fill="#FDAA30"/>
<ellipse cx="42.3511" cy="34.1409" rx="0.749531" ry="0.782487" fill="#FDAA30"/>
<ellipse cx="44.0993" cy="35.9667" rx="0.499687" ry="0.521658" fill="#FDAA30"/>
<ellipse cx="30.8587" cy="17.1871" rx="0.999375" ry="1.04332" fill="#FDAA30"/>
<ellipse cx="33.1068" cy="14.8397" rx="0.999375" ry="1.04332" fill="#FDAA30"/>
<ellipse cx="35.355" cy="13.0139" rx="0.749531" ry="0.782487" fill="#FDAA30"/>
<ellipse cx="37.603" cy="11.188" rx="0.749531" ry="0.782487" fill="#FDAA30"/>
<ellipse cx="39.7281" cy="9.23166" rx="0.624609" ry="0.652072" fill="#FDAA30"/>
<ellipse cx="41.7263" cy="7.40589" rx="0.374765" ry="0.391243" fill="#FDAA30"/>
<ellipse cx="17.4915" cy="23.5773" rx="1.1243" ry="1.17373" fill="#FDAA30"/>
<ellipse cx="21.2394" cy="22.5342" rx="1.37414" ry="1.43456" fill="#FDAA30"/>
<ellipse cx="24.7374" cy="21.7517" rx="1.37414" ry="1.43456" fill="#FDAA30"/>
<ellipse cx="22.8627" cy="17.9696" rx="0.999375" ry="1.04332" fill="#FDAA30"/>
<ellipse cx="27.8607" cy="19.5345" rx="0.999375" ry="1.04332" fill="#FDAA30"/>
<ellipse cx="39.9994" cy="5.04332" rx="0.999375" ry="1.04332" fill="#FDAA30"/>
<ellipse cx="35.9994" cy="4.04332" rx="0.999375" ry="1.04332" fill="#FDAA30"/>
<ellipse cx="21.3627" cy="14.579" rx="0.999375" ry="1.04332" fill="#FDAA30"/>
<ellipse cx="19.7397" cy="11.5794" rx="0.874453" ry="0.912901" fill="#FDAA30"/>
<ellipse cx="18.1167" cy="8.31911" rx="0.749531" ry="0.782487" fill="#FDAA30"/>
<ellipse cx="16.6169" cy="4.92815" rx="0.499687" ry="0.521658" fill="#FDAA30"/>
<ellipse cx="15.3669" cy="2.32" rx="0.499687" ry="0.521658" fill="#FDAA30"/>
<ellipse cx="13.6185" cy="24.4903" rx="0.999375" ry="1.04332" fill="#FDAA30"/>
</svg>
