<svg width="98" height="107" viewBox="0 0 98 107" fill="none" xmlns="http://www.w3.org/2000/svg">
<path d="M26.7195 9.33004C26.1766 4.92697 26.2033 2.61698 30.4225 0.493883C31.7451 -0.171583 35.1836 -0.0584263 36.2416 0.217732C37.2995 0.49389 37.7005 0.708922 40.4736 2.97905L49.2021 13.472C52.0908 16.5059 53.9334 17.8488 57.6661 19.5468C60.4915 20.3184 62.4702 20.0429 66.9236 17.8901C69.2069 17.1232 71.1327 15.7803 76.7101 13.472C80.0835 11.8786 81.0232 10.4817 89.4061 11.5391C91.8675 12.1134 92.855 13.1039 92.8446 17.8901C92.3306 24.609 90.7234 26.2837 87.8191 29.2114C84.2676 32.7339 82.3402 34.834 81.7356 44.1224C81.3772 47.1208 81.544 48.9421 86.7611 54.0631L94.4316 62.8992C97.4723 66.8919 97.9542 69.4391 97.8701 74.2205C96.9749 77.6675 95.4145 79.0876 90.4641 80.5715C87.2188 81.071 85.3257 81.2032 80.4131 78.3625C80.4131 78.3625 75.7048 75.6203 70.8911 74.2205C66.0773 72.8208 64.7977 72.5783 61.3691 74.2205C57.9404 75.8628 58.8222 81.0867 56.0791 85.818C53.3668 90.3264 52.536 93.9175 51.3181 100.729C50.0938 105.687 48.4984 106.518 44.7056 105.975C39.8089 105.109 39.151 103.214 37.8285 100.729C36.5061 98.2439 36.0423 95.5502 35.7125 89.6838L34.39 72.0115C33.821 66.7877 32.3039 65.1611 26.7195 65.3844C20.2667 65.7603 15.3504 65.5425 4.76602 64.556C2.73404 63.8744 1.64157 63.2961 0.26952 59.8618C-0.137954 57.2205 -0.336943 55.7309 1.59202 52.4063C4.7133 48.2903 7.67205 46.4706 15.0815 44.1224C20.3954 42.9463 23.0204 41.734 26.7195 38.0476C31.6552 33.6426 31.3124 30.1972 30.4225 23.9649L26.7195 9.33004Z" fill="#F87C1A"/>
<ellipse cx="3.70922" cy="57.1006" rx="1.3225" ry="1.38065" fill="#FDAA30"/>
<ellipse cx="8.99799" cy="56.5484" rx="1.8515" ry="1.93291" fill="#FDAA30"/>
<ellipse cx="14.8163" cy="55.4437" rx="1.8515" ry="1.93291" fill="#FDAA30"/>
<ellipse cx="22.2226" cy="53.7872" rx="1.8515" ry="1.93291" fill="#FDAA30"/>
<ellipse cx="47.8797" cy="64.0035" rx="2.116" ry="2.20904" fill="#FDAA30"/>
<ellipse cx="45.7625" cy="72.8399" rx="2.116" ry="2.20904" fill="#FDAA30"/>
<ellipse cx="44.9706" cy="80.2957" rx="1.8515" ry="1.93291" fill="#FDAA30"/>
<ellipse cx="44.7061" cy="89.4075" rx="1.587" ry="1.65678" fill="#FDAA30"/>
<ellipse cx="44.4413" cy="95.7588" rx="1.8515" ry="1.93291" fill="#FDAA30"/>
<ellipse cx="44.7045" cy="101.005" rx="1.058" ry="1.10452" fill="#FDAA30"/>
<ellipse cx="67.4519" cy="54.6155" rx="2.116" ry="2.20904" fill="#FDAA30"/>
<ellipse cx="73.7999" cy="59.5857" rx="1.587" ry="1.65678" fill="#FDAA30"/>
<ellipse cx="73.7999" cy="59.5857" rx="1.587" ry="1.65678" fill="#FDAA30"/>
<ellipse cx="79.6202" cy="63.4512" rx="1.587" ry="1.65678" fill="#FDAA30"/>
<ellipse cx="84.9093" cy="67.8699" rx="1.587" ry="1.65678" fill="#FDAA30"/>
<ellipse cx="89.671" cy="72.2876" rx="1.587" ry="1.65678" fill="#FDAA30"/>
<ellipse cx="93.3744" cy="76.1534" rx="1.058" ry="1.10452" fill="#FDAA30"/>
<ellipse cx="65.3367" cy="36.3907" rx="2.116" ry="2.20904" fill="#FDAA30"/>
<ellipse cx="70.0984" cy="31.4205" rx="2.116" ry="2.20904" fill="#FDAA30"/>
<ellipse cx="74.8585" cy="27.5547" rx="1.587" ry="1.65678" fill="#FDAA30"/>
<ellipse cx="79.6202" cy="23.6888" rx="1.587" ry="1.65678" fill="#FDAA30"/>
<ellipse cx="84.1155" cy="19.5467" rx="1.3225" ry="1.38065" fill="#FDAA30"/>
<ellipse cx="88.3482" cy="15.6809" rx="0.793501" ry="0.82839" fill="#FDAA30"/>
<ellipse cx="37.0348" cy="49.921" rx="2.3805" ry="2.48517" fill="#FDAA30"/>
<ellipse cx="44.9701" cy="47.712" rx="2.9095" ry="3.03743" fill="#FDAA30"/>
<ellipse cx="52.3763" cy="46.0555" rx="2.9095" ry="3.03743" fill="#FDAA30"/>
<ellipse cx="48.409" cy="38.0477" rx="2.116" ry="2.20904" fill="#FDAA30"/>
<ellipse cx="58.989" cy="41.3611" rx="2.116" ry="2.20904" fill="#FDAA30"/>
<ellipse cx="60.575" cy="51.3018" rx="2.116" ry="2.20904" fill="#FDAA30"/>
<ellipse cx="49.9949" cy="54.6155" rx="2.116" ry="2.20904" fill="#FDAA30"/>
<ellipse cx="45.2351" cy="30.8682" rx="2.116" ry="2.20904" fill="#FDAA30"/>
<ellipse cx="41.7968" cy="24.5171" rx="1.8515" ry="1.93291" fill="#FDAA30"/>
<ellipse cx="38.3585" cy="17.6141" rx="1.587" ry="1.65678" fill="#FDAA30"/>
<ellipse cx="35.183" cy="10.4346" rx="1.058" ry="1.10452" fill="#FDAA30"/>
<ellipse cx="32.5385" cy="4.91214" rx="1.058" ry="1.10452" fill="#FDAA30"/>
<ellipse cx="28.8348" cy="51.8538" rx="2.116" ry="2.20904" fill="#FDAA30"/>
</svg>
