<svg width="510" height="1242" viewBox="0 0 510 1242" fill="none" xmlns="http://www.w3.org/2000/svg">
<rect x="25" y="65.1262" width="28.4939" height="1181.67" transform="rotate(-5.30423 25 65.1262)" fill="#E5C37D"/>
<path d="M74.7866 228.434C58.564 133.486 25 85.4533 25 85.4533C86.0426 54.7523 123.247 39.2243 197.855 16.197C197.855 16.197 235.894 11.1704 247.641 25.6919C259.389 40.2133 257.711 46.9156 271.696 52.5007C285.681 58.0859 305.26 52.5007 305.26 52.5007L455.738 0L510 278.142C510 278.142 347.774 347.957 317.007 348.516C286.24 349.074 298.547 319.473 281.205 313.887C263.864 308.302 246.523 313.887 228.062 313.887C209.602 313.887 74.7866 377 74.7866 377C74.7866 377 91.0092 323.382 74.7866 228.434Z" fill="black"/>
<path fill-rule="evenodd" clip-rule="evenodd" d="M367.823 134.913C363.136 133.988 359.291 131.277 356.96 127.709L333.51 145.751C336.037 152.028 337.417 158.806 337.417 165.875C337.417 180.394 331.6 193.682 321.964 203.928L345.344 223.692C347.315 216.257 355.077 211.404 363.418 212.681C372.306 214.041 378.486 221.847 377.221 230.115C375.955 238.384 367.724 243.984 358.835 242.623C357.037 242.348 355.35 241.809 353.813 241.056C354.607 242.982 355.066 245.106 355.107 247.343C355.272 256.333 348.626 263.746 340.262 263.899C331.899 264.052 324.986 256.888 324.821 247.898C324.734 243.121 326.569 238.789 329.563 235.756L306.261 216.058C305.518 216.467 304.765 216.864 304.003 217.247C304.059 217.344 304.115 217.443 304.171 217.541C309.516 227.046 309.387 237.26 303.883 240.355C298.379 243.45 289.585 238.254 284.24 228.749C283.346 227.159 282.606 225.55 282.017 223.957C281.447 224.032 280.875 224.1 280.3 224.161C280.43 225.698 280.454 227.299 280.359 228.94C279.727 239.826 274.105 248.354 267.802 247.989C261.498 247.623 256.9 238.502 257.532 227.615C257.623 226.046 257.817 224.525 258.103 223.073C257.602 222.969 257.103 222.859 256.607 222.744C256.171 225.363 255.328 228.128 254.062 230.871C249.491 240.771 241.139 246.652 235.406 244.005C229.673 241.359 228.731 231.187 233.302 221.287C234.393 218.923 235.7 216.788 237.135 214.944C236.455 214.539 235.785 214.122 235.123 213.695L211.713 233.484C214.707 236.517 216.542 240.849 216.455 245.626C216.29 254.616 209.377 261.78 201.014 261.627C192.65 261.474 186.004 254.062 186.169 245.071C186.21 242.834 186.668 240.71 187.463 238.784C185.926 239.537 184.239 240.076 182.44 240.352C173.552 241.712 165.321 236.112 164.055 227.843C162.79 219.575 168.97 211.769 177.858 210.409C186.199 209.133 193.961 213.985 195.932 221.42L220.505 200.648C212.596 190.916 207.922 178.89 207.922 165.875C207.922 158.564 209.397 151.564 212.093 145.108L186.959 123.061C184.853 130.458 177.003 135.168 168.687 133.739C159.825 132.216 153.79 124.299 155.206 116.055C156.623 107.811 164.955 102.363 173.817 103.886C175.61 104.194 177.287 104.763 178.811 105.545C178.051 103.604 177.631 101.472 177.631 99.2351C177.631 90.2431 184.412 82.9536 192.777 82.9536C201.141 82.9536 207.922 90.2431 207.922 99.2351C207.922 104.013 206.008 108.31 202.959 111.288L222.673 128.582C234.548 115.516 252.536 107.186 272.669 107.186C293.116 107.186 311.349 115.777 323.214 129.193L348.509 109.732C341.66 106.233 338.56 97.6196 341.573 89.7378C344.783 81.3385 353.72 76.9506 361.533 79.9372C369.346 82.9238 373.078 92.1539 369.867 100.553C369.217 102.252 368.334 103.787 367.272 105.13C369.323 104.761 371.496 104.762 373.691 105.196C382.512 106.937 388.35 115.002 386.73 123.208C385.11 131.414 376.645 136.655 367.823 134.913Z" fill="white"/>
<path d="M235.734 163.593C235.734 163.593 241.237 174.758 251.556 174.409C261.874 174.06 260.154 153.475 260.154 153.475C260.154 153.475 259.466 138.124 243.645 141.613C227.824 145.102 235.734 163.593 235.734 163.593Z" fill="black"/>
<path d="M305.235 165.108C305.235 165.108 299.732 176.272 289.414 175.923C279.096 175.575 280.815 154.99 280.815 154.99C280.815 154.99 281.503 139.638 297.324 143.127C313.146 146.616 305.235 165.108 305.235 165.108Z" fill="black"/>
<path d="M270.436 179.718C266.894 179.718 258.747 190.519 258.747 196.094C258.747 201.669 264.768 200.276 269.727 200.624C274.686 200.973 280.708 202.018 280.708 196.094C280.708 190.171 273.978 179.718 270.436 179.718Z" fill="black"/>
<ellipse cx="23.0852" cy="88.0306" rx="21" ry="11.5" transform="rotate(13.3259 23.0852 88.0306)" fill="black"/>
<ellipse cx="39.0905" cy="79.8677" rx="21" ry="11.5" transform="rotate(-65.8289 39.0905 79.8677)" fill="black"/>
<ellipse cx="57.2785" cy="383.191" rx="21" ry="11.5" transform="rotate(-73.7842 57.2785 383.191)" fill="black"/>
<ellipse cx="49.9327" cy="366.795" rx="21" ry="11.5" transform="rotate(-152.939 49.9327 366.795)" fill="black"/>
<path d="M51.5 359L80 344L81 338L92 368.5L74 377.5L62.5 381.5L55 377L51.5 359Z" fill="black"/>
</svg>
