<svg width="116" height="131" viewBox="0 0 116 131" fill="none" xmlns="http://www.w3.org/2000/svg">
<path d="M25.9022 34.3317C24.1835 30.5863 23.5531 28.5076 26.6256 25.0659C27.5886 23.9872 30.6142 22.8334 31.6134 22.6945C32.6127 22.5557 33.0225 22.6019 36.0792 23.6229L46.6476 29.8348C50.0211 31.4976 52.0052 32.0278 55.7354 32.1861C58.4135 31.8458 60.0583 30.8768 63.3261 27.323C65.097 25.8028 66.3936 23.897 70.596 19.7937C73.082 17.1353 73.5048 15.5411 81.1021 13.4282C83.4075 13.0442 84.5476 13.5708 85.8929 17.8613C87.3468 24.0667 86.4215 26.1533 84.7215 29.8356C82.6264 34.2868 81.5427 36.8714 83.6448 45.4112C84.1814 48.2275 84.842 49.7978 90.8331 52.4801L100.012 57.5942C103.789 60.0603 104.929 62.1658 106.209 66.479C106.405 69.8929 105.448 71.7345 101.558 74.8705C98.8744 76.5025 97.2638 77.3119 92.1829 76.5609C92.1829 76.5609 87.3079 75.8234 82.721 76.3269C78.134 76.8304 76.9514 77.0803 74.4312 79.8027C71.9109 82.5251 74.1569 86.882 73.1076 92.1208C72.0221 97.1487 72.315 100.668 73.1823 107.214C73.5195 112.101 72.3658 113.428 68.9102 114.326C64.4019 115.338 63.293 113.881 61.4384 112.138C59.5837 110.395 58.4177 108.151 56.4705 103.017L50.3182 87.6721C48.3445 83.2011 46.5634 82.298 41.7649 84.5365C36.2534 87.2286 31.9117 88.828 22.4178 91.8081C20.4558 91.9393 19.3411 91.8201 17.1747 89.245C16.0725 87.0281 15.4777 85.7666 16.2163 82.0848C17.7689 77.259 19.8298 74.5492 25.616 69.7414C29.9094 66.7484 31.8517 64.7044 34.0289 60.0524C37.0793 54.3055 35.8059 51.3448 33.2675 46.0876L25.9022 34.3317Z" fill="#D33929"/>
<ellipse cx="1.24847" cy="1.29683" rx="1.24847" ry="1.29683" transform="matrix(0.92222 -0.386666 0.301278 0.953536 17.8438 84.7632)" fill="#E5C37D"/>
<ellipse cx="1.74786" cy="1.81556" rx="1.74786" ry="1.81556" transform="matrix(0.92222 -0.386666 0.301278 0.953536 21.6758 82.0361)" fill="#E5C37D"/>
<ellipse cx="1.74786" cy="1.81556" rx="1.74786" ry="1.81556" transform="matrix(0.92222 -0.386666 0.301278 0.953536 26.4316 78.9221)" fill="#E5C37D"/>
<ellipse cx="1.74786" cy="1.81556" rx="1.74786" ry="1.81556" transform="matrix(0.92222 -0.386666 0.301278 0.953536 32.4102 74.7349)" fill="#E5C37D"/>
<ellipse cx="1.99756" cy="2.07492" rx="1.99756" ry="2.07492" transform="matrix(0.92222 -0.386666 0.301278 0.953536 57.3281 74.3701)" fill="#E5C37D"/>
<ellipse cx="1.99756" cy="2.07492" rx="1.99756" ry="2.07492" transform="matrix(0.92222 -0.386666 0.301278 0.953536 57.9863 83.0566)" fill="#E5C37D"/>
<ellipse cx="1.74786" cy="1.81556" rx="1.74786" ry="1.81556" transform="matrix(0.92222 -0.386666 0.301278 0.953536 59.7148 90.1746)" fill="#E5C37D"/>
<ellipse cx="1.49817" cy="1.55619" rx="1.49817" ry="1.55619" transform="matrix(0.92222 -0.386666 0.301278 0.953536 62.3711 98.5833)" fill="#E5C37D"/>
<ellipse cx="1.74786" cy="1.81556" rx="1.74786" ry="1.81556" transform="matrix(0.92222 -0.386666 0.301278 0.953536 63.6309 104.217)" fill="#E5C37D"/>
<ellipse cx="0.998778" cy="1.03746" rx="0.998778" ry="1.03746" transform="matrix(0.92222 -0.386666 0.301278 0.953536 66.2695 109.272)" fill="#E5C37D"/>
<ellipse cx="1.99756" cy="2.07492" rx="1.99756" ry="2.07492" transform="matrix(0.92222 -0.386666 0.301278 0.953536 71.7129 58.8164)" fill="#E5C37D"/>
<ellipse cx="1.49817" cy="1.55619" rx="1.49817" ry="1.55619" transform="matrix(0.92222 -0.386666 0.301278 0.953536 79.2617 61.2524)" fill="#E5C37D"/>
<ellipse cx="1.49817" cy="1.55619" rx="1.49817" ry="1.55619" transform="matrix(0.92222 -0.386666 0.301278 0.953536 79.2617 61.2524)" fill="#E5C37D"/>
<ellipse cx="1.49817" cy="1.55619" rx="1.49817" ry="1.55619" transform="matrix(0.92222 -0.386666 0.301278 0.953536 85.4219 62.5913)" fill="#E5C37D"/>
<ellipse cx="1.49817" cy="1.55619" rx="1.49817" ry="1.55619" transform="matrix(0.92222 -0.386666 0.301278 0.953536 91.2773 64.6169)" fill="#E5C37D"/>
<ellipse cx="1.49817" cy="1.55619" rx="1.49817" ry="1.55619" transform="matrix(0.92222 -0.386666 0.301278 0.953536 96.6738 66.8362)" fill="#E5C37D"/>
<ellipse cx="0.998778" cy="1.03746" rx="0.998778" ry="1.03746" transform="matrix(0.92222 -0.386666 0.301278 0.953536 101.607 69.248)" fill="#E5C37D"/>
<ellipse cx="1.99756" cy="2.07492" rx="1.99756" ry="2.07492" transform="matrix(0.92222 -0.386666 0.301278 0.953536 64.7129 43.2666)" fill="#E5C37D"/>
<ellipse cx="1.99756" cy="2.07492" rx="1.99756" ry="2.07492" transform="matrix(0.92222 -0.386666 0.301278 0.953536 67.4512 37.0767)" fill="#E5C37D"/>
<ellipse cx="1.49817" cy="1.55619" rx="1.49817" ry="1.55619" transform="matrix(0.92222 -0.386666 0.301278 0.953536 71.1191 32.1775)" fill="#E5C37D"/>
<ellipse cx="1.49817" cy="1.55619" rx="1.49817" ry="1.55619" transform="matrix(0.92222 -0.386666 0.301278 0.953536 74.1699 26.978)" fill="#E5C37D"/>
<ellipse cx="1.24847" cy="1.29683" rx="1.24847" ry="1.29683" transform="matrix(0.92222 -0.386666 0.301278 0.953536 77.2207 21.7773)" fill="#E5C37D"/>
<ellipse cx="0.749084" cy="0.778096" rx="0.749084" ry="0.778096" transform="matrix(0.92222 -0.386666 0.301278 0.953536 80.4277 17.0715)" fill="#E5C37D"/>
<ellipse cx="2.24725" cy="2.33429" rx="2.24725" ry="2.33429" transform="matrix(0.92222 -0.386666 0.301278 0.953536 43.5938 65.5645)" fill="#E5C37D"/>
<ellipse cx="2.74664" cy="2.85302" rx="2.74664" ry="2.85302" transform="matrix(0.92222 -0.386666 0.301278 0.953536 49.2598 60.3882)" fill="#E5C37D"/>
<ellipse cx="2.74664" cy="2.85302" rx="2.74664" ry="2.85302" transform="matrix(0.92222 -0.386666 0.301278 0.953536 55.2383 56.2009)" fill="#E5C37D"/>
<ellipse cx="1.99756" cy="2.07492" rx="1.99756" ry="2.07492" transform="matrix(0.92222 -0.386666 0.301278 0.953536 50.4434 50.9285)" fill="#E5C37D"/>
<ellipse cx="1.99756" cy="2.07492" rx="1.99756" ry="2.07492" transform="matrix(0.92222 -0.386666 0.301278 0.953536 60.5918 50.0352)" fill="#E5C37D"/>
<ellipse cx="1.99756" cy="2.07492" rx="1.99756" ry="2.07492" transform="matrix(0.92222 -0.386666 0.301278 0.953536 64.7871 58.3594)" fill="#E5C37D"/>
<ellipse cx="1.99756" cy="2.07492" rx="1.99756" ry="2.07492" transform="matrix(0.92222 -0.386666 0.301278 0.953536 56.5137 65.1885)" fill="#E5C37D"/>
<ellipse cx="1.99756" cy="2.07492" rx="1.99756" ry="2.07492" transform="matrix(0.92222 -0.386666 0.301278 0.953536 45.6484 45.6577)" fill="#E5C37D"/>
<ellipse cx="1.74786" cy="1.81556" rx="1.74786" ry="1.81556" transform="matrix(0.92222 -0.386666 0.301278 0.953536 41.168 41.3752)" fill="#E5C37D"/>
<ellipse cx="1.49817" cy="1.55619" rx="1.49817" ry="1.55619" transform="matrix(0.92222 -0.386666 0.301278 0.953536 36.5273 36.5984)" fill="#E5C37D"/>
<ellipse cx="0.998778" cy="1.03746" rx="0.998778" ry="1.03746" transform="matrix(0.92222 -0.386666 0.301278 0.953536 32.3496 31.6287)" fill="#E5C37D"/>
<ellipse cx="0.998778" cy="1.03746" rx="0.998778" ry="1.03746" transform="matrix(0.92222 -0.386666 0.301278 0.953536 28.4844 27.6472)" fill="#E5C37D"/>
<ellipse cx="1.99756" cy="2.07492" rx="1.99756" ry="2.07492" transform="matrix(0.92222 -0.386666 0.301278 0.953536 37.3105 70.4397)" fill="#E5C37D"/>
</svg>
