<svg width="245" height="123" viewBox="0 0 245 123" fill="none" xmlns="http://www.w3.org/2000/svg">
<ellipse cx="179.5" cy="50.5" rx="65.5" ry="18.5" fill="#8D743E"/>
<ellipse cx="38" cy="114.5" rx="20" ry="6.5" fill="#8D743E"/>
<path d="M110.5 0L175 19.5L183 52.6277L152 74L135 81.1277L84.5 87.5L52 78.5L46 55.5L69.5 31.5L110.5 0Z" fill="#DE8563"/>
<path d="M178 32.6277L173.5 19.1277L193 53.6277L184.5 64.1277L176 72.1277L134.5 81.1277L152.5 69.6277L173.5 53.6277L178 32.6277Z" fill="#C1623C"/>
<path d="M16.6968 94L36.448 96.5317L43.1674 116.786L31.3575 122.31L15.6787 123L2.44344 118.857L0 108.27L9.57014 97.2222L16.6968 94Z" fill="#DE8563"/>
<path d="M36.4479 96.5317L42.1493 102.286L45 112.183L43.9819 116.095L40.5203 119.778L31.3574 122.31L30.7466 114.944L32.1719 106.889L36.4479 96.5317Z" fill="#C1623C"/>
</svg>
