<svg width="340" height="191" viewBox="0 0 340 191" fill="none" xmlns="http://www.w3.org/2000/svg">
<path d="M28.3826 122.185C44.5053 116.901 70.9565 130.851 70.9565 130.851C70.9565 130.851 57.7709 152.209 40.9971 156.063C25.8597 159.542 0 151.336 0 151.336C0 151.336 13.2796 127.135 28.3826 122.185Z" fill="#1B365D"/>
<path d="M74.822 110.528L56.8555 135.772L85.2836 143.732L74.822 110.528Z" fill="#1B365D"/>
<path d="M283.097 34.8538C299.22 29.5697 325.671 43.5204 325.671 43.5204C325.671 43.5204 312.486 64.8775 295.712 68.7324C280.575 72.2112 254.715 64.0052 254.715 64.0052C254.715 64.0052 267.994 39.8037 283.097 34.8538Z" fill="#1B365D"/>
<path d="M329.537 23.1973L311.57 48.4414L339.998 56.4013L329.537 23.1973Z" fill="#1B365D"/>
<path d="M124.355 86.2522C140.478 80.9681 166.929 94.9188 166.929 94.9188C166.929 94.9188 153.744 116.276 136.97 120.131C121.832 123.61 95.9727 115.404 95.9727 115.404C95.9727 115.404 109.252 91.2021 124.355 86.2522Z" fill="#1B365D"/>
<path d="M170.795 74.5952L152.828 99.8394L181.256 107.799L170.795 74.5952Z" fill="#1B365D"/>
<path d="M124.355 155.389C140.478 150.105 166.929 164.056 166.929 164.056C166.929 164.056 153.744 185.413 136.97 189.268C121.832 192.747 95.9727 184.541 95.9727 184.541C95.9727 184.541 109.252 160.339 124.355 155.389Z" fill="#1B365D"/>
<path d="M170.795 143.732L152.828 168.977L181.256 176.936L170.795 143.732Z" fill="#1B365D"/>
<path d="M51.5799 50.3191C67.7025 45.035 94.1538 58.9857 94.1538 58.9857C94.1538 58.9857 80.9682 80.3429 64.1944 84.1977C49.057 87.6765 23.1973 79.4705 23.1973 79.4705C23.1973 79.4705 36.4769 55.269 51.5799 50.3191Z" fill="#1B365D"/>
<path d="M98.0212 38.6621L80.0547 63.9063L108.483 71.8661L98.0212 38.6621Z" fill="#1B365D"/>
<path d="M239.887 104.446C256.009 99.162 282.46 113.113 282.46 113.113C282.46 113.113 269.275 134.47 252.501 138.325C237.364 141.803 211.504 133.597 211.504 133.597C211.504 133.597 224.784 109.396 239.887 104.446Z" fill="#1B365D"/>
<path d="M286.326 92.7896L268.359 118.034L296.787 125.994L286.326 92.7896Z" fill="#1B365D"/>
<path d="M189.853 11.6565C205.976 6.37243 232.427 20.3231 232.427 20.3231C232.427 20.3231 219.242 41.6803 202.468 45.5351C187.33 49.0139 161.471 40.8079 161.471 40.8079C161.471 40.8079 174.75 16.6064 189.853 11.6565Z" fill="#1B365D"/>
<path d="M236.295 0L218.328 25.2441L246.756 33.204L236.295 0Z" fill="#1B365D"/>
</svg>
