<svg width="165" height="325" viewBox="0 0 165 325" fill="none" xmlns="http://www.w3.org/2000/svg">
<path d="M62.9023 65.0215C64.4361 43.9656 97.6556 0 97.6556 0C97.6556 0 82.1246 51.1644 89.6356 65.0215C100.413 84.9043 112.975 97.8473 117.26 120.983C123.337 153.79 86.3003 180.295 83.3979 213.718C81.0213 241.086 102.031 284.069 102.031 284.069H74.4069C74.4069 284.069 37.4667 227.434 39.2878 199.328C41.0272 172.485 79.5738 147.893 78.8624 120.983C78.319 100.431 61.41 85.5061 62.9023 65.0215Z" fill="#325442"/>
<path d="M123.372 98.598C126.217 79.7061 116.689 50.0984 116.689 50.0984C116.689 50.0984 152.53 72.8919 154.115 98.598C155.359 118.749 133.957 125.419 135.848 145.499C138.093 169.338 164.043 165.238 164.974 189.202C165.952 214.376 139.723 212.397 135.848 237.168C132.966 255.587 140.687 284.069 140.687 284.069H116.689C116.689 284.069 96.1257 255.899 98.421 237.168C101.283 213.814 124.268 212.781 123.372 189.202C122.525 166.919 99.4734 167.769 98.421 145.499C97.3967 123.823 120.155 119.964 123.372 98.598Z" fill="#336A4D"/>
<path d="M117.298 145.499C117.71 126.502 136.902 102.862 136.902 102.862C136.902 102.862 121.503 127.409 121.753 145.499C122.053 167.13 145.768 171.855 144.922 193.466C144.139 213.478 123.802 216.752 121.753 236.636C120.528 248.526 125.318 267.015 125.318 267.015C125.318 267.015 117.056 249.074 117.298 236.636C117.687 216.607 139.683 213.478 140.467 193.466C141.313 171.855 116.828 167.126 117.298 145.499Z" fill="#293122"/>
<path d="M99.3563 123.114C97.904 96.0732 74.8508 60.2246 74.8508 60.2246C74.8508 60.2246 93.5237 96.9809 94.0097 123.114C94.6372 156.858 62.3394 168.777 61.9297 202.526C61.5846 230.957 84.2074 271.811 84.2074 271.811C84.2074 271.811 64.6024 230.248 65.9397 202.526C67.5651 168.83 101.165 156.797 99.3563 123.114Z" fill="#293122"/>
<path d="M10.692 167.35C11.7285 147.032 36.9798 125.779 36.9798 125.779C36.9798 125.779 33.2205 151.751 36.9798 167.35C42.0607 188.434 66.221 189.647 65.9409 211.586C65.703 230.231 44.896 232.936 44.1087 251.559C43.5334 265.166 53.4654 284.602 53.4654 284.602H26.7314C26.7314 284.602 4.35229 265.894 4.45421 251.559C4.59633 231.569 29.8472 231.513 31.1876 211.586C32.5119 191.899 9.6863 187.065 10.692 167.35Z" fill="#336A4D"/>
<path d="M23.6136 173.213C24.0344 167.373 27.178 158.823 27.178 158.823C27.178 158.823 26.5251 167.648 27.178 173.213C29.3455 191.686 50.4488 193.465 50.347 212.119C50.246 230.604 26.129 232.05 27.178 250.492C27.7023 259.709 34.7525 272.344 34.7525 272.344C34.7525 272.344 24.9389 260.361 23.6136 250.492C21.21 232.595 45.3489 230.246 45.4458 212.119C45.5437 193.82 22.2996 191.444 23.6136 173.213Z" fill="#293122"/>
<path d="M122.981 267.372C136.601 268.814 149.44 270.746 153.539 287.97C154.925 293.794 158.38 295.736 153.539 310.082C148.698 324.428 96.8296 318.235 85.0762 310.082C73.3227 301.928 85.9293 290.864 91.2466 281.738C99.2382 268.022 109.922 265.99 122.981 267.372Z" fill="#979696"/>
<path d="M58.1733 257.995C76.7037 259.878 94.1701 262.402 99.7471 284.898C101.633 292.505 106.333 295.041 99.7471 313.778C93.1611 332.516 22.5959 324.428 6.60567 313.778C-9.38453 303.129 7.76632 288.678 15.0004 276.758C25.8726 258.844 40.4081 256.189 58.1733 257.995Z" fill="#898989"/>
</svg>
