<svg width="135" height="107" viewBox="0 0 135 107" fill="none" xmlns="http://www.w3.org/2000/svg">
<path d="M18.9701 53.8253C18.9701 53.8253 4.60981 51.6103 3.4285 50.3921C2.24718 49.1739 2.24718 44.744 2.24718 44.744L41.378 26.5444L129.164 31.6019V39.465C109.726 45.6008 96.3569 47.1246 71.6491 49.1739L78.7 55.6342C105.861 56.1282 118.332 59.4204 133.003 73.5753C133.868 77.9216 133.928 80.228 131.194 83.4687L93.6509 95.1711L18.9701 87.7141L3.4285 73.5753C0.589881 69.8091 -2.60438 68.1922 3.4285 61.6884C6.79711 58.8287 11.6377 56.9947 18.9701 53.8253Z" fill="#F4A86E"/>
<path d="M84.9404 75.1882C87.1355 70.845 76.1095 71.3064 76.1095 71.3064L57.5808 65.3981C57.5808 65.3981 48.7888 65.8076 45.5461 67.2885C42.3034 68.7695 42.7629 70.2668 46.3997 72.7224C50.0365 75.1779 61.5695 81.5126 66.4964 81.0002C71.4233 80.4879 82.7453 79.5315 84.9404 75.1882Z" fill="#F9CBA9"/>
<ellipse cx="66.7754" cy="60.8392" rx="16.0215" ry="16.4276" fill="#F2F2F2"/>
<path d="M60.7893 68.2458C54.9149 62.472 57.61 48.9897 57.61 48.9897C57.61 48.9897 46.4064 65.5554 58.2761 73.4452C70.1459 81.335 79.6232 69.0317 79.6232 69.0317C79.6232 69.0317 66.6638 74.0195 60.7893 68.2458Z" fill="#E1E1E1"/>
<path d="M133.151 81.9923C133.151 81.9923 107.063 110.19 67.5144 106.246C27.9658 102.302 21.7402 93.8732 5.86483 80.7002C1.23936 74.8045 -0.295621 71.3277 0.881185 64.4941C0.881185 64.4941 5.86483 68.5549 7.00922 70.5114C8.15361 72.468 5.56949 75.089 9.00268 77.1563C12.4359 79.2236 13.3957 78.0423 17.4933 79.2236C21.591 80.4049 20.3358 84.5026 23.5475 85.4624C26.7592 86.4222 33.9947 85.4624 36.0251 85.4624C38.0555 85.4624 36.2097 88.5633 38.9415 88.5633C41.6733 88.5633 44.3312 85.4624 47.8013 85.4624C51.2714 85.4624 55.2214 90.6306 57.4732 90.6675C59.7251 90.7044 60.7219 88.5633 64.4134 88.5633C68.105 88.5633 72.0181 89.7815 73.2363 89.7815C74.4546 89.7815 78.4415 88.5633 80.3611 88.5633C82.2807 88.5633 87.1167 89.7815 89.184 89.7815C91.2513 89.7815 92.691 86.496 96.0872 86.496C99.4835 86.496 100.665 88.5633 103.212 88.5633C105.759 88.5633 104.32 83.9119 108.048 83.9119C111.776 83.9119 113.29 86.496 115.32 86.496C117.351 86.496 114.508 84.4287 116.871 83.9119C119.234 83.3951 121.559 83.9119 123.996 83.9119C126.432 83.9119 122.999 81.3647 123.996 80.6264C124.992 79.8881 128.315 80.6264 128.315 80.6264C128.315 80.6264 131.12 73.8339 133.151 74.203C135.181 74.5722 133.151 81.9923 133.151 81.9923Z" fill="#FF715D"/>
<path d="M3.50361 47.4758C-2.50274 45.4987 14.491 5.72237 58.4714 0.518841C102.452 -4.68469 130.568 30.9375 131.786 32.1558C133.005 33.374 133.411 40.5725 129.276 39.4651C125.141 38.3577 124.145 31.4544 120.305 31.4544C116.466 31.4544 116.282 36.1427 112.442 36.1427C108.603 36.1427 104.616 31.4544 101.848 31.4544C99.0788 31.4544 94.7966 34.8875 91.7695 34.8875C88.7424 34.8875 86.3798 32.8572 83.205 32.1558C80.0302 31.4544 78.8489 37.3978 74.8251 36.1427C70.8012 34.8875 67.8111 35.6997 63.7872 34.8875C59.7634 34.0754 56.884 40.2772 54.669 40.2772C52.454 40.2773 49.9438 36.1427 45.5508 36.1427C41.1578 36.1427 42.5606 43.0828 37.577 42.6399C32.5933 42.1969 30.0092 38.6529 26.5391 39.4651C23.069 40.2772 18.7893 46.6703 16.6087 46.073C14.4282 45.4757 13.1756 43.452 10.0008 44.0057C6.82604 44.5595 9.50995 49.453 3.50361 47.4758Z" fill="#FF715D"/>
<path d="M21.7756 28.3532C14.3924 30.7897 6.16016 34.0752 6.16016 34.0752L9.66717 28.3532C9.66717 28.3532 15.869 22.5944 21.7756 21.1546C27.6821 19.7149 32.112 23.9972 35.9513 24.514C39.7905 25.0308 50.7545 17.0201 54.52 16.3187C58.2854 15.6172 72.8302 19.6042 78.1831 19.6042C83.5359 19.6042 91.5466 12.0733 99.2989 11.3719C107.051 10.6705 108.491 12.5163 108.491 12.5163C115.977 16.8112 119.097 19.4889 124.402 24.3294C124.402 24.3294 125.029 24.514 121.005 24.514C116.982 24.514 105.944 17.9429 100.037 18.0168C94.1307 18.0906 86.4891 25.2154 80.0658 24.514C73.6424 23.8126 62.0508 22.3729 54.52 22.5944C46.9891 22.8159 43.7405 30.9743 37.4279 30.7897C31.1153 30.6051 29.1588 25.9168 21.7756 28.3532Z" fill="#FF8A79"/>
<path d="M96.1245 96.131C100.554 96.131 99.5576 93.7315 104.615 93.7315C106.428 93.7315 108.015 92.1228 110.3 92.427L123.331 90.4829L118.237 93.7315C116.347 94.5462 110.091 96.5803 106.315 97.017C105.945 96.9393 105.597 96.8954 105.268 96.8794C104.367 97.0082 103.039 97.41 101.85 97.813C100.704 98.498 99.938 99.2355 99.1516 98.8003C96.3236 99.4735 90.6978 98.5489 90.4394 100.736C90.181 102.924 73.2728 103.711 68.6221 102.924C65.1374 102.334 59.9928 101.448 54.4464 100.488C48.3184 100.736 39.5545 97.9035 33.7735 96.8957C32.9614 97.5338 24.9506 95.3558 24.9506 95.3558L20.0039 92.218L33.3947 91.8949C33.5212 91.8888 33.6476 91.8857 33.7735 91.8857C37.9819 91.8857 34.1338 94.9053 45.3651 95.1712C45.3651 95.1712 47.7277 96.9063 51.0132 96.131C54.2988 95.3558 54.2988 97.017 58.2118 97.017C62.1249 97.017 61.4604 99.4904 68.6221 100.081C75.7838 100.672 69.7665 98.0876 76.0422 98.0876C82.3179 98.0876 79.8076 99.6124 83.3516 98.8003C86.8955 97.9881 87.1908 96.9801 88.6305 96.131C90.0703 95.282 91.6945 96.131 96.1245 96.131Z" fill="#FF8A79"/>
</svg>
