<svg width="293" height="475" viewBox="0 0 293 475" fill="none" xmlns="http://www.w3.org/2000/svg">
<rect y="31" width="286" height="60" rx="18" fill="#DECBA3"/>
<rect y="91" width="286" height="60" rx="18" fill="#DECBA3"/>
<rect y="150" width="286" height="60" rx="18" fill="#DECBA3"/>
<path d="M5.69024 225L5 203.995C7.57459 206.839 11.675 208.813 15.5243 208.813L274.246 208.813C275.779 209.331 282.729 202.324 283.848 201.162C283.863 201.14 283.878 201.121 283.894 201.105C284.056 200.94 284.026 200.977 283.848 201.162C282.667 202.886 281.059 225 281.059 225H5.69024Z" fill="#C7B288"/>
<path d="M9 91H276.511" stroke="#C7B288" stroke-width="3"/>
<path d="M10 151H277.511" stroke="#C7B288" stroke-width="3"/>
<path d="M170.733 31.2622H117.289L112.089 4.19474C136.794 -1.47496 150.649 -1.32101 175.356 4.19474L170.733 31.2622Z" fill="#B47D6C"/>
<path d="M117.289 31.3586L112.089 4.29116C120.713 2.22038 125.587 1.13933 134.333 0.330078L138.089 31.3586H117.289Z" fill="#A66D5C"/>
<path d="M123.044 225H148.178V443.85C136.887 443.129 130.486 442.603 119 441.539L123.044 225Z" fill="#A66D5C"/>
<path d="M68.07 72.38C68.3033 73.1267 68.7 73.71 69.26 74.13C69.82 74.55 70.415 74.76 71.045 74.76C71.045 75.18 70.975 75.5883 70.835 75.985C70.695 76.3817 70.4967 76.72 70.24 77H60.755C60.4983 76.72 60.3 76.3817 60.16 75.985C60.02 75.5883 59.95 75.18 59.95 74.76C61.28 74.76 61.945 74.2 61.945 73.08C61.945 72.6133 61.8633 72.065 61.7 71.435L61.49 70.7H53.65L53.44 71.435C53.23 72.1583 53.125 72.6717 53.125 72.975C53.125 74.165 53.8717 74.76 55.365 74.76C55.365 75.18 55.295 75.5883 55.155 75.985C55.015 76.3817 54.8167 76.72 54.56 77H46.755C46.4983 76.72 46.3 76.3817 46.16 75.985C46.02 75.5883 45.95 75.18 45.95 74.76C46.6033 74.76 47.1983 74.5733 47.735 74.2C48.2717 73.8033 48.6683 73.2317 48.925 72.485L54.665 55.545C53.7317 55.2417 52.5533 55.09 51.13 55.09C51.13 54.0867 51.41 53.2467 51.97 52.57H61.56L68.07 72.38ZM60.72 67.97L58.235 59.29C58.025 58.59 57.7567 57.995 57.43 57.505L54.42 67.97H60.72ZM89.4629 76.125C89.1363 76.545 88.6463 76.8717 87.9929 77.105C87.3396 77.3383 86.6396 77.455 85.8929 77.455C85.2163 77.455 84.5513 77.3033 83.8979 77C83.2446 76.72 82.7896 76.3233 82.5329 75.81C82.0663 76.4167 81.4829 76.8367 80.7829 77.07C80.1063 77.3267 79.2546 77.455 78.2279 77.455C76.9213 77.455 75.7196 77.1283 74.6229 76.475C73.5263 75.7983 72.6396 74.8067 71.9629 73.5C71.3096 72.17 70.9829 70.5483 70.9829 68.635C70.9829 66.3717 71.4029 64.4467 72.2429 62.86C73.1063 61.2733 74.2379 60.0833 75.6379 59.29C77.0379 58.4967 78.5779 58.1 80.2579 58.1C80.6546 58.1 81.3663 58.1467 82.3929 58.24L82.2879 56.14V54.39C82.2879 53.8067 82.1246 53.375 81.7979 53.095C81.4713 52.815 80.8529 52.675 79.9429 52.675V51.24C80.7596 50.7967 81.8213 50.4 83.1279 50.05C84.4346 49.7 85.4613 49.525 86.2079 49.525C86.7446 49.525 87.1296 49.6533 87.3629 49.91C87.6196 50.1433 87.7479 50.5517 87.7479 51.135V73.115C87.7479 74.2583 88.3079 74.935 89.4279 75.145L89.4629 76.125ZM80.6429 74.48C81.3663 74.48 81.9146 74.27 82.2879 73.85V61.6C81.7979 60.9233 81.1446 60.585 80.3279 60.585C79.3013 60.585 78.4729 61.1217 77.8429 62.195C77.2363 63.2683 76.9329 65.0067 76.9329 67.41C76.9329 69.72 77.2713 71.4817 77.9479 72.695C78.6479 73.885 79.5463 74.48 80.6429 74.48ZM98.2621 67.585L99.8721 73.71L101.482 67.585L102.847 62.825C102.94 62.4517 102.987 62.1717 102.987 61.985C102.987 61.495 102.824 61.1333 102.497 60.9C102.194 60.6433 101.75 60.515 101.167 60.515C101.167 59.5583 101.389 58.8583 101.832 58.415H108.622C109.089 58.8817 109.322 59.5817 109.322 60.515C108.739 60.515 108.295 60.655 107.992 60.935C107.689 61.215 107.432 61.6817 107.222 62.335L103.582 73.5C103.185 74.8767 102.742 75.845 102.252 76.405C101.762 76.965 101.015 77.245 100.012 77.245H96.3721L90.8421 62.335C90.5855 61.6583 90.3288 61.1917 90.0721 60.935C89.8155 60.655 89.3955 60.515 88.8121 60.515C88.8121 59.605 89.0571 58.905 89.5471 58.415H97.5271C97.7838 58.6717 97.9821 58.9983 98.1221 59.395C98.2621 59.7683 98.3321 60.1417 98.3321 60.515C97.8421 60.515 97.4455 60.655 97.1421 60.935C96.8388 61.1917 96.6871 61.5767 96.6871 62.09C96.6871 62.2533 96.7338 62.4983 96.8271 62.825L98.2621 67.585ZM119.518 73.43C120.988 73.43 122.353 72.9633 123.613 72.03C123.8 72.2167 123.963 72.4967 124.103 72.87C124.243 73.2433 124.313 73.57 124.313 73.85C124.313 74.27 124.033 74.76 123.473 75.32C122.913 75.8567 122.132 76.3233 121.128 76.72C120.148 77.1167 119.04 77.315 117.803 77.315C116.077 77.315 114.56 76.9417 113.253 76.195C111.97 75.4483 110.978 74.3633 110.278 72.94C109.578 71.5167 109.228 69.8367 109.228 67.9C109.228 65.9167 109.602 64.1783 110.348 62.685C111.118 61.1917 112.168 60.0483 113.498 59.255C114.828 58.4383 116.333 58.03 118.013 58.03C120.137 58.03 121.828 58.6483 123.088 59.885C124.348 61.1217 124.978 62.8367 124.978 65.03C124.978 66.0567 124.815 66.8733 124.488 67.48C124.162 68.0633 123.578 68.355 122.738 68.355H115.178C115.318 71.7383 116.765 73.43 119.518 73.43ZM117.803 60.445C117.08 60.445 116.473 60.8533 115.983 61.67C115.493 62.4633 115.225 63.805 115.178 65.695H118.713C119.087 65.695 119.332 65.5667 119.448 65.31C119.565 65.0533 119.623 64.6567 119.623 64.12C119.623 62.7433 119.46 61.7867 119.133 61.25C118.807 60.7133 118.363 60.445 117.803 60.445ZM146.607 76.055C146.257 76.405 145.627 76.685 144.717 76.895C143.83 77.105 142.978 77.21 142.162 77.21C141.158 77.21 140.412 77.0233 139.922 76.65C139.455 76.2767 139.222 75.6817 139.222 74.865V63.945C139.222 63.035 139.023 62.3817 138.627 61.985C138.23 61.5883 137.705 61.39 137.052 61.39C136.095 61.39 135.29 61.775 134.637 62.545V73.22C134.637 73.8967 134.777 74.3867 135.057 74.69C135.36 74.9933 135.862 75.145 136.562 75.145C136.562 75.845 136.293 76.4633 135.757 77H127.812C127.252 76.44 126.972 75.8217 126.972 75.145C127.672 75.145 128.173 74.9933 128.477 74.69C128.78 74.3867 128.932 73.8967 128.932 73.22V63C128.932 62.37 128.757 61.9267 128.407 61.67C128.057 61.39 127.45 61.25 126.587 61.25V59.675C127.333 59.255 128.383 58.87 129.737 58.52C131.113 58.17 132.152 57.995 132.852 57.995C133.388 57.995 133.797 58.17 134.077 58.52C134.38 58.8467 134.555 59.4767 134.602 60.41C135.208 59.6633 135.967 59.08 136.877 58.66C137.787 58.2167 138.813 57.995 139.957 57.995C141.637 57.995 142.873 58.4267 143.667 59.29C144.483 60.13 144.892 61.5183 144.892 63.455V73.01C144.892 74.1533 145.452 74.83 146.572 75.04L146.607 76.055ZM155.368 61.565V71.435C155.368 72.135 155.508 72.625 155.788 72.905C156.068 73.1617 156.465 73.29 156.978 73.29C157.422 73.29 157.888 73.1733 158.378 72.94C158.868 72.7067 159.253 72.415 159.533 72.065C159.767 72.2517 159.93 72.5317 160.023 72.905C160.14 73.2783 160.198 73.6167 160.198 73.92C160.198 74.4567 160.012 74.9817 159.638 75.495C159.265 76.0083 158.705 76.4283 157.958 76.755C157.212 77.0817 156.313 77.245 155.263 77.245C153.63 77.245 152.312 76.7783 151.308 75.845C150.328 74.9117 149.838 73.36 149.838 71.19V61.565H147.633V59.43C148.24 59.3367 148.823 58.9517 149.383 58.275C149.967 57.575 150.457 56.7117 150.853 55.685C151.273 54.635 151.542 53.5967 151.658 52.57C152.078 52.5 152.463 52.465 152.813 52.465C153.653 52.465 154.272 52.71 154.668 53.2C155.088 53.6667 155.298 54.1917 155.298 54.775V58.45H159.358C159.358 59.15 159.323 59.7567 159.253 60.27C159.183 60.76 159.032 61.1917 158.798 61.565H155.368ZM178.397 72.905C178.397 73.465 178.537 73.9317 178.817 74.305C179.12 74.6783 179.54 74.8883 180.077 74.935V75.915C179.703 76.335 179.12 76.6617 178.327 76.895C177.557 77.1283 176.775 77.245 175.982 77.245C175.188 77.245 174.512 77.035 173.952 76.615C173.392 76.195 173.018 75.6117 172.832 74.865C171.712 76.4517 170.113 77.245 168.037 77.245C166.403 77.245 165.132 76.7433 164.222 75.74C163.312 74.7367 162.857 73.3833 162.857 71.68V62.055C162.857 61.6583 162.705 61.3783 162.402 61.215C162.122 61.0517 161.702 60.97 161.142 60.97V59.43C161.492 59.15 162.157 58.87 163.137 58.59C164.14 58.31 165.202 58.17 166.322 58.17C166.975 58.17 167.453 58.2167 167.757 58.31C168.06 58.38 168.27 58.5433 168.387 58.8C168.503 59.0567 168.562 59.465 168.562 60.025V71.785C168.562 72.5083 168.678 73.0567 168.912 73.43C169.168 73.78 169.577 73.955 170.137 73.955C170.603 73.955 171.058 73.815 171.502 73.535C171.968 73.2317 172.365 72.87 172.692 72.45V62.055C172.692 61.3317 172.038 60.97 170.732 60.97V59.43C171.105 59.1267 171.782 58.8467 172.762 58.59C173.765 58.31 174.862 58.17 176.052 58.17C177.008 58.17 177.638 58.2867 177.942 58.52C178.245 58.73 178.397 59.2317 178.397 60.025V72.905ZM193.386 57.995C194.436 57.995 195.206 58.2633 195.696 58.8C196.186 59.3367 196.431 60.0717 196.431 61.005C196.431 62.0083 196.163 62.825 195.626 63.455C195.113 64.085 194.413 64.4 193.526 64.4C192.756 64.4 192.126 64.1783 191.636 63.735C191.169 63.2917 190.936 62.7667 190.936 62.16C190.936 61.7867 190.971 61.495 191.041 61.285C190.201 61.495 189.489 61.8567 188.906 62.37V72.87C188.906 73.4533 188.988 73.8967 189.151 74.2C189.314 74.5033 189.629 74.7367 190.096 74.9C190.586 75.04 191.309 75.11 192.266 75.11C192.266 75.53 192.219 75.8917 192.126 76.195C192.033 76.475 191.858 76.7433 191.601 77H182.256C181.719 76.4633 181.451 75.8333 181.451 75.11C182.128 75.11 182.606 74.97 182.886 74.69C183.189 74.3867 183.341 73.885 183.341 73.185V63.07C183.341 62.44 183.166 61.9967 182.816 61.74C182.489 61.4833 181.894 61.355 181.031 61.355V59.78C181.801 59.3367 182.816 58.9517 184.076 58.625C185.359 58.275 186.351 58.1 187.051 58.1C187.611 58.1 188.008 58.2983 188.241 58.695C188.474 59.0917 188.591 59.885 188.591 61.075C189.011 60.2817 189.676 59.57 190.586 58.94C191.496 58.31 192.429 57.995 193.386 57.995ZM207.463 73.43C208.933 73.43 210.298 72.9633 211.558 72.03C211.744 72.2167 211.908 72.4967 212.048 72.87C212.188 73.2433 212.258 73.57 212.258 73.85C212.258 74.27 211.978 74.76 211.418 75.32C210.858 75.8567 210.076 76.3233 209.073 76.72C208.093 77.1167 206.984 77.315 205.748 77.315C204.021 77.315 202.504 76.9417 201.198 76.195C199.914 75.4483 198.923 74.3633 198.223 72.94C197.523 71.5167 197.173 69.8367 197.173 67.9C197.173 65.9167 197.546 64.1783 198.293 62.685C199.063 61.1917 200.113 60.0483 201.443 59.255C202.773 58.4383 204.278 58.03 205.958 58.03C208.081 58.03 209.773 58.6483 211.033 59.885C212.293 61.1217 212.923 62.8367 212.923 65.03C212.923 66.0567 212.759 66.8733 212.433 67.48C212.106 68.0633 211.523 68.355 210.683 68.355H203.123C203.263 71.7383 204.709 73.43 207.463 73.43ZM205.748 60.445C205.024 60.445 204.418 60.8533 203.928 61.67C203.438 62.4633 203.169 63.805 203.123 65.695H206.658C207.031 65.695 207.276 65.5667 207.393 65.31C207.509 65.0533 207.568 64.6567 207.568 64.12C207.568 62.7433 207.404 61.7867 207.078 61.25C206.751 60.7133 206.308 60.445 205.748 60.445ZM228.581 73.99C228.581 75.0167 228.254 75.8567 227.601 76.51C226.948 77.14 226.096 77.455 225.046 77.455C223.973 77.455 223.109 77.14 222.456 76.51C221.803 75.8567 221.476 75.0167 221.476 73.99C221.476 72.94 221.803 72.1 222.456 71.47C223.109 70.84 223.973 70.525 225.046 70.525C226.096 70.525 226.948 70.84 227.601 71.47C228.254 72.1 228.581 72.94 228.581 73.99ZM237.639 73.99C237.639 75.0167 237.312 75.8567 236.659 76.51C236.005 77.14 235.154 77.455 234.104 77.455C233.03 77.455 232.167 77.14 231.514 76.51C230.86 75.8567 230.534 75.0167 230.534 73.99C230.534 72.94 230.86 72.1 231.514 71.47C232.167 70.84 233.03 70.525 234.104 70.525C235.154 70.525 236.005 70.84 236.659 71.47C237.312 72.1 237.639 72.94 237.639 73.99ZM246.696 73.99C246.696 75.0167 246.37 75.8567 245.716 76.51C245.063 77.14 244.211 77.455 243.161 77.455C242.088 77.455 241.225 77.14 240.571 76.51C239.918 75.8567 239.591 75.0167 239.591 73.99C239.591 72.94 239.918 72.1 240.571 71.47C241.225 70.84 242.088 70.525 243.161 70.525C244.211 70.525 245.063 70.84 245.716 71.47C246.37 72.1 246.696 72.94 246.696 73.99Z" fill="black"/>
<path d="M58.55 132.35C51.9 132.35 48.575 128.243 48.575 120.03C48.575 115.527 49.45 112.272 51.2 110.265C52.95 108.235 55.4233 107.22 58.62 107.22C61.84 107.22 64.3133 108.235 66.04 110.265C67.7667 112.272 68.63 115.538 68.63 120.065C68.63 128.255 65.27 132.35 58.55 132.35ZM58.55 129.9C59.32 129.9 59.985 129.643 60.545 129.13C61.105 128.593 61.5483 127.602 61.875 126.155C62.2017 124.708 62.365 122.655 62.365 119.995C62.365 117.148 62.2017 114.978 61.875 113.485C61.5483 111.968 61.1167 110.953 60.58 110.44C60.0433 109.927 59.39 109.67 58.62 109.67C57.85 109.67 57.185 109.927 56.625 110.44C56.0883 110.953 55.645 111.98 55.295 113.52C54.9683 115.037 54.805 117.23 54.805 120.1C54.805 122.713 54.9683 124.743 55.295 126.19C55.6217 127.637 56.0533 128.617 56.59 129.13C57.15 129.643 57.8033 129.9 58.55 129.9ZM77.6094 128.99C77.6094 130.017 77.2827 130.857 76.6294 131.51C75.9761 132.14 75.1244 132.455 74.0744 132.455C73.0011 132.455 72.1377 132.14 71.4844 131.51C70.8311 130.857 70.5044 130.017 70.5044 128.99C70.5044 127.94 70.8311 127.1 71.4844 126.47C72.1377 125.84 73.0011 125.525 74.0744 125.525C75.1244 125.525 75.9761 125.84 76.6294 126.47C77.2827 127.1 77.6094 127.94 77.6094 128.99ZM90.097 116.6C91.777 116.6 93.2237 116.927 94.437 117.58C95.6737 118.21 96.6187 119.085 97.272 120.205C97.9487 121.325 98.287 122.608 98.287 124.055C98.287 125.525 97.8904 126.89 97.097 128.15C96.3037 129.387 95.137 130.39 93.597 131.16C92.0804 131.907 90.272 132.28 88.172 132.28C86.562 132.28 85.127 132.07 83.867 131.65C82.6304 131.207 81.6737 130.612 80.997 129.865C80.3204 129.095 79.982 128.22 79.982 127.24C79.982 126.283 80.262 125.525 80.822 124.965C81.4054 124.405 82.1287 124.125 82.992 124.125C83.8087 124.125 84.4737 124.37 84.987 124.86C85.5237 125.35 85.792 125.968 85.792 126.715C85.792 127.158 85.6754 127.555 85.442 127.905C85.2087 128.232 84.8354 128.547 84.322 128.85C85.0687 129.177 85.932 129.34 86.912 129.34C88.452 129.34 89.6654 128.885 90.552 127.975C91.4387 127.042 91.882 125.887 91.882 124.51C91.882 122.923 91.427 121.733 90.517 120.94C89.6304 120.123 88.382 119.715 86.772 119.715C86.0954 119.715 85.3954 119.785 84.672 119.925C83.9487 120.065 83.3304 120.252 82.817 120.485L81.452 118.91L82.642 107.57H90.342C91.6487 107.57 92.7337 107.488 93.597 107.325C94.4604 107.162 95.172 106.893 95.732 106.52H96.537C96.8404 106.753 97.0854 107.115 97.272 107.605C97.4587 108.095 97.552 108.62 97.552 109.18C97.552 110.207 97.1787 111 96.432 111.56C95.7087 112.12 94.787 112.4 93.667 112.4C92.897 112.4 92.1737 112.307 91.497 112.12C90.8437 111.933 90.0854 111.653 89.222 111.28C87.962 110.743 86.9237 110.428 86.107 110.335L85.267 117.755C86.9937 116.985 88.6037 116.6 90.097 116.6ZM135.666 128.22C135.666 129.223 136.238 129.83 137.381 130.04V131.055C136.494 131.825 135.059 132.21 133.076 132.21C132.096 132.21 131.326 132.082 130.766 131.825C130.206 131.545 129.926 131.067 129.926 130.39V118.735C129.926 117.988 129.716 117.417 129.296 117.02C128.899 116.6 128.363 116.39 127.686 116.39C126.846 116.39 126.123 116.67 125.516 117.23C125.539 117.347 125.551 117.522 125.551 117.755V128.22C125.551 128.897 125.691 129.387 125.971 129.69C126.251 129.97 126.694 130.11 127.301 130.11C127.301 130.81 127.021 131.44 126.461 132H119.006C118.469 131.417 118.201 130.787 118.201 130.11C118.784 130.11 119.204 129.97 119.461 129.69C119.718 129.387 119.846 128.897 119.846 128.22V118.735C119.846 118.012 119.636 117.44 119.216 117.02C118.796 116.6 118.271 116.39 117.641 116.39C117.174 116.39 116.708 116.507 116.241 116.74C115.774 116.95 115.389 117.242 115.086 117.615V128.22C115.086 128.897 115.203 129.387 115.436 129.69C115.693 129.97 116.113 130.11 116.696 130.11C116.696 130.833 116.416 131.463 115.856 132H108.261C107.701 131.44 107.421 130.81 107.421 130.11C108.121 130.11 108.623 129.97 108.926 129.69C109.229 129.387 109.381 128.897 109.381 128.22V117.965C109.381 117.335 109.206 116.892 108.856 116.635C108.506 116.355 107.899 116.215 107.036 116.215V114.675C107.783 114.232 108.833 113.835 110.186 113.485C111.563 113.135 112.601 112.96 113.301 112.96C113.814 112.96 114.211 113.123 114.491 113.45C114.794 113.753 114.993 114.337 115.086 115.2C115.693 114.5 116.463 113.952 117.396 113.555C118.329 113.158 119.368 112.96 120.511 112.96C122.844 112.96 124.361 113.742 125.061 115.305C125.668 114.558 126.449 113.987 127.406 113.59C128.386 113.17 129.471 112.96 130.661 112.96C132.318 112.96 133.566 113.368 134.406 114.185C135.246 115.002 135.666 116.192 135.666 117.755V128.22ZM147.015 107.255C147.015 108.258 146.7 109.063 146.07 109.67C145.463 110.253 144.646 110.545 143.62 110.545C142.616 110.545 141.811 110.253 141.205 109.67C140.621 109.063 140.33 108.258 140.33 107.255C140.33 106.275 140.633 105.482 141.24 104.875C141.87 104.268 142.686 103.965 143.69 103.965C144.693 103.965 145.498 104.268 146.105 104.875C146.711 105.482 147.015 106.275 147.015 107.255ZM146.35 128.22C146.35 128.897 146.513 129.387 146.84 129.69C147.19 129.97 147.715 130.11 148.415 130.11C148.415 130.833 148.146 131.463 147.61 132H139.7C139.163 131.463 138.895 130.833 138.895 130.11C139.595 130.11 140.096 129.97 140.4 129.69C140.726 129.387 140.89 128.885 140.89 128.185V118.035C140.89 117.382 140.726 116.915 140.4 116.635C140.096 116.355 139.49 116.215 138.58 116.215V114.675C139.14 114.325 140.085 113.963 141.415 113.59C142.768 113.193 143.911 112.995 144.845 112.995C145.381 112.995 145.766 113.123 146 113.38C146.233 113.613 146.35 114.022 146.35 114.605V128.22Z" fill="black"/>
<path d="M47.77 187.065C47.77 185.502 48.2833 184.265 49.31 183.355C50.3367 182.445 51.8533 181.99 53.86 181.99C54.56 181.99 55.2717 182.06 55.995 182.2C56.7417 182.34 57.3483 182.527 57.815 182.76V178.105C57.815 177.172 57.5817 176.507 57.115 176.11C56.6483 175.69 56.0183 175.48 55.225 175.48C54.455 175.48 53.825 175.667 53.335 176.04C53.7783 176.18 54.105 176.425 54.315 176.775C54.5483 177.102 54.665 177.475 54.665 177.895C54.665 178.642 54.3967 179.248 53.86 179.715C53.3233 180.182 52.6467 180.415 51.83 180.415C50.9433 180.415 50.2317 180.158 49.695 179.645C49.1583 179.132 48.89 178.467 48.89 177.65C48.89 176.833 49.17 176.063 49.73 175.34C50.29 174.617 51.1417 174.033 52.285 173.59C53.4517 173.147 54.8867 172.925 56.59 172.925C58.9 172.925 60.65 173.403 61.84 174.36C63.03 175.293 63.625 176.67 63.625 178.49V187.765C63.625 188.885 64.1617 189.562 65.235 189.795V190.915C64.9317 191.335 64.43 191.662 63.73 191.895C63.03 192.128 62.3183 192.245 61.595 192.245C60.0083 192.245 58.8883 191.697 58.235 190.6C57.6983 191.067 57.045 191.463 56.275 191.79C55.505 192.093 54.63 192.245 53.65 192.245C51.9 192.245 50.4767 191.767 49.38 190.81C48.3067 189.83 47.77 188.582 47.77 187.065ZM57.815 185.455C57.5583 185.292 57.2433 185.152 56.87 185.035C56.52 184.918 56.1817 184.86 55.855 184.86C55.2017 184.86 54.665 185.07 54.245 185.49C53.825 185.887 53.615 186.47 53.615 187.24C53.615 187.87 53.825 188.395 54.245 188.815C54.665 189.212 55.225 189.41 55.925 189.41C56.275 189.41 56.6133 189.363 56.94 189.27C57.29 189.153 57.5817 189.013 57.815 188.85V185.455ZM86.0329 191.055C85.1929 191.825 83.9096 192.21 82.1829 192.21C79.8263 192.21 78.6479 191.475 78.6479 190.005V178.735C78.6479 177.988 78.4379 177.417 78.0179 177.02C77.6213 176.6 77.0729 176.39 76.3729 176.39C75.9063 176.39 75.4163 176.542 74.9029 176.845C74.4129 177.148 74.0513 177.533 73.8179 178V188.22C73.8179 188.897 73.9579 189.387 74.2379 189.69C74.5413 189.97 75.0429 190.11 75.7429 190.11C75.7429 190.833 75.4746 191.463 74.9379 192H67.2029C66.6663 191.463 66.3979 190.833 66.3979 190.11C67.0979 190.11 67.5879 189.97 67.8679 189.69C68.1713 189.387 68.3229 188.897 68.3229 188.22V169.25C68.3229 168.667 68.1596 168.235 67.8329 167.955C67.5063 167.675 66.8879 167.535 65.9779 167.535V166.1C66.8179 165.657 67.8796 165.272 69.1629 164.945C70.4696 164.595 71.5196 164.42 72.3129 164.42C72.8496 164.42 73.2346 164.548 73.4679 164.805C73.7013 165.038 73.8179 165.447 73.8179 166.03V172.925L73.7479 175.725C74.3779 174.908 75.1713 174.243 76.1279 173.73C77.1079 173.217 78.1813 172.96 79.3479 172.96C80.9813 172.96 82.2179 173.403 83.0579 174.29C83.8979 175.153 84.3179 176.437 84.3179 178.14V187.94C84.3179 188.523 84.4579 188.99 84.7379 189.34C85.0413 189.69 85.4613 189.923 85.9979 190.04L86.0329 191.055ZM97.8826 188.43C99.3526 188.43 100.718 187.963 101.978 187.03C102.164 187.217 102.328 187.497 102.468 187.87C102.608 188.243 102.678 188.57 102.678 188.85C102.678 189.27 102.398 189.76 101.838 190.32C101.278 190.857 100.496 191.323 99.4926 191.72C98.5126 192.117 97.4043 192.315 96.1676 192.315C94.441 192.315 92.9243 191.942 91.6176 191.195C90.3343 190.448 89.3426 189.363 88.6426 187.94C87.9426 186.517 87.5926 184.837 87.5926 182.9C87.5926 180.917 87.966 179.178 88.7126 177.685C89.4826 176.192 90.5326 175.048 91.8626 174.255C93.1926 173.438 94.6976 173.03 96.3776 173.03C98.501 173.03 100.193 173.648 101.453 174.885C102.713 176.122 103.343 177.837 103.343 180.03C103.343 181.057 103.179 181.873 102.853 182.48C102.526 183.063 101.943 183.355 101.103 183.355H93.5426C93.6826 186.738 95.1293 188.43 97.8826 188.43ZM96.1676 175.445C95.4443 175.445 94.8376 175.853 94.3476 176.67C93.8576 177.463 93.5893 178.805 93.5426 180.695H97.0776C97.451 180.695 97.696 180.567 97.8126 180.31C97.9293 180.053 97.9876 179.657 97.9876 179.12C97.9876 177.743 97.8243 176.787 97.4976 176.25C97.171 175.713 96.7276 175.445 96.1676 175.445ZM105.021 187.065C105.021 185.502 105.534 184.265 106.561 183.355C107.588 182.445 109.104 181.99 111.111 181.99C111.811 181.99 112.523 182.06 113.246 182.2C113.993 182.34 114.599 182.527 115.066 182.76V178.105C115.066 177.172 114.833 176.507 114.366 176.11C113.899 175.69 113.269 175.48 112.476 175.48C111.706 175.48 111.076 175.667 110.586 176.04C111.029 176.18 111.356 176.425 111.566 176.775C111.799 177.102 111.916 177.475 111.916 177.895C111.916 178.642 111.648 179.248 111.111 179.715C110.574 180.182 109.898 180.415 109.081 180.415C108.194 180.415 107.483 180.158 106.946 179.645C106.409 179.132 106.141 178.467 106.141 177.65C106.141 176.833 106.421 176.063 106.981 175.34C107.541 174.617 108.393 174.033 109.536 173.59C110.703 173.147 112.138 172.925 113.841 172.925C116.151 172.925 117.901 173.403 119.091 174.36C120.281 175.293 120.876 176.67 120.876 178.49V187.765C120.876 188.885 121.413 189.562 122.486 189.795V190.915C122.183 191.335 121.681 191.662 120.981 191.895C120.281 192.128 119.569 192.245 118.846 192.245C117.259 192.245 116.139 191.697 115.486 190.6C114.949 191.067 114.296 191.463 113.526 191.79C112.756 192.093 111.881 192.245 110.901 192.245C109.151 192.245 107.728 191.767 106.631 190.81C105.558 189.83 105.021 188.582 105.021 187.065ZM115.066 185.455C114.809 185.292 114.494 185.152 114.121 185.035C113.771 184.918 113.433 184.86 113.106 184.86C112.453 184.86 111.916 185.07 111.496 185.49C111.076 185.887 110.866 186.47 110.866 187.24C110.866 187.87 111.076 188.395 111.496 188.815C111.916 189.212 112.476 189.41 113.176 189.41C113.526 189.41 113.864 189.363 114.191 189.27C114.541 189.153 114.833 189.013 115.066 188.85V185.455ZM142.51 191.125C142.183 191.545 141.693 191.872 141.04 192.105C140.386 192.338 139.686 192.455 138.94 192.455C138.263 192.455 137.598 192.303 136.945 192C136.291 191.72 135.836 191.323 135.58 190.81C135.113 191.417 134.53 191.837 133.83 192.07C133.153 192.327 132.301 192.455 131.275 192.455C129.968 192.455 128.766 192.128 127.67 191.475C126.573 190.798 125.686 189.807 125.01 188.5C124.356 187.17 124.03 185.548 124.03 183.635C124.03 181.372 124.45 179.447 125.29 177.86C126.153 176.273 127.285 175.083 128.685 174.29C130.085 173.497 131.625 173.1 133.305 173.1C133.701 173.1 134.413 173.147 135.44 173.24L135.335 171.14V169.39C135.335 168.807 135.171 168.375 134.845 168.095C134.518 167.815 133.9 167.675 132.99 167.675V166.24C133.806 165.797 134.868 165.4 136.175 165.05C137.481 164.7 138.508 164.525 139.255 164.525C139.791 164.525 140.176 164.653 140.41 164.91C140.666 165.143 140.795 165.552 140.795 166.135V188.115C140.795 189.258 141.355 189.935 142.475 190.145L142.51 191.125ZM133.69 189.48C134.413 189.48 134.961 189.27 135.335 188.85V176.6C134.845 175.923 134.191 175.585 133.375 175.585C132.348 175.585 131.52 176.122 130.89 177.195C130.283 178.268 129.98 180.007 129.98 182.41C129.98 184.72 130.318 186.482 130.995 187.695C131.695 188.885 132.593 189.48 133.69 189.48Z" fill="black"/>
<rect x="170" y="107" width="78" height="33" fill="#634C1B"/>
<path d="M264.452 123.702L243.841 146.515L244.166 100.6L264.452 123.702Z" fill="#634C1B"/>
<path d="M293 371.033C293 383.497 214.118 439 172.159 439C130.2 439 126.153 428.242 126.153 415.778C126.153 403.314 120.888 421.481 172.159 393.865C286.409 322.938 293 358.57 293 371.033Z" fill="#8D743E"/>
<path d="M119 441.539L123.064 225H172.698L180.244 441.539C156.318 444.589 142.935 444.585 119 441.539Z" fill="#B47D6C"/>
</svg>
