<svg width="144" height="130" viewBox="0 0 144 130" fill="none" xmlns="http://www.w3.org/2000/svg">
<ellipse cx="72.0523" cy="51.6988" rx="48.0356" ry="45.5332" transform="rotate(-5.60959 72.0523 51.6988)" fill="#FDFAFA"/>
<path d="M121.169 82.6847C124.719 78.4642 127.897 62.0793 128.209 54.3602C128.521 46.6412 140.551 60.4881 137.899 70.5432C135.246 80.5983 117.619 86.9052 121.169 82.6847Z" fill="#FDFAFA"/>
<path d="M50.0623 105.207C58.2717 107.221 89.7818 103.888 104.586 101.072C119.39 98.2554 93.2616 116.547 73.9006 117.854C54.5396 119.161 41.853 103.192 50.0623 105.207Z" fill="#FDFAFA"/>
<path d="M16.1712 44.9696C16.1796 39.5971 24.5326 24.8955 29.3977 18.6575C34.2628 12.4195 15.6572 16.3013 11.0819 25.7309C6.50656 35.1604 16.1629 50.3421 16.1712 44.9696Z" fill="#FDFAFA"/>
</svg>
