<svg width="150" height="62" viewBox="0 0 150 62" fill="none" xmlns="http://www.w3.org/2000/svg">
<g filter="url(#filter0_d_232_1682)">
<rect x="4" y="4" width="141.136" height="54" rx="27" fill="#121212" fill-opacity="0.45" shape-rendering="crispEdges"/>
<rect x="4.5" y="4.5" width="140.136" height="53" rx="26.5" stroke="#395885" shape-rendering="crispEdges"/>
</g>
<path d="M105.497 25.2726C108.195 25.2726 110.402 27.4816 110.402 30.1816C110.402 32.8816 108.195 35.0907 105.497 35.0907C102.798 35.0907 100.591 32.8816 100.591 30.1816C100.591 27.4816 102.798 25.2726 105.497 25.2726ZM105.497 21.9998C100.983 21.9998 97.3204 25.6653 97.3204 30.1816C97.3204 34.698 100.983 38.3635 105.497 38.3635C110.01 38.3635 113.673 34.698 113.673 30.1816C113.673 25.6653 110.01 21.9998 105.497 21.9998ZM89.1443 31.818H92.4147C93.3141 31.818 94.05 31.0816 94.05 30.1816C94.05 29.2816 93.3141 28.5453 92.4147 28.5453H89.1443C88.2449 28.5453 87.509 29.2816 87.509 30.1816C87.509 31.0816 88.2449 31.818 89.1443 31.818ZM118.578 31.818H121.849C122.748 31.818 123.484 31.0816 123.484 30.1816C123.484 29.2816 122.748 28.5453 121.849 28.5453H118.578C117.679 28.5453 116.943 29.2816 116.943 30.1816C116.943 31.0816 117.679 31.818 118.578 31.818ZM103.861 13.818V17.0907C103.861 17.9907 104.597 18.7271 105.497 18.7271C106.396 18.7271 107.132 17.9907 107.132 17.0907V13.818C107.132 12.918 106.396 12.1816 105.497 12.1816C104.597 12.1816 103.861 12.918 103.861 13.818ZM103.861 43.2726V46.5453C103.861 47.4453 104.597 48.1816 105.497 48.1816C106.396 48.1816 107.132 47.4453 107.132 46.5453V43.2726C107.132 42.3726 106.396 41.6362 105.497 41.6362C104.597 41.6362 103.861 42.3726 103.861 43.2726ZM95.6688 18.0398C95.0311 17.4016 93.9846 17.4016 93.3632 18.0398C92.7254 18.678 92.7254 19.7253 93.3632 20.3471L95.0965 22.0816C95.7342 22.7198 96.7808 22.7198 97.4022 22.0816C98.0236 21.4435 98.0399 20.3962 97.4022 19.7744L95.6688 18.0398ZM115.897 38.2816C115.259 37.6435 114.212 37.6435 113.591 38.2816C112.953 38.9198 112.953 39.9671 113.591 40.5889L115.324 42.3235C115.962 42.9616 117.009 42.9616 117.63 42.3235C118.268 41.6853 118.268 40.638 117.63 40.0162L115.897 38.2816ZM117.63 20.3471C118.268 19.7089 118.268 18.6616 117.63 18.0398C116.992 17.4016 115.946 17.4016 115.324 18.0398L113.591 19.7744C112.953 20.4126 112.953 21.4598 113.591 22.0816C114.229 22.7035 115.275 22.7198 115.897 22.0816L117.63 20.3471ZM97.4022 40.5889C98.0399 39.9507 98.0399 38.9035 97.4022 38.2816C96.7644 37.6435 95.7179 37.6435 95.0965 38.2816L93.3632 40.0162C92.7254 40.6544 92.7254 41.7016 93.3632 42.3235C94.0009 42.9453 95.0475 42.9616 95.6688 42.3235L97.4022 40.5889Z" fill="#9D8E68"/>
<g filter="url(#filter1_d_232_1682)">
<path d="M32.5164 19.5619C32.2221 20.6091 32.0749 21.7055 32.0749 22.8182C32.0749 29.4946 37.5039 34.9273 44.1756 34.9273C45.2875 34.9273 46.3831 34.78 47.4297 34.4855C45.729 38.6746 41.6083 41.6364 36.8171 41.6364C30.5051 41.6364 25.3705 36.4982 25.3705 30.1819C25.3705 25.3873 28.3303 21.2637 32.5164 19.5619ZM36.8171 15.4546C28.69 15.4546 22.1001 22.0491 22.1001 30.1819C22.1001 38.3146 28.69 44.9091 36.8171 44.9091C44.9441 44.9091 51.5341 38.3146 51.5341 30.1819C51.5341 29.4291 51.4686 28.6764 51.3705 27.9564C49.768 30.1982 47.1517 31.6546 44.1756 31.6546C39.3026 31.6546 35.3454 27.6946 35.3454 22.8182C35.3454 19.8564 36.8007 17.2219 39.041 15.6182C38.3215 15.52 37.5693 15.4546 36.8171 15.4546Z" fill="#395885"/>
</g>
<defs>
<filter id="filter0_d_232_1682" x="0" y="0" width="149.136" height="62" filterUnits="userSpaceOnUse" color-interpolation-filters="sRGB">
<feFlood flood-opacity="0" result="BackgroundImageFix"/>
<feColorMatrix in="SourceAlpha" type="matrix" values="0 0 0 0 0 0 0 0 0 0 0 0 0 0 0 0 0 0 127 0" result="hardAlpha"/>
<feOffset/>
<feGaussianBlur stdDeviation="2"/>
<feComposite in2="hardAlpha" operator="out"/>
<feColorMatrix type="matrix" values="0 0 0 0 0.262745 0 0 0 0 0.399059 0 0 0 0 0.882353 0 0 0 1 0"/>
<feBlend mode="normal" in2="BackgroundImageFix" result="effect1_dropShadow_232_1682"/>
<feBlend mode="normal" in="SourceGraphic" in2="effect1_dropShadow_232_1682" result="shape"/>
</filter>
<filter id="filter1_d_232_1682" x="14.1001" y="7.45459" width="45.434" height="45.4546" filterUnits="userSpaceOnUse" color-interpolation-filters="sRGB">
<feFlood flood-opacity="0" result="BackgroundImageFix"/>
<feColorMatrix in="SourceAlpha" type="matrix" values="0 0 0 0 0 0 0 0 0 0 0 0 0 0 0 0 0 0 127 0" result="hardAlpha"/>
<feOffset/>
<feGaussianBlur stdDeviation="4"/>
<feComposite in2="hardAlpha" operator="out"/>
<feColorMatrix type="matrix" values="0 0 0 0 1 0 0 0 0 1 0 0 0 0 1 0 0 0 1 0"/>
<feBlend mode="normal" in2="BackgroundImageFix" result="effect1_dropShadow_232_1682"/>
<feBlend mode="normal" in="SourceGraphic" in2="effect1_dropShadow_232_1682" result="shape"/>
</filter>
</defs>
</svg>
