<svg width="170" height="100" viewBox="0 0 170 100" fill="none" xmlns="http://www.w3.org/2000/svg">
<g filter="url(#filter0_d_454_1340)">
<rect x="25" y="25" width="120" height="50" rx="25" fill="url(#paint0_diamond_454_1340)" shape-rendering="crispEdges"/>
</g>
<g filter="url(#filter1_d_454_1340)">
<circle cx="55" cy="50" r="21" fill="#BBA86F"/>
</g>
<path fill-rule="evenodd" clip-rule="evenodd" d="M74.2634 50.9429C74.2735 50.6847 74.2787 50.4253 74.2787 50.1647C74.2787 39.4266 65.5737 30.7217 54.8356 30.7217C44.0975 30.7217 35.3926 39.4266 35.3926 50.1647C35.3926 50.4253 35.3977 50.6847 35.4079 50.9429H74.2634ZM35.4703 51.915C35.5836 53.1852 35.8191 54.4203 36.1649 55.6084H73.5063C73.8521 54.4203 74.0876 53.1852 74.2009 51.915H35.4703ZM38.7248 61.0527C37.9463 59.903 37.2876 58.6656 36.7667 57.3583H72.9045C72.3836 58.6656 71.7249 59.903 70.9464 61.0527H38.7248ZM39.7354 62.4137C43.3002 66.803 48.7404 69.6078 54.8356 69.6078C60.9308 69.6078 66.371 66.803 69.9359 62.4137H39.7354Z" fill="url(#paint1_linear_454_1340)"/>
<g filter="url(#filter2_d_454_1340)">
<circle cx="114" cy="50" r="21" fill="#013365"/>
</g>
<g filter="url(#filter3_d_454_1340)">
<path fill-rule="evenodd" clip-rule="evenodd" d="M122 62.1651C115.357 60.4411 110.435 54.1831 110.435 46.727C110.435 41.796 112.588 37.3889 115.968 34.4708C114.783 34.1633 113.543 34 112.266 34C103.835 34 97 41.1227 97 49.9089C97 58.6952 103.835 65.8178 112.266 65.8178C115.966 65.8178 119.358 64.4465 122 62.1651Z" fill="url(#paint2_linear_454_1340)"/>
</g>
<defs>
<filter id="filter0_d_454_1340" x="0" y="0" width="170" height="100" filterUnits="userSpaceOnUse" color-interpolation-filters="sRGB">
<feFlood flood-opacity="0" result="BackgroundImageFix"/>
<feColorMatrix in="SourceAlpha" type="matrix" values="0 0 0 0 0 0 0 0 0 0 0 0 0 0 0 0 0 0 127 0" result="hardAlpha"/>
<feOffset/>
<feGaussianBlur stdDeviation="12.5"/>
<feComposite in2="hardAlpha" operator="out"/>
<feColorMatrix type="matrix" values="0 0 0 0 0 0 0 0 0 0 0 0 0 0 0 0 0 0 0.15 0"/>
<feBlend mode="normal" in2="BackgroundImageFix" result="effect1_dropShadow_454_1340"/>
<feBlend mode="normal" in="SourceGraphic" in2="effect1_dropShadow_454_1340" result="shape"/>
</filter>
<filter id="filter1_d_454_1340" x="30" y="25" width="50" height="50" filterUnits="userSpaceOnUse" color-interpolation-filters="sRGB">
<feFlood flood-opacity="0" result="BackgroundImageFix"/>
<feColorMatrix in="SourceAlpha" type="matrix" values="0 0 0 0 0 0 0 0 0 0 0 0 0 0 0 0 0 0 127 0" result="hardAlpha"/>
<feOffset/>
<feGaussianBlur stdDeviation="2"/>
<feComposite in2="hardAlpha" operator="out"/>
<feColorMatrix type="matrix" values="0 0 0 0 0 0 0 0 0 0 0 0 0 0 0 0 0 0 0.15 0"/>
<feBlend mode="normal" in2="BackgroundImageFix" result="effect1_dropShadow_454_1340"/>
<feBlend mode="normal" in="SourceGraphic" in2="effect1_dropShadow_454_1340" result="shape"/>
</filter>
<filter id="filter2_d_454_1340" x="89" y="25" width="50" height="50" filterUnits="userSpaceOnUse" color-interpolation-filters="sRGB">
<feFlood flood-opacity="0" result="BackgroundImageFix"/>
<feColorMatrix in="SourceAlpha" type="matrix" values="0 0 0 0 0 0 0 0 0 0 0 0 0 0 0 0 0 0 127 0" result="hardAlpha"/>
<feOffset/>
<feGaussianBlur stdDeviation="2"/>
<feComposite in2="hardAlpha" operator="out"/>
<feColorMatrix type="matrix" values="0 0 0 0 0 0 0 0 0 0 0 0 0 0 0 0 0 0 0.15 0"/>
<feBlend mode="normal" in2="BackgroundImageFix" result="effect1_dropShadow_454_1340"/>
<feBlend mode="normal" in="SourceGraphic" in2="effect1_dropShadow_454_1340" result="shape"/>
</filter>
<filter id="filter3_d_454_1340" x="93" y="34" width="33" height="39.8179" filterUnits="userSpaceOnUse" color-interpolation-filters="sRGB">
<feFlood flood-opacity="0" result="BackgroundImageFix"/>
<feColorMatrix in="SourceAlpha" type="matrix" values="0 0 0 0 0 0 0 0 0 0 0 0 0 0 0 0 0 0 127 0" result="hardAlpha"/>
<feOffset dy="4"/>
<feGaussianBlur stdDeviation="2"/>
<feComposite in2="hardAlpha" operator="out"/>
<feColorMatrix type="matrix" values="0 0 0 0 0 0 0 0 0 0 0 0 0 0 0 0 0 0 0.25 0"/>
<feBlend mode="normal" in2="BackgroundImageFix" result="effect1_dropShadow_454_1340"/>
<feBlend mode="normal" in="SourceGraphic" in2="effect1_dropShadow_454_1340" result="shape"/>
</filter>
<radialGradient id="paint0_diamond_454_1340" cx="0" cy="0" r="1" gradientUnits="userSpaceOnUse" gradientTransform="translate(36.068 53) scale(108.932 192.61)">
<stop stop-color="#F2C868"/>
<stop offset="1" stop-color="#F2C868" stop-opacity="0"/>
</radialGradient>
<linearGradient id="paint1_linear_454_1340" x1="54.8356" y1="41.7394" x2="54.8356" y2="79.8478" gradientUnits="userSpaceOnUse">
<stop stop-color="#F3EFE3"/>
<stop offset="0.822917" stop-color="#FABB32"/>
</linearGradient>
<linearGradient id="paint2_linear_454_1340" x1="117.457" y1="32.303" x2="111.833" y2="65.7449" gradientUnits="userSpaceOnUse">
<stop stop-color="#D9D9D9"/>
<stop offset="1" stop-color="#1B365D"/>
</linearGradient>
</defs>
</svg>
