<svg width="170" height="100" viewBox="0 0 170 100" fill="none" xmlns="http://www.w3.org/2000/svg">
<g filter="url(#filter0_d_69_643)">
<rect x="25" y="25" width="120" height="50" rx="25" fill="url(#paint0_diamond_69_643)" shape-rendering="crispEdges"/>
</g>
<g filter="url(#filter1_d_69_643)">
<circle cx="56" cy="50" r="21" fill="url(#paint1_linear_69_643)" shape-rendering="crispEdges"/>
</g>
<path fill-rule="evenodd" clip-rule="evenodd" d="M75.2634 50.9429C75.2735 50.6847 75.2787 50.4253 75.2787 50.1647C75.2787 39.4266 66.5737 30.7217 55.8356 30.7217C45.0975 30.7217 36.3926 39.4266 36.3926 50.1647C36.3926 50.4253 36.3977 50.6847 36.4079 50.9429H75.2634ZM36.4703 51.915C36.5836 53.1852 36.8191 54.4203 37.1649 55.6084H74.5063C74.8521 54.4203 75.0876 53.1852 75.2009 51.915H36.4703ZM39.7248 61.0527C38.9463 59.903 38.2876 58.6656 37.7667 57.3583H73.9045C73.3836 58.6656 72.7249 59.903 71.9464 61.0527H39.7248ZM40.7354 62.4137C44.3002 66.803 49.7404 69.6078 55.8356 69.6078C61.9308 69.6078 67.371 66.803 70.9359 62.4137H40.7354Z" fill="url(#paint2_linear_69_643)"/>
<g filter="url(#filter2_d_69_643)">
<circle cx="115" cy="50" r="21" fill="#013365"/>
</g>
<g filter="url(#filter3_d_69_643)">
<path fill-rule="evenodd" clip-rule="evenodd" d="M123 62.1651C116.357 60.4411 111.435 54.1831 111.435 46.727C111.435 41.796 113.588 37.3889 116.968 34.4708C115.783 34.1633 114.543 34 113.266 34C104.835 34 98 41.1227 98 49.9089C98 58.6952 104.835 65.8178 113.266 65.8178C116.966 65.8178 120.358 64.4465 123 62.1651Z" fill="url(#paint3_linear_69_643)"/>
</g>
<defs>
<filter id="filter0_d_69_643" x="0" y="0" width="170" height="100" filterUnits="userSpaceOnUse" color-interpolation-filters="sRGB">
<feFlood flood-opacity="0" result="BackgroundImageFix"/>
<feColorMatrix in="SourceAlpha" type="matrix" values="0 0 0 0 0 0 0 0 0 0 0 0 0 0 0 0 0 0 127 0" result="hardAlpha"/>
<feOffset/>
<feGaussianBlur stdDeviation="12.5"/>
<feComposite in2="hardAlpha" operator="out"/>
<feColorMatrix type="matrix" values="0 0 0 0 0 0 0 0 0 0 0 0 0 0 0 0 0 0 0.15 0"/>
<feBlend mode="normal" in2="BackgroundImageFix" result="effect1_dropShadow_69_643"/>
<feBlend mode="normal" in="SourceGraphic" in2="effect1_dropShadow_69_643" result="shape"/>
</filter>
<filter id="filter1_d_69_643" x="31" y="25" width="50" height="50" filterUnits="userSpaceOnUse" color-interpolation-filters="sRGB">
<feFlood flood-opacity="0" result="BackgroundImageFix"/>
<feColorMatrix in="SourceAlpha" type="matrix" values="0 0 0 0 0 0 0 0 0 0 0 0 0 0 0 0 0 0 127 0" result="hardAlpha"/>
<feOffset/>
<feGaussianBlur stdDeviation="2"/>
<feComposite in2="hardAlpha" operator="out"/>
<feColorMatrix type="matrix" values="0 0 0 0 0 0 0 0 0 0 0 0 0 0 0 0 0 0 0.15 0"/>
<feBlend mode="normal" in2="BackgroundImageFix" result="effect1_dropShadow_69_643"/>
<feBlend mode="normal" in="SourceGraphic" in2="effect1_dropShadow_69_643" result="shape"/>
</filter>
<filter id="filter2_d_69_643" x="90" y="25" width="50" height="50" filterUnits="userSpaceOnUse" color-interpolation-filters="sRGB">
<feFlood flood-opacity="0" result="BackgroundImageFix"/>
<feColorMatrix in="SourceAlpha" type="matrix" values="0 0 0 0 0 0 0 0 0 0 0 0 0 0 0 0 0 0 127 0" result="hardAlpha"/>
<feOffset/>
<feGaussianBlur stdDeviation="2"/>
<feComposite in2="hardAlpha" operator="out"/>
<feColorMatrix type="matrix" values="0 0 0 0 0 0 0 0 0 0 0 0 0 0 0 0 0 0 0.15 0"/>
<feBlend mode="normal" in2="BackgroundImageFix" result="effect1_dropShadow_69_643"/>
<feBlend mode="normal" in="SourceGraphic" in2="effect1_dropShadow_69_643" result="shape"/>
</filter>
<filter id="filter3_d_69_643" x="94" y="34" width="33" height="39.8179" filterUnits="userSpaceOnUse" color-interpolation-filters="sRGB">
<feFlood flood-opacity="0" result="BackgroundImageFix"/>
<feColorMatrix in="SourceAlpha" type="matrix" values="0 0 0 0 0 0 0 0 0 0 0 0 0 0 0 0 0 0 127 0" result="hardAlpha"/>
<feOffset dy="4"/>
<feGaussianBlur stdDeviation="2"/>
<feComposite in2="hardAlpha" operator="out"/>
<feColorMatrix type="matrix" values="0 0 0 0 0 0 0 0 0 0 0 0 0 0 0 0 0 0 0.25 0"/>
<feBlend mode="normal" in2="BackgroundImageFix" result="effect1_dropShadow_69_643"/>
<feBlend mode="normal" in="SourceGraphic" in2="effect1_dropShadow_69_643" result="shape"/>
</filter>
<radialGradient id="paint0_diamond_69_643" cx="0" cy="0" r="1" gradientUnits="userSpaceOnUse" gradientTransform="translate(36.068 53) scale(108.932 192.61)">
<stop stop-color="#F2C868" stop-opacity="0"/>
<stop offset="0.765625" stop-color="#014EE0"/>
</radialGradient>
<linearGradient id="paint1_linear_69_643" x1="56" y1="29" x2="56" y2="71" gradientUnits="userSpaceOnUse">
<stop stop-color="#BBA86F" stop-opacity="0"/>
<stop offset="1" stop-color="#BBA86F"/>
</linearGradient>
<linearGradient id="paint2_linear_69_643" x1="55.8356" y1="41.7394" x2="55.8356" y2="79.8478" gradientUnits="userSpaceOnUse">
<stop stop-color="#F3EFE3"/>
<stop offset="0.822917" stop-color="#FABB32"/>
</linearGradient>
<linearGradient id="paint3_linear_69_643" x1="118.457" y1="32.303" x2="112.833" y2="65.7449" gradientUnits="userSpaceOnUse">
<stop stop-color="#D9D9D9"/>
<stop offset="1" stop-color="#1B365D"/>
</linearGradient>
</defs>
</svg>
