<svg width="211" height="198" viewBox="0 0 211 198" fill="none" xmlns="http://www.w3.org/2000/svg">
<ellipse cx="145.5" cy="163.5" rx="65.5" ry="18.5" fill="#8D743E"/>
<path d="M129.505 70.7322C127.208 48.934 127.56 36.7185 132.404 14.9459L135.303 12.339L135.948 8.51567C136.856 6.97466 135.059 5.02489 131.599 3.30199C121.166 1.12148 116.849 0.252259 105.988 0C96.2897 0.396198 90.8725 0.874701 81.3435 3.30199C78.9028 4.34375 77.5911 4.97682 76.8334 7.47293L77.3166 12.339L80.2159 14.9459C85.074 37.1296 84.6808 49.2343 83.1153 70.7322C56.9166 94.5235 47.8865 104.613 48.0011 113.311C55.5306 137.769 62.6203 150.301 79.2495 171.009C82.3686 179.071 88.4801 181.754 107.599 183C125.255 180.879 131.779 178.532 133.693 171.009C136.583 172.289 166.502 125.307 164.941 113.311C163.38 101.314 147.119 84.9119 129.505 70.7322Z" fill="#DE8563"/>
<path fill-rule="evenodd" clip-rule="evenodd" d="M83.5974 10.3629C82.19 9.85217 81.668 9.27543 81.5034 7.40848C81.8221 7.26457 82.1446 7.12492 82.4707 6.98944C83.4422 6.39154 85.4631 5.71667 88.2049 5.10032C94.0392 3.60647 100.491 3.08018 106.596 3.13157C111.643 3.08851 116.93 3.45182 121.899 4.45047C127.918 5.47143 131.852 6.85719 131.598 7.75603C131.475 8.1899 131.348 8.48714 131.223 8.69047C130.939 9.63323 130.388 10.0483 129.363 10.4273C120.089 7.82624 112.951 6.48248 105.979 6.38954C99.3243 6.61255 92.4175 7.93521 83.5974 10.3629Z" fill="#C1623C"/>
<rect x="97.2886" y="5.56128" width="18.0403" height="2.78063" fill="#C1623C"/>
<path d="M107.353 19.5116C116.184 18.9843 132.403 15.2935 132.403 15.2935L131.761 18.1055C131.761 18.1055 109.922 28.4751 101.732 27.7721C93.5429 27.0691 81.3389 20.3904 81.3389 20.3904L80.2148 15.2935C80.2148 15.2935 98.5208 20.0388 107.353 19.5116Z" fill="#C1623C"/>
<ellipse cx="106.631" cy="10.0799" rx="22.5504" ry="3.12821" fill="#320200"/>
<path d="M106.47 38.4074C97.3509 37.7814 92.0605 36.6133 83.4365 33.5413L83.9197 39.1025C92.4832 41.7905 97.8047 42.6671 106.47 43.621C115.484 43.2008 120.407 42.6295 128.537 39.9715L129.021 34.7578C120.496 37.2105 115.621 38.2346 106.47 38.4074Z" fill="#FFE091"/>
<path d="M106.222 48.4933C97.3286 47.8889 92.4913 46.9349 84.0806 43.9688L84.2297 49.1644C92.5814 51.7598 97.7712 52.6061 106.222 53.5272C115.014 53.1214 120.124 52.6178 128.054 50.0514L128.215 44.9695C119.901 47.3377 115.147 48.3265 106.222 48.4933Z" fill="#FFE091"/>
<path d="M106.222 58.3993C97.3285 57.7949 92.4912 56.8409 84.0804 53.8748L83.7583 58.7409C92.11 61.3362 97.7711 62.5121 106.222 63.4332C115.013 63.0274 120.607 62.5238 128.537 59.9574L128.215 54.8755C119.901 57.2437 115.147 58.2325 106.222 58.3993Z" fill="#FFE091"/>
<path d="M83.1141 70.7321L83.7584 61.695L89.7181 71.0797L104.537 62.7378L115.812 73.5127L124.993 60.4785L128.698 62.2164L129.503 71.0797L134.658 75.2506C124.705 78.8923 118.71 79.715 107.597 79.9429C96.8707 79.2858 90.544 78.2653 79.8926 73.6865L83.1141 70.7321Z" fill="#FFE091"/>
<path d="M67.0068 85.711L72.8055 80.1167C87.4573 85.0185 95.6944 87.298 108.279 87.4532C124.062 86.9856 131.839 85.9301 142.732 81.8392L148.833 87.4532C136.123 92.1621 115.812 95.5839 108.279 95.5839C100.745 95.5839 81.1385 91.4351 67.0068 85.711Z" fill="#FFE091"/>
<path d="M51.3828 103.405C56.1278 96.6421 59.5003 92.7948 66.9702 85.8518H69.1694L80.1651 106.741L102.495 94.0973L118.396 110.039L132.099 91.3488L153.244 100.877L154.47 94.3675C158.08 98.5491 159.761 100.998 162.363 105.49C143.334 114.3 130.706 117.539 105.709 119.567C82.6744 117.551 71.0513 114.264 51.3828 103.405Z" fill="#FFE091"/>
<path d="M82.9532 70.9059C84.5387 53.5297 84.588 42.9121 81.1814 20.3333L94.2284 25.7207C95.7399 46.3818 96.2352 60.1876 99.0606 77.5099C85.0128 94.9138 80.0538 106.359 78.9263 113.31C77.7988 120.262 86.0598 156.069 99.2217 182.131C92.1635 181.88 88.6256 180.727 83.1143 176.744C66.311 156.404 58.345 142.949 48.1611 113.31C49.3894 103.339 57.6117 93.6026 82.9532 70.9059Z" fill="#C1623C" fill-opacity="0.6"/>
<path d="M23.1947 111.418L22.1611 93.1187C22.1611 93.1187 19.9215 92.3718 19.4047 90.878C18.8879 89.3842 18.3711 84.5293 18.3711 84.5293C41.8906 74.2007 57.576 74.784 78.8395 84.5293C78.8395 84.5293 79.3564 89.7577 78.8395 90.878C78.3227 91.9983 75.394 93.1187 75.394 93.1187L73.6713 109.738C103.314 135.304 103.69 150.669 80.5623 179.574L78.1504 187.977C55.177 200.67 42.4802 201.076 20.2661 189.284L17.3374 179.574C-6.09719 152.362 -6.6043 137.399 23.1947 111.418Z" fill="#DE8563"/>
<path d="M29.7121 88.017C29.7121 88.017 24.8884 87.2701 23.338 85.2162C21.7875 83.1622 39.8342 81.0851 49.3515 81.1088C61.6938 81.2326 76.2263 83.3488 75.1927 85.2161C74.159 87.0834 67.6126 88.017 67.6126 88.017C54.1663 85.495 44.3359 85.1221 29.7121 88.017Z" fill="#C1623C"/>
<ellipse cx="49.1789" cy="86.5231" rx="23.4294" ry="2.80092" fill="#320200"/>
<path d="M22.8208 108.744V105.383L74.331 103.702L73.8142 107.25L48.662 107.997L22.8208 108.744Z" fill="#FFE091"/>
<path d="M19.8926 114.159L23.1658 111.171L73.6423 109.491L74.5037 113.039L19.8926 114.159Z" fill="#FFE091"/>
<path d="M47.6286 97.5401C59.0717 97.6591 64.6555 96.6318 75.3648 93.0586L75.0203 96.0462C75.0203 96.0462 56.5869 101.275 45.9059 102.768C35.2248 104.262 22.821 103.515 22.821 103.515L22.3042 93.4321C31.4992 96.4982 36.8975 97.7086 47.6286 97.5401Z" fill="#C1623C"/>
<path d="M62.6165 126.67L73.642 109.677C82.3689 115.098 85.5822 120.007 90.0082 126.856C75.0716 132.921 66.7142 134.201 50.385 135.259C33.1839 134.028 23.8339 131.804 8.8667 125.923C12.0947 120.644 14.4352 117.729 21.7873 112.665L29.8843 125.176L48.3177 113.599L62.6165 126.67Z" fill="#FFE091"/>
<path d="M22.9933 103.142H41.4267C41.4267 103.142 30.4011 132.458 30.0565 145.716C29.712 158.974 43.8385 198 43.8385 198C34.9095 196.139 29.7585 194.39 20.2369 189.411L17.825 179.887C8.92621 170.7 1.11436 158.6 0.080709 147.21C-0.95294 135.82 8.01113 124.308 22.9933 111.171V103.142Z" fill="#C1623C" fill-opacity="0.6"/>
</svg>
