<svg width="551" height="643" viewBox="0 0 551 643" fill="none" xmlns="http://www.w3.org/2000/svg">
<path d="M373.661 486.154C372.985 481.269 369.812 486.604 367.059 481.202L344.361 496.059L315.472 501.837C315.472 501.837 297.726 508.853 297.726 509.678C297.726 510.503 313.175 516.829 322.074 527.837C324.974 527.713 348.487 552.598 349.725 554.249C350.963 555.9 363.344 575.296 364.582 577.36C365.82 579.423 369.535 595.931 372.424 603.36C375.313 610.788 389.346 620.28 392.646 622.756C395.947 625.232 409.125 643.952 415.757 641.74C422.389 639.529 423.385 636.441 423.598 633.899C423.812 631.357 424.169 627.019 415.757 586.852C414.932 584.376 407.503 565.805 407.503 565.805C407.493 560.023 388.417 522.909 383.153 513.805C377.889 504.701 377.788 502.25 376.963 499.773C376.137 497.297 373.661 486.154 373.661 486.154Z" fill="#016191"/>
<path d="M499.533 307.045C470.702 299.436 448.749 306.101 443.82 307.045C438.891 307.989 437.749 302.102 424.422 303.33C411.095 304.559 396.776 310.458 374.487 320.664C351.873 317.495 343.122 320.664 330.741 320.664C318.36 320.664 281.516 328.615 268.837 336.346C229.28 347.682 207.132 352.244 167.727 354.504C95.0632 351.746 68.4034 336.929 24.5218 307.045C-18.9803 282.36 -60.1933 217.571 -61.3646 212.251L-60.9059 212.125C-61.3076 211.784 -61.4547 211.841 -61.3646 212.251L-103.001 223.68C-80.0605 235.287 -71.1214 261.986 -53.4775 300.854C-34.0616 348.511 -21.7442 372.322 3.88708 407.329C32.2641 437.875 48.8544 454.079 81.8863 478.313C104.405 496.874 117.307 504.653 140.902 513.392L198.679 531.55C272.091 529.191 287.82 521.233 303.09 513.392C303.09 513.392 374.487 489.868 387.693 478.313C400.899 466.757 433.09 436.218 433.09 436.218C442.077 429.855 443.407 423.624 449.598 417.846C449.598 417.846 465.279 400.1 469.819 393.497C469.819 393.497 505.722 347.076 506.548 343.362C507.374 339.647 507.164 329.185 506.549 320.664C505.776 314.878 504.378 311.864 499.533 307.045Z" fill="#ABC8EF"/>
<path d="M27.8223 420.949C208.825 586.055 393.568 509.962 498.707 328.324L497.056 327.68C344.927 555.176 182.649 544.883 31.5365 419.298L27.8223 420.949Z" fill="#9ABCE2"/>
<path d="M28.5672 401.131C212.809 562.615 386.315 498.248 487.83 314.561L486.181 314.505C338.595 544.975 185.822 521.97 32.248 399.407L28.5672 401.131Z" fill="#9ABCE2"/>
<path d="M7.90732 352.518C184.235 522.608 341.448 491.529 451.611 312.894L450.801 311.105C292.386 534.27 159.23 478.98 11.6793 349.23L7.90732 352.518Z" fill="#9ABCE2"/>
<path d="M20.2143 376.632C201.948 540.933 366.418 497.934 470.75 315.831L468.581 314.483C317.463 542.652 175.481 498.631 23.8126 373.717L20.2143 376.632Z" fill="#9ABCE2"/>
<mask id="mask0_306_1337" style="mask-type:alpha" maskUnits="userSpaceOnUse" x="-225" y="0" width="776" height="524">
<rect width="709.531" height="335.448" transform="matrix(-0.958527 0.285001 0.285001 0.958527 455.104 0)" fill="#D9D9D9"/>
</mask>
<g mask="url(#mask0_306_1337)">
<path d="M211.629 422.343C168.388 464.25 152.072 491.539 123.312 540.374C123.312 540.374 103.916 554.406 101.44 558.532C98.9635 562.659 91.9477 574.627 91.9477 574.627C81.3701 582.299 65.9479 586.183 61.821 589.897C57.694 593.611 40.7735 604.341 37.0593 606.818C33.345 609.294 27.1546 617.96 24.6784 620.436C22.2023 622.912 7.34528 629.516 5.2818 634.468C3.21832 639.421 10.0428 647.399 16.4246 646.849C29.0523 646.979 49.0274 642.722 53.1544 643.547C57.2813 644.373 73.7891 643.547 73.7891 643.547C84.7977 643.097 90.5877 642.785 93.5985 641.071C135.253 635.625 156.029 625.317 190.994 601.04C200.626 586.289 207.502 574.627 207.502 574.627C227.211 553.727 229.387 536.306 237.216 507.771C242.922 478.069 244.511 444.196 245.47 440.915C246.429 437.633 263.629 412.026 263.629 412.026C263.629 412.026 338.677 369.699 335.85 371.582C333.024 373.464 363.913 353.836 363.913 353.836C385.232 339.07 402.287 333.023 433.246 322.471C445.744 317.86 454.235 316.079 478.642 317.931C485.746 321.844 492.77 333.456 499.119 333.456C508.611 331.393 507.373 333.456 507.373 322.314C507.373 311.171 498.09 303.161 486.484 299.203C478.721 297.875 431.494 297.922 422.516 299.203C406.992 298.535 380.263 316.949 376.961 316.949C373.66 316.949 293.185 318.879 263.629 334.852C220.53 347.876 196.429 353.232 153.852 350.122C120.832 351.001 99.3914 345.299 57.694 327.836C7.22809 293.328 -13.7881 274.098 -43.0034 239.932C-50.9509 228.634 -55.7396 225.799 -55.3843 213.107C-56.2563 202.373 -53.9169 197.984 -45.0669 192.885C-34.5109 187.169 -31.7762 179.956 -27.8922 167.553C-27.959 144.01 -32.3625 144.574 -33.1879 146.225C-57.779 176.593 -75.3705 193.277 -100.457 198.637C-135.898 210.878 -138.668 208.621 -147.532 207.548C-151.184 203.402 -156.498 198.995 -164.906 194.791C-203.7 175.394 -169.033 207.172 -153.764 207.172C-151.254 207.172 -149.275 207.337 -147.532 207.548C-134.334 222.53 -142.84 234.103 -105.479 220.378C-105.479 220.378 -92.7928 233.835 -82.8617 244.472C-57.5267 295.785 -48.4529 317.788 -20.3052 377.772C4.90768 412.195 12.8803 415.939 21.7896 422.343C60.9282 442.784 101.852 447.93 123.312 446.28C144.773 444.629 207.502 424.407 211.629 422.343Z" fill="#016FA7"/>
</g>
<path d="M316.295 360.263C316.295 360.263 312.182 359.069 307.816 361.12C303.45 363.17 302.006 367.899 302.006 367.899" stroke="#00324F" stroke-width="5" stroke-linecap="round"/>
<mask id="mask1_306_1337" style="mask-type:alpha" maskUnits="userSpaceOnUse" x="-170" y="144" width="683" height="499">
<path d="M217.249 418.341C174.008 460.248 157.692 487.537 128.932 536.372C100.173 585.206 79.4091 580.53 67.441 585.895C55.4728 591.26 36.4889 611.895 30.2985 616.435C24.108 620.974 12.9653 625.514 10.9018 630.466C8.83835 635.419 15.6628 643.397 22.0446 642.847C34.6723 642.977 57.1236 639.546 58.7744 639.546H79.4091C90.4177 639.096 92.6153 638.72 99.2184 637.069C105.822 635.418 161.649 621.315 196.614 597.038C206.246 582.287 210.233 574.752 213.122 570.626C216.011 566.499 235.007 532.304 242.836 503.769C248.542 474.067 246.55 448.468 251.09 436.912C255.63 425.357 265.534 410.087 269.249 408.024C272.963 405.96 344.297 365.697 341.47 367.58C338.643 369.462 369.533 349.834 369.533 349.834C390.852 335.068 407.907 329.021 438.866 318.469C451.364 313.858 459.855 312.077 484.262 313.929C491.366 317.842 495.584 320.797 504.072 329.199C508.08 327.546 511.892 325.734 512.738 318.469C509.812 303.19 503.306 300.971 491.715 297.017L491.691 297.009C483.929 295.682 477.145 295.729 468.167 297.009C458.276 297.706 455.407 301.743 450.421 303.612C450.421 303.612 435.564 297.009 428.136 297.009C420.707 297.009 383.152 313.929 383.152 313.929C351.531 312.693 339.683 311.213 334.867 313.929C302.176 316.333 289.563 321.083 269.249 330.85C226.15 343.874 202.049 349.23 159.472 346.12C126.452 346.999 105.011 341.297 63.314 323.834C12.8481 289.326 -8.16809 270.096 -37.3834 235.93C-45.3309 224.632 -50.1196 221.797 -49.7643 209.105C-50.6363 198.371 -48.2969 193.982 -39.4469 188.883C-28.9059 183.175 -26.8292 176.544 -22.9558 164.175L-22.9391 164.121C-23.006 140.578 -32.4311 144.725 -32.4311 144.725C-32.4311 144.725 -40.0279 156.229 -42.7485 156.693C-42.7485 156.693 -67.5101 156.28 -71.2244 156.693C-74.9386 157.106 -84.6828 161.775 -91.0337 166.598C-91.0337 166.598 -71.2244 190.121 -71.2244 191.772C-71.2244 193.423 -91.8591 179.391 -91.8591 179.391C-91.8591 179.391 -80.7164 206.629 -81.9544 206.216C-83.1925 205.804 -108.78 177.328 -110.018 177.328C-111.256 177.328 -114.145 179.804 -114.97 182.28C-115.795 184.756 -106.716 191.772 -106.716 191.772C-114.962 187.207 -118.684 183.767 -129.414 181.042C-135.809 179.614 -141.196 178.965 -147.573 179.391C-153.949 179.817 -169.033 194.248 -169.446 196.724C-170.84 199.481 -166.678 201.547 -161.615 203.038C-161.752 203.89 -162.001 204.935 -162.43 206.216C-164.983 213.847 -163.668 207.042 -158.303 209.105C-152.938 211.169 -148.918 221.172 -143.859 217.903C-138.799 214.634 -103.078 221.477 -103.654 221.899C-88.5204 220.886 -87.1728 229.833 -77.2417 240.47C-51.9067 291.783 -42.8329 313.786 -14.6852 373.77C10.5277 408.193 18.5003 411.937 27.4096 418.341C66.5482 438.782 107.472 443.928 128.932 442.277C150.393 440.627 213.122 420.405 217.249 418.341Z" fill="#1776A4"/>
</mask>
<g mask="url(#mask1_306_1337)">
<rect width="540.63" height="348.314" transform="matrix(-0.956004 0.293353 0.293353 0.956004 383.322 369.774)" fill="#1776A4"/>
</g>
<path d="M-199.177 181.692C-176.003 218.502 -153.998 232.426 -95.5733 229.871L-57.1928 212.479C-21.6179 173.951 -13.5496 151.607 -28.6061 109.919C-37.5553 131.293 -50.7418 144.227 -80.5708 168.595C-91.1863 179.736 -93.7192 185.486 -92.4041 194.872C-103.976 184.262 -112.818 183.29 -129.66 183.823C-156.509 187.047 -171.796 185.676 -199.177 181.692Z" fill="#016FA7"/>
<path d="M274.201 331.823C131.754 373.913 65.1373 345.329 -32.1447 252.782C-36.8342 247.934 -41.9791 242.914 -47.7005 237.712C-42.4209 242.91 -37.2407 247.934 -32.1447 252.782C12.1289 298.545 15.8109 328.867 80.8105 350.331C152.695 374.068 231.753 347.983 274.201 331.823Z" fill="#44A1CD"/>
<path d="M64.9662 586.026C71.5693 583.55 84.8644 582.334 99.2198 572.82C106.027 566.318 114.269 560.483 119.442 550.122C149.292 498.943 170.59 464.648 213.949 421.774L227.98 417.234C176.747 469.358 119.442 566.217 106.648 576.122C93.8548 586.026 76.9343 586.026 64.9662 592.217C52.998 598.407 36.4902 617.804 32.3633 621.518C28.2364 625.232 10.0778 632.248 10.0778 632.248C12.2547 626.081 28.649 618.629 32.3633 614.502C36.0775 610.375 58.3631 588.503 64.9662 586.026Z" fill="#2795CB"/>
</svg>
