<svg width="41" height="41" viewBox="0 0 41 41" fill="none" xmlns="http://www.w3.org/2000/svg">
<path d="M37.3997 34.1564L6.14319 2.89991C4.90864 1.66536 3.06027 1.49356 2.0357 2.51813C1.01113 3.5427 1.18293 5.39107 2.41748 6.62562L33.674 37.8821C34.9085 39.1167 36.7569 39.2885 37.7815 38.2639C38.8061 37.2393 38.6343 35.391 37.3997 34.1564Z" fill="white"/>
<path d="M34.4861 3.18586L3.22962 34.4424C1.99507 35.6769 1.82327 37.5253 2.84784 38.5499C3.87241 39.5744 5.72078 39.4026 6.95533 38.1681L38.2119 6.91157C39.4464 5.67702 39.6182 3.82865 38.5936 2.80408C37.5691 1.77951 35.7207 1.95131 34.4861 3.18586Z" fill="white"/>
</svg>
