<svg width="222" height="123" viewBox="0 0 222 123" fill="none" xmlns="http://www.w3.org/2000/svg">
<path d="M80.7655 122.419H48.9972C48.5424 118.343 49.282 115.903 53.9137 111.031C57.949 104.252 59.6149 100.547 56.351 94.9366C50.8745 91.0818 46.3629 89.7965 37.3572 88.0871L33.4072 92.0371L35.9705 102.585H32.7348L31.6843 96.0712C29.3469 100.393 28.4935 102.982 22.6497 106.03C20.9629 106.636 20.0371 106.862 18.8257 104.77L19.6661 102.585L25.6752 97.1217C22.997 95.5044 21.4963 94.8888 18.8257 94.9366C16.7188 93.0603 16.3252 92.0419 17.6911 90.3142C21.4078 91.1854 23.4657 92.002 27.0619 94.3483L30.4236 88.0871H27.0619C27.5066 89.0409 8.18977 88.4989 4.37025 86.1121C0.550728 83.7252 3.72774 81.468 8.19421 80.4812C13.2787 82.5059 16.4623 83.3833 25.0869 82.6663C33.9621 83.7647 38.527 84.5612 48.9552 84.9775C49.2089 83.2349 48.8747 82.2523 46.602 80.4812C37.4956 76.1921 31.0683 74.3456 17.1028 72.1189C11.6428 74.2652 8.39139 75.0499 2.05906 75.2705C0.354987 73.8754 0.0169546 73.0478 1.13458 71.4465L6.8075 69.5976C2.49727 67.9988 0.971532 67.0125 0 65.1853C0 65.1853 0 59.5124 2.05906 59.5124C4.11812 59.5124 11.3922 65.1348 19.6661 68.2109L37.3572 72.1189C42.022 74.5227 44.4279 76.1791 50.3419 76.7413C51.2655 74.6116 50.6219 73.4667 48.9552 71.4465C42.7496 66.5108 38.2846 63.8843 28.1125 59.5124C25.4989 60.9905 0.682444 55.1261 3.44577 51.9905C6.2091 48.855 8.19421 47.116 8.19421 47.116C11.6235 50.5574 13.2535 52.8145 19.6661 52.915C19.6661 52.915 8.9506 41.6952 8.65645 39.8463C8.3623 37.9973 14.5815 36.4845 14.5815 36.4845L17.1028 38.3335C18.4573 42.6524 19.6762 45.0773 25.0869 49.4272L31.6843 46.5697C28.165 42.8714 26.4778 40.7713 25.6752 36.8207C24.8518 33.0084 23.5741 29.1728 26.1374 29.2989C28.7008 29.4249 30.4236 30.3494 30.4236 30.3494L31.6843 37.1989C33.6382 34.9771 34.5838 30.3494 38.7439 31.8622C42.9041 33.375 41.0551 34.0473 41.0551 34.0473C40.4008 37.5737 37.3813 38.1158 33.4072 39.8463C33.0906 41.1743 33.9874 42.0281 36.7689 43.6702C39.4049 39.9818 42.1057 38.4596 44.0807 38.3335C46.0557 38.2074 46.602 41.6952 46.602 41.6952C46.602 41.6952 47.7786 43.7543 45.9296 44.8048C44.0807 45.8554 38.1045 49.2947 31.3481 51.9905C36.5552 54.3832 39.4454 55.6631 45.3413 59.5124C51.2578 59.3637 53.1612 58.7666 53.9137 56.739V51.9905C53.9137 48.4187 56.351 47.4942 56.351 47.4942C56.351 47.4942 59.7127 46.3596 59.1244 48.4187C58.5361 50.4777 57.4015 55.5624 57.4015 55.5624C57.4015 55.5624 58.8723 54.0916 60.3851 53.8395C61.8978 53.5873 67.1085 58.1257 65.1335 59.5124C63.1585 60.8991 60.3851 61.9496 60.3851 61.9496L67.1085 65.1853C67.1085 65.1853 70.6804 68.2109 67.1085 68.2109C63.5367 68.2109 55.5106 62.8741 55.5106 62.8741L51.6025 64.4709C56.5841 70.6254 61.7718 76.7413 68.4952 76.7413C75.2187 76.7413 80.6976 70.5322 83.0767 61.9496C72.05 55.3692 66.0841 51.547 60.3851 41.6952C60.3851 41.6952 57.4015 39.8463 60.3851 38.3335C63.3686 36.8207 67.1085 36.4845 67.1085 36.4845L70.008 37.6612C71.402 43.5334 73.3848 46.8531 83.0767 52.915V44.8048L81.5639 39.8463C77.5539 34.5196 74.448 31.5775 65.1335 26.5254C56.0366 27.5223 50.8747 27.8468 40.3828 23.5419C40.3828 23.5419 39.5423 19.7179 42.1057 19.1296C44.669 18.5413 56.351 20.6424 56.351 20.6424C52.3776 17.7951 50.2158 15.4813 46.602 8.70826C46.602 8.70826 50.552 4.42205 53.1994 6.52314C55.8467 8.62422 58.5361 15.7679 58.5361 15.7679C65.1985 7.71296 69.4197 0.387979 72.1931 0.0518065C74.9666 -0.284366 75.3507 1.08174 75.765 2.23693L65.1335 20.6424L75.765 27.7861C80.1552 33.9906 82.4752 35.9734 86.4385 37.6612C88.1955 37.1587 91.7743 35.0484 89.2119 31.8622C86.6495 28.676 75.4561 20.2422 75.765 11.2716L80.5134 7.44761L83.0767 8.70826C86.1345 15.3873 88.2589 18.482 93.372 21.903C98.1808 14.0891 101.111 9.88615 109.004 4.42205H112.828L115.601 13.1205L110.139 14.9695C105.94 17.54 103.833 19.8194 100.558 25.4749C106.164 25.4982 109.331 24.6607 115.013 21.903L121.947 15.7679L126.569 20.6424C117.233 29.4624 110.301 31.9201 96.3976 34.0473C93.4115 40.2057 92.8125 43.8125 93.372 50.4777L99.5072 51.9905C96.8652 47.65 96.2402 44.9749 96.3976 39.8463H99.5072L101.944 51.9905L106.819 47.4942L110.139 49.5533V51.1921L101.944 54.6379L110.139 57.3273V60.3108L104.592 58.84L98.2465 56.739L93.372 58.84C92.8805 67.0755 89.7168 71.327 83.539 78.8423C85.186 79.4276 87.3397 79.1043 92.5736 77.7918L104.592 68.2109C109.847 63.14 113.318 59.4144 119.972 51.9905C115.968 47.046 113.781 44.2294 110.853 38.4596C110.111 37.0879 110.013 36.3358 111.777 35.0978C114.239 33.5596 115.413 34.3512 117.45 36.2324C118.523 41.1126 120.08 43.8013 124.846 48.5027L125.039 48.2015C129.194 41.6974 131.583 37.959 136.528 34.0473C139.417 34.7523 140.425 35.6538 141.739 37.6612C141.862 41.3531 141.036 43.4032 138.293 47.032L138.559 47.024C145.156 46.8262 148.937 46.7129 152.286 47.4942L153.211 50.4777L151.572 51.1921C146.538 53.1449 143.11 53.4949 135.268 51.9905C132.785 55.6897 130.606 57.5403 124.846 60.3108H134.469C134.469 60.3108 137.579 60.3108 138.839 61.8236C140.1 63.3364 138.839 65.4374 138.839 65.4374C133.184 66.5582 122.199 65.4374 118.501 65.4374C114.803 65.4374 109.004 76.7413 109.004 76.7413C98.9165 80.7302 93.5486 82.9917 87.0268 87.2887C86.7757 90.7276 88.2561 91.851 94.5486 92.0371C104.673 83.9374 110.946 77.844 119.173 74.6822L121.947 77.7918C116.702 84.554 112.433 88.3949 97.3221 95.5249C103.295 95.102 107.457 93.7333 116.19 89.4738C117.826 89.7844 118.336 90.5092 118.501 92.8355L118.493 92.8478C116.349 96.3571 115.144 98.3284 106.819 100.694C94.8385 100.858 86.4693 99.645 80.7655 104.77C78.0679 110.766 77.8785 114.567 80.7655 122.419Z" fill="#199459"/>
<path d="M82.9081 122.471H51.1398C50.6849 118.395 51.4245 115.955 56.0563 111.083C60.0916 104.304 61.7574 100.599 58.4936 94.9886C53.0171 91.1338 48.5055 89.8485 39.4998 88.1391L35.5498 92.0891C35.5498 92.0891 39.836 102.637 38.1131 102.637C36.3902 102.637 36.1801 103.109 34.8774 102.637C33.5747 102.165 33.8269 96.1232 33.8269 96.1232C31.4895 100.445 30.636 103.034 24.7922 106.082C23.1055 106.688 22.1797 106.914 20.9683 104.822L21.8087 102.637C21.8087 102.637 27.2295 98.2985 27.8178 97.1737C28.4061 96.049 22.1028 95.5769 20.9683 94.9886C19.8337 94.4003 18.4677 92.0939 19.8337 90.3662C23.5504 91.2374 25.6083 92.054 29.2045 94.4003L32.5662 88.1391H29.2045C29.6492 89.0929 10.3323 88.5509 6.51283 86.1641C2.69331 83.7772 5.87032 81.52 10.3368 80.5332C15.4213 82.5579 18.6049 83.4353 27.2295 82.7183C36.1047 83.8167 40.6696 84.6132 51.0978 85.0295C51.3515 83.2869 51.0173 82.3043 48.7445 80.5332C39.6382 76.2441 33.2109 74.3976 19.2454 72.1709C13.7853 74.3172 10.534 75.1019 4.20164 75.3225C2.49757 73.9274 2.15953 73.0998 3.27716 71.4985L8.95008 69.6496C4.63985 68.0508 3.11411 67.0645 2.14258 65.2373C2.14258 65.2373 2.14258 59.5644 4.20164 59.5644C6.2607 59.5644 13.5348 65.1868 21.8087 68.2629L39.4998 72.1709C44.1646 74.5747 46.5705 76.2311 52.4845 76.7933C53.4081 74.6636 52.7645 73.5187 51.0978 71.4985C44.8922 66.5628 40.4272 63.9363 30.255 59.5644C27.6415 61.0425 2.82502 55.1781 5.58835 52.0425C8.35168 48.907 10.3368 47.168 10.3368 47.168C13.766 50.6094 15.3961 52.8665 21.8087 52.967C21.8087 52.967 11.0932 41.7472 10.799 39.8983C10.5049 38.0493 16.7241 36.5365 16.7241 36.5365L19.2454 38.3855C20.5999 42.7044 21.8188 45.1293 27.2295 49.4792L33.8269 46.6217C30.3076 42.9234 28.6204 40.8233 27.8178 36.8727C26.9943 33.0604 25.7167 29.2248 28.28 29.3509C30.8433 29.4769 32.5662 30.4014 32.5662 30.4014L33.8269 37.2509C35.7808 35.0291 36.7264 30.4014 40.8865 31.9142C45.0466 33.427 43.1977 34.0993 43.1977 34.0993C42.5433 37.6257 39.5239 38.1678 35.5498 39.8983C35.2332 41.2263 36.13 42.0801 38.9115 43.7222C41.5474 40.0338 44.2482 38.5116 46.2233 38.3855C48.1983 38.2594 48.7445 41.7472 48.7445 41.7472C48.7445 41.7472 49.9212 43.8063 48.0722 44.8568C46.2233 45.9074 40.2471 49.3467 33.4907 52.0425C38.6978 54.4352 41.588 55.7151 47.4839 59.5644C53.4004 59.4157 55.3038 58.8186 56.0563 56.791V52.0425C56.0563 48.4707 58.4936 47.5462 58.4936 47.5462C58.4936 47.5462 61.8553 46.4116 61.267 48.4707C60.6787 50.5298 59.5441 55.6144 59.5441 55.6144C59.5441 55.6144 61.0149 54.1436 62.5276 53.8915C64.0404 53.6394 69.2511 58.1777 67.2761 59.5644C65.3011 60.9511 62.5276 62.0017 62.5276 62.0017L69.2511 65.2373C69.2511 65.2373 72.8229 68.2629 69.2511 68.2629C65.6793 68.2629 57.6531 62.9261 57.6531 62.9261L53.7451 64.5229C58.7267 70.6774 63.9143 76.7933 70.6378 76.7933C77.3613 76.7933 82.8402 70.5842 85.2193 62.0017C74.1926 55.4212 68.2266 51.599 62.5276 41.7472C62.5276 41.7472 59.5441 39.8983 62.5276 38.3855C65.5112 36.8727 69.2511 36.5365 69.2511 36.5365L72.1506 37.7132C73.5446 43.5854 75.5274 46.9051 85.2193 52.967V44.8568L83.7065 39.8983C79.6965 34.5716 76.5905 31.6295 67.2761 26.5774C58.1792 27.5743 53.0173 27.8988 42.5253 23.5939C42.5253 23.5939 41.6849 19.7699 44.2482 19.1816C46.8116 18.5933 58.4936 20.6944 58.4936 20.6944C54.5202 17.8471 52.3583 15.5333 48.7445 8.76026C48.7445 8.76026 52.6946 4.47406 55.3419 6.57514C57.9893 8.67622 60.6787 15.8199 60.6787 15.8199C67.3411 7.76497 71.5623 0.439981 74.3357 0.103808C77.1091 -0.232364 77.4932 1.13374 77.9075 2.28893L67.2761 20.6944L77.9075 27.8381C82.2977 34.0426 84.6178 36.0254 88.581 37.7132C90.3381 37.2107 93.9168 35.1004 91.3545 31.9142C88.7921 28.728 77.5987 20.2942 77.9075 11.3236L82.656 7.49961L85.2193 8.76026C88.2771 15.4393 90.4015 18.534 95.5146 21.955C100.323 14.1411 103.253 9.93815 111.147 4.47406H114.971C117.037 7.80026 117.728 9.69852 117.744 13.1725L112.281 15.0215C108.083 17.592 105.975 19.8714 102.7 25.5269C108.306 25.5502 111.474 24.7127 117.156 21.955L124.089 15.8199L128.712 20.6944C119.376 29.5144 112.444 31.9721 98.5402 34.0993C95.5541 40.2577 94.9551 43.8645 95.5146 50.5298L101.65 52.0425C99.0078 47.702 98.3828 45.0269 98.5402 39.8983H101.65L104.087 52.0425L108.962 47.5462L112.281 49.6053V51.2441L104.087 54.6899L112.281 57.3793V60.3628L106.734 58.8921L100.389 56.791L95.5146 58.8921C95.0231 67.1275 91.8594 71.379 85.6815 78.8943C87.3286 79.4796 89.4823 79.1563 94.7162 77.8438L106.734 68.2629C111.99 63.192 115.46 59.4664 122.114 52.0425C118.11 47.098 115.923 44.2814 112.996 38.5116C112.254 37.1399 112.155 36.3878 113.92 35.1498C116.381 33.6116 117.556 34.4032 119.593 36.2844C120.666 41.1646 122.222 43.8533 126.989 48.5547L127.181 48.2535C131.337 41.7494 133.726 38.011 138.671 34.0993C141.56 34.8043 142.567 35.7058 143.881 37.7132C144.005 41.4051 143.178 43.4552 140.436 47.084L140.701 47.076C147.299 46.8782 151.079 46.7649 154.429 47.5462L155.353 50.5298L153.715 51.2441C148.681 53.1969 145.253 53.5469 137.41 52.0425C134.928 55.7417 132.748 57.5923 126.989 60.3628H136.612C136.612 60.3628 139.721 60.3628 140.982 61.8756C142.243 63.3884 140.982 65.4894 140.982 65.4894C135.327 66.6102 124.341 65.4894 120.644 65.4894C116.946 65.4894 111.147 76.7933 111.147 76.7933C101.059 80.7822 95.6912 83.0437 89.1693 87.3407C88.9183 90.7796 90.3987 91.903 96.6912 92.0891C106.816 83.9894 113.088 77.896 121.316 74.7342L124.089 77.8438C118.845 84.606 114.575 88.4469 99.4646 95.5769C105.437 95.154 109.6 93.7853 118.332 89.5258C119.969 89.8364 120.478 90.5612 120.644 92.8875L120.636 92.8998C118.491 96.4091 117.287 98.3804 108.962 100.746C96.9811 100.91 88.6119 99.697 82.9081 104.822C80.2104 110.818 80.0211 114.619 82.9081 122.471Z" fill="#54B988"/>
<ellipse cx="74.736" cy="2.61965" rx="2.04734" ry="1.27775" transform="rotate(5.71764 74.736 2.61965)" fill="#116B40"/>
<ellipse cx="116.17" cy="37.0774" rx="2.04734" ry="1.27775" transform="rotate(5.71764 116.17 37.0774)" fill="#116B40"/>
<ellipse cx="99.8429" cy="41.2047" rx="1.06926" ry="0.709104" transform="rotate(5.71764 99.8429 41.2047)" fill="#116B40"/>
<ellipse cx="110.138" cy="49.3977" rx="1.84638" ry="0.709104" transform="rotate(33.4499 110.138 49.3977)" fill="#116B40"/>
<ellipse cx="111.421" cy="58.7142" rx="1.18369" ry="0.709104" transform="rotate(76.3011 111.421 58.7142)" fill="#116B40"/>
<ellipse cx="119.293" cy="78.151" rx="2.89221" ry="1.48287" transform="rotate(-9.85139 119.293 78.151)" fill="#116B40"/>
<ellipse cx="118.709" cy="92.2282" rx="1.36267" ry="1.96174" transform="rotate(-9.85139 118.709 92.2282)" fill="#116B40"/>
<ellipse cx="67.4235" cy="66.5764" rx="2.04734" ry="1.27775" transform="rotate(5.71764 67.4235 66.5764)" fill="#116B40"/>
<ellipse cx="59.0833" cy="49.3182" rx="1.50821" ry="1.38653" transform="rotate(5.71764 59.0833 49.3182)" fill="#116B40"/>
<ellipse cx="46.4439" cy="42.0407" rx="1.43092" ry="3.02411" transform="rotate(-19.6321 46.4439 42.0407)" fill="#116B40"/>
<ellipse cx="64.2557" cy="57.2703" rx="1.43092" ry="3.02411" transform="rotate(-47.6584 64.2557 57.2703)" fill="#116B40"/>
<ellipse cx="5.48407" cy="73.3841" rx="2.04734" ry="1.27775" transform="rotate(5.71764 5.48407 73.3841)" fill="#116B40"/>
<ellipse cx="23.8063" cy="104.228" rx="2.04734" ry="1.27775" transform="rotate(5.71764 23.8063 104.228)" fill="#116B40"/>
<ellipse cx="15.1935" cy="39.63" rx="3.3694" ry="1.82776" transform="rotate(-21.497 15.1935 39.63)" fill="#116B40"/>
<ellipse cx="29.6465" cy="31.7938" rx="2.50025" ry="1.05297" transform="rotate(8.28903 29.6465 31.7938)" fill="#116B40"/>
<ellipse cx="40.6617" cy="33.7186" rx="1.97671" ry="1.00979" transform="rotate(31.7352 40.6617 33.7186)" fill="#116B40"/>
<ellipse cx="139.628" cy="38.5675" rx="4.39392" ry="2.46037" transform="rotate(31.5126 139.628 38.5675)" fill="#116B40"/>
<ellipse cx="124.49" cy="19.2522" rx="1.9722" ry="1.20499" transform="rotate(50.4315 124.49 19.2522)" fill="#116B40"/>
<ellipse cx="113.27" cy="9.05225" rx="4.27822" ry="3.05769" transform="rotate(61.5233 113.27 9.05225)" fill="#116B40"/>
<ellipse cx="82.4524" cy="12.0022" rx="4.27822" ry="3.05769" transform="rotate(144.462 82.4524 12.0022)" fill="#116B40"/>
<ellipse cx="44.0804" cy="21.196" rx="1.72867" ry="1.48389" transform="rotate(144.462 44.0804 21.196)" fill="#116B40"/>
<ellipse cx="9.30955" cy="51.7322" rx="3.3694" ry="1.82776" transform="rotate(-40.2269 9.30955 51.7322)" fill="#116B40"/>
<ellipse cx="67.3011" cy="39.6311" rx="4.20323" ry="1.94413" transform="rotate(-7.87577 67.3011 39.6311)" fill="#116B40"/>
<ellipse cx="4.53775" cy="63.2501" rx="2.68577" ry="1.47906" transform="rotate(-69.9222 4.53775 63.2501)" fill="#116B40"/>
<ellipse cx="8.15156" cy="83.5115" rx="2.68577" ry="1.47906" transform="rotate(-49.9409 8.15156 83.5115)" fill="#116B40"/>
<ellipse cx="52.5919" cy="9.0384" rx="3.3694" ry="1.82776" transform="rotate(-21.497 52.5919 9.0384)" fill="#116B40"/>
<ellipse cx="139.617" cy="63.5965" rx="1.27485" ry="1.40077" transform="rotate(5.71764 139.617 63.5965)" fill="#116B40"/>
<ellipse cx="153.618" cy="48.9816" rx="0.726861" ry="1.4898" transform="rotate(-12.7504 153.618 48.9816)" fill="#116B40"/>
<path d="M122.211 114.274C121.65 121.08 121.059 121.796 119.936 122.296C117.546 122.604 116.356 122.429 115.856 118.358C116.729 116.412 111.641 113.409 104.554 108.854C97.4669 104.299 97.0405 95.449 95.0212 94.7978C93.4924 92.9704 92.3584 92.1045 88.9912 91.3288C87.4125 89.9821 87.6828 89.5089 89.755 89.0523C89.755 89.0523 93.6852 91.3288 95.0212 90.4254C96.3573 89.5221 90.3633 86.4867 90.3633 86.4867C88.8466 84.8256 88.8967 84.2518 90.3633 83.7766H94.1185C93.4903 81.9212 93.6751 81.055 95.0212 79.8379C95.417 78.1647 95.8898 77.5334 97.4405 77.2724C99.0561 77.7374 98.881 78.5356 98.8126 79.8379V90.4254C100.884 95.4167 101.333 98.1501 106.215 103.398C107.131 104.143 107.501 104.054 108.02 103.398C107.577 100.86 106.802 97.479 110.114 101.302C110.084 97.9653 110.794 98.252 112.245 99.3146C113.858 98.833 114.327 99.383 114.664 101.302L111.486 107.915L117.661 114.274V99.3146C116.65 95.1438 116.801 92.6075 105.312 91.3288C103.838 90.7873 103.037 89.7389 103.94 89.0523C104.843 88.3658 108.634 88.438 108.634 88.438C106.16 86.3177 104.923 85.1001 103.94 82.6926C104.271 81.4136 105.311 81.1704 108.02 81.2111L116.758 89.0523L114.664 78.79H110.114L106.215 77.2724L98.8126 76.5135C98.8126 76.5135 97.4405 75.4656 97.4765 73.9118C97.5126 72.358 98.8126 73.0446 98.8126 73.0446L103.94 73.6589L102.135 70.0092C103.054 69.243 103.543 68.7494 105.312 70.0092L108.02 73.0446C108.02 73.0446 112.245 73.9118 112.245 73.0446C112.245 72.1773 111.486 70.0092 111.486 70.0092C109.867 68.7778 109.031 67.9745 108.02 65.7815C106.628 66.7308 104.166 65.4283 102.845 65.1672C101.972 63.5867 101.112 60.6503 102.845 60.6503C104.578 60.6503 107.629 62.7976 108.634 62.0234C111.182 59.3681 111.673 59.99 113.617 63.8302L116.758 62.0234C117.967 60.257 119.086 59.3562 121.308 57.7957C122.917 58.1178 123.519 58.5998 123.402 60.6503L116.758 68.2025C116.758 68.2025 118.852 73.0446 119.936 73.0446C121.019 73.0446 120.217 69.603 121.308 68.2025C122.778 67.8691 123.141 68.4174 123.402 70.0092L120.838 75.4656L122.211 81.2111L125.388 77.2724L126.724 73.0446L123.402 66.5403C124.278 64.7375 124.89 63.9408 126.724 63.8302L129.288 68.2025L131.129 66.5403L135.173 62.0234C137.333 61.8806 137.771 62.4031 137.918 63.8302V66.5403C140.039 66.5509 141.059 66.6881 141.24 68.2025L140.301 70.0092H136.257L131.129 74.8513H135.173C136.385 75.7973 136.418 76.3267 135.173 77.2724L131.129 78.79L125.388 82.6926L121.308 94.7978C121.308 94.7978 120.838 97.5079 123.402 97.5079C125.966 97.5079 127.482 90.4254 127.482 90.4254C127.482 90.4254 127.482 85.7279 127.627 83.5237C127.771 81.3195 131.129 84.8968 131.129 85.7279C131.129 86.559 133.368 86.4867 133.368 86.4867L136.257 83.4153C139.968 80.2084 139.506 84.5716 140.301 85.7279C141.095 86.8842 143.623 86.4867 143.623 86.4867C145.347 87.6107 144.785 88.1326 143.623 89.0523C143.623 89.0523 140.12 88.6187 137.918 89.0523C135.715 89.4859 131.129 94.7978 131.129 94.7978H133.368C133.982 94.7978 133.729 97.1465 133.368 97.5079C133.007 97.8692 128.53 99.3146 128.53 99.3146L121.308 105.963C121.168 107.139 121.501 107.62 123.402 107.915C125.875 106.965 125.388 103.398 126.724 102.639C128.06 101.88 126.724 100.977 129.288 101.302C131.851 101.627 128.53 105.963 128.53 105.963H131.129C134.776 105.963 134.198 107.991 131.129 110.047C127.076 110.32 124.923 110.761 122.211 114.274Z" fill="#FF488A"/>
<path d="M181.22 109.107L180.079 121.063C180.079 121.063 168.123 123.786 165.879 122.425C163.635 121.063 165.914 110.725 163.635 105.502C163.635 105.502 161.317 99.3581 159.33 99.1742C157.344 98.9902 151.458 96.9301 151.458 96.9301C150.568 94.9044 150.783 93.7686 151.458 91.7429C153.297 90.6797 155.284 90.1242 156.167 89.0205C157.049 87.9169 137.441 51.8273 137.441 51.8273C137.441 51.8273 136.264 50.9444 135.197 50.9444C134.13 50.9444 130.672 54.7704 130.672 53.1517C130.672 51.533 128.759 52.5263 130.672 50.2454C132.585 47.9646 135.97 48.8475 137.441 47.5231C138.913 46.1987 133.431 43.7665 130.672 35.1253C130.672 35.1253 125.706 17.5404 127.324 15.9585C128.943 14.3766 132.953 17.0254 135.197 17.5404C137.441 18.0555 134.94 30.7475 135.197 31.7408C135.455 32.7341 138.618 35.1253 139.722 35.1253C140.826 35.1253 135.957 24.953 139.722 25.4132C142.072 25.7003 143.99 26.7376 143.99 29.7174V37.8109C146.135 47.7329 151.237 62.8639 152.782 63.3054C154.327 63.7468 158.006 60.068 158.006 60.068L163.635 53.1517C164.272 47.5997 164.438 44.5707 163.635 39.6503V25.4132C163.635 25.4132 162.421 5.43701 163.635 4.66445C164.849 3.89189 171.213 2.82502 171.949 6.02562C172.685 9.22623 167.13 20.9986 167.019 23.8313C166.909 26.664 168.601 29.7174 168.601 29.7174C168.601 29.7174 169.815 22.5069 171.949 22.9483C174.083 23.3898 176.695 20.5939 176.032 25.4132C175.37 30.2325 170.808 33.7642 170.845 35.1253C170.882 36.4865 173.312 36.6212 174.892 35.1253L181.22 27.6941L182.801 19.3431C182.801 19.3431 184.567 15.9585 188.43 15.9585C192.293 15.9585 191.815 18.6809 191.594 23.8313C191.373 28.9817 184.126 38.9882 180.079 43.2556C176.032 47.5231 166.173 66.7267 165.879 69.1915C165.584 71.6564 166.86 99.7677 173.531 101.198C180.201 102.627 186.076 91.7429 188.43 91.7429C190.785 91.7429 199.467 93.3248 199.467 93.3248C201.496 96.3994 201.441 98.1232 199.467 101.198H191.594C187.153 102.556 184.714 103.542 181.22 109.107Z" fill="#CE7915"/>
<path d="M216.142 53.004C220.406 45.3165 220.792 20.8353 216.142 10.5486L211.877 12.1711C211.877 12.1711 214.524 21.0176 214.377 25.0352C214.23 29.0528 214.487 41.7624 211.877 41.7624C209.267 41.7624 207.723 43.1531 206.988 41.7624C206.253 40.3717 201.133 27.4364 201.548 12.1711L199.232 10.5486C195.667 11.8087 194.808 14.869 195.555 25.0352C196.884 33.9549 197.536 38.9227 195.555 46.6685C191.347 51.6429 188.049 52.9199 179.417 50.7634C170.546 51.0379 165.864 46.5576 157.839 33.4181C152.971 20.369 150.977 15.9652 148.906 13.9867C146.451 22.9602 147.411 28.5671 152.214 39.3287C157.51 49.1243 161.73 53.9157 172.617 60.5757C176.903 63.753 178.594 66.375 179.417 73.633C178.536 83.549 176.363 88.0526 169.896 94.4551C171.101 102.272 172.687 104.248 176.697 104.654C182.717 104.29 185.652 102.891 189.894 97.7001C190.043 93.5929 189.563 91.2625 192.835 87.3083C199.383 73.4818 211.877 60.6916 216.142 53.004Z" fill="#C8942F"/>
<path d="M218.054 53.004C222.318 45.3165 222.705 20.8353 218.054 10.5486L213.789 12.1711C213.789 12.1711 216.436 21.0176 216.289 25.0352C216.142 29.0528 216.399 41.7624 213.789 41.7624C211.179 41.7624 209.635 43.1531 208.9 41.7624C208.165 40.3717 203.045 27.4364 203.46 12.1711L201.144 10.5486C197.579 11.8087 196.72 14.869 197.468 25.0352C198.796 33.9549 199.448 38.9227 197.468 46.6685C193.259 51.6429 189.961 52.9199 181.33 50.7634C172.458 51.0379 167.776 46.5576 159.751 33.4181C154.883 20.369 152.889 15.9652 150.818 13.9867C148.363 22.9602 149.324 28.5671 154.126 39.3287C159.423 49.1243 163.642 53.9157 174.529 60.5757C178.816 63.753 180.506 66.375 181.33 73.633C180.449 83.549 178.275 88.0526 171.808 94.4551C173.013 102.272 174.599 104.248 178.609 104.654C184.629 104.29 187.564 102.891 191.806 97.7001C191.955 93.5929 191.475 91.2625 194.747 87.3083C201.295 73.4818 213.789 60.6916 218.054 53.004Z" fill="#F4A939"/>
<path d="M183.985 109.142L182.845 121.098C182.845 121.098 170.888 123.82 168.644 122.459C166.4 121.098 168.68 110.76 166.4 105.536C166.4 105.536 164.083 99.3928 162.096 99.2088C160.109 99.0249 154.223 96.9647 154.223 96.9647C153.334 94.939 153.549 93.8033 154.223 91.7776C156.062 90.7144 158.049 90.1589 158.932 89.0552C159.815 87.9516 140.207 51.862 140.207 51.862C140.207 51.862 139.03 50.9791 137.963 50.9791C136.896 50.9791 133.438 54.8051 133.438 53.1864C133.438 51.5677 131.525 52.561 133.438 50.2801C135.351 47.9992 138.735 48.8821 140.207 47.5578C141.678 46.2334 136.196 43.8012 133.438 35.16C133.438 35.16 128.471 17.5751 130.09 15.9932C131.709 14.4113 135.719 17.0601 137.963 17.5751C140.207 18.0901 137.705 30.7822 137.963 31.7755C138.22 32.7688 141.384 35.16 142.488 35.16C143.591 35.16 138.723 24.9877 142.488 25.4478C144.837 25.735 146.755 26.7722 146.755 29.7521V37.8456C148.901 47.7676 154.003 62.8986 155.548 63.34C157.093 63.7815 160.772 60.1026 160.772 60.1026L166.4 53.1864C167.038 47.6344 167.204 44.6054 166.4 39.685V25.4478C166.4 25.4478 165.186 5.47167 166.4 4.69912C167.614 3.92656 173.979 2.85969 174.714 6.06029C175.45 9.26089 169.895 21.0332 169.785 23.8659C169.674 26.6987 171.367 29.7521 171.367 29.7521C171.367 29.7521 172.581 22.5416 174.714 22.983C176.848 23.4245 179.46 20.6285 178.798 25.4478C178.136 30.2671 173.574 33.7988 173.611 35.16C173.648 36.5212 176.077 36.6559 177.658 35.16L183.985 27.7287L185.567 19.3777C185.567 19.3777 187.333 15.9932 191.196 15.9932C195.059 15.9932 194.58 18.7155 194.36 23.8659C194.139 29.0163 186.891 39.0228 182.845 43.2903C178.798 47.5578 168.939 66.7614 168.644 69.2262C168.35 71.691 169.626 99.8024 176.296 101.232C182.967 102.662 188.841 91.7776 191.196 91.7776C193.55 91.7776 202.232 93.3595 202.232 93.3595C204.262 96.4341 204.207 98.1579 202.232 101.232H194.36C189.919 102.591 187.48 103.577 183.985 109.142Z" fill="#FA8A06"/>
</svg>
