<svg width="50" height="29" viewBox="0 0 50 29" fill="none" xmlns="http://www.w3.org/2000/svg">
<path d="M6.71297 8.82078C9.20273 10.5831 11.645 13.0844 11.645 13.0844V17.5394C11.645 17.5394 8.34826 19.413 4.96107 18.9589C3.17845 18.7199 0.623047 18.2039 0.623047 18.2039C0.623047 18.2039 2.55184 16.7247 3.87656 15.6155C5.45822 14.2912 6.13904 13.0844 6.13904 13.0844C6.13904 13.0844 4.70316 11.2609 3.18657 9.57575C1.75809 7.98847 0.623047 5.36951 0.623047 5.36951C0.623047 5.36951 3.86726 6.80653 6.71297 8.82078Z" fill="#FF8829"/>
<path d="M4.57227 8.31165L12.1396 13.7758" stroke="#F4A939" stroke-width="0.501313"/>
<path d="M4.07812 9.15222L11.9744 14.8265" stroke="#F4A939" stroke-width="0.501313"/>
<path d="M6.54688 13.7758L11.9756 15.6672" stroke="#F4A939" stroke-width="0.501313"/>
<path d="M5.23047 15.6672L11.8107 16.2977" stroke="#F4A939" stroke-width="0.501313"/>
<path d="M4.07812 17.7689L11.9744 16.9283" stroke="#F4A939" stroke-width="0.501313"/>
<path d="M19.0478 25.591C20.7752 25.0884 22.3379 21.4929 22.3379 21.4929C22.3379 21.4929 15.5931 16.6592 16.6624 19.076C17.7317 21.4929 15.3464 25.1706 16.9092 25.591C18.472 26.0113 18.3274 25.8005 19.0478 25.591Z" fill="#FA8A06"/>
<path d="M19.8711 20.501L18.555 24.9143" stroke="#F4A939" stroke-width="0.501313"/>
<path d="M21.5156 20.7111L19.377 24.9143" stroke="#F4A939" stroke-width="0.501313"/>
<path d="M17.8965 20.0807L16.9094 24.7042" stroke="#F4A939" stroke-width="0.501313"/>
<path d="M18.8848 20.2906L17.6258 24.9458" stroke="#F4A939" stroke-width="0.501313"/>
<path d="M33.2055 2.74241C34.543 4.45037 35.9199 8.10149 35.9199 8.10149L23.5819 12.0945C23.5819 12.0945 19.4135 14.5775 19.4594 13.5656C19.5101 12.4474 24.3946 6.73545 24.3946 6.73545C24.3946 6.73545 27.0247 6.16258 28.6717 4.21353C29.7309 2.9602 30.9847 0.956055 30.9847 0.956055C30.9847 0.956055 31.8681 1.03446 33.2055 2.74241Z" fill="#FA8A06"/>
<path d="M29.9876 3.26794C32.8171 7.47114 33.7438 9.01231 33.8535 9.2575" stroke="#F4A939" stroke-width="0.501313"/>
<path d="M31.304 2.427C34.1335 6.6302 35.0603 8.17137 35.1699 8.41656" stroke="#F4A939" stroke-width="0.501313"/>
<path d="M27.3567 6.21021C30.1863 10.4134 31.113 11.9546 31.2227 12.1998" stroke="#F4A939" stroke-width="0.501313"/>
<path d="M25.7122 6.63049C28.5417 10.8337 29.4685 12.3749 29.5781 12.62" stroke="#F4A939" stroke-width="0.501313"/>
<path d="M24.7239 7.68115C27.5535 11.8843 28.4802 13.4255 28.5898 13.6707" stroke="#F4A939" stroke-width="0.501313"/>
<path d="M23.4075 8.73206C26.237 12.9353 27.1638 14.4764 27.2734 14.7216" stroke="#F4A939" stroke-width="0.501313"/>
<path d="M22.4212 10.2031C25.2507 14.4063 26.1774 15.9475 26.2871 16.1927" stroke="#F4A939" stroke-width="0.501313"/>
<path d="M29.9876 3.26794C32.8171 7.47114 33.7438 9.01231 33.8535 9.2575" stroke="#F4A939" stroke-width="0.501313"/>
<path d="M28.6732 4.52881C31.5027 8.732 32.4294 10.2732 32.5391 10.5184" stroke="#F4A939" stroke-width="0.501313"/>
<path d="M28.2156 23.6028C29.1105 22.1731 30.2762 21.459 31.1005 21.5611C31.9247 21.6632 32.334 26.6311 31.1005 27.7883C30.4331 28.4142 29.8147 27.7883 28.7824 27.7883C27.75 27.7883 27.2641 27.2509 27.2736 25.7466C27.2802 24.6941 27.7692 24.316 28.2156 23.6028Z" fill="#FF8829"/>
<path d="M30.8926 22.6025L30.4715 27.2657" stroke="#F4A939" stroke-width="0.501313"/>
<path d="M30.0703 22.6025L28.2607 26.8057" stroke="#F4A939" stroke-width="0.501313"/>
<path d="M30.5645 22.6025L29.47 27.0476" stroke="#F4A939" stroke-width="0.501313"/>
<path d="M37.484 8.10167C41.8571 9.51491 49.4831 14.8268 49.4831 16.1928C49.4831 17.5589 42.3812 22.2051 37.484 24.0738C31.5847 26.3249 27.7597 23.1816 21.7736 21.3417C16.9774 19.8676 11.5742 17.7067 11.5742 17.7067V12.9781C11.5742 12.9781 16.218 13.5737 21.0333 12.8303C27.0916 11.8949 31.568 6.18982 37.484 8.10167Z" fill="#D36629"/>
<ellipse cx="42.0081" cy="13.7758" rx="0.822533" ry="1.0508" fill="#1B365D"/>
<path d="M35.4165 23.025C36.3753 21.5953 36.4129 21.0411 37.296 21.1432C38.1791 21.2452 38.6177 26.2132 37.296 27.3703C36.581 27.9963 36.0177 27.6175 34.8123 27.3703C33.6069 27.1231 33.6892 26.9129 34.1004 25.9672C35.0979 23.6735 34.9232 23.7606 35.4165 23.025Z" fill="#FF8829"/>
<path d="M37.4727 22.1821L37.0516 26.8453" stroke="#F4A939" stroke-width="0.501313"/>
<path d="M36.6504 22.1821L34.8408 26.3853" stroke="#F4A939" stroke-width="0.501313"/>
<path d="M37.1445 22.1821L36.0501 26.6272" stroke="#F4A939" stroke-width="0.501313"/>
<path d="M39.9414 9.36243C39.9414 9.36243 37.5945 12.9082 37.4785 15.7074C37.3485 18.846 39.9414 23.0228 39.9414 23.0228" stroke="#C52818" stroke-width="1.00263"/>
</svg>
