<svg width="243" height="213" viewBox="0 0 243 213" fill="none" xmlns="http://www.w3.org/2000/svg">
<path d="M69.9525 70.2314C65.2615 84.76 65.4329 111.51 65.4329 111.51L120.011 90.5661C120.011 90.5661 125.014 70.8114 126.396 58.1527C126.77 54.7281 126.199 49.4195 123.418 47.3873C120.703 45.4044 115.88 48.766 115.88 48.766L110.359 52.3984C110.359 52.3984 110.986 51.0282 111.683 48.84C112.379 46.6519 111.732 44.2114 110.573 41.9444C109.09 39.0436 104.067 41.0064 101.645 42.704C97.5805 45.5532 94.8356 47.9834 94.8356 47.9834C94.8356 47.9834 97.0147 42.6502 93.6128 40.7924C89.4333 38.51 86.1317 38.931 83.26 42.8445C76.1974 52.4692 73.9805 57.756 69.9525 70.2314Z" fill="#835FD8"/>
<path d="M76.4815 94.4927C76.4815 94.4927 76.2854 72.1552 81.1653 59.0913C83.5081 52.8195 88.8569 43.7697 88.8569 43.7697" stroke="#A382EF" stroke-width="2" stroke-linecap="round"/>
<path d="M178.517 60.8389C169.749 78.794 173.071 111.715 173.071 111.715C173.071 111.715 193.503 129.399 209.44 130.411C220.195 131.094 236.43 124.664 236.43 124.664C236.43 124.664 230.731 113.473 224.804 108.382C216.068 100.878 197.105 98.2667 197.105 98.2667C197.105 98.2667 215.776 77.8078 212.788 63.0539C210.457 51.5484 194.138 39.4791 194.138 39.4791C194.138 39.4791 183.052 51.5531 178.517 60.8389Z" fill="#835FD8"/>
<path d="M177.223 105.512C177.223 105.512 178.974 83.2429 184.974 70.654C187.855 64.6102 193.972 56.0611 193.972 56.0611" stroke="#A382EF" stroke-width="2" stroke-linecap="round"/>
<path d="M177.787 107.985C177.787 107.985 184.175 91.8639 190.989 83.3273C193.999 79.5577 199.442 74.3216 199.442 74.3216" stroke="#A382EF" stroke-width="2" stroke-linecap="round"/>
<path d="M111.455 90.7223C111.455 90.7223 111.944 73.3886 115.428 63.0362C116.966 58.4647 120.291 51.6826 120.291 51.6826" stroke="#A382EF" stroke-width="2" stroke-linecap="round"/>
<path d="M90.6733 81.7269C90.6733 81.7269 94.165 64.7415 99.3935 55.1513C101.702 50.9164 106.154 44.8146 106.154 44.8146" stroke="#A382EF" stroke-width="2" stroke-linecap="round"/>
<path d="M177.475 111.177C177.475 111.177 192.915 122.02 204.348 123.146C210.743 123.776 220.751 121.845 220.751 121.845" stroke="#A382EF" stroke-width="2" stroke-linecap="round"/>
<path d="M179.668 106.879C179.668 106.879 192.72 113.011 201.627 113.05C205.534 113.067 211.567 111.925 211.567 111.925" stroke="#A382EF" stroke-width="2" stroke-linecap="round"/>
<path d="M80.4597 78.5927C48.5141 93.5191 35.7171 154.88 34.373 161.767C34.2954 162.165 34.4631 162.531 34.807 162.745C40.567 166.334 89.953 196.222 121.833 186.41C157.078 175.563 178.921 113.735 181.354 106.544C181.495 106.127 181.363 105.71 180.999 105.463C174.514 101.077 115.447 62.245 80.4597 78.5927Z" fill="#F87EAA"/>
<path d="M105.576 144.045C77.432 157.195 46.7739 161.103 37.226 162.047C36.2656 162.142 35.9642 163.393 36.7922 163.889C47.8772 170.526 92.3214 195.395 121.799 186.323C155.136 176.063 176.483 120.191 180.755 108.087C181.055 107.237 180.172 106.511 179.377 106.935C170.703 111.562 137.451 129.152 105.576 144.045Z" fill="#F39ABA"/>
<path d="M53.2578 115.82C53.2578 115.82 73.7194 126.215 79.2471 138.499C85.445 152.273 76.7714 177.095 76.7714 177.095" stroke="#F16497" stroke-width="2"/>
<circle cx="53.3891" cy="144.196" r="3.58644" transform="rotate(-20.9936 53.3891 144.196)" fill="#1B365D"/>
<path d="M123.018 103.834C110.002 102.956 96.731 131.181 96.731 131.181C96.731 131.181 91.7992 140.467 100.822 141.841C109.844 143.215 119.311 143.833 130.992 141.476C142.673 139.119 140.641 136.002 139.552 132.241C136.783 122.677 135.077 118.23 131.118 110.261C129.41 106.822 126.933 104.099 123.018 103.834Z" fill="#835FD8"/>
<path d="M101.543 136.543C101.543 136.543 105.342 123.562 110.88 117.432C113.76 114.244 119.346 110.435 119.346 110.435" stroke="#A382EF" stroke-width="2" stroke-linecap="round"/>
<path d="M101.969 137.079C101.969 137.079 113.893 139.068 121.493 137.901C126.511 137.131 134.008 134.314 134.008 134.314" stroke="#A382EF" stroke-width="2" stroke-linecap="round"/>
<path d="M103.022 136.262C103.022 136.262 108.796 126.543 114.455 122.114C117.578 119.671 123.174 116.877 123.174 116.877" stroke="#A382EF" stroke-width="2" stroke-linecap="round"/>
<path d="M102.525 136.097C102.525 136.097 112.292 134.27 118.57 131.861C121.919 130.576 130.652 125.304 130.652 125.304" stroke="#A382EF" stroke-width="2" stroke-linecap="round"/>
</svg>
