<svg width="52" height="29" viewBox="0 0 52 29" fill="none" xmlns="http://www.w3.org/2000/svg">
<path d="M6.41094 8.41275C9.03195 10.2979 11.603 12.9735 11.603 12.9735V17.739C11.603 17.739 8.13243 19.7432 4.5667 19.2574C2.69011 19.0018 0 18.4498 0 18.4498C0 18.4498 2.03046 16.8675 3.42502 15.681C5.09005 14.2644 5.80676 12.9735 5.80676 12.9735C5.80676 12.9735 4.29519 11.023 2.69866 9.22033C1.19488 7.52243 0 4.72095 0 4.72095C0 4.72095 3.41523 6.25812 6.41094 8.41275Z" fill="#FF8829"/>
<path d="M4.15625 7.86816L12.1225 13.7131" stroke="#F4A939" stroke-width="0.54717"/>
<path d="M3.63672 8.76746L11.9493 14.8372" stroke="#F4A939" stroke-width="0.54717"/>
<path d="M6.23438 13.7133L11.9493 15.7365" stroke="#F4A939" stroke-width="0.54717"/>
<path d="M4.84961 15.7365L11.7767 16.4109" stroke="#F4A939" stroke-width="0.54717"/>
<path d="M3.63672 17.9845L11.9493 17.0853" stroke="#F4A939" stroke-width="0.54717"/>
<path d="M19.3958 26.3517C21.2143 25.8141 22.8594 21.968 22.8594 21.968C22.8594 21.968 15.7591 16.7974 16.8847 19.3827C18.0104 21.968 15.4993 25.9021 17.1445 26.3517C18.7897 26.8013 18.6375 26.5759 19.3958 26.3517Z" fill="#FA8A06"/>
<path d="M20.2617 20.9069L18.8763 25.6278" stroke="#F4A939" stroke-width="0.54717"/>
<path d="M21.9941 21.1317L19.7428 25.6278" stroke="#F4A939" stroke-width="0.54717"/>
<path d="M18.1836 20.4574L17.1445 25.4031" stroke="#F4A939" stroke-width="0.54717"/>
<path d="M19.2227 20.6821L17.8974 25.6617" stroke="#F4A939" stroke-width="0.54717"/>
<path d="M34.2993 1.91085C35.7073 3.73784 37.1568 7.64341 37.1568 7.64341L24.1684 11.9147C24.1684 11.9147 19.7802 14.5707 19.8285 13.4884C19.8819 12.2922 25.0239 6.18217 25.0239 6.18217C25.0239 6.18217 27.7926 5.56937 29.5265 3.4845C30.6415 2.14382 31.9614 0 31.9614 0C31.9614 0 32.8913 0.083868 34.2993 1.91085Z" fill="#FA8A06"/>
<path d="M30.9127 2.4729C33.8914 6.96902 34.867 8.6176 34.9824 8.87988" stroke="#F4A939" stroke-width="0.54717"/>
<path d="M32.2975 1.57361C35.2762 6.06973 36.2517 7.71831 36.3672 7.98059" stroke="#F4A939" stroke-width="0.54717"/>
<path d="M28.1412 5.62024C31.1199 10.1164 32.0955 11.7649 32.2109 12.0272" stroke="#F4A939" stroke-width="0.54717"/>
<path d="M26.4088 6.06995C29.3875 10.5661 30.3631 12.2146 30.4785 12.4769" stroke="#F4A939" stroke-width="0.54717"/>
<path d="M25.3698 7.19385C28.3484 11.69 29.324 13.3386 29.4395 13.6008" stroke="#F4A939" stroke-width="0.54717"/>
<path d="M23.985 8.31775C26.9637 12.8139 27.9392 14.4625 28.0547 14.7247" stroke="#F4A939" stroke-width="0.54717"/>
<path d="M22.9459 9.8916C25.9246 14.3877 26.9002 16.0363 27.0156 16.2986" stroke="#F4A939" stroke-width="0.54717"/>
<path d="M30.9127 2.4729C33.8914 6.96902 34.867 8.6176 34.9824 8.87988" stroke="#F4A939" stroke-width="0.54717"/>
<path d="M29.526 3.82166C32.5047 8.31778 33.4803 9.96636 33.5957 10.2286" stroke="#F4A939" stroke-width="0.54717"/>
<path d="M29.0465 24.2251C29.9886 22.6958 31.2157 21.932 32.0834 22.0412C32.9511 22.1504 33.382 27.4645 32.0834 28.7023C31.3809 29.3719 30.73 28.7023 29.6431 28.7023C28.5563 28.7023 28.0448 28.1274 28.0548 26.5183C28.0618 25.3925 28.5765 24.988 29.0465 24.2251Z" fill="#FF8829"/>
<path d="M31.8652 23.155L31.4219 28.1432" stroke="#F4A939" stroke-width="0.54717"/>
<path d="M30.998 23.155L29.0931 27.6512" stroke="#F4A939" stroke-width="0.54717"/>
<path d="M31.5176 23.155L30.3655 27.9098" stroke="#F4A939" stroke-width="0.54717"/>
<path d="M38.8029 7.64344C43.4065 9.15517 51.4345 14.8372 51.4345 16.2985C51.4345 17.7597 43.9583 22.7298 38.8029 24.7287C32.5926 27.1367 28.566 23.7743 22.2644 21.8062C17.2153 20.2294 11.5273 17.9179 11.5273 17.9179V12.8598C11.5273 12.8598 16.4159 13.4968 21.4851 12.7016C27.8627 11.7011 32.5751 5.59835 38.8029 7.64344Z" fill="#1A9E47"/>
<ellipse cx="43.5651" cy="13.7131" rx="0.865892" ry="1.12403" fill="#1B365D"/>
<path d="M36.6273 23.607C37.6366 22.0777 37.6762 21.4849 38.6058 21.5941C39.5355 21.7033 39.9972 27.0174 38.6058 28.2552C37.8531 28.9248 37.2602 28.5196 35.9912 28.2552C34.7223 27.9908 34.8089 27.766 35.2419 26.7543C36.2919 24.3007 36.108 24.3939 36.6273 23.607Z" fill="#FF8829"/>
<path d="M38.791 22.7053L38.3477 27.6934" stroke="#F4A939" stroke-width="0.54717"/>
<path d="M37.9258 22.7053L36.0208 27.2014" stroke="#F4A939" stroke-width="0.54717"/>
<path d="M38.4453 22.7053L37.2932 27.4601" stroke="#F4A939" stroke-width="0.54717"/>
<path d="M41.3887 8.99231C41.3887 8.99231 38.918 12.7852 38.796 15.7795C38.6591 19.1369 41.3887 23.6047 41.3887 23.6047" stroke="#C52818" stroke-width="1.09434"/>
</svg>
