<svg width="213" height="497" viewBox="0 0 213 497" fill="none" xmlns="http://www.w3.org/2000/svg">
<path d="M152.032 27.7272C152.032 27.7272 148.233 5.4649 113.135 1.55543C78.0369 -2.35405 70.764 32.4692 70.764 32.4692C65.0592 40.2705 64.3946 44.3859 64.9747 51.546C64.9747 51.546 59.0044 56.9034 59.2215 61.3197C59.4386 65.7359 62.7313 76.8852 62.7313 76.8852C60.2763 85.8069 60.6008 90.8074 64.9747 99.7266L73.0074 104.722L79.2671 116.016C87.5494 125.506 92.6385 130.034 102.605 136.577L140.706 152.142C149.849 154.028 155.01 155.547 164.298 159.418C164.298 159.418 184.271 163.726 187.347 157.934C190.422 152.142 192.823 150.314 202.399 147.871C206.288 146.697 208.486 147.285 212.422 149.391C211.204 144.991 210.066 142.879 204.172 142.115C206.294 139.506 207.207 137.987 207.935 135.093C208.424 132.447 208.097 130.965 206.162 128.324L204.172 133.066C201.595 134.346 200.101 133.668 197.406 131.582L193.136 116.016C193.702 107.378 193.542 102.323 187.347 90.6769C182.955 84.9403 180.267 82.1093 174.827 78.1521C174.827 78.1521 179.712 74.8942 180.074 70.8761C180.436 66.8581 179.406 65.5415 176.311 64.8309C176.463 68.5782 175.289 69.9489 170.558 70.8761L159.341 46.261L152.032 27.7272Z" fill="#8E1F1F" stroke="#392424"/>
<path d="M165.203 87.5169C152.999 83.1117 151.639 68.9568 151.639 68.9568L153.517 60.4055L178.734 78.1235C178.734 78.1235 180.608 80.1868 189.578 90.4321C198.547 100.677 193.662 108.584 192.912 115.049C192.162 121.514 178.374 127.377 175.626 124.832C170.747 121.911 171.036 120.862 170.608 118.807C173.05 120.106 174.164 120.457 175.626 120.459C185.02 118.684 182.051 114.921 182.715 112.134C183.38 109.347 177.406 91.9221 165.203 87.5169Z" fill="#CA2C2C"/>
<path d="M15.5061 302.096C20.8567 251.166 34.3624 222.431 78.1017 170.839L107.055 197.541L137.883 187.598C141.465 217.759 138.296 234.632 122.938 264.639C122.938 264.639 63.594 336.739 54.2766 358.063C44.9592 379.387 52.338 419.658 56.3402 424.223C60.3423 428.788 102.74 456.803 102.74 456.803L99.5505 462.868C64.1204 452.142 43.9006 447.137 21.6343 399.022L21.5026 398.545C12.8568 367.234 7.96884 349.532 15.5061 302.096Z" fill="#7B2A7C"/>
<path d="M24.9506 256.322C44.3904 200.355 77.2908 171.089 77.2908 171.089L85.0449 179.719C85.0449 179.719 49.7137 236.686 39.6459 256.322C29.5781 275.957 21.4488 361.878 21.4488 361.878L21.4488 400.398L13.2569 361.878C13.2569 361.878 5.51086 312.289 24.9506 256.322Z" fill="#5E1C5F"/>
<path d="M61.2838 152.392L82.9203 126.816L97.0527 110.682L97.0527 85.4189H91.1746L88.1105 85.7941L64.9107 123.502L50.4656 138.947L21.5127 152.392L7.13013 154.768L0.00135803 158.833L4.75388 160.646L17.2605 160.646L10.0692 162.585L13.3209 164.586L61.2838 152.392Z" fill="#E5B28B"/>
<path d="M161.895 212.674L138.633 190.037L132.379 161.084L142.822 139.385L145.949 137.947V165.461L156.83 185.597L171.462 209.797L198.164 230.058L193.474 231.496L178.716 224.117L187.096 231.496H182.656L166.085 221.929L161.895 212.674Z" fill="#E5B28B"/>
<path d="M93.8611 151.766L87.2951 161.209L88.108 171.777C95.8489 184.193 99.9881 188.506 107.368 196.165C119.459 194.47 125.422 190.657 134.695 178.718C134.828 171.833 134.872 167.802 134.695 159.145C138.659 153.604 140.578 150.01 143.012 142.011L145.951 128.379V119.499L147.514 118.311C148.684 110.893 147.596 106.774 143.012 99.4887C138.946 96.0037 135.664 94.2892 128.755 91.4844L124.315 85.7314V73.2873L107.368 75.5385V85.7314C99.4528 84.19 95.1603 83.8961 88.108 85.7314L90.4843 128.379L93.8611 151.766Z" fill="#E6B28B"/>
<path d="M132.958 128.191L144.777 117.311C144.777 117.311 149.029 117.811 150.28 122.313C151.531 126.816 151.656 130.88 150.28 132.819C148.904 134.757 146.403 142.887 138.586 140.01C130.77 137.134 129.894 132.819 129.894 132.819L132.958 128.191Z" fill="#703FAE"/>
<ellipse cx="2.37626" cy="2.87652" rx="2.37626" ry="2.87652" transform="matrix(-1 0 0 1 132.707 126.816)" fill="#EB6C03"/>
<path d="M92.1103 113.684C92.1103 113.684 100.802 116.185 102.178 118.124C103.554 120.062 107.806 135.133 105.993 135.133C104.179 135.133 96.6752 131.631 96.6752 131.631C96.6752 131.631 94.424 135.133 92.1103 135.133C89.7966 135.133 89.9216 131.631 87.6704 128.879C85.4193 126.128 83.856 126.628 82.7929 127.379C81.7298 128.129 81.7298 130.13 79.7913 130.13C77.8527 130.13 72.6625 120.062 70.4738 120.062C68.2852 120.062 69.4108 124.064 68.035 124.189C66.6593 124.314 63.7828 122.063 63.6577 120.062C63.5327 118.061 72.1622 102.24 75.2263 103.053C78.2905 103.866 81.7298 109.432 81.7298 109.432L92.1103 113.684Z" fill="#9069C2"/>
<path d="M126.752 105.742C130.068 104.442 134.818 94.1735 134.818 94.1735L132.129 92.7353C132.129 92.7353 128.766 101.002 125.313 101.427C121.861 101.853 103.96 85.7374 104.49 85.1688L99.4872 84.5434V86.6696C99.3556 87.6829 123.435 107.042 126.752 105.742Z" fill="#E29118"/>
<path d="M123.203 117.811L128.768 126.19C128.768 126.19 130.894 129.317 128.768 132.194C126.642 135.07 121.139 140.698 113.885 138.509C106.631 136.321 101.64 135.515 99.9402 130.318C98.2401 125.12 98.1043 121.387 99.9402 116.435C102.288 111.617 108.632 111.495 113.885 111.995C119.138 112.496 123.203 117.811 123.203 117.811Z" fill="#703FAE"/>
<path d="M122.688 264.701C138.539 235.941 140.508 219.376 138.384 189.474C138.384 189.474 137.645 189.77 137.168 189.874C137.177 189.549 137.146 189.408 137.07 189.474C136.564 189.914 136.779 189.958 137.168 189.874C137.044 194.405 129.031 234.785 121.562 251.882C116.132 264.313 86.6657 308.609 68.2784 335.809C63.5688 342.58 58.6722 349.781 53.3386 357.75C53.3386 357.75 59.5644 348.699 68.2784 335.809C85.0294 311.725 99.4146 293.084 122.688 264.701Z" fill="#A850AA"/>
<path d="M88.6689 169.338C87.4864 161.176 88.8116 157.785 94.422 151.891H85.7299C75.3789 157.984 73.2316 162.361 78.0383 171.464C85.8659 183.448 94.2954 188.855 107.179 197.603C108.19 200.035 144.001 192.361 144.136 182.157C144.271 171.954 144.242 168.055 136.319 162.209C136.319 162.209 136.319 169.276 133.38 176.655C130.441 184.033 122.62 195.996 107.179 195.102C98.2762 185.951 94.4742 180.345 88.6689 169.338Z" fill="#482F8E"/>
<path d="M88.1069 59.3424C91.8557 70.1228 108.68 81.3541 112.557 81.1665C116.434 80.9789 129.234 71.6315 134.757 61.3435C136.321 46.1782 135.693 37.6758 134.757 22.5104L118.435 22.5104L87.1064 23.9487L88.1069 59.3424Z" fill="#F2C39F"/>
<path d="M115.812 168.775C113.934 170.63 113.788 171.867 114.187 174.216" stroke="#995B30" stroke-width="2" stroke-linecap="round"/>
<path d="M110.197 56.0283C108.557 58.7172 110.132 58.8911 111.463 59.4591" stroke="#995B30" stroke-width="2" stroke-linecap="round"/>
<path d="M138.671 29.2223C147.631 32.9673 151.112 38.1474 157.52 43.0968C156.889 33.6704 149.13 21.1616 139.884 17.9515C130.638 14.7415 123.999 12.9729 114.503 12.9938C109.077 12.4544 105.471 11.0678 95.2612 12.9938C85.0514 14.9199 75.8411 24.3003 75.8411 24.3003C67.5923 32.7008 66.1469 37.2494 65.3457 45.2725C69.3994 40.1106 76.9835 34.8577 81.5886 30.8273C86.1937 26.7969 91.6034 27.576 99.8306 22.9093C108.058 18.2426 112.512 15.7596 114.503 16.3465C120.792 20.8266 129.71 25.4773 138.671 29.2223Z" fill="#CA2C2C"/>
<path d="M181.969 72.4085C184.067 69.3499 181.342 61.3108 178.842 56.9662C178.842 56.9662 178.885 64.8299 174.465 65.3457C170.045 65.8615 170.398 64.1698 170.398 64.1698C170.398 64.1698 165.676 46.9744 162.125 43.5353C158.573 40.0962 138.58 25.3726 131.296 23.6944C124.013 22.0162 119.203 16.6081 113.427 12.13C113.427 12.13 109.611 16.8918 105.002 19.6128C100.393 22.3339 92.7988 23.6944 88.9075 25.5084C85.0162 27.3224 70.9244 38.0176 70.9244 38.0176C63.571 43.4315 60.7239 45.9162 58.4193 54.1171C56.1148 62.318 55.5858 68.1002 61.7439 73.9957C67.902 79.8913 74.6646 78.0017 74.6646 78.0017C77.7913 75.5879 78.8799 74.0078 78.4048 70.3677L74.6646 72.4085C70.9768 71.5887 70.9244 67.3821 70.9244 63.3383C70.9244 59.2946 78.4048 48.2215 80.1426 46.0673C81.8805 43.9132 90.9476 35.8635 97.9747 33.8605C105.002 31.8575 113.427 21.767 113.427 21.767C115.241 24.2465 115.58 26.2643 118.074 28.1161C120.567 29.9679 132.241 35.3344 136.812 38.0176C141.384 40.7009 147.751 52.7263 151.395 64.1698C155.935 70.6317 159.828 75.1395 165.717 78.1839C172.231 79.4934 176.777 78.272 181.969 72.4085Z" fill="#AA1818"/>
<path d="M133.944 411.529C125.937 433.28 117.37 446.883 97.049 459.554C97.5088 464.585 108.414 468.336 145.325 488.007C171.278 500.393 180.567 497.08 199.041 494.886C222.836 488.1 235.937 482.495 254.632 437.48C257.455 418.278 256.965 406.916 242.814 382.826C239.283 399.794 218.676 424.036 216.8 425.161C215.412 425.994 194.594 435.444 173.177 441.705C178.878 438.648 182.466 433.686 184.908 425.161C186.799 414.567 184.904 407.695 180.406 395.083C175.571 379.942 163.084 360.94 161.708 354.124C160.333 347.307 163.084 324.483 163.084 324.483L153.516 334.551C153.516 334.551 141.635 346.557 138.946 356.375C136.257 366.192 133.944 411.529 133.944 411.529Z" fill="#482F8E"/>
<path d="M111.333 67.1292L117.123 67.6794C115.655 69.5012 113.612 71.9791 111.697 71.354C109.783 70.7288 107.518 68.7005 107.518 68.7005C107.518 68.7005 110.575 67.0571 111.333 67.1292Z" fill="#9B5252"/>
<path d="M235.895 412.064C241.82 396.464 242.332 384.077 242.332 384.077C240.399 395.303 238.678 404.204 235.895 412.064C234.839 414.845 233.61 417.728 232.182 420.661C225.922 432.681 215.411 443.178 194.85 457.991C154.857 475.849 141.636 475.648 97.4858 459.429L97.9236 460.993C97.9236 460.993 149.485 485.868 194.85 460.555C213.914 449.917 225.341 434.714 232.182 420.661C233.621 417.899 234.835 415.057 235.895 412.064Z" fill="#6B53B0"/>
<path d="M212.61 477.365C258.322 450.413 243.502 384.014 243.502 384.014C237.584 420.332 250.589 446.589 212.61 475.5C172.312 494.514 142.724 479.325 98.2373 462.056L100.614 462.982C100.614 462.982 166.899 504.317 212.61 477.365Z" fill="#6B53B0"/>
<path d="M96.985 460.242C128.926 466.248 145.427 460.939 173.275 441.732C173.275 441.732 164.333 452.301 144.135 460.242C123.937 468.184 96.985 460.242 96.985 460.242Z" fill="#6B53B0"/>
<path d="M165.586 419.095C171.527 405.901 169.651 371.445 169.651 371.445L168.4 368.631C168.4 368.631 170.356 405.088 163.46 419.095C156.564 433.103 144.7 442.67 140.823 446.61C136.946 450.55 98.4879 460.305 98.4879 460.305V462.431C98.4879 462.431 133.569 454.989 142.511 448.549C151.453 442.108 159.645 432.29 165.586 419.095Z" fill="#6B53B0"/>
<path d="M98.4276 459.554L98.0524 458.992L97.1144 459.679L97.177 460.43L98.6152 462.618L98.4276 459.554Z" fill="#6B53B0"/>
<path d="M152.203 385.39C154.27 368.756 162.959 325.421 162.959 325.421L163.084 324.545L160.958 326.797C160.958 326.797 151.891 367.631 150.265 385.39C148.639 403.149 155.705 404.525 146.513 420.534C137.32 436.542 97.987 459.867 97.987 459.867C97.5027 461.051 97.5223 461.113 97.987 461.43C97.987 461.43 136.445 438.168 147.638 421.409C158.832 404.65 150.137 402.024 152.203 385.39Z" fill="#6B53B0"/>
</svg>
