<svg width="17" height="25" viewBox="0 0 17 25" fill="none" xmlns="http://www.w3.org/2000/svg">
<path fill-rule="evenodd" clip-rule="evenodd" d="M8.5 0C10.7543 0 12.9163 0.797139 14.5104 2.21606C16.1045 3.63497 17 5.55944 17 7.56609C17 14.1004 8.5 24.7617 8.5 24.7617C8.5 24.7617 0 14.4444 0 7.56609C0 5.55944 0.895533 3.63497 2.48959 2.21606C4.08365 0.797139 6.24566 0 8.5 0ZM12.3636 7.56609C12.3636 6.88589 12.137 6.22097 11.7125 5.65541C11.288 5.08985 10.6845 4.64904 9.97855 4.38875C9.27256 4.12845 8.49571 4.06034 7.74624 4.19304C6.99677 4.32574 6.30834 4.65328 5.768 5.13426C5.22766 5.61523 4.85968 6.22802 4.7106 6.89515C4.56152 7.56227 4.63804 8.25377 4.93046 8.88219C5.22289 9.51061 5.71811 10.0477 6.35348 10.4256C6.98885 10.8035 7.73584 11.0052 8.5 11.0052C9.5247 11.0052 10.5074 10.6429 11.232 9.99792C11.9566 9.35296 12.3636 8.4782 12.3636 7.56609Z" fill="#4366E1"/>
</svg>
