<svg width="41" height="41" viewBox="0 0 41 41" fill="none" xmlns="http://www.w3.org/2000/svg">
<g clip-path="url(#clip0_259_879)">
<path fill-rule="evenodd" clip-rule="evenodd" d="M20.4217 40.9998L20.44 40.9999H20.4337L20.4217 40.9998ZM20.5663 40.9999H20.56L20.5783 40.9998L20.5663 40.9999ZM20.3591 40.9995L20.3788 40.9996H20.3675L20.3591 40.9995ZM20.6325 40.9996H20.6212L20.6409 40.9995L20.6325 40.9996ZM20.2987 40.999L20.3119 40.9991L20.3013 40.999H20.2987ZM20.6987 40.999L20.6881 40.9991L20.7013 40.999H20.6987ZM20.7648 40.9983L20.7602 40.9984L20.778 40.9982L20.7648 40.9983ZM20.222 40.9982L20.2398 40.9984L20.2352 40.9983L20.222 40.9982ZM20.8309 40.9974L20.8201 40.9975L20.8421 40.9972L20.8309 40.9974ZM20.1579 40.9972L20.1799 40.9975L20.1691 40.9974L20.1579 40.9972ZM20.8969 40.9962L20.8823 40.9965L20.9026 40.9961L20.8969 40.9962ZM20.0974 40.9961L20.1177 40.9965L20.1031 40.9962L20.0974 40.9961ZM20.0223 40.9946L20.0404 40.995L20.0371 40.9949L20.0223 40.9946ZM20.9629 40.9949L20.9596 40.995L20.9777 40.9946L20.9629 40.9949ZM19.9565 40.9929L19.9813 40.9935L19.9712 40.9933L19.9565 40.9929ZM21.0288 40.9933L21.0187 40.9935L21.0435 40.9929L21.0288 40.9933ZM21.0947 40.9915L21.0786 40.992L21.1039 40.9913L21.0947 40.9915ZM19.8961 40.9913L19.9214 40.992L19.9053 40.9915L19.8961 40.9913ZM19.8385 40.9895L19.8565 40.9901L19.8395 40.9895L19.824 40.989L19.8385 40.9895ZM21.1605 40.9895L21.1435 40.9901L21.1615 40.9895L21.176 40.989L21.1605 40.9895ZM21.2262 40.9873L21.2173 40.9877L21.2449 40.9867L21.2262 40.9873ZM19.7551 40.9867L19.7827 40.9877L19.7738 40.9873L19.7551 40.9867ZM19.6951 40.9845L19.7241 40.9855L19.708 40.9849L19.6951 40.9845ZM21.292 40.9849L21.2759 40.9855L21.3049 40.9845L21.292 40.9849ZM19.6363 40.9821L19.6646 40.9833L19.6424 40.9824L19.6363 40.9821ZM21.3576 40.9824L21.3354 40.9833L21.3637 40.9821L21.3576 40.9824ZM19.5538 40.9785L19.5842 40.9798L19.5768 40.9796L19.5538 40.9785ZM21.4232 40.9796L21.4158 40.9798L21.4462 40.9785L21.4232 40.9796ZM19.4946 40.9757L19.5262 40.9772L19.5113 40.9765L19.4946 40.9757ZM21.4887 40.9765L21.4738 40.9772L21.5054 40.9757L21.4887 40.9765ZM19.4363 40.9728L19.4681 40.9744L19.4458 40.9733L19.4363 40.9728ZM21.5542 40.9733L21.5319 40.9744L21.5637 40.9728L21.5542 40.9733ZM21.6197 40.9699L21.5907 40.9714L21.6164 40.97L21.6467 40.9684L21.6197 40.9699ZM19.3836 40.97L19.4093 40.9714L19.3803 40.9699L19.3533 40.9684L19.3836 40.97ZM21.6851 40.9662L21.6723 40.9669L21.7048 40.9651L21.6851 40.9662ZM19.2952 40.9651L19.3277 40.9669L19.3149 40.9662L19.2952 40.9651ZM19.2374 40.9616L19.2698 40.9636L19.2496 40.9624L19.2374 40.9616ZM21.7504 40.9624L21.7302 40.9636L21.7626 40.9616L21.7504 40.9624ZM19.1822 40.9582L19.2115 40.96L19.1842 40.9584L19.1569 40.9566L19.1822 40.9582ZM21.8158 40.9584L21.7885 40.96L21.8178 40.9582L21.8432 40.9566L21.8158 40.9584ZM21.8809 40.9541L21.8712 40.9548L21.9022 40.9527L21.8809 40.9541ZM19.0978 40.9527L19.1288 40.9548L19.1191 40.9541L19.0978 40.9527ZM19.0401 40.9487L19.0705 40.9508L19.0539 40.9497L19.0401 40.9487ZM21.9461 40.9497L21.9295 40.9508L21.9599 40.9487L21.9461 40.9497ZM18.9825 40.9446L19.0105 40.9466L18.9888 40.9451L18.9825 40.9446ZM22.0112 40.9451L21.9895 40.9466L22.0175 40.9446L22.0112 40.9451ZM18.9051 40.9387L18.9296 40.9406L18.9237 40.9402L18.9051 40.9387ZM22.0763 40.9402L22.0704 40.9406L22.0949 40.9387L22.0763 40.9402ZM22.1413 40.9351L22.1296 40.936L22.1545 40.934L22.1413 40.9351ZM18.8455 40.934L18.8704 40.936L18.8587 40.9351L18.8455 40.934ZM18.7874 40.9293L18.8086 40.931L18.7937 40.9298L18.7874 40.9293ZM22.2063 40.9298L22.1914 40.931L22.2125 40.9293L22.2063 40.9298ZM18.7235 40.9239L18.7299 40.9245L18.7288 40.9244L18.7235 40.9239ZM22.2712 40.9244L22.2701 40.9245L22.2765 40.9239L22.2712 40.9244ZM22.336 40.9187L22.3303 40.9192L22.3448 40.9179L22.336 40.9187ZM18.6552 40.9179L18.6697 40.9192L18.664 40.9187L18.6552 40.9179ZM18.5952 40.9125L18.606 40.9135L18.5993 40.9129L18.5952 40.9125ZM22.4007 40.9129L22.394 40.9135L22.4048 40.9125L22.4007 40.9129ZM17.2969 40.7507C7.5018 39.2111 0 30.7247 0 20.5C0 9.18576 9.18576 0 20.5 0C31.8142 0 41 9.18576 41 20.5C41 30.7247 33.4982 39.2111 23.7031 40.7507V26.4258H28.4798L29.3887 20.5H23.7031V16.6546C23.7031 15.0334 24.4973 13.4531 27.0439 13.4531H29.6289V8.4082C29.6289 8.4082 27.2829 8.00781 25.04 8.00781C20.3574 8.00781 17.2969 10.8458 17.2969 15.9836V20.5H12.0918V26.4258H17.2969V40.7507Z" fill="#FFE799"/>
</g>
<defs>
<clipPath id="clip0_259_879">
<rect width="41" height="41" fill="white"/>
</clipPath>
</defs>
</svg>
