<svg width="41" height="41" viewBox="0 0 41 41" fill="none" xmlns="http://www.w3.org/2000/svg">
<g clip-path="url(#clip0_259_877)">
<path fill-rule="evenodd" clip-rule="evenodd" d="M20.5 0C31.8142 0 41 9.18576 41 20.5C41 31.8142 31.8142 41 20.5 41C9.18576 41 0 31.8142 0 20.5C0 9.18576 9.18576 0 20.5 0ZM20.5 7.6875C17.0204 7.6875 16.584 7.70223 15.2174 7.76462C13.8537 7.82684 12.9223 8.04345 12.1073 8.36016C11.2647 8.6876 10.5502 9.1257 9.83792 9.838C9.12562 10.5503 8.68752 11.2648 8.36008 12.1073C8.04337 12.9223 7.82684 13.8537 7.76453 15.2174C7.70223 16.584 7.6875 17.0204 7.6875 20.5C7.6875 23.9796 7.70223 24.416 7.76453 25.7826C7.82684 27.1463 8.04337 28.0777 8.36008 28.8927C8.68752 29.7352 9.12562 30.4497 9.83792 31.1621C10.5502 31.8744 11.2647 32.3125 12.1073 32.6399C12.9223 32.9566 13.8537 33.1732 15.2174 33.2354C16.584 33.2978 17.0204 33.3125 20.5 33.3125C23.9796 33.3125 24.416 33.2978 25.7826 33.2354C27.1463 33.1732 28.0777 32.9566 28.8927 32.6399C29.7352 32.3125 30.4497 31.8744 31.1621 31.1621C31.8744 30.4497 32.3125 29.7352 32.6399 28.8927C32.9566 28.0777 33.1732 27.1463 33.2354 25.7826C33.2978 24.416 33.3125 23.9796 33.3125 20.5C33.3125 17.0204 33.2978 16.584 33.2354 15.2174C33.1732 13.8537 32.9566 12.9223 32.6399 12.1073C32.3125 11.2648 31.8744 10.5503 31.1621 9.838C30.4497 9.1257 29.7352 8.6876 28.8927 8.36016C28.0777 8.04345 27.1463 7.82684 25.7826 7.76462C24.416 7.70223 23.9796 7.6875 20.5 7.6875ZM20.5 9.99607C23.9211 9.99607 24.3263 10.0091 25.6774 10.0708C26.9266 10.1278 27.6049 10.3365 28.0564 10.5119C28.6545 10.7443 29.0813 11.022 29.5296 11.4704C29.978 11.9187 30.2557 12.3456 30.4881 12.9436C30.6635 13.3951 30.8723 14.0734 30.9292 15.3226C30.9909 16.6737 31.0039 17.0789 31.0039 20.5C31.0039 23.9211 30.9909 24.3263 30.9292 25.6774C30.8723 26.9266 30.6635 27.6049 30.4881 28.0564C30.2557 28.6545 29.978 29.0813 29.5296 29.5296C29.0813 29.978 28.6545 30.2557 28.0564 30.4881C27.6049 30.6635 26.9266 30.8723 25.6774 30.9292C24.3265 30.9909 23.9213 31.0039 20.5 31.0039C17.0787 31.0039 16.6735 30.9909 15.3226 30.9292C14.0734 30.8723 13.3951 30.6635 12.9436 30.4881C12.3455 30.2557 11.9187 29.978 11.4703 29.5296C11.022 29.0813 10.7443 28.6545 10.5119 28.0564C10.3365 27.6049 10.1277 26.9266 10.0707 25.6774C10.009 24.3263 9.99607 23.9211 9.99607 20.5C9.99607 17.0789 10.009 16.6737 10.0707 15.3226C10.1277 14.0734 10.3365 13.3951 10.5119 12.9436C10.7443 12.3456 11.022 11.9187 11.4703 11.4704C11.9187 11.022 12.3455 10.7443 12.9436 10.5119C13.3951 10.3365 14.0734 10.1278 15.3226 10.0708C16.6737 10.0091 17.0789 9.99607 20.5 9.99607ZM20.5 13.9206C16.8663 13.9206 13.9206 16.8663 13.9206 20.5C13.9206 24.1337 16.8663 27.0794 20.5 27.0794C24.1337 27.0794 27.0794 24.1337 27.0794 20.5C27.0794 16.8663 24.1337 13.9206 20.5 13.9206ZM20.5 24.7708C18.1413 24.7708 16.2292 22.8587 16.2292 20.5C16.2292 18.1413 18.1413 16.2292 20.5 16.2292C22.8587 16.2292 24.7708 18.1413 24.7708 20.5C24.7708 22.8587 22.8587 24.7708 20.5 24.7708ZM28.8769 13.6607C28.8769 14.5098 28.1885 15.1981 27.3393 15.1981C26.4902 15.1981 25.8019 14.5098 25.8019 13.6607C25.8019 12.8115 26.4902 12.1232 27.3393 12.1232C28.1885 12.1232 28.8769 12.8115 28.8769 13.6607Z" fill="#FFE799"/>
</g>
<defs>
<clipPath id="clip0_259_877">
<rect width="41" height="41" fill="white"/>
</clipPath>
</defs>
</svg>
