<svg width="40" height="42" viewBox="0 0 40 42" fill="none" xmlns="http://www.w3.org/2000/svg">
<g clip-path="url(#clip0_259_881)">
<path fill-rule="evenodd" clip-rule="evenodd" d="M20 0C31.0383 0 40 9.40981 40 21C40 32.5902 31.0383 42 20 42C8.96172 42 0 32.5902 0 21C0 9.40981 8.96172 0 20 0ZM31.6749 32.0676V31.6541L29.8477 29.7705C29.6863 29.6414 29.6063 29.4291 29.6398 29.2191V15.3789C29.6063 15.1688 29.6863 14.9566 29.8477 14.8275L31.7188 12.9439V12.5304H25.2413L20.6237 24.6249L15.3716 12.5304H8.57664V12.9439L10.7651 15.7119C10.98 15.9152 11.0896 16.2139 11.0605 16.516V27.3929C11.1241 27.7852 11.0064 28.1861 10.7433 28.4726L8.28125 31.6081V32.0216H15.2622V31.6081L12.8002 28.4726C12.5351 28.1867 12.41 27.7884 12.461 27.3929V17.9862L18.5886 32.0216H19.2998L24.5628 17.9862V29.1733C24.5628 29.4718 24.5628 29.5293 24.3767 29.7244L22.4838 31.6541V32.0676H31.6749Z" fill="#FFE799"/>
</g>
<defs>
<clipPath id="clip0_259_881">
<rect width="40" height="42" fill="white"/>
</clipPath>
</defs>
</svg>
