<svg width="41" height="41" viewBox="0 0 41 41" fill="none" xmlns="http://www.w3.org/2000/svg">
<g clip-path="url(#clip0_259_883)">
<path fill-rule="evenodd" clip-rule="evenodd" d="M20.5 0C31.8142 0 41 9.18576 41 20.5C41 31.8142 31.8142 41 20.5 41C9.18576 41 0 31.8142 0 20.5C0 9.18576 9.18576 0 20.5 0ZM16.8892 31.4033C25.9607 31.4033 30.9208 23.8863 30.9208 17.3717C30.9208 17.157 30.9208 16.9422 30.9106 16.7376C31.8719 16.0422 32.7106 15.1729 33.3753 14.1809C32.4958 14.5695 31.5446 14.8354 30.5424 14.9581C31.5651 14.3445 32.3424 13.3831 32.7106 12.2275C31.7594 12.79 30.706 13.199 29.581 13.4241C28.681 12.4627 27.4027 11.8696 25.9811 11.8696C23.2607 11.8696 21.0517 14.0786 21.0517 16.799C21.0517 17.1876 21.0926 17.566 21.1846 17.924C17.0835 17.7194 13.4529 15.7559 11.0189 12.7695C10.5995 13.4956 10.3541 14.3445 10.3541 15.2445C10.3541 16.9524 11.2234 18.466 12.553 19.3455C11.745 19.3251 10.9882 19.1001 10.3234 18.732V18.7933C10.3234 21.1864 12.0211 23.1704 14.2813 23.6307C13.8723 23.7432 13.4325 23.8046 12.9825 23.8046C12.6654 23.8046 12.3586 23.7739 12.0518 23.7125C12.6756 25.6761 14.4961 27.0977 16.654 27.1386C14.9665 28.4579 12.8393 29.2454 10.528 29.2454C10.1291 29.2454 9.74046 29.2249 9.35184 29.1738C11.5098 30.5851 14.1074 31.4033 16.8892 31.4033Z" fill="#FFE799"/>
</g>
<defs>
<clipPath id="clip0_259_883">
<rect width="41" height="41" fill="white"/>
</clipPath>
</defs>
</svg>
