<svg width="1440" height="14395" viewBox="0 0 1440 14395" fill="none" xmlns="http://www.w3.org/2000/svg">
<g clip-path="url(#clip0_150_295)">
<rect width="1440" height="14395" fill="#F7CD82"/>
<rect y="739" width="1440" height="13656" fill="#C9B895"/>
<ellipse cx="342.5" cy="384.5" rx="562.5" ry="14.5" fill="#F4D98D"/>
<ellipse cx="491.526" cy="543.024" rx="148.294" ry="18" transform="rotate(0.782498 491.526 543.024)" fill="#F4D98D"/>
<ellipse cx="399.5" cy="523" rx="224.5" ry="18" fill="#F4D98D"/>
<ellipse cx="1439.5" cy="495" rx="562.5" ry="28" fill="#F4D98D"/>
<path d="M1147.08 745.009C1037.55 744.059 775 815.377 775 815.377L1214.79 968L1430 803.016C1430 803.016 1256.62 745.96 1147.08 745.009Z" fill="#8D743E"/>
<path d="M121.685 769.049C212.255 767.087 529 824.318 529 824.318L-106.491 962L-118 821.702C-118 821.702 31.1152 771.012 121.685 769.049Z" fill="#8D743E"/>
<path d="M677.02 781.098C520.588 747.358 3.53711 933.068 3.53711 933.068V1053H1440V781.098C1440 781.098 1222.27 861.336 1143.68 871.826C1065.09 882.317 833.451 814.837 677.02 781.098Z" fill="#C9B895"/>
<ellipse rx="63.5052" ry="12.6802" transform="matrix(0.984987 0.172628 0.294605 -0.955619 799.974 846.891)" fill="#DECBA3"/>
<ellipse rx="44.6234" ry="10.9075" transform="matrix(0.984987 0.172628 0.294605 -0.955619 845.323 937.773)" fill="#DECBA3"/>
<ellipse rx="23.1181" ry="8.20772" transform="matrix(0.991139 0.13283 0.229452 -0.97332 850.659 952.032)" fill="#DECBA3"/>
<path d="M191.18 866.835L-10 935.732V1052.83H316.024C316.024 1052.83 356.26 1036.95 355.508 1011.43C354.756 985.917 300.231 967.487 316.024 957.848C331.818 948.208 400.257 924.675 441.997 922.407C483.737 920.138 594.668 897.173 615.35 884.697C636.032 872.222 620.239 856.232 627.383 848.577C634.528 840.922 658.97 811.831 644.305 809.279C629.64 806.728 553.304 815.8 567.969 809.279C582.635 802.758 661.039 781.464 644.305 778.658C627.571 775.853 582.635 778.658 582.635 778.658L469.824 795.67L298.351 835.931L191.18 866.835Z" fill="#B09B6E"/>
<ellipse rx="47.8451" ry="13.0324" transform="matrix(0.968172 -0.250288 -0.413947 -0.910301 1363.11 878.937)" fill="#DECBA3"/>
<ellipse rx="47.1159" ry="5.95649" transform="matrix(-0.999984 0.00567381 0.00567381 0.999984 284.149 878.224)" fill="#917F59"/>
<path d="M326.069 759.931C328.456 756.658 341.124 746.292 341.124 746.292L335.433 766.842V761.022L326.069 773.571L327.538 767.751L319.093 775.208C319.093 775.208 323.682 763.205 326.069 759.931Z" fill="#71A580"/>
<path d="M333.321 723.901L339.806 751.799L347.336 742.067L356.959 723.901H350.056L356.959 711.79C356.959 711.79 352.357 712.655 352.566 709.194C352.775 705.734 356.959 688 356.959 688C356.959 688 347.336 704.869 344.408 709.194C341.479 713.52 339.806 704.869 339.806 704.869V726.928L333.321 723.901Z" fill="#71A580"/>
<path d="M340.895 747.898C324.189 796.799 319.541 824.139 316.568 872.816V877.562H329.6C329.875 826.797 332.183 798.402 340.895 747.898Z" fill="#6F4742"/>
<path d="M369.267 727.936C360.887 731.105 339.518 749.275 339.518 749.275L368.01 741.458C368.01 741.458 361.096 742.725 360.468 741.458C359.839 740.19 384.561 736.598 384.561 736.598C384.561 736.598 376.6 735.542 375.343 734.697C374.086 733.851 395.245 730.471 395.245 730.471C395.245 730.471 385.399 730.893 386.237 729.415C387.075 727.936 399.645 722.654 399.645 722.654C399.645 722.654 377.647 724.766 369.267 727.936Z" fill="#71A580"/>
<path d="M326.325 724.807L341.124 748.816L315.225 734.121C315.225 734.121 324.68 737.639 326.325 736.605C327.969 735.57 306.592 723.565 306.592 723.565L313.581 724.807L300.426 717.356C300.426 717.356 305.976 719.012 307.825 719.219C309.675 719.426 293.848 704.524 293.848 704.524L303.509 707.628L326.325 724.807Z" fill="#71A580"/>
<path d="M355.9 762.825C353.075 760.221 339.517 744.226 339.517 744.226V764.871C339.517 764.871 341.212 761.523 342.059 760.221C342.907 758.919 347.709 774.914 347.709 774.914C347.709 774.914 349.121 772.682 349.686 771.008C350.251 769.334 361.549 783.47 361.549 783.47C361.549 783.47 358.724 765.429 355.9 762.825Z" fill="#71A580"/>
<path d="M367.165 744.501C362.296 745.029 339.518 748.198 339.518 748.198L368.556 757.176L367.165 753.655L381.597 760.52L376.728 757.176L396.203 760.52L384.031 753.655H392.377L381.597 748.198H389.769C389.769 748.198 372.033 743.973 367.165 744.501Z" fill="#71A580"/>
<path d="M323.064 742.623C327.979 742.384 345.061 746.45 345.061 746.45L323.364 755.443L331.056 749.378L311.728 756.31C311.728 756.31 314.289 752.553 316.122 751.793L300.079 758.442L301.532 754.604L290.989 758.973L299.815 750.461L296.518 749.85L307.913 747.105L301.752 746.063C301.752 746.063 318.15 742.862 323.064 742.623Z" fill="#71A580"/>
<path d="M344.917 727.422L345.37 737.789L353.172 724.386L344.917 727.422Z" fill="#5A978C"/>
<path d="M369.237 729.424C365.91 730.686 363.385 733.325 363.385 733.325L374.86 731.374L385.531 725.752C385.531 725.752 372.565 728.161 369.237 729.424Z" fill="#5A978C"/>
<path d="M368.434 757.078L367.286 753.75L344.337 749.619L368.434 757.078Z" fill="#5A978C"/>
<path d="M306.7 723.572L313.47 724.834L318.978 730.801L306.7 723.572Z" fill="#5A978C"/>
<path d="M322.879 742.734C320.956 742.645 301.206 745.647 301.881 746.062L322.879 745.029L332.059 743.538C332.059 743.538 324.803 742.823 322.879 742.734Z" fill="#5A978C"/>
<path d="M333.092 761.344V756.848L329.244 759.096L328.731 763.733L333.092 761.344Z" fill="#5A978C"/>
<path d="M347.779 774.863L349.615 771.077L342.845 760.405L347.779 774.863Z" fill="#5A978C"/>
<path d="M332.059 811.238L339.518 755.815L335.501 773.831L329.42 799.305L325.748 829.483L324.371 877.447H329.42L332.059 811.238Z" fill="#B47D6C"/>
<path d="M326.069 759.931C328.456 756.658 341.124 746.292 341.124 746.292L335.433 766.842V761.022L326.069 773.571L327.538 767.751L319.093 775.208C319.093 775.208 323.682 763.205 326.069 759.931Z" fill="#71A580"/>
<path d="M333.321 723.901L339.806 751.799L347.336 742.067L356.959 723.901H350.056L356.959 711.79C356.959 711.79 352.357 712.655 352.566 709.194C352.775 705.734 356.959 688 356.959 688C356.959 688 347.336 704.869 344.408 709.194C341.479 713.52 339.806 704.869 339.806 704.869V726.928L333.321 723.901Z" fill="#71A580"/>
<path d="M340.895 747.898C324.189 796.799 319.541 824.139 316.568 872.816V877.562H329.6C329.875 826.797 332.183 798.402 340.895 747.898Z" fill="#6F4742"/>
<path d="M369.267 727.936C360.887 731.105 339.518 749.275 339.518 749.275L368.01 741.458C368.01 741.458 361.096 742.725 360.468 741.458C359.839 740.19 384.561 736.598 384.561 736.598C384.561 736.598 376.6 735.542 375.343 734.697C374.086 733.851 395.245 730.471 395.245 730.471C395.245 730.471 385.399 730.893 386.237 729.415C387.075 727.936 399.645 722.654 399.645 722.654C399.645 722.654 377.647 724.766 369.267 727.936Z" fill="#71A580"/>
<path d="M326.325 724.807L341.124 748.816L315.225 734.121C315.225 734.121 324.68 737.639 326.325 736.605C327.969 735.57 306.592 723.565 306.592 723.565L313.581 724.807L300.426 717.356C300.426 717.356 305.976 719.012 307.825 719.219C309.675 719.426 293.848 704.524 293.848 704.524L303.509 707.628L326.325 724.807Z" fill="#71A580"/>
<path d="M355.9 762.825C353.075 760.221 339.517 744.226 339.517 744.226V764.871C339.517 764.871 341.212 761.523 342.059 760.221C342.907 758.919 347.709 774.914 347.709 774.914C347.709 774.914 349.121 772.682 349.686 771.008C350.251 769.334 361.549 783.47 361.549 783.47C361.549 783.47 358.724 765.429 355.9 762.825Z" fill="#71A580"/>
<path d="M367.165 744.501C362.296 745.029 339.518 748.198 339.518 748.198L368.556 757.176L367.165 753.655L381.597 760.52L376.728 757.176L396.203 760.52L384.031 753.655H392.377L381.597 748.198H389.769C389.769 748.198 372.033 743.973 367.165 744.501Z" fill="#71A580"/>
<path d="M323.064 742.623C327.979 742.384 345.061 746.45 345.061 746.45L323.364 755.443L331.056 749.378L311.728 756.31C311.728 756.31 314.289 752.553 316.122 751.793L300.079 758.442L301.532 754.604L290.989 758.973L299.815 750.461L296.518 749.85L307.913 747.105L301.752 746.063C301.752 746.063 318.15 742.862 323.064 742.623Z" fill="#71A580"/>
<path d="M344.917 727.422L345.37 737.789L353.172 724.386L344.917 727.422Z" fill="#5A978C"/>
<path d="M369.237 729.424C365.91 730.686 363.385 733.325 363.385 733.325L374.86 731.374L385.531 725.752C385.531 725.752 372.565 728.161 369.237 729.424Z" fill="#5A978C"/>
<path d="M368.434 757.078L367.286 753.75L344.337 749.619L368.434 757.078Z" fill="#5A978C"/>
<path d="M306.7 723.572L313.47 724.834L318.978 730.801L306.7 723.572Z" fill="#5A978C"/>
<path d="M322.879 742.734C320.956 742.645 301.206 745.647 301.881 746.062L322.879 745.029L332.059 743.538C332.059 743.538 324.803 742.823 322.879 742.734Z" fill="#5A978C"/>
<path d="M333.092 761.344V756.848L329.244 759.096L328.731 763.733L333.092 761.344Z" fill="#5A978C"/>
<path d="M347.779 774.863L349.615 771.077L342.845 760.405L347.779 774.863Z" fill="#5A978C"/>
<path d="M332.059 811.238L339.518 755.815L335.501 773.831L329.42 799.305L325.748 829.483L324.371 877.447H329.42L332.059 811.238Z" fill="#B47D6C"/>
<path d="M1231.3 789.621C1237.21 791.53 1240.52 791.359 1246.43 789.621L1247.86 706.447C1241.03 696.359 1237.41 696.678 1231.3 706.447V789.621Z" fill="#71A580"/>
<path d="M1222.76 724.039C1224.05 726.238 1232.33 728.307 1232.33 728.307C1232.33 728.307 1233.5 733.482 1232.33 734.128C1231.17 734.775 1215 732.447 1215 727.531V710.456C1217.2 703.115 1222.76 707.437 1222.76 710.456C1222.77 713.476 1221.47 721.84 1222.76 724.039Z" fill="#71A580"/>
<path d="M1254.19 744.768C1252.9 746.967 1244.62 749.036 1244.62 749.036C1244.62 749.036 1243.46 754.211 1244.62 754.857C1245.79 755.504 1261.96 753.176 1261.96 748.26V731.185C1259.76 723.844 1254.2 728.166 1254.19 731.185C1254.19 734.205 1255.49 742.569 1254.19 744.768Z" fill="#71A580"/>
<path d="M1228.58 708.693L1231.71 708.993L1231.57 710.458L1228.58 708.693Z" fill="#71A580"/>
<path d="M1250.92 715.04L1247.1 715.406L1247.27 717.188L1250.92 715.04Z" fill="#71A580"/>
<path d="M1226.12 755.305L1231.46 755.791L1231.69 753.298L1226.12 755.305Z" fill="#71A580"/>
<path d="M1250.14 772.473L1246.32 772.84L1246.5 774.622L1250.14 772.473Z" fill="#71A580"/>
<path d="M1227.65 782.527L1231.46 783.022L1231.69 781.247L1227.65 782.527Z" fill="#71A580"/>
<path d="M1219.89 735.422L1222.37 732.496L1221.01 731.339L1219.89 735.422Z" fill="#71A580"/>
<path d="M1224.79 718.403L1220.97 718.769L1221.14 720.551L1224.79 718.403Z" fill="#71A580"/>
<path d="M1264.89 739.1L1261.07 739.466L1261.24 741.248L1264.89 739.1Z" fill="#71A580"/>
<path d="M1251.11 735.652L1247.31 735.159L1247.08 736.935L1251.11 735.652Z" fill="#71A580"/>
<path d="M1251.97 757.337L1252.38 753.524L1250.6 753.329L1251.97 757.337Z" fill="#71A580"/>
<path d="M1254.26 731.004C1253.76 733.999 1255.72 741.84 1254.36 744.283C1253 746.727 1247.82 747.958 1247 748.2C1246.19 748.442 1247 751.735 1247 751.735C1247 751.735 1257.04 749.442 1258.09 747.245C1259.14 745.048 1258.09 740.367 1258.09 738.933V727.087C1258.18 726.787 1254.77 728.009 1254.26 731.004Z" fill="#5A978C"/>
<path d="M1231.24 728.043L1223.12 724.508C1223.12 724.508 1222.36 723.457 1222.26 722.788C1222.17 722.119 1220.73 726.992 1222.74 728.043C1224.74 729.093 1230.48 731.482 1231.24 731.673C1232.01 731.864 1231.24 728.043 1231.24 728.043Z" fill="#5A978C"/>
<path d="M1231.53 733.966C1230.86 734.061 1231.43 743.233 1231.24 743.71C1231.05 744.188 1231.24 753.359 1231.24 753.359L1226.18 755.365L1231.24 755.843V758.996V781.255L1227.71 782.497L1231.24 782.975L1231.34 789.662C1231.34 789.662 1234.58 790.522 1234.87 790.618C1235.16 790.713 1238.6 791 1238.6 791C1238.6 791 1232.2 733.87 1231.53 733.966Z" fill="#5A978C"/>
<path d="M334.2 503.1C332.667 503.1 330.8 503 328.6 502.8C321.467 502.267 315.2 502 309.8 502C308.333 500.133 307.6 498 307.6 495.6C309.8 495.6 311.367 495.233 312.3 494.5C313.3 493.7 313.8 492.367 313.8 490.5V443.5C313.8 441.7 313.3 440.433 312.3 439.7C311.367 438.9 309.8 438.5 307.6 438.5C307.6 435.967 308.333 433.867 309.8 432.2C314.867 432.2 319.433 432.067 323.5 431.8C327.567 431.533 329.967 431.367 330.7 431.3C332.967 431.1 334.6 431 335.6 431C343 431 349.2 432.533 354.2 435.6C359.267 438.667 363 442.833 365.4 448.1C367.867 453.3 369.1 459.133 369.1 465.6C369.1 472.733 367.833 479.133 365.3 484.8C362.833 490.4 359 494.867 353.8 498.2C348.6 501.467 342.067 503.1 334.2 503.1ZM333.4 494.8C339.133 494.8 343.533 492.633 346.6 488.3C349.733 483.9 351.3 476.833 351.3 467.1C351.3 457.7 349.633 450.667 346.3 446C343.033 441.333 338.467 439 332.6 439C331.467 439 330.667 439.067 330.2 439.2V494.6C330.867 494.733 331.933 494.8 333.4 494.8ZM404.797 491.8C408.997 491.8 412.897 490.467 416.497 487.8C417.03 488.333 417.497 489.133 417.897 490.2C418.297 491.267 418.497 492.2 418.497 493C418.497 494.2 417.697 495.6 416.097 497.2C414.497 498.733 412.264 500.067 409.397 501.2C406.597 502.333 403.43 502.9 399.897 502.9C394.964 502.9 390.63 501.833 386.897 499.7C383.23 497.567 380.397 494.467 378.397 490.4C376.397 486.333 375.397 481.533 375.397 476C375.397 470.333 376.464 465.367 378.597 461.1C380.797 456.833 383.797 453.567 387.597 451.3C391.397 448.967 395.697 447.8 400.497 447.8C406.564 447.8 411.397 449.567 414.997 453.1C418.597 456.633 420.397 461.533 420.397 467.8C420.397 470.733 419.93 473.067 418.997 474.8C418.064 476.467 416.397 477.3 413.997 477.3H392.397C392.797 486.967 396.93 491.8 404.797 491.8ZM399.897 454.7C397.83 454.7 396.097 455.867 394.697 458.2C393.297 460.467 392.53 464.3 392.397 469.7H402.497C403.564 469.7 404.264 469.333 404.597 468.6C404.93 467.867 405.097 466.733 405.097 465.2C405.097 461.267 404.63 458.533 403.697 457C402.764 455.467 401.497 454.7 399.897 454.7ZM447.092 503C443.826 503 440.559 502.533 437.292 501.6C434.092 500.6 431.459 499.2 429.392 497.4C427.326 495.6 426.292 493.467 426.292 491C426.292 488.667 426.959 486.8 428.292 485.4C429.626 483.933 431.326 483.2 433.392 483.2C435.259 483.2 436.826 483.8 438.092 485C439.426 486.2 440.092 487.767 440.092 489.7C440.092 490.567 439.959 491.333 439.692 492C439.492 492.6 439.092 493.267 438.492 494C439.026 494.533 440.026 494.967 441.492 495.3C442.959 495.567 444.526 495.7 446.192 495.7C448.459 495.7 450.226 495.3 451.492 494.5C452.826 493.633 453.492 492.533 453.492 491.2C453.492 489.4 452.659 487.867 450.992 486.6C449.326 485.267 446.659 483.633 442.992 481.7C439.259 479.7 436.426 478.067 434.492 476.8C432.559 475.467 430.826 473.7 429.292 471.5C427.826 469.233 427.092 466.467 427.092 463.2C427.092 458.667 428.959 455 432.692 452.2C436.426 449.4 441.592 448 448.192 448C454.659 448 459.459 449.167 462.592 451.5C465.792 453.767 467.392 456.5 467.392 459.7C467.392 461.7 466.726 463.333 465.392 464.6C464.126 465.867 462.559 466.5 460.692 466.5C458.959 466.5 457.459 466 456.192 465C454.992 463.933 454.392 462.567 454.392 460.9C454.392 460.033 454.526 459.167 454.792 458.3C455.059 457.367 455.426 456.6 455.892 456C454.559 454.933 452.559 454.4 449.892 454.4C447.759 454.4 446.092 454.9 444.892 455.9C443.692 456.9 443.092 458.167 443.092 459.7C443.092 461.767 443.926 463.467 445.592 464.8C447.259 466.133 449.926 467.733 453.592 469.6C457.059 471.4 459.792 472.967 461.792 474.3C463.792 475.633 465.526 477.4 466.992 479.6C468.459 481.8 469.192 484.5 469.192 487.7C469.192 492.9 467.059 496.767 462.792 499.3C458.592 501.767 453.359 503 447.092 503ZM504.453 491.8C508.653 491.8 512.553 490.467 516.153 487.8C516.686 488.333 517.153 489.133 517.553 490.2C517.953 491.267 518.153 492.2 518.153 493C518.153 494.2 517.353 495.6 515.753 497.2C514.153 498.733 511.92 500.067 509.053 501.2C506.253 502.333 503.086 502.9 499.553 502.9C494.62 502.9 490.286 501.833 486.553 499.7C482.886 497.567 480.053 494.467 478.053 490.4C476.053 486.333 475.053 481.533 475.053 476C475.053 470.333 476.12 465.367 478.253 461.1C480.453 456.833 483.453 453.567 487.253 451.3C491.053 448.967 495.353 447.8 500.153 447.8C506.22 447.8 511.053 449.567 514.653 453.1C518.253 456.633 520.053 461.533 520.053 467.8C520.053 470.733 519.586 473.067 518.653 474.8C517.72 476.467 516.053 477.3 513.653 477.3H492.053C492.453 486.967 496.586 491.8 504.453 491.8ZM499.553 454.7C497.486 454.7 495.753 455.867 494.353 458.2C492.953 460.467 492.186 464.3 492.053 469.7H502.153C503.22 469.7 503.92 469.333 504.253 468.6C504.586 467.867 504.753 466.733 504.753 465.2C504.753 461.267 504.286 458.533 503.353 457C502.42 455.467 501.153 454.7 499.553 454.7ZM560.448 447.7C563.448 447.7 565.648 448.467 567.048 450C568.448 451.533 569.148 453.633 569.148 456.3C569.148 459.167 568.382 461.5 566.848 463.3C565.382 465.1 563.382 466 560.848 466C558.648 466 556.848 465.367 555.448 464.1C554.115 462.833 553.448 461.333 553.448 459.6C553.448 458.533 553.548 457.7 553.748 457.1C551.348 457.7 549.315 458.733 547.648 460.2V490.2C547.648 491.867 547.882 493.133 548.348 494C548.815 494.867 549.715 495.533 551.048 496C552.448 496.4 554.515 496.6 557.248 496.6C557.248 497.8 557.115 498.833 556.848 499.7C556.582 500.5 556.082 501.267 555.348 502H528.648C527.115 500.467 526.348 498.667 526.348 496.6C528.282 496.6 529.648 496.2 530.448 495.4C531.315 494.533 531.748 493.1 531.748 491.1V462.2C531.748 460.4 531.248 459.133 530.248 458.4C529.315 457.667 527.615 457.3 525.148 457.3V452.8C527.348 451.533 530.248 450.433 533.848 449.5C537.515 448.5 540.348 448 542.348 448C543.948 448 545.082 448.567 545.748 449.7C546.415 450.833 546.748 453.1 546.748 456.5C547.948 454.233 549.848 452.2 552.448 450.4C555.048 448.6 557.715 447.7 560.448 447.7ZM592.768 457.9V486.1C592.768 488.1 593.168 489.5 593.968 490.3C594.768 491.033 595.901 491.4 597.368 491.4C598.635 491.4 599.968 491.067 601.368 490.4C602.768 489.733 603.868 488.9 604.668 487.9C605.335 488.433 605.801 489.233 606.068 490.3C606.401 491.367 606.568 492.333 606.568 493.2C606.568 494.733 606.035 496.233 604.968 497.7C603.901 499.167 602.301 500.367 600.168 501.3C598.035 502.233 595.468 502.7 592.468 502.7C587.801 502.7 584.035 501.367 581.168 498.7C578.368 496.033 576.968 491.6 576.968 485.4V457.9H570.668V451.8C572.401 451.533 574.068 450.433 575.668 448.5C577.335 446.5 578.735 444.033 579.868 441.1C581.068 438.1 581.835 435.133 582.168 432.2C583.368 432 584.468 431.9 585.468 431.9C587.868 431.9 589.635 432.6 590.768 434C591.968 435.333 592.568 436.833 592.568 438.5V449H604.168C604.168 451 604.068 452.733 603.868 454.2C603.668 455.6 603.235 456.833 602.568 457.9H592.768ZM688.306 480.9C688.306 483.1 687.773 487.033 686.706 492.7C685.64 498.3 684.673 501.933 683.806 503.6C682.74 503.333 681.34 502.8 679.606 502H633.306C631.773 500 631.006 497.9 631.006 495.7C633.273 495.7 634.94 495.3 636.006 494.5C637.073 493.7 637.606 492.367 637.606 490.5V443.6C637.606 441.8 637.073 440.5 636.006 439.7C635.006 438.9 633.373 438.5 631.106 438.5C631.106 436.3 631.873 434.2 633.406 432.2H672.206C673.34 431.667 674.64 431.267 676.106 431C677.64 430.667 679.04 430.5 680.306 430.5C681.306 432.433 682.373 435.1 683.506 438.5C684.706 441.9 685.306 444.367 685.306 445.9C684.506 446.633 683.14 447.4 681.206 448.2C679.273 449 677.606 449.533 676.206 449.8C675.34 447.333 673.973 445.2 672.106 443.4C670.24 441.6 668.073 440.7 665.606 440.7H654.306V461.8H661.506C665.84 461.8 668.006 459.367 668.006 454.5C671.006 454.5 673.706 455.2 676.106 456.6V475.2C675.04 475.867 673.806 476.4 672.406 476.8C671.006 477.133 669.573 477.3 668.106 477.3C668.106 474.767 667.506 472.867 666.306 471.6C665.106 470.333 663.54 469.7 661.606 469.7H654.306V493.2H666.406C669.206 493.2 671.64 492.033 673.706 489.7C675.773 487.3 677.073 484.367 677.606 480.9H688.306ZM737.13 489.8C738.663 491.867 740.063 493.467 741.33 494.6C742.596 495.667 743.896 496.2 745.23 496.2C745.23 498.733 744.563 500.667 743.23 502H719.33C717.93 500.667 717.23 498.733 717.23 496.2C718.563 496.2 719.563 495.967 720.23 495.5C720.896 494.967 721.23 494.267 721.23 493.4C721.23 492.333 720.863 491.267 720.13 490.2L714.43 482.6L709.13 489.7C708.396 490.7 708.03 491.667 708.03 492.6C708.03 493.667 708.43 494.533 709.23 495.2C710.096 495.867 711.23 496.2 712.63 496.2C712.63 498.733 711.963 500.667 710.63 502H692.43C690.763 500.333 689.93 498.4 689.93 496.2C691.33 496 692.796 495.4 694.33 494.4C695.863 493.333 697.13 492.133 698.13 490.8L710.23 476L698.73 461C698.263 460.533 697.696 459.833 697.03 458.9C696.03 457.567 695.13 456.567 694.33 455.9C693.53 455.233 692.53 454.9 691.33 454.9C691.33 452.033 692.03 450.033 693.43 448.9H715.73C717.063 449.967 717.73 451.967 717.73 454.9C715.53 454.9 714.43 455.6 714.43 457C714.43 458.133 714.896 459.333 715.83 460.6L720.93 467.6L725.13 462.3C726.063 459.767 726.53 458.2 726.53 457.6C726.53 456.733 726.196 456.067 725.53 455.6C724.93 455.133 724.23 454.9 723.43 454.9C723.43 452.033 724.096 450.033 725.43 448.9H742.73C744.13 450.033 744.83 452.033 744.83 454.9C743.096 454.9 741.563 455.3 740.23 456.1C738.963 456.833 737.596 458.133 736.13 460L725.13 473.2L737.13 489.8ZM772.931 503.1C772.331 503.1 771.031 503.033 769.031 502.9V510.2C769.031 512 769.665 513.367 770.931 514.3C772.265 515.233 773.765 515.7 775.431 515.7C775.431 517.7 774.665 519.467 773.131 521H751.031C749.431 519.4 748.631 517.633 748.631 515.7C750.565 515.7 751.831 515.3 752.431 514.5C753.031 513.7 753.331 512.267 753.331 510.2V462.3C753.331 460.5 752.831 459.233 751.831 458.5C750.831 457.7 749.098 457.3 746.631 457.3V452.8C748.765 451.533 751.465 450.433 754.731 449.5C758.065 448.5 760.631 448 762.431 448C763.831 448 764.965 448.3 765.831 448.9C766.698 449.433 767.331 450.467 767.731 452C770.465 449.333 774.498 448 779.831 448C783.498 448 786.865 448.933 789.931 450.8C792.998 452.667 795.431 455.5 797.231 459.3C799.098 463.033 800.031 467.6 800.031 473C800.031 479.2 798.831 484.567 796.431 489.1C794.031 493.633 790.765 497.1 786.631 499.5C782.498 501.9 777.931 503.1 772.931 503.1ZM782.731 475.4C782.731 468.933 781.731 464.233 779.731 461.3C777.731 458.367 775.098 456.9 771.831 456.9C770.765 456.9 769.831 457.1 769.031 457.5V494.8C770.165 495.467 771.431 495.8 772.831 495.8C775.765 495.8 778.131 494.1 779.931 490.7C781.798 487.3 782.731 482.2 782.731 475.4ZM812.267 438C812.267 436.333 811.767 435.1 810.767 434.3C809.834 433.433 808.067 433 805.467 433V429C807.867 427.667 810.901 426.533 814.567 425.6C818.234 424.667 821.201 424.2 823.467 424.2C825.067 424.2 826.201 424.533 826.867 425.2C827.534 425.867 827.867 427.033 827.867 428.7V491.1C827.867 493.167 828.267 494.6 829.067 495.4C829.934 496.2 831.367 496.6 833.367 496.6C833.367 498.467 832.567 500.267 830.967 502H809.067C807.534 500.333 806.767 498.533 806.767 496.6C808.701 496.6 810.101 496.2 810.967 495.4C811.834 494.533 812.267 493.1 812.267 491.1V438ZM861.648 503.3C854.314 503.3 848.448 501 844.048 496.4C839.648 491.733 837.448 485.1 837.448 476.5C837.448 470.367 838.481 465.133 840.548 460.8C842.681 456.467 845.648 453.2 849.448 451C853.248 448.8 857.648 447.7 862.648 447.7C867.448 447.7 871.648 448.767 875.248 450.9C878.914 452.967 881.748 456.033 883.748 460.1C885.814 464.167 886.848 469.1 886.848 474.9C886.848 480.967 885.781 486.133 883.648 490.4C881.581 494.667 878.648 497.9 874.848 500.1C871.048 502.233 866.648 503.3 861.648 503.3ZM862.448 496.1C864.781 496.1 866.514 494.767 867.648 492.1C868.781 489.433 869.348 484.5 869.348 477.3C869.348 471.233 869.048 466.567 868.448 463.3C867.848 460.033 867.014 457.8 865.948 456.6C864.881 455.4 863.514 454.8 861.848 454.8C859.514 454.8 857.748 456.133 856.548 458.8C855.414 461.467 854.848 466.467 854.848 473.8C854.848 479.8 855.148 484.433 855.748 487.7C856.348 490.9 857.181 493.1 858.248 494.3C859.381 495.5 860.781 496.1 862.448 496.1ZM927.238 447.7C930.238 447.7 932.438 448.467 933.838 450C935.238 451.533 935.938 453.633 935.938 456.3C935.938 459.167 935.171 461.5 933.638 463.3C932.171 465.1 930.171 466 927.638 466C925.438 466 923.638 465.367 922.238 464.1C920.904 462.833 920.238 461.333 920.238 459.6C920.238 458.533 920.338 457.7 920.538 457.1C918.138 457.7 916.104 458.733 914.438 460.2V490.2C914.438 491.867 914.671 493.133 915.138 494C915.604 494.867 916.504 495.533 917.838 496C919.238 496.4 921.304 496.6 924.038 496.6C924.038 497.8 923.904 498.833 923.638 499.7C923.371 500.5 922.871 501.267 922.138 502H895.438C893.904 500.467 893.138 498.667 893.138 496.6C895.071 496.6 896.438 496.2 897.238 495.4C898.104 494.533 898.538 493.1 898.538 491.1V462.2C898.538 460.4 898.038 459.133 897.037 458.4C896.104 457.667 894.404 457.3 891.938 457.3V452.8C894.138 451.533 897.038 450.433 900.638 449.5C904.304 448.5 907.138 448 909.138 448C910.738 448 911.871 448.567 912.538 449.7C913.204 450.833 913.538 453.1 913.538 456.5C914.738 454.233 916.638 452.2 919.238 450.4C921.838 448.6 924.504 447.7 927.238 447.7ZM938.657 487.9C938.657 483.433 940.124 479.9 943.057 477.3C945.99 474.7 950.324 473.4 956.057 473.4C958.057 473.4 960.09 473.6 962.157 474C964.29 474.4 966.024 474.933 967.357 475.6V462.3C967.357 459.633 966.69 457.733 965.357 456.6C964.024 455.4 962.224 454.8 959.957 454.8C957.757 454.8 955.957 455.333 954.557 456.4C955.824 456.8 956.757 457.5 957.357 458.5C958.024 459.433 958.357 460.5 958.357 461.7C958.357 463.833 957.59 465.567 956.057 466.9C954.524 468.233 952.59 468.9 950.257 468.9C947.724 468.9 945.69 468.167 944.157 466.7C942.624 465.233 941.857 463.333 941.857 461C941.857 458.667 942.657 456.467 944.257 454.4C945.857 452.333 948.29 450.667 951.557 449.4C954.89 448.133 958.99 447.5 963.857 447.5C970.457 447.5 975.457 448.867 978.857 451.6C982.257 454.267 983.957 458.2 983.957 463.4V489.9C983.957 493.1 985.49 495.033 988.557 495.7V498.9C987.69 500.1 986.257 501.033 984.257 501.7C982.257 502.367 980.224 502.7 978.157 502.7C973.624 502.7 970.424 501.133 968.557 498C967.024 499.333 965.157 500.467 962.957 501.4C960.757 502.267 958.257 502.7 955.457 502.7C950.457 502.7 946.39 501.333 943.257 498.6C940.19 495.8 938.657 492.233 938.657 487.9ZM967.357 483.3C966.624 482.833 965.724 482.433 964.657 482.1C963.657 481.767 962.69 481.6 961.757 481.6C959.89 481.6 958.357 482.2 957.157 483.4C955.957 484.533 955.357 486.2 955.357 488.4C955.357 490.2 955.957 491.7 957.157 492.9C958.357 494.033 959.957 494.6 961.957 494.6C962.957 494.6 963.924 494.467 964.857 494.2C965.857 493.867 966.69 493.467 967.357 493V483.3ZM1014.27 457.9V486.1C1014.27 488.1 1014.67 489.5 1015.47 490.3C1016.27 491.033 1017.4 491.4 1018.87 491.4C1020.13 491.4 1021.47 491.067 1022.87 490.4C1024.27 489.733 1025.37 488.9 1026.17 487.9C1026.83 488.433 1027.3 489.233 1027.57 490.3C1027.9 491.367 1028.07 492.333 1028.07 493.2C1028.07 494.733 1027.53 496.233 1026.47 497.7C1025.4 499.167 1023.8 500.367 1021.67 501.3C1019.53 502.233 1016.97 502.7 1013.97 502.7C1009.3 502.7 1005.53 501.367 1002.67 498.7C999.868 496.033 998.468 491.6 998.468 485.4V457.9H992.168V451.8C993.901 451.533 995.568 450.433 997.168 448.5C998.835 446.5 1000.23 444.033 1001.37 441.1C1002.57 438.1 1003.33 435.133 1003.67 432.2C1004.87 432 1005.97 431.9 1006.97 431.9C1009.37 431.9 1011.13 432.6 1012.27 434C1013.47 435.333 1014.07 436.833 1014.07 438.5V449H1025.67C1025.67 451 1025.57 452.733 1025.37 454.2C1025.17 455.6 1024.73 456.833 1024.07 457.9H1014.27ZM1055.46 431.3C1055.46 434.167 1054.56 436.467 1052.76 438.2C1051.03 439.867 1048.7 440.7 1045.76 440.7C1042.9 440.7 1040.6 439.867 1038.86 438.2C1037.2 436.467 1036.36 434.167 1036.36 431.3C1036.36 428.5 1037.23 426.233 1038.96 424.5C1040.76 422.767 1043.1 421.9 1045.96 421.9C1048.83 421.9 1051.13 422.767 1052.86 424.5C1054.6 426.233 1055.46 428.5 1055.46 431.3ZM1053.56 491.2C1053.56 493.133 1054.03 494.533 1054.96 495.4C1055.96 496.2 1057.46 496.6 1059.46 496.6C1059.46 498.667 1058.7 500.467 1057.16 502H1034.56C1033.03 500.467 1032.26 498.667 1032.26 496.6C1034.26 496.6 1035.7 496.2 1036.56 495.4C1037.5 494.533 1037.96 493.1 1037.96 491.1V462.1C1037.96 460.233 1037.5 458.9 1036.56 458.1C1035.7 457.3 1033.96 456.9 1031.36 456.9V452.5C1032.96 451.5 1035.66 450.467 1039.46 449.4C1043.33 448.267 1046.6 447.7 1049.26 447.7C1050.8 447.7 1051.9 448.067 1052.56 448.8C1053.23 449.467 1053.56 450.633 1053.56 452.3V491.2ZM1088.82 503.3C1081.48 503.3 1075.62 501 1071.22 496.4C1066.82 491.733 1064.62 485.1 1064.62 476.5C1064.62 470.367 1065.65 465.133 1067.72 460.8C1069.85 456.467 1072.82 453.2 1076.62 451C1080.42 448.8 1084.82 447.7 1089.82 447.7C1094.62 447.7 1098.82 448.767 1102.42 450.9C1106.08 452.967 1108.92 456.033 1110.92 460.1C1112.98 464.167 1114.02 469.1 1114.02 474.9C1114.02 480.967 1112.95 486.133 1110.82 490.4C1108.75 494.667 1105.82 497.9 1102.02 500.1C1098.22 502.233 1093.82 503.3 1088.82 503.3ZM1089.62 496.1C1091.95 496.1 1093.68 494.767 1094.82 492.1C1095.95 489.433 1096.52 484.5 1096.52 477.3C1096.52 471.233 1096.22 466.567 1095.62 463.3C1095.02 460.033 1094.18 457.8 1093.12 456.6C1092.05 455.4 1090.68 454.8 1089.02 454.8C1086.68 454.8 1084.92 456.133 1083.72 458.8C1082.58 461.467 1082.02 466.467 1082.02 473.8C1082.02 479.8 1082.32 484.433 1082.92 487.7C1083.52 490.9 1084.35 493.1 1085.42 494.3C1086.55 495.5 1087.95 496.1 1089.62 496.1ZM1176.81 499.3C1175.81 500.3 1174.01 501.1 1171.41 501.7C1168.87 502.3 1166.44 502.6 1164.11 502.6C1161.24 502.6 1159.11 502.067 1157.71 501C1156.37 499.933 1155.71 498.233 1155.71 495.9V464.7C1155.71 462.1 1155.14 460.233 1154.01 459.1C1152.87 457.967 1151.37 457.4 1149.51 457.4C1146.77 457.4 1144.47 458.5 1142.61 460.7V491.2C1142.61 493.133 1143.01 494.533 1143.81 495.4C1144.67 496.267 1146.11 496.7 1148.11 496.7C1148.11 498.7 1147.34 500.467 1145.81 502H1123.11C1121.51 500.4 1120.71 498.633 1120.71 496.7C1122.71 496.7 1124.14 496.267 1125.01 495.4C1125.87 494.533 1126.31 493.133 1126.31 491.2V462C1126.31 460.2 1125.81 458.933 1124.81 458.2C1123.81 457.4 1122.07 457 1119.61 457V452.5C1121.74 451.3 1124.74 450.2 1128.61 449.2C1132.54 448.2 1135.51 447.7 1137.51 447.7C1139.04 447.7 1140.21 448.2 1141.01 449.2C1141.87 450.133 1142.37 451.933 1142.51 454.6C1144.24 452.467 1146.41 450.8 1149.01 449.6C1151.61 448.333 1154.54 447.7 1157.81 447.7C1162.61 447.7 1166.14 448.933 1168.41 451.4C1170.74 453.8 1171.91 457.767 1171.91 463.3V490.6C1171.91 493.867 1173.51 495.8 1176.71 496.4L1176.81 499.3Z" fill="white"/>
<path d="M578.626 370V344.62H582.37V355.564H596.59V344.62H600.298V370H596.59V358.696H582.37V370H578.626ZM611.443 370.324C610.219 370.324 609.127 370.084 608.167 369.604C607.207 369.124 606.439 368.476 605.863 367.66C605.311 366.844 605.035 365.92 605.035 364.888C605.035 363.592 605.359 362.572 606.007 361.828C606.679 361.084 607.771 360.544 609.283 360.208C610.819 359.872 612.883 359.704 615.475 359.704H616.699V358.768C616.699 357.4 616.411 356.416 615.835 355.816C615.259 355.216 614.311 354.916 612.991 354.916C611.983 354.916 610.975 355.072 609.967 355.384C608.959 355.672 607.927 356.14 606.871 356.788L605.755 354.232C606.667 353.584 607.807 353.068 609.175 352.684C610.543 352.3 611.851 352.108 613.099 352.108C615.499 352.108 617.275 352.684 618.427 353.836C619.579 354.964 620.155 356.74 620.155 359.164V370H616.735V367.084C616.303 368.092 615.631 368.884 614.719 369.46C613.807 370.036 612.715 370.324 611.443 370.324ZM612.163 367.732C613.459 367.732 614.539 367.276 615.403 366.364C616.267 365.452 616.699 364.3 616.699 362.908V361.936H615.511C613.759 361.936 612.379 362.02 611.371 362.188C610.387 362.356 609.679 362.644 609.247 363.052C608.839 363.436 608.635 363.976 608.635 364.672C608.635 365.584 608.947 366.328 609.571 366.904C610.195 367.456 611.059 367.732 612.163 367.732ZM632.903 370.324C631.103 370.324 629.543 369.952 628.223 369.208C626.927 368.44 625.919 367.372 625.199 366.004C624.479 364.612 624.119 362.98 624.119 361.108C624.119 358.324 624.911 356.128 626.495 354.52C628.079 352.912 630.215 352.108 632.903 352.108C634.007 352.108 635.099 352.3 636.179 352.684C637.259 353.068 638.147 353.596 638.843 354.268L637.691 356.824C637.019 356.2 636.275 355.744 635.459 355.456C634.667 355.144 633.911 354.988 633.191 354.988C631.487 354.988 630.167 355.528 629.231 356.608C628.319 357.664 627.863 359.176 627.863 361.144C627.863 363.112 628.319 364.66 629.231 365.788C630.167 366.892 631.487 367.444 633.191 367.444C633.911 367.444 634.667 367.3 635.459 367.012C636.275 366.7 637.019 366.232 637.691 365.608L638.843 368.2C638.147 368.848 637.247 369.364 636.143 369.748C635.063 370.132 633.983 370.324 632.903 370.324ZM641.968 370V344.62H645.604V360.1H645.676L653.308 352.432H657.808L649.384 360.892L658.456 370H653.92L645.676 361.972H645.604V370H641.968ZM660.927 370V344.62H671.511C674.151 344.62 676.191 345.208 677.631 346.384C679.095 347.536 679.827 349.156 679.827 351.244C679.827 352.612 679.467 353.788 678.747 354.772C678.027 355.756 677.043 356.476 675.795 356.932C677.259 357.316 678.399 358.024 679.215 359.056C680.031 360.088 680.439 361.396 680.439 362.98C680.439 365.236 679.683 366.976 678.171 368.2C676.683 369.4 674.607 370 671.943 370H660.927ZM664.527 355.708H670.935C674.439 355.708 676.191 354.34 676.191 351.604C676.191 348.868 674.439 347.5 670.935 347.5H664.527V355.708ZM664.527 367.12H671.511C675.039 367.12 676.803 365.692 676.803 362.836C676.803 360.004 675.039 358.588 671.511 358.588H664.527V367.12ZM693.314 370.324C690.434 370.324 688.166 369.52 686.51 367.912C684.854 366.28 684.026 364.06 684.026 361.252C684.026 359.452 684.386 357.868 685.106 356.5C685.85 355.108 686.87 354.028 688.166 353.26C689.462 352.492 690.95 352.108 692.63 352.108C695.054 352.108 696.962 352.888 698.354 354.448C699.746 355.984 700.442 358.108 700.442 360.82V362.044H687.554C687.818 365.692 689.75 367.516 693.35 367.516C694.358 367.516 695.342 367.36 696.302 367.048C697.286 366.736 698.21 366.22 699.074 365.5L700.154 368.02C699.362 368.74 698.342 369.304 697.094 369.712C695.846 370.12 694.586 370.324 693.314 370.324ZM692.774 354.664C691.262 354.664 690.062 355.132 689.174 356.068C688.286 357.004 687.746 358.252 687.554 359.812H697.382C697.31 358.18 696.878 356.92 696.086 356.032C695.294 355.12 694.19 354.664 692.774 354.664ZM710.022 370.324C708.798 370.324 707.706 370.084 706.746 369.604C705.786 369.124 705.018 368.476 704.442 367.66C703.89 366.844 703.614 365.92 703.614 364.888C703.614 363.592 703.938 362.572 704.586 361.828C705.258 361.084 706.35 360.544 707.862 360.208C709.398 359.872 711.462 359.704 714.054 359.704H715.278V358.768C715.278 357.4 714.99 356.416 714.414 355.816C713.838 355.216 712.89 354.916 711.57 354.916C710.562 354.916 709.554 355.072 708.546 355.384C707.538 355.672 706.506 356.14 705.45 356.788L704.334 354.232C705.246 353.584 706.386 353.068 707.754 352.684C709.122 352.3 710.43 352.108 711.678 352.108C714.078 352.108 715.854 352.684 717.006 353.836C718.158 354.964 718.734 356.74 718.734 359.164V370H715.314V367.084C714.882 368.092 714.21 368.884 713.298 369.46C712.386 370.036 711.294 370.324 710.022 370.324ZM710.742 367.732C712.038 367.732 713.118 367.276 713.982 366.364C714.846 365.452 715.278 364.3 715.278 362.908V361.936H714.09C712.338 361.936 710.958 362.02 709.95 362.188C708.966 362.356 708.258 362.644 707.826 363.052C707.418 363.436 707.214 363.976 707.214 364.672C707.214 365.584 707.526 366.328 708.15 366.904C708.774 367.456 709.638 367.732 710.742 367.732ZM723.742 370V352.432H727.27V355.348C727.87 354.292 728.686 353.488 729.718 352.936C730.774 352.384 731.95 352.108 733.246 352.108C737.398 352.108 739.474 354.46 739.474 359.164V370H735.838V359.38C735.838 357.868 735.538 356.764 734.938 356.068C734.362 355.372 733.45 355.024 732.202 355.024C730.738 355.024 729.562 355.492 728.674 356.428C727.81 357.34 727.378 358.552 727.378 360.064V370H723.742ZM744.484 376.48V352.432H748.048V355.42C748.552 354.412 749.32 353.608 750.352 353.008C751.384 352.408 752.572 352.108 753.916 352.108C755.476 352.108 756.832 352.48 757.984 353.224C759.16 353.968 760.06 355.024 760.684 356.392C761.332 357.736 761.656 359.344 761.656 361.216C761.656 363.088 761.332 364.708 760.684 366.076C760.06 367.444 759.16 368.5 757.984 369.244C756.832 369.964 755.476 370.324 753.916 370.324C752.62 370.324 751.456 370.048 750.424 369.496C749.416 368.92 748.648 368.14 748.12 367.156V376.48H744.484ZM753.016 367.516C754.528 367.516 755.728 366.976 756.616 365.896C757.528 364.816 757.984 363.256 757.984 361.216C757.984 359.176 757.528 357.628 756.616 356.572C755.728 355.492 754.528 354.952 753.016 354.952C751.504 354.952 750.292 355.492 749.38 356.572C748.492 357.628 748.048 359.176 748.048 361.216C748.048 363.256 748.492 364.816 749.38 365.896C750.292 366.976 751.504 367.516 753.016 367.516ZM773.385 370.324C771.609 370.324 770.073 369.952 768.777 369.208C767.481 368.464 766.473 367.42 765.753 366.076C765.057 364.708 764.709 363.088 764.709 361.216C764.709 359.344 765.057 357.736 765.753 356.392C766.473 355.024 767.481 353.968 768.777 353.224C770.073 352.48 771.609 352.108 773.385 352.108C775.113 352.108 776.625 352.48 777.921 353.224C779.217 353.968 780.225 355.024 780.945 356.392C781.665 357.736 782.025 359.344 782.025 361.216C782.025 363.088 781.665 364.708 780.945 366.076C780.225 367.42 779.217 368.464 777.921 369.208C776.625 369.952 775.113 370.324 773.385 370.324ZM773.385 367.516C774.873 367.516 776.073 366.976 776.985 365.896C777.897 364.816 778.353 363.256 778.353 361.216C778.353 359.176 777.897 357.628 776.985 356.572C776.073 355.492 774.873 354.952 773.385 354.952C771.873 354.952 770.661 355.492 769.749 356.572C768.837 357.628 768.381 359.176 768.381 361.216C768.381 363.256 768.837 364.816 769.749 365.896C770.661 366.976 771.873 367.516 773.385 367.516ZM793.421 370.324C791.213 370.324 789.569 369.76 788.489 368.632C787.409 367.504 786.869 365.872 786.869 363.736V355.24H783.449V352.432H786.869V347.14H790.505V352.432H795.941V355.24H790.505V363.448C790.505 364.72 790.769 365.68 791.297 366.328C791.849 366.976 792.737 367.3 793.961 367.3C794.345 367.3 794.717 367.264 795.077 367.192C795.437 367.096 795.797 366.988 796.157 366.868L796.733 369.604C796.373 369.82 795.869 369.988 795.221 370.108C794.597 370.252 793.997 370.324 793.421 370.324ZM809.042 370V367.228L817.502 358.156C818.678 356.884 819.518 355.732 820.022 354.7C820.55 353.668 820.814 352.624 820.814 351.568C820.814 348.832 819.206 347.464 815.99 347.464C813.542 347.464 811.346 348.388 809.402 350.236L808.07 347.392C809.03 346.456 810.254 345.712 811.742 345.16C813.23 344.584 814.778 344.296 816.386 344.296C819.002 344.296 821.006 344.896 822.398 346.096C823.814 347.296 824.522 349.012 824.522 351.244C824.522 352.756 824.15 354.232 823.406 355.672C822.686 357.112 821.546 358.648 819.986 360.28L813.722 366.868H825.53V370H809.042ZM838.368 370.324C835.416 370.324 833.16 369.208 831.6 366.976C830.064 364.72 829.296 361.492 829.296 357.292C829.296 353.02 830.064 349.792 831.6 347.608C833.16 345.4 835.416 344.296 838.368 344.296C841.344 344.296 843.6 345.4 845.136 347.608C846.672 349.792 847.44 353.008 847.44 357.256C847.44 361.48 846.66 364.72 845.1 366.976C843.564 369.208 841.32 370.324 838.368 370.324ZM838.368 367.228C840.192 367.228 841.548 366.424 842.436 364.816C843.324 363.208 843.768 360.688 843.768 357.256C843.768 353.824 843.324 351.328 842.436 349.768C841.572 348.184 840.216 347.392 838.368 347.392C836.544 347.392 835.188 348.184 834.3 349.768C833.412 351.352 832.968 353.848 832.968 357.256C832.968 360.688 833.412 363.208 834.3 364.816C835.188 366.424 836.544 367.228 838.368 367.228ZM852.214 370V367.228L860.674 358.156C861.85 356.884 862.69 355.732 863.194 354.7C863.722 353.668 863.986 352.624 863.986 351.568C863.986 348.832 862.378 347.464 859.162 347.464C856.714 347.464 854.518 348.388 852.574 350.236L851.242 347.392C852.202 346.456 853.426 345.712 854.914 345.16C856.402 344.584 857.95 344.296 859.558 344.296C862.174 344.296 864.178 344.896 865.57 346.096C866.986 347.296 867.694 349.012 867.694 351.244C867.694 352.756 867.322 354.232 866.578 355.672C865.858 357.112 864.718 358.648 863.158 360.28L856.894 366.868H868.702V370H852.214ZM881.144 370.324C879.44 370.324 877.82 370.072 876.284 369.568C874.748 369.04 873.464 368.308 872.432 367.372L873.728 364.492C874.856 365.404 876.02 366.076 877.22 366.508C878.42 366.94 879.692 367.156 881.036 367.156C882.764 367.156 884.072 366.784 884.96 366.04C885.872 365.296 886.328 364.228 886.328 362.836C886.328 361.444 885.872 360.412 884.96 359.74C884.072 359.068 882.776 358.732 881.072 358.732H877.148V355.6H880.712C882.224 355.6 883.412 355.216 884.276 354.448C885.164 353.68 885.608 352.624 885.608 351.28C885.608 350.056 885.2 349.12 884.384 348.472C883.568 347.8 882.404 347.464 880.892 347.464C878.324 347.464 876.08 348.388 874.16 350.236L872.864 347.392C873.848 346.408 875.072 345.652 876.536 345.124C878.024 344.572 879.572 344.296 881.18 344.296C883.724 344.296 885.704 344.884 887.12 346.06C888.536 347.212 889.244 348.82 889.244 350.884C889.244 352.276 888.884 353.5 888.164 354.556C887.468 355.612 886.496 356.38 885.248 356.86C886.76 357.244 887.924 357.988 888.74 359.092C889.556 360.172 889.964 361.504 889.964 363.088C889.964 365.32 889.172 367.084 887.588 368.38C886.028 369.676 883.88 370.324 881.144 370.324Z" fill="white"/>
<ellipse cx="1032.6" cy="1001.46" rx="63" ry="16.5" transform="rotate(-172.617 1032.6 1001.46)" fill="#B09B6E"/>
<path d="M1096.12 1019.31C1079.11 1024.42 1069.58 1023.96 1052.58 1019.31L1048.49 796.911C1068.13 769.939 1078.52 770.79 1096.12 796.911V1019.31Z" fill="#71A580"/>
<path d="M1120.67 843.951C1116.95 849.831 1093.14 855.366 1093.14 855.366C1093.14 855.366 1089.79 869.201 1093.14 870.93C1096.49 872.66 1143 866.434 1143 853.29V807.634C1136.67 788.003 1120.69 799.56 1120.67 807.634C1120.66 815.708 1124.4 838.071 1120.67 843.951Z" fill="#71A580"/>
<path d="M1030.26 899.379C1033.98 905.259 1057.79 910.793 1057.79 910.793C1057.79 910.793 1061.14 924.628 1057.79 926.357C1054.44 928.087 1007.93 921.861 1007.93 908.717V863.061C1014.26 843.43 1030.24 854.987 1030.26 863.061C1030.27 871.135 1026.54 893.499 1030.26 899.379Z" fill="#71A580"/>
<path d="M1103.95 802.917L1094.92 803.721L1095.33 807.636L1103.95 802.917Z" fill="#71A580"/>
<path d="M1039.68 819.889L1050.66 820.868L1050.17 825.633L1039.68 819.889Z" fill="#71A580"/>
<path d="M1111.02 927.555L1095.65 928.855L1095 922.187L1111.02 927.555Z" fill="#71A580"/>
<path d="M1041.91 973.461L1052.89 974.44L1052.4 979.205L1041.91 973.461Z" fill="#71A580"/>
<path d="M1106.61 1000.34L1095.67 1001.67L1095 996.922L1106.61 1000.34Z" fill="#71A580"/>
<path d="M1128.93 874.39L1121.79 866.566L1125.72 863.471L1128.93 874.39Z" fill="#71A580"/>
<path d="M1114.84 828.882L1125.82 829.861L1125.33 834.626L1114.84 828.882Z" fill="#71A580"/>
<path d="M999.491 884.224L1010.48 885.203L1009.98 889.968L999.491 884.224Z" fill="#71A580"/>
<path d="M1039.12 875.004L1050.07 873.687L1050.73 878.434L1039.12 875.004Z" fill="#71A580"/>
<path d="M1036.67 932.988L1035.47 922.792L1040.58 922.271L1036.67 932.988Z" fill="#71A580"/>
<path d="M1030.05 862.576C1031.51 870.585 1025.86 891.55 1029.78 898.084C1033.7 904.619 1048.59 907.911 1050.94 908.558C1053.29 909.205 1050.94 918.009 1050.94 918.009C1050.94 918.009 1022.08 911.879 1019.06 906.003C1016.04 900.128 1019.06 887.611 1019.06 883.779V852.103C1018.78 851.3 1028.6 854.568 1030.05 862.576Z" fill="#5A978C"/>
<path d="M1096.28 854.657L1119.64 845.206C1119.64 845.206 1121.84 842.396 1122.11 840.608C1122.39 838.819 1126.51 851.847 1120.74 854.657C1114.97 857.467 1098.48 863.854 1096.28 864.365C1094.08 864.875 1096.28 854.657 1096.28 854.657Z" fill="#5A978C"/>
<path d="M1095.46 870.495C1097.38 870.751 1095.73 895.274 1096.28 896.552C1096.83 897.829 1096.28 922.352 1096.28 922.352L1110.85 927.717L1096.28 928.994V937.424V996.944L1106.45 1000.26L1096.28 1001.54L1096.01 1019.42C1096.01 1019.42 1086.66 1021.72 1085.84 1021.98C1085.01 1022.23 1075.12 1023 1075.12 1023C1075.12 1023 1093.53 870.24 1095.46 870.495Z" fill="#5A978C"/>
<path d="M-456.517 2332.1C-612.949 2298.36 -1130 2484.07 -1130 2484.07V2604H306.463V2332.1C306.463 2332.1 88.7369 2412.34 10.1451 2422.83C-68.4467 2433.32 -300.086 2365.84 -456.517 2332.1Z" fill="#C9B895"/>
<path d="M1292.38 7412.14C1290.77 7411.11 1289.24 7425.08 1290.16 7428.42C1291.09 7431.76 1302.9 7444.11 1303.82 7442.39C1304.73 7440.68 1305.12 7427.83 1302.77 7423.66C1300.41 7419.49 1294 7413.17 1292.38 7412.14Z" fill="#F98938"/>
<path d="M1303.32 7411.28C1302.17 7409.75 1295.8 7422.28 1295.49 7425.73C1295.18 7429.18 1301.87 7444.9 1303.33 7443.62C1304.79 7442.34 1309.7 7430.45 1308.97 7425.72C1308.23 7420.99 1304.47 7412.81 1303.32 7411.28Z" fill="#F98938"/>
<path d="M1313.43 7412.58C1312.82 7410.76 1302.85 7420.67 1301.47 7423.85C1300.1 7427.03 1301.53 7444.05 1303.32 7443.3C1305.11 7442.54 1313.49 7432.78 1314.28 7428.06C1315.06 7423.34 1314.04 7414.39 1313.43 7412.58Z" fill="#F98938"/>
<path d="M117.8 8654.65C116.327 8654.68 117.014 8662.44 118.24 8663.84C119.467 8665.25 130.893 8667.51 131.407 8666.31C131.921 8665.1 130.452 8658.32 127.936 8656.99C125.419 8655.65 119.272 8654.62 117.8 8654.65Z" fill="#F98938"/>
<path d="M126.288 8651.06C125.193 8650.68 121.978 8659.05 122.205 8660.88C122.431 8662.71 129.725 8668.36 130.679 8667.24C131.634 8666.12 133.808 8658.55 132.601 8656.43C131.395 8654.3 127.383 8651.45 126.288 8651.06Z" fill="#F98938"/>
<path d="M133.235 8648.6C132.565 8647.83 127.55 8655.89 127.129 8657.95C126.707 8660 130.189 8668.41 131.241 8667.5C132.293 8666.58 136.295 8659.07 136.1 8656.39C135.904 8653.71 133.905 8649.36 133.235 8648.6Z" fill="#F98938"/>
<path d="M282.015 8610.02C281.597 8609.22 276.847 8612.03 276.285 8613.15C275.724 8614.27 277.37 8621.3 278.275 8621.21C279.181 8621.12 283.099 8618.18 283.267 8616.37C283.436 8614.56 282.433 8610.83 282.015 8610.02Z" fill="#EB71C9"/>
<path d="M286.63 8613.61C286.582 8612.88 280.364 8613.72 279.257 8614.41C278.149 8615.11 276.511 8620.92 277.486 8621.09C278.462 8621.27 283.884 8620.11 284.915 8618.78C285.945 8617.45 286.679 8614.33 286.63 8613.61Z" fill="#EB71C9"/>
<path d="M290.109 8616.68C290.418 8616.08 283.913 8615.85 282.486 8616.25C281.058 8616.66 276.607 8621.19 277.476 8621.48C278.345 8621.77 284.23 8621.61 285.893 8620.67C287.556 8619.73 289.801 8617.29 290.109 8616.68Z" fill="#EB71C9"/>
<path d="M224.619 8597.96L231.232 8594.03L233.528 8597.78L232.263 8602.76L224.619 8597.96Z" fill="#71A580"/>
<path d="M120.671 8778.97L128.883 8771.76L132.687 8778.1L132.528 8783.64L120.671 8778.97Z" fill="#71A580"/>
<path d="M194.781 8732.78L184.732 8726.17L181.508 8733.69L182.5 8739.72L194.781 8732.78Z" fill="#71A580"/>
<path d="M289.649 8636.52L280.936 8628.15L277.707 8627.48L277.613 8633.6L289.649 8636.52Z" fill="#71A580"/>
<path d="M89.1338 8717.81L88.3458 8706.76L95.5919 8707.4L99.8487 8710.82L89.1338 8717.81Z" fill="#71A580"/>
<path d="M84.921 8658.28L91.7606 8666.86L85.4681 8670.59L80.0634 8670.29L84.921 8658.28Z" fill="#71A580"/>
<path d="M200.455 8645.19L186.006 8685.93L189.559 8699.66L223.513 8691.44C251.405 8683.31 257.39 8645.95 257.095 8637.48C257.071 8636.8 256.835 8636.18 256.46 8635.62C243.836 8617.05 208.167 8627.82 200.455 8645.19Z" fill="#BED9AA"/>
<path d="M81.5228 8708.13L112.339 8718.66L122.559 8715.6L115.085 8690.87C109.313 8672 93.1036 8662.58 82.9845 8663.88C79.1603 8664.36 76.3176 8667.54 74.5373 8671.01C66.5402 8686.64 73.0585 8704.6 81.5228 8708.13Z" fill="#BED9AA"/>
<path d="M231.22 8602.7L244.661 8628.56L252.719 8631.23L258.63 8606.14C263.74 8584.18 249.233 8576.46 245.623 8574.31C245.321 8574.13 244.956 8574.11 244.64 8574.26C233.597 8579.54 223.11 8585.61 231.22 8602.7Z" fill="#BED9AA"/>
<path d="M261.735 8615.81L251.876 8631.42L252.611 8636.45L271.827 8640.35C274.872 8639.53 277.17 8637.82 278.901 8635.62C281.075 8632.86 263.868 8613.01 261.735 8615.81Z" fill="#BED9AA"/>
<path d="M114.291 8741.66L141.476 8818.37L159.143 8827.27L181.832 8752.67C201.078 8688.92 183.368 8664.56 162.433 8656.11C159.248 8654.83 155.723 8654.78 152.448 8655.75C101.207 8670.84 107.186 8717.27 114.291 8741.66Z" fill="#BED9AA"/>
<path d="M185.003 8698.72C235.997 8697.51 245.328 8660.36 242.026 8626.25C297.637 8651.84 221.369 8719.61 178.887 8701.17L185.003 8698.72Z" fill="#B4CCA1"/>
<path d="M246.093 8628.7C249.521 8630.18 254.929 8602.93 245.566 8574.32C273.125 8576.35 255.511 8638.07 249.258 8631.67L246.093 8628.7Z" fill="#B4CCA1"/>
<path d="M252.388 8635.45C251.773 8638.29 279.291 8630.75 279.531 8620.72C300.365 8647.15 244.338 8642.58 247.878 8636.41L252.388 8635.45Z" fill="#B4CCA1"/>
<path d="M134.595 8825.83C165.36 8770.86 202.15 8666.45 159.118 8656.04C217.563 8667.37 184.333 8770.5 159.713 8821.1L134.595 8825.83Z" fill="#B4CCA1"/>
<path d="M96.8009 8667.41C109.702 8688.29 102.12 8707.13 90.436 8711C94.5171 8715.45 100.86 8714.95 109.801 8717.08C108.221 8706.17 111.995 8692.89 114.08 8687.62C103.943 8670.78 98.3368 8667.13 96.8009 8667.41Z" fill="#B4CCA1"/>
<path d="M138.713 8744.41L132.245 8735.53L137.924 8738.44L144.077 8732.63L138.713 8744.41Z" fill="#71A580"/>
<path d="M153.399 8789.33L151.811 8778.38L155.468 8783.69L163.577 8781.55L153.399 8789.33Z" fill="#71A580"/>
<path d="M143.356 8685.23L142.553 8674.18L145.822 8679.75L154.062 8678.23L143.356 8685.23Z" fill="#71A580"/>
<path d="M166.601 8713.27L161.784 8703.35L166.866 8707.25L173.933 8702.65L166.601 8713.27Z" fill="#71A580"/>
<path d="M200.286 8680.05L203.147 8672.8L203.518 8677.37L209.204 8679.04L200.286 8680.05Z" fill="#71A580"/>
<path d="M225.812 8668.4L228.672 8661.15L229.044 8665.72L234.73 8667.39L225.812 8668.4Z" fill="#71A580"/>
<path d="M251.72 8602.44L244.656 8599.44L249.133 8599.11L250.823 8593.31L251.72 8602.44Z" fill="#71A580"/>
<path d="M92.2217 8682.89L86.6888 8679.9L90.359 8679.97L92.1586 8675.37L92.2217 8682.89Z" fill="#71A580"/>
<path d="M102.772 8701.79L95.7772 8701.81L100.098 8700.74L100.134 8696.16L102.772 8701.79Z" fill="#71A580"/>
<path fill-rule="evenodd" clip-rule="evenodd" d="M241.028 8848.93H79.562C88.5354 8827.08 119.487 8813.66 158.232 8813.59C158.432 8813.59 158.633 8813.62 158.824 8813.68C166.018 8815.89 173.251 8817.91 180.301 8819.87C207.492 8827.43 231.969 8834.24 241.028 8848.93Z" fill="#FFE8BC"/>
<ellipse cx="179.274" cy="8847.36" rx="46.6902" ry="9.18616" fill="#FFE8BC"/>
<path d="M207.363 8824.59L233.855 8839.97L241.089 8848.71L229.69 8853.63L214.127 8854.75L207.363 8853.63L201.413 8850.5L198.564 8845.12L195.275 8843.37L188.874 8839.97C188.874 8839.97 187.532 8835.8 187.602 8833.61C187.672 8831.42 192.764 8829.84 191.289 8829.01C189.814 8828.19 183.423 8826.17 179.525 8825.97C175.627 8825.78 164.765 8827.37 162.833 8826.3C160.902 8825.23 165.035 8820.46 164.368 8819.8C163.701 8819.15 159.053 8817.11 160.422 8816.89C161.792 8816.67 167.761 8816.33 166.392 8815.77C165.022 8815.21 156.887 8813.88 158.449 8813.64C160.012 8813.4 166.392 8813.64 166.392 8813.64L176.927 8815.1L192.939 8818.55L207.363 8824.59Z" fill="#EFD59E"/>
<ellipse rx="46.9061" ry="12.7265" transform="matrix(-0.957105 -0.28974 -0.28974 0.957105 208.749 2871.39)" fill="#C9B895"/>
<ellipse rx="53.1957" ry="17.0001" transform="matrix(-0.957105 -0.28974 -0.28974 0.957105 234.43 2902.54)" fill="#C9B895"/>
<ellipse cx="1128.5" cy="2741.5" rx="65.5" ry="18.5" fill="#8D743E"/>
<ellipse cx="987" cy="2805.5" rx="20" ry="6.5" fill="#8D743E"/>
<path d="M1059.5 2691L1124 2710.5L1132 2743.63L1101 2765L1084 2772.13L1033.5 2778.5L1001 2769.5L995 2746.5L1018.5 2722.5L1059.5 2691Z" fill="#DE8563"/>
<path d="M1127 2723.63L1122.5 2710.13L1142 2744.63L1133.5 2755.13L1125 2763.13L1083.5 2772.13L1101.5 2760.63L1122.5 2744.63L1127 2723.63Z" fill="#C1623C"/>
<path d="M965.697 2785L985.448 2787.53L992.167 2807.79L980.357 2813.31L964.679 2814L951.443 2809.86L949 2799.27L958.57 2788.22L965.697 2785Z" fill="#DE8563"/>
<path d="M985.448 2787.53L991.149 2793.29L994 2803.18L992.982 2807.1L989.52 2810.78L980.357 2813.31L979.747 2805.94L981.172 2797.89L985.448 2787.53Z" fill="#C1623C"/>
<path d="M251.806 1269L292.612 1280.7L297.673 1300.58L278.061 1313.4L267.306 1317.68L235.357 1321.5L214.796 1316.1L211 1302.3L225.867 1287.9L251.806 1269Z" fill="#DE8563"/>
<path d="M294.51 1288.58L291.663 1280.48L304 1301.18L298.622 1307.48L293.245 1312.28L266.99 1317.68L278.378 1310.78L291.663 1301.18L294.51 1288.58Z" fill="#C1623C"/>
<ellipse cx="168.718" cy="1085.24" rx="25.6892" ry="32.3414" fill="#F9DACD"/>
<path d="M163.26 1115.38C163.972 1119.56 164.139 1121.78 163.26 1125.12H173.857C172.676 1121.56 172.973 1119.37 173.857 1115.38H163.26Z" fill="#F9DACD"/>
<path d="M172.572 1075.51C176.586 1070.8 172.572 1064.99 172.572 1064.99L140.942 1069.07C140.942 1069.07 136.447 1081.47 140.942 1084.3C145.438 1087.12 146.562 1086.81 152.984 1087.12C159.406 1087.44 168.558 1080.22 172.572 1075.51Z" fill="#A24D3D"/>
<path d="M130.987 1074.72C130.506 1070.32 145.598 1075.89 145.598 1075.89V1083.27C145.598 1083.27 141.745 1084.68 142.547 1092.53C143.35 1100.38 147.364 1167.1 147.364 1167.1C147.364 1167.1 124.726 1174.8 124.726 1165.38C124.726 1155.96 131.469 1079.12 130.987 1074.72Z" fill="#A24D3D"/>
<rect x="160.37" y="1124.17" width="18.6247" height="21.3516" fill="#F9DACD"/>
<path d="M183.008 1077.08C178.191 1076.26 173.696 1068.6 173.696 1068.6L190.073 1062.47C190.073 1062.47 195.532 1072.37 193.765 1075.03C191.999 1077.7 187.825 1077.89 183.008 1077.08Z" fill="#A24D3D"/>
<ellipse cx="144.314" cy="1094.34" rx="6.74341" ry="6.59387" fill="#F9DACD"/>
<path d="M116.08 1179.04L126.846 1155.26L137.891 1160.86L116.08 1201.73L108.67 1196.4L116.08 1179.04Z" fill="#F9DACD"/>
<path d="M232.854 1099.61L214.317 1124.21L217.708 1138.56C217.708 1138.56 248.105 1107.31 248.71 1101.08C249.315 1094.85 243.337 1090.2 243.337 1090.2L215.726 1066.59L207.797 1074.33L232.854 1099.61Z" fill="#F9DACD"/>
<path d="M182.76 1125.17L175.269 1124.27L169.173 1143.32C169.173 1143.32 183.428 1135.37 187.42 1131.89C191.413 1128.41 182.76 1125.17 182.76 1125.17Z" fill="#E6BE9A"/>
<path d="M155.775 1125.31L163.225 1124.14L170.061 1142.94C170.061 1142.94 155.506 1135.53 151.381 1132.21C147.255 1128.88 155.775 1125.31 155.775 1125.31Z" fill="#E6BE9A"/>
<path d="M151.218 1304.25V1251.97H168.719L164.544 1304.25H151.218Z" fill="#F9DACD"/>
<path d="M223.469 1224.97L210.143 1217.12V1201.73L223.469 1196.55C223.469 1196.55 240.648 1208.32 243.699 1212.41C246.75 1216.49 246.107 1221.51 246.107 1221.51L241.291 1264.53H228.286L223.469 1224.97Z" fill="#F9DACD"/>
<path d="M135.483 1136.73L150.415 1131.24L170.003 1141.91L188.306 1129.04L211.106 1125.9C211.106 1125.9 208.376 1121.66 211.106 1118.37C213.835 1115.07 220.418 1114.13 220.418 1114.13L230.051 1136.73C230.051 1136.73 224.913 1143.8 220.418 1143.48C215.922 1143.17 215.762 1136.73 215.762 1136.73L193.444 1153.22C193.444 1153.22 191.678 1166.72 193.444 1169.55C195.21 1172.37 204.041 1182.58 204.683 1187.76C205.326 1192.94 178.673 1201.89 178.673 1201.89C178.673 1201.89 145.919 1202.99 143.832 1198.12C141.745 1193.25 155.392 1179.91 154.911 1176.93C154.429 1173.94 150.415 1146.62 150.415 1146.62L138.212 1160.28C138.212 1160.28 142.226 1159.97 143.832 1164.99C145.438 1170.02 138.212 1171.12 138.212 1171.12L115.253 1160.28C115.253 1160.28 113.166 1155.1 119.748 1153.22C126.331 1151.33 126.171 1154.32 126.171 1154.32L135.483 1136.73Z" fill="#E3BB97"/>
<ellipse rx="8.88497" ry="10.3332" transform="matrix(0.956184 0.292766 -0.304971 0.952362 111.647 1201.61)" fill="#F9DACD"/>
<ellipse rx="8.79284" ry="10.4432" transform="matrix(-0.673243 0.739421 -0.754232 -0.656608 206.066 1065.28)" fill="#F9DACD"/>
<path fill-rule="evenodd" clip-rule="evenodd" d="M135.859 1056.48C137.819 1046.18 141.389 1041.08 156.691 1035.16C172.449 1034.2 177.442 1037.66 184.905 1045.16C196.801 1046.89 200.601 1052.47 201.187 1055.91C202.051 1060.98 184.985 1067.82 166.604 1070.62C150.864 1075.29 127.178 1076.37 125.276 1070.62C124.142 1067.19 127.14 1061.88 135.859 1056.48Z" fill="#E6BE9A"/>
<path d="M152.502 1165.15L155.392 1176.93L193.766 1171.27V1161.7L152.502 1165.15Z" fill="#BE776B"/>
<rect x="2.73868" y="2.24816" width="11.3734" height="6.17072" rx="2.5" transform="matrix(0.995409 -0.0957154 0.100063 0.994981 165.937 1164.32)" stroke="#F7CD82" stroke-width="5"/>
<path d="M190.073 1125.12H181.724C181.724 1125.12 183.811 1139.56 180.921 1147.72C178.031 1155.89 161.975 1171.43 161.975 1171.43L168.076 1179.75C168.076 1179.75 187.504 1154.79 190.073 1148.82C192.642 1142.86 190.073 1125.12 190.073 1125.12Z" fill="#A56951"/>
<path d="M169.404 1172.08L137.005 1164.05L130.185 1188.7L160.499 1198.59L169.404 1197.66C169.404 1197.66 170.162 1188.7 169.972 1186.83C169.783 1184.96 169.404 1172.08 169.404 1172.08Z" fill="#A36950"/>
<path d="M148.167 1246.65V1198.59H178.352L170.047 1246.65C161.986 1249.71 157.146 1249.4 148.167 1246.65Z" fill="#E3BB97"/>
<path d="M207.012 1218.06L177.067 1199.18L201.274 1185.72L226.198 1193.93C226.198 1193.93 215.081 1195.86 211.315 1201.8C207.55 1207.74 207.012 1218.06 207.012 1218.06Z" fill="#E3BB97"/>
<rect x="143.351" y="1243.81" width="31.1481" height="10.9898" rx="5" fill="#E3BB97"/>
<path d="M202.135 1217.29C200.566 1216.03 199.916 1213.96 200.553 1212.06C203.968 1201.9 207.769 1196.07 218.611 1190.52C220.339 1189.64 222.442 1189.91 223.943 1191.12V1191.12C226.812 1193.43 226.244 1197.9 222.865 1199.44L217.347 1201.96C216.127 1202.52 215.181 1203.53 214.72 1204.76L210.679 1215.6C209.482 1218.82 205.403 1219.92 202.713 1217.75L202.135 1217.29Z" fill="#E3BB97"/>
<path d="M150.566 1297.46L157.294 1301.39L165.621 1300.81L167.671 1304.6C167.671 1304.6 174.761 1300.32 179.522 1303.77C184.282 1307.21 184.788 1314.1 184.788 1314.1C176.162 1318.99 170.601 1319.63 160.231 1319.45C151.791 1317.94 148.478 1316.38 143.664 1313.05C144.433 1306.71 145.968 1303.3 150.566 1297.46Z" fill="#A96D51"/>
<path d="M226.79 1258.73L233.878 1262L242.108 1260.63L244.524 1264.21C244.524 1264.21 251.156 1259.28 256.236 1262.25C261.316 1265.23 262.505 1272.04 262.505 1272.04C254.406 1277.72 248.935 1278.89 238.596 1279.69C230.046 1279 226.594 1277.76 221.472 1274.91C221.606 1268.52 222.795 1264.98 226.79 1258.73Z" fill="#A96D51"/>
<path fill-rule="evenodd" clip-rule="evenodd" d="M135.662 1136.3L141.995 1133.91L143.651 1154.21L138.674 1159.92C138.674 1159.92 142.674 1159.58 144.337 1164.62C146.001 1169.65 138.807 1170.8 138.807 1170.8L115.771 1160.05C115.771 1160.05 113.625 1154.87 120.168 1152.94C126.712 1151.01 126.588 1154 126.588 1154L135.662 1136.3Z" fill="#E3BB97"/>
<path d="M133.556 1168.92L129.703 1176.3L126.813 1170.17L122.959 1163.89L133.556 1168.92Z" fill="#E2BAAA"/>
<path d="M151.218 1254.8H168.397C161.303 1256.83 157.553 1258.4 151.218 1261.86V1254.8Z" fill="#E2BAAA"/>
<path d="M239.043 1226.07C235.511 1226.85 223.469 1224.97 223.469 1224.97L227.643 1259.19L233.744 1262.02L241.612 1260.6L246.107 1221.98C246.107 1221.98 242.575 1225.28 239.043 1226.07Z" fill="#E2BAAA"/>
<path d="M135.965 1056.19L137.892 1049.13C137.892 1049.13 147.846 1048.66 153.626 1048.34C159.406 1048.03 184.453 1045.05 184.453 1045.05C184.453 1045.05 168.076 1050.86 164.223 1051.96C160.37 1053.05 135.965 1056.19 135.965 1056.19Z" fill="#DDAE83"/>
<path d="M163.581 1116.95C168.397 1117.61 170.111 1117.53 173.535 1117.14L163.907 1121.35C163.927 1120.07 163.907 1119.15 163.581 1116.95Z" fill="#E2BAAA"/>
<path d="M166.631 1173.63C168.558 1175.98 169.521 1177.71 169.521 1177.71L170.003 1185.87V1188.54L169.361 1197.65L160.691 1198.56L160.209 1177.71C160.941 1174.94 161.173 1173.36 162.938 1170.49C162.938 1170.49 164.705 1171.27 166.631 1173.63Z" fill="#8F5B44"/>
<path d="M221.06 1115.38L226.68 1128.88C225.395 1121.4 224.922 1117.21 225.235 1109.73L221.06 1115.38Z" fill="#E2BAAA"/>
<path fill-rule="evenodd" clip-rule="evenodd" d="M62.9955 6690.16C61.5035 6688.42 49.5687 6692.48 46.3363 6693.64C43.1039 6694.8 64.2389 6704.5 64.2389 6704.5L75.6131 6723.18H96.5692L104.183 6699.54C104.183 6699.54 127.643 6690.16 122.173 6690.16H105.017C102.53 6690.16 93.8275 6701.17 93.8275 6701.17C93.8275 6701.17 85.1249 6683.79 82.1412 6681.18C79.1574 6678.58 75.1791 6704.5 75.1791 6704.5C75.1791 6704.5 64.4875 6691.9 62.9955 6690.16Z" fill="#71A580"/>
<ellipse cx="183.5" cy="6632.5" rx="45.5" ry="17.5" fill="#8D743E"/>
<path fill-rule="evenodd" clip-rule="evenodd" d="M118.212 6549.06C115.208 6543.74 91.1837 6556.16 84.6769 6559.71C78.1702 6563.25 120.715 6592.97 120.715 6592.97L143.611 6650.18H185.795L201.122 6577.77C201.122 6577.77 248.347 6549.06 237.335 6549.06H202.8C197.794 6549.06 180.276 6582.77 180.276 6582.77C180.276 6582.77 162.758 6529.55 156.752 6521.56C150.746 6513.58 142.737 6592.97 142.737 6592.97C142.737 6592.97 121.215 6554.38 118.212 6549.06Z" fill="#71A580"/>
<ellipse cx="1238.5" cy="4845" rx="65.5" ry="21" fill="#8D743E"/>
<path d="M1135 4778.43C1144.57 4772.71 1149.98 4769.97 1161.02 4778.43C1171.63 4798.66 1169.35 4791.91 1192.26 4796.66C1195.47 4808.95 1208.74 4831.16 1208.96 4836.92C1225.64 4836.35 1247.48 4840.15 1246.11 4842.72C1244.75 4845.28 1234.16 4847.26 1235.8 4848.05C1250.88 4850.61 1260.3 4851.56 1265.09 4859.34C1261.24 4860.13 1256.09 4861.22 1253.47 4862C1250.86 4862.79 1261.55 4867.75 1267.06 4870.16C1263.93 4872.25 1261.41 4873.16 1256.26 4874.55C1241.27 4878.68 1235.33 4881.22 1155.94 4879.41L1121.58 4874.55C1104.66 4855.98 1103.5 4843.14 1108.81 4818.1C1112.58 4803.08 1115.87 4794.58 1135 4778.43Z" fill="#FCC17A"/>
<path d="M1186.96 4840.35C1194.35 4837.84 1207.48 4837.84 1207.48 4837.84C1207.48 4837.84 1193.86 4834.87 1186.96 4834.08C1180.07 4833.3 1168.41 4843.32 1163.65 4846.61C1158.89 4849.9 1148.88 4874.79 1148.88 4874.79C1148.88 4874.79 1179.58 4842.85 1186.96 4840.35Z" fill="#EDB16A"/>
<path d="M1194.16 4733.21H1176.15C1176.15 4733.21 1137.04 4681.89 1131.63 4680.82C1126.23 4679.74 1118.74 4733.22 1154.22 4756.35L1146.37 4769.37C1158.06 4789.4 1167.24 4795.29 1187.28 4798.32C1208.51 4793.26 1217.56 4787.78 1227.71 4772.43L1220.35 4756.35C1238.72 4758.87 1259.41 4682.36 1239.5 4679.13C1219.59 4675.9 1194.16 4733.21 1194.16 4733.21Z" fill="#FCC17A"/>
<path fill-rule="evenodd" clip-rule="evenodd" d="M1209.69 4764.49L1207.72 4767.4C1207.32 4767.19 1206.93 4766.99 1206.56 4766.82C1207.19 4767.57 1207.56 4768.52 1207.56 4769.54C1207.56 4772 1205.43 4773.98 1202.81 4773.98C1200.51 4773.98 1198.6 4772.46 1198.16 4770.43C1198.07 4770.82 1197.98 4771.24 1197.9 4771.69H1195.77C1197.6 4762.47 1200.82 4761.19 1209.69 4764.49Z" fill="#093B86"/>
<path fill-rule="evenodd" clip-rule="evenodd" d="M1163.69 4763.68L1165.66 4766.6C1166.06 4766.38 1166.45 4766.19 1166.82 4766.02C1166.19 4766.77 1165.82 4767.71 1165.82 4768.74C1165.82 4771.19 1167.95 4773.18 1170.57 4773.18C1172.87 4773.18 1174.78 4771.65 1175.22 4769.62C1175.31 4770.02 1175.4 4770.44 1175.48 4770.88H1177.61C1175.78 4761.66 1172.57 4760.39 1163.69 4763.68Z" fill="#093B86"/>
<path d="M1186.61 4791.14C1183.07 4789.7 1181.8 4788.35 1180.55 4785.17C1182.2 4783.34 1183.44 4782.65 1186.61 4782.41C1189.86 4782.73 1191.2 4783.32 1192.66 4785.17C1191.92 4788.31 1190.41 4789.53 1186.61 4791.14Z" fill="#093B86"/>
<path fill-rule="evenodd" clip-rule="evenodd" d="M1239.64 4679.77C1233.58 4679.15 1195.28 4742.58 1211.65 4747.48C1223.87 4751.14 1231.65 4749.4 1238.67 4736.38L1241.44 4737.06L1240.46 4733.69H1244.22L1241.44 4731.7L1244.71 4728.94L1241.91 4729.45C1243.17 4726.38 1244.42 4722.91 1245.7 4718.99C1249.24 4699.16 1245.7 4680.38 1239.64 4679.77Z" fill="#F8E6C7"/>
<path fill-rule="evenodd" clip-rule="evenodd" d="M1158.29 4748.4C1168.93 4743.65 1161.59 4725.16 1151.58 4704.74C1151.58 4704.74 1138.32 4679.92 1131.94 4680.38C1125.56 4680.84 1122.13 4702.17 1125.07 4718.68C1126.92 4725.81 1129.53 4731.67 1132.58 4736.3H1128.99L1132.47 4738.75L1130.93 4741.61L1133.63 4741V4744.26L1136.35 4741.19C1143.44 4749 1151.86 4751.27 1158.29 4748.4Z" fill="#F8E6C7"/>
<path d="M1187.26 4798.19C1206.67 4786.19 1214.91 4777.99 1221.47 4758.82L1228.02 4772.76C1223.68 4778.52 1221.23 4781.75 1215.09 4786.85C1205.31 4793.7 1199 4795.71 1187.26 4798.19Z" fill="#EDB16A"/>
<path d="M1185.72 4798.1C1167.11 4785.04 1159.41 4776.39 1154.08 4756.89L1145.85 4769.24C1149.81 4775.23 1155.27 4783.4 1161.08 4788.85C1170.4 4796.23 1174.16 4794.97 1185.72 4798.1Z" fill="#EDB16A"/>
<path d="M1197.62 4846.31C1197.29 4844.19 1208.58 4838.73 1216.21 4836.91C1232.79 4837.78 1245.96 4840.12 1246.59 4842.67C1245.43 4844.19 1238.78 4846.95 1235.8 4847.38C1232.82 4847.81 1266.11 4851.02 1266.11 4859.21C1266.11 4859.21 1253.56 4861.79 1253.89 4862.85C1254.22 4863.91 1268 4870.14 1268 4870.14C1253.42 4877.37 1237.17 4880.35 1209.41 4879.69C1209.41 4879.69 1228.99 4875.29 1228.83 4874.54C1228.66 4873.78 1205.92 4865.89 1205.59 4864.22C1205.26 4862.55 1215.38 4855.42 1215.22 4854.36C1215.05 4853.29 1197.95 4848.44 1197.62 4846.31Z" fill="#F8E6C7"/>
<path d="M913 4933.52C913 4960.15 940.604 4969.45 1039.86 4969.45C1169.89 4973.4 1275.5 4980.5 1246 4933.52C1205.5 4893 1180.72 4857.43 1075.54 4827C962.686 4853.21 913 4913.82 913 4933.52Z" fill="#FFE8BC"/>
<path d="M1242.74 4879.87L1263.36 4901.01C1263.36 4901.01 1300 4943.75 1298 4953.37C1296 4963 1289 4966 1238 4970C1187 4974 1183 4967.5 1177.5 4964.5C1172 4961.5 1173.5 4961.5 1174 4960.5C1174.5 4959.5 1201.04 4943.37 1196.5 4937C1191.96 4930.63 1170.13 4933.46 1170.38 4923C1170.64 4912.53 1189.28 4904.97 1183.88 4901.01C1178.48 4897.06 1155.08 4887.41 1140.81 4886.48C1126.54 4885.55 1088.61 4876.13 1081.54 4871.01C1074.47 4865.89 1079.87 4859.33 1077.43 4856.19C1074.98 4853.05 1066.63 4841.12 1071.64 4840.07C1076.66 4839.03 1102.76 4842.75 1097.74 4840.07C1092.73 4837.4 1065.92 4828.66 1071.64 4827.51C1077.36 4826.36 1092.73 4827.51 1092.73 4827.51L1131.3 4834.49L1189.93 4851L1242.74 4879.87Z" fill="#EFD59E"/>
<ellipse cx="1317.5" cy="1578.5" rx="65.5" ry="18.5" fill="#8D743E"/>
<path d="M1301.5 1485.73C1299.21 1463.93 1299.56 1451.72 1304.4 1429.95L1307.3 1427.34L1307.95 1423.52C1308.86 1421.97 1307.06 1420.02 1303.6 1418.3C1293.17 1416.12 1288.85 1415.25 1277.99 1415C1268.29 1415.4 1262.87 1415.87 1253.34 1418.3C1250.9 1419.34 1249.59 1419.98 1248.83 1422.47L1249.32 1427.34L1252.22 1429.95C1257.07 1452.13 1256.68 1464.23 1255.12 1485.73C1228.92 1509.52 1219.89 1519.61 1220 1528.31C1227.53 1552.77 1234.62 1565.3 1251.25 1586.01C1254.37 1594.07 1260.48 1596.75 1279.6 1598C1297.25 1595.88 1303.78 1593.53 1305.69 1586.01C1308.58 1587.29 1338.5 1540.31 1336.94 1528.31C1335.38 1516.31 1319.12 1499.91 1301.5 1485.73Z" fill="#DE8563"/>
<path fill-rule="evenodd" clip-rule="evenodd" d="M1255.6 1425.36C1254.19 1424.85 1253.67 1424.28 1253.5 1422.41C1253.82 1422.26 1254.14 1422.12 1254.47 1421.99C1255.44 1421.39 1257.46 1420.72 1260.2 1420.1C1266.04 1418.61 1272.49 1418.08 1278.6 1418.13C1283.64 1418.09 1288.93 1418.45 1293.9 1419.45C1299.92 1420.47 1303.85 1421.86 1303.6 1422.76C1303.47 1423.19 1303.35 1423.49 1303.22 1423.69C1302.94 1424.63 1302.39 1425.05 1301.36 1425.43C1292.09 1422.83 1284.95 1421.48 1277.98 1421.39C1271.32 1421.61 1264.42 1422.94 1255.6 1425.36Z" fill="#C1623C"/>
<rect x="1269.29" y="1420.56" width="18.0403" height="2.78063" fill="#C1623C"/>
<path d="M1279.35 1434.51C1288.18 1433.98 1304.4 1430.29 1304.4 1430.29L1303.76 1433.11C1303.76 1433.11 1281.92 1443.48 1273.73 1442.77C1265.54 1442.07 1253.34 1435.39 1253.34 1435.39L1252.21 1430.29C1252.21 1430.29 1270.52 1435.04 1279.35 1434.51Z" fill="#C1623C"/>
<ellipse cx="1278.63" cy="1425.08" rx="22.5504" ry="3.12821" fill="#320200"/>
<path d="M1278.47 1453.41C1269.35 1452.78 1264.06 1451.61 1255.44 1448.54L1255.92 1454.1C1264.48 1456.79 1269.8 1457.67 1278.47 1458.62C1287.48 1458.2 1292.41 1457.63 1300.54 1454.97L1301.02 1449.76C1292.5 1452.21 1287.62 1453.23 1278.47 1453.41Z" fill="#FFE091"/>
<path d="M1278.22 1463.49C1269.33 1462.89 1264.49 1461.93 1256.08 1458.97L1256.23 1464.16C1264.58 1466.76 1269.77 1467.61 1278.22 1468.53C1287.01 1468.12 1292.12 1467.62 1300.05 1465.05L1300.21 1459.97C1291.9 1462.34 1287.15 1463.33 1278.22 1463.49Z" fill="#FFE091"/>
<path d="M1278.22 1473.4C1269.33 1472.79 1264.49 1471.84 1256.08 1468.87L1255.76 1473.74C1264.11 1476.34 1269.77 1477.51 1278.22 1478.43C1287.01 1478.03 1292.61 1477.52 1300.54 1474.96L1300.21 1469.88C1291.9 1472.24 1287.15 1473.23 1278.22 1473.4Z" fill="#FFE091"/>
<path d="M1255.11 1485.73L1255.76 1476.7L1261.72 1486.08L1276.54 1477.74L1287.81 1488.51L1296.99 1475.48L1300.7 1477.22L1301.5 1486.08L1306.66 1490.25C1296.71 1493.89 1290.71 1494.72 1279.6 1494.94C1268.87 1494.29 1262.54 1493.27 1251.89 1488.69L1255.11 1485.73Z" fill="#FFE091"/>
<path d="M1239.01 1500.71L1244.81 1495.12C1259.46 1500.02 1267.69 1502.3 1280.28 1502.45C1296.06 1501.99 1303.84 1500.93 1314.73 1496.84L1320.83 1502.45C1308.12 1507.16 1287.81 1510.58 1280.28 1510.58C1272.74 1510.58 1253.14 1506.44 1239.01 1500.71Z" fill="#FFE091"/>
<path d="M1223.38 1518.4C1228.13 1511.64 1231.5 1507.79 1238.97 1500.85H1241.17L1252.17 1521.74L1274.49 1509.1L1290.4 1525.04L1304.1 1506.35L1325.24 1515.88L1326.47 1509.37C1330.08 1513.55 1331.76 1516 1334.36 1520.49C1315.33 1529.3 1302.71 1532.54 1277.71 1534.57C1254.67 1532.55 1243.05 1529.26 1223.38 1518.4Z" fill="#FFE091"/>
<path d="M1254.95 1485.91C1256.54 1468.53 1256.59 1457.91 1253.18 1435.33L1266.23 1440.72C1267.74 1461.38 1268.24 1475.19 1271.06 1492.51C1257.01 1509.91 1252.05 1521.36 1250.93 1528.31C1249.8 1535.26 1258.06 1571.07 1271.22 1597.13C1264.16 1596.88 1260.63 1595.73 1255.11 1591.74C1238.31 1571.4 1230.35 1557.95 1220.16 1528.31C1221.39 1518.34 1229.61 1508.6 1254.95 1485.91Z" fill="#C1623C" fill-opacity="0.6"/>
<path d="M1195.19 1526.42L1194.16 1508.12C1194.16 1508.12 1191.92 1507.37 1191.4 1505.88C1190.89 1504.38 1190.37 1499.53 1190.37 1499.53C1213.89 1489.2 1229.58 1489.78 1250.84 1499.53C1250.84 1499.53 1251.36 1504.76 1250.84 1505.88C1250.32 1507 1247.39 1508.12 1247.39 1508.12L1245.67 1524.74C1275.31 1550.3 1275.69 1565.67 1252.56 1594.57L1250.15 1602.98C1227.18 1615.67 1214.48 1616.08 1192.27 1604.28L1189.34 1594.57C1165.9 1567.36 1165.4 1552.4 1195.19 1526.42Z" fill="#DE8563"/>
<path d="M1201.71 1503.02C1201.71 1503.02 1196.89 1502.27 1195.34 1500.22C1193.79 1498.16 1211.83 1496.09 1221.35 1496.11C1233.69 1496.23 1248.23 1498.35 1247.19 1500.22C1246.16 1502.08 1239.61 1503.02 1239.61 1503.02C1226.17 1500.49 1216.34 1500.12 1201.71 1503.02Z" fill="#C1623C"/>
<ellipse cx="1221.18" cy="1501.52" rx="23.4294" ry="2.80092" fill="#320200"/>
<path d="M1194.82 1523.74V1520.38L1246.33 1518.7L1245.81 1522.25L1220.66 1523L1194.82 1523.74Z" fill="#FFE091"/>
<path d="M1191.89 1529.16L1195.17 1526.17L1245.64 1524.49L1246.5 1528.04L1191.89 1529.16Z" fill="#FFE091"/>
<path d="M1219.63 1512.54C1231.07 1512.66 1236.66 1511.63 1247.36 1508.06L1247.02 1511.05C1247.02 1511.05 1228.59 1516.27 1217.91 1517.77C1207.22 1519.26 1194.82 1518.52 1194.82 1518.52L1194.3 1508.43C1203.5 1511.5 1208.9 1512.71 1219.63 1512.54Z" fill="#C1623C"/>
<path d="M1234.62 1541.67L1245.64 1524.68C1254.37 1530.1 1257.58 1535.01 1262.01 1541.86C1247.07 1547.92 1238.71 1549.2 1222.39 1550.26C1205.18 1549.03 1195.83 1546.8 1180.87 1540.92C1184.09 1535.64 1186.44 1532.73 1193.79 1527.67L1201.88 1540.18L1220.32 1528.6L1234.62 1541.67Z" fill="#FFE091"/>
<path d="M1194.99 1518.14H1213.43C1213.43 1518.14 1202.4 1547.46 1202.06 1560.72C1201.71 1573.97 1215.84 1613 1215.84 1613C1206.91 1611.14 1201.76 1609.39 1192.24 1604.41L1189.83 1594.89C1180.93 1585.7 1173.11 1573.6 1172.08 1562.21C1171.05 1550.82 1180.01 1539.31 1194.99 1526.17V1518.14Z" fill="#C1623C" fill-opacity="0.6"/>
<path d="M1439.46 9649.17C1444.11 9655.03 1327.07 9664.93 1321.77 9668.72C1305.24 9680.56 1368.85 9679.21 1266.11 9679.21C1107.03 9682.16 993.055 9689.1 969.089 9673.82C972.312 9666.17 970.52 9679.23 998.062 9644.52C1068.17 9597.7 1048.49 9574.13 1217.36 9560.12C1371.56 9582.03 1428.78 9635.72 1439.46 9649.17Z" fill="#FFE8BC"/>
<path d="M958.038 9677.74C956.723 9680.45 989.823 9685.03 991.32 9686.78C995.998 9692.26 978.007 9691.63 1007.06 9691.63C1052.05 9693 1084.29 9696.21 1091.06 9689.14C1090.15 9685.61 1090.66 9691.64 1082.87 9675.59C1063.04 9653.94 1068.61 9643.03 1020.85 9636.55C977.24 9646.69 961.059 9671.52 958.038 9677.74Z" fill="#FFE8BC"/>
<rect x="1156.84" y="9547.05" width="119.992" height="69.3231" fill="#594939"/>
<path d="M1155.01 9577.63L1140.35 9542.97L1256.68 9547.46L1283.24 9613.93H1272.25L1252.1 9551.94L1158.21 9547.86L1166 9577.63H1155.01Z" fill="#786753"/>
<path d="M1315.3 9558.87C1314.5 9584.02 1304.12 9594.94 1282.79 9613.52L1256.68 9547.46C1287.04 9538.92 1300.15 9540.65 1315.3 9558.87Z" fill="#917862"/>
<path d="M1171.64 9534C1151.34 9536.08 1145.61 9538.36 1140.35 9542.97L1256.68 9547.46L1278.21 9542.56L1171.64 9534Z" fill="#B49A89"/>
<path d="M1113.79 9655.93C1102.98 9639.52 1098.51 9628.93 1098.22 9603.32L1198.06 9606.99L1284.16 9612.7C1284.08 9636.56 1282.29 9648.67 1272.25 9665.31L1113.79 9655.93Z" fill="#B49A89"/>
<path d="M1284.16 9612.7C1284.69 9633.78 1282.59 9646.07 1272.71 9665.31L1198.98 9660.82C1196.29 9639.98 1197.21 9628.28 1202.64 9607.4L1284.16 9612.7Z" fill="#917862"/>
<path d="M1251.64 9596.43C1265.78 9599.67 1270.63 9603.85 1276.37 9613.56L1198.52 9608.26L1105.55 9604.59C1105.55 9604.59 1111.5 9600.51 1116.08 9598.47C1120.66 9596.43 1126.61 9596.43 1126.61 9596.43C1126.61 9596.43 1129.36 9590.72 1130.73 9588.68C1132.11 9586.64 1152.26 9580.12 1152.26 9580.12C1152.26 9580.12 1151.8 9578.08 1155.47 9576.45C1159.13 9574.82 1167.37 9578.49 1167.37 9578.49C1167.37 9578.49 1171.04 9566.66 1177.91 9567.48C1184.64 9568.28 1194.45 9578.08 1194.84 9578.48C1194.87 9578.19 1213.64 9576.46 1219.13 9578.49C1224.69 9580.55 1225.08 9588.68 1225.08 9588.68C1225.08 9588.68 1240.65 9585.83 1245.69 9587.05C1250.73 9588.28 1251.64 9596.43 1251.64 9596.43Z" fill="#F7CD82"/>
<path d="M1141.47 9623.58L1142.33 9605.77L1167.96 9606.75L1167.09 9624.56C1157.54 9629.95 1151.91 9629.41 1141.47 9623.58Z" fill="#CAC7C1"/>
<ellipse cx="1172.87" cy="9584.16" rx="8.70173" ry="2.03892" fill="#EEC140"/>
<ellipse cx="1147.22" cy="9592.31" rx="8.70173" ry="2.03892" fill="#EEC140"/>
<ellipse cx="1181.11" cy="9590.27" rx="6.86978" ry="1.63113" fill="#EEC140"/>
<ellipse cx="1222.33" cy="9602.51" rx="10.5337" ry="2.4467" fill="#EEC140"/>
<ellipse cx="1236.99" cy="9593.94" rx="8.70173" ry="2.03892" fill="#EEC140"/>
<path fill-rule="evenodd" clip-rule="evenodd" d="M1155.82 9618.41C1158.24 9617.98 1160.13 9616.1 1160.25 9613.78C1160.4 9611.07 1158.07 9608.79 1155.06 9608.68C1152.04 9608.58 1149.47 9610.69 1149.33 9613.41C1149.22 9615.34 1150.38 9617.06 1152.15 9617.93C1152.05 9618.55 1151.48 9622.74 1153.72 9622.81C1155.7 9622.88 1155.83 9619.62 1155.82 9618.41Z" fill="#644747"/>
<path d="M1151.63 9568.02L1143.98 9570.2L1139.7 9578.17L1154.6 9586.51L1159.5 9570.91L1151.63 9568.02Z" fill="#ACDDF1"/>
<path d="M1147 9577.81L1144.01 9570.09L1151.8 9568.03L1154.18 9575.66L1147 9577.81Z" fill="#ACDDF1"/>
<path d="M1154.85 9575.3L1154.59 9586.72L1146.27 9577.81L1154.85 9575.3Z" fill="#60BDE0"/>
<path d="M1159.53 9571.06L1154.63 9575.78L1154.7 9586.52L1159.53 9571.06Z" fill="#60BDE0"/>
<path d="M1139.8 9578.07L1147.1 9577.47L1154.46 9586.45L1139.8 9578.07Z" fill="#60BDE0"/>
<path d="M1238.47 9585.65L1230.78 9583.54L1222.49 9588.02L1230.04 9602.64L1243.36 9592.1L1238.47 9585.65Z" fill="#ACDDF1"/>
<path d="M1229 9591.44L1230.93 9583.41L1238.62 9585.78L1236.25 9593.42L1229 9591.44Z" fill="#ACDDF1"/>
<path d="M1236.7 9593.38L1229.91 9602.84L1228.03 9590.96L1236.7 9593.38Z" fill="#60BDE0"/>
<path d="M1243.36 9592.1L1236.25 9593.42L1230.04 9602.64L1243.36 9592.1Z" fill="#60BDE0"/>
<path d="M1222.49 9588.02L1228.86 9591.31L1229.89 9602.51L1222.49 9588.02Z" fill="#60BDE0"/>
<path d="M1439.5 9697.26C1439.5 9719.52 1401.78 9727.3 1266.16 9727.3C1088.48 9730.6 990.551 9730.51 971.235 9703.12C985.185 9689.74 1007.59 9685.28 1036.69 9672.86C1054.68 9665.19 1081.91 9660.51 1106.52 9653.43C1124.51 9648.26 1126.28 9630.75 1146.22 9626.04C1210.25 9630.5 1181.2 9631.74 1225.56 9620.63C1249.57 9624.04 1225.56 9635.92 1290.73 9628.27C1326.86 9657.89 1337.27 9634.7 1357.98 9642.63C1377.05 9649.94 1392.62 9657.45 1404.84 9664.58C1428.36 9678.3 1439.5 9690.59 1439.5 9697.26Z" fill="#FFE8BC"/>
<path d="M1352.18 9644.83C1385.72 9654.54 1424.8 9667.13 1455.2 9693.88C1464.37 9702.88 1462.48 9708.42 1446.97 9713.63C1379.37 9728.28 1325.29 9725.69 1311.41 9727.64C1284.94 9727.64 1251.08 9721.43 1242.01 9716.81C1233.08 9712.27 1265.44 9697.71 1258.82 9697.71C1211.81 9697.71 1327.5 9672.54 1239.87 9664.26C1202.67 9652.16 1199.29 9639.1 1246.3 9639.1C1276.68 9639.1 1278.86 9634.96 1285.29 9631.46C1278.86 9622.86 1340.16 9639.65 1352.18 9644.83Z" fill="#EFD59E"/>
<path d="M1426 7717.59C1426 7732.88 1328.61 7801 1276.8 7801C1225 7801 1220 7787.8 1220 7772.5C1220 7757.2 1213.5 7779.5 1276.8 7745.61C1417.86 7658.56 1426 7702.29 1426 7717.59Z" fill="#8D743E"/>
<path d="M1177.93 7553.17C1180.09 7565.92 1171.73 7599.28 1177.53 7609.68C1183.33 7620.07 1205.35 7625.31 1208.83 7626.34C1212.31 7627.37 1208.83 7641.38 1208.83 7641.38C1208.83 7641.38 1166.15 7631.63 1161.67 7622.28C1157.2 7612.93 1161.67 7593.01 1161.67 7586.91V7536.51C1161.26 7535.23 1175.78 7540.43 1177.93 7553.17Z" fill="#5A978C"/>
<path d="M1275.9 7540.57L1310.45 7525.53C1310.45 7525.53 1313.7 7521.06 1314.11 7518.22C1314.51 7515.37 1320.61 7536.1 1312.07 7540.57C1303.54 7545.04 1279.15 7555.21 1275.9 7556.02C1272.65 7556.83 1275.9 7540.57 1275.9 7540.57Z" fill="#5A978C"/>
<path d="M1274.68 7565.77C1277.52 7566.18 1275.08 7605.2 1275.9 7607.24C1276.71 7609.27 1275.9 7648.29 1275.9 7648.29L1297.44 7656.83L1275.9 7658.86V7672.27V7766.99L1290.94 7772.27L1275.9 7774.3L1275.49 7802.76C1275.49 7802.76 1261.67 7806.42 1260.45 7806.82C1259.23 7807.23 1244.6 7808.45 1244.6 7808.45C1244.6 7808.45 1271.83 7565.37 1274.68 7565.77Z" fill="#5A978C"/>
<path d="M1140.24 7521.6C1138.26 7520.51 1137.5 7537.03 1138.83 7540.88C1140.17 7544.73 1154.95 7558.35 1155.9 7556.27C1156.84 7554.19 1156.35 7539.07 1153.28 7534.35C1150.2 7529.64 1142.21 7522.69 1140.24 7521.6Z" fill="#EB71C9"/>
<path d="M1153.01 7519.78C1151.55 7518.06 1145 7533.24 1144.88 7537.32C1144.77 7541.39 1153.79 7559.35 1155.41 7557.75C1157.03 7556.14 1161.92 7541.82 1160.71 7536.32C1159.5 7530.82 1154.47 7521.49 1153.01 7519.78Z" fill="#EB71C9"/>
<path d="M1164.98 7520.55C1164.12 7518.46 1153.15 7530.83 1151.77 7534.67C1150.39 7538.5 1153.34 7558.39 1155.38 7557.37C1157.42 7556.34 1166.54 7544.27 1167.11 7538.67C1167.68 7533.07 1165.83 7522.64 1164.98 7520.55Z" fill="#EB71C9"/>
<path d="M1275.65 7802.58C1250.5 7810.7 1236.4 7809.98 1211.26 7802.58L1205.2 7448.68C1234.25 7405.76 1249.63 7407.12 1275.65 7448.68V7802.58Z" fill="#71A580"/>
<path d="M1311.98 7523.54C1306.47 7532.89 1271.25 7541.7 1271.25 7541.7C1271.25 7541.7 1266.29 7563.71 1271.25 7566.47C1276.2 7569.22 1345 7559.31 1345 7538.4V7465.75C1335.64 7434.51 1312 7452.9 1311.98 7465.75C1311.96 7478.59 1317.48 7514.18 1311.98 7523.54Z" fill="#71A580"/>
<path d="M1178.23 7611.74C1183.74 7621.09 1218.96 7629.9 1218.96 7629.9C1218.96 7629.9 1223.92 7651.91 1218.96 7654.67C1214.01 7657.42 1145.21 7647.51 1145.21 7626.6V7553.94C1154.57 7522.71 1178.21 7541.1 1178.23 7553.94C1178.25 7566.79 1172.73 7602.38 1178.23 7611.74Z" fill="#71A580"/>
<path d="M1287.24 7458.24L1273.89 7459.52L1274.48 7465.75L1287.24 7458.24Z" fill="#71A580"/>
<path d="M1192.17 7485.25L1208.42 7486.81L1207.69 7494.39L1192.17 7485.25Z" fill="#71A580"/>
<path d="M1297.7 7656.57L1274.97 7658.64L1274 7648.03L1297.7 7656.57Z" fill="#71A580"/>
<path d="M1195.47 7729.62L1211.72 7731.18L1210.99 7738.76L1195.47 7729.62Z" fill="#71A580"/>
<path d="M1291.17 7772.4L1274.98 7774.5L1274 7766.95L1291.17 7772.4Z" fill="#71A580"/>
<path d="M1324.18 7571.97L1313.63 7559.52L1319.44 7554.6L1324.18 7571.97Z" fill="#71A580"/>
<path d="M1303.35 7499.56L1319.59 7501.12L1318.87 7508.7L1303.35 7499.56Z" fill="#71A580"/>
<path d="M1132.73 7587.62L1148.98 7589.18L1148.25 7596.76L1132.73 7587.62Z" fill="#71A580"/>
<path d="M1191.35 7572.95L1207.53 7570.85L1208.51 7578.41L1191.35 7572.95Z" fill="#71A580"/>
<path d="M1187.72 7665.22L1185.94 7648.99L1193.51 7648.16L1187.72 7665.22Z" fill="#71A580"/>
<path d="M1281 7813.82C1264.6 7837.22 1219.22 7829.92 1144.61 7829.92C1070 7829.92 1017.59 7827.56 1037.11 7810.17C1055.07 7787.85 1066.52 7768.1 1140.7 7752C1217.23 7768.1 1261.22 7793.22 1281 7813.82Z" fill="#FFE8BC"/>
<path d="M1244.57 7776.68L1257.42 7786.56L1281 7814L1272 7824L1262 7828.5L1248 7830.5H1232L1218.5 7826L1202.4 7811C1202.4 7811 1199.34 7801.7 1199.5 7796.82C1199.66 7791.93 1211.27 7788.4 1207.91 7786.56C1204.54 7784.71 1189.96 7780.2 1181.07 7779.77C1172.18 7779.33 1148.55 7774.94 1144.15 7772.55C1139.74 7770.16 1143.11 7767.09 1141.58 7765.63C1140.06 7764.16 1134.86 7758.59 1137.98 7758.1C1141.1 7757.61 1157.36 7759.35 1154.24 7758.1C1151.12 7756.85 1134.42 7752.78 1137.98 7752.24C1141.54 7751.7 1151.12 7752.24 1151.12 7752.24L1175.15 7755.5L1211.67 7763.21L1244.57 7776.68Z" fill="#EFD59E"/>
<path d="M-18.0003 14396.5L577.5 14028L1160.52 13725.9L1304.74 13472.2L1342.47 13236.2L1110.54 12899.9L726.434 12723L226.246 12539.9L-61.3362 12035.5L163.513 11634.5L442.279 11159.2L1144.97 10557.1L1236.57 10125.1L917.196 9803L657.999 9382L516.499 9200.5L350.346 9137L162.999 9137L55.8807 9220L-26.5007 9437.5L14.9992 9595L162.999 9724.5L310.999 9756.5L408.499 9756.5L616.499 9682.5L841.999 9566L1082.32 9406.73L1395.64 9075.45L1278 8785.86L917.196 8505.53L486.411 8309.55L350.346 8000.79L806.66 7371.41L1251.76 7104.53L1555.22 6709.38L1565 6392.89L1308.17 6036.07L1087.69 5821.67L765.26 5677.46L315.396 5512.02L-196.507 4934.72L-71.6635 4517.87" stroke="#B39C6B" stroke-width="70" stroke-dasharray="100 100"/>
<path d="M1464 1242L1051.72 1353.15L686.918 1601L535 1960L664.93 2348.39L1255.61 2589" stroke="#B29C6B" stroke-opacity="0.74" stroke-width="70" stroke-dasharray="100 100"/>
<path d="M1326.5 2642L1544.5 2864.5L1868.5 3210.5L1455.5 3618L1148.5 3953L740.999 4120.5L-42.001 4328.5" stroke="#B39C6B" stroke-width="70" stroke-dasharray="100 100"/>
<ellipse cx="1565.25" cy="4269.46" rx="186.5" ry="71.5" transform="rotate(-10.361 1565.25 4269.46)" fill="#D8AA58"/>
<ellipse cx="1386.46" cy="4239.56" rx="22.5" ry="75.5" transform="rotate(-2.18495 1386.46 4239.56)" fill="#D8AA58"/>
<path d="M1273.56 4140.05C1269.71 4140.75 1265.44 4140.99 1263.26 4144.77C1261.18 4148.37 1262.06 4154.28 1263.56 4158.05C1266.16 4164.6 1285.99 4141.86 1288.38 4138.5C1288.64 4138.13 1290.61 4136.33 1289.97 4135.89C1288.93 4135.17 1286.84 4135.83 1285.74 4136.08C1280.9 4137.19 1277.97 4143.89 1275.28 4147.48C1273.81 4149.43 1273.04 4149.79 1272.82 4152.06C1272.7 4153.33 1269.9 4152.43 1269.46 4151.84C1268.29 4150.29 1271.52 4147.48 1272.42 4146.52C1273.93 4144.91 1274.54 4142.95 1272.24 4145.52C1269.17 4148.95 1265.8 4152.49 1262.29 4147.6C1260.64 4145.29 1260.79 4142 1259.12 4139.79C1258.46 4138.91 1256.75 4139.64 1255.8 4139.81C1252.55 4140.41 1250.5 4142.05 1247.86 4143.88C1244.75 4146.05 1242.72 4153.42 1242.37 4157.05C1241.91 4161.76 1241.69 4167.42 1243.93 4171.93C1245.73 4175.58 1249.04 4178.22 1253.39 4177.43C1257.36 4176.7 1259.23 4175.89 1262.27 4172.9C1267.56 4167.7 1269.48 4159.47 1273.68 4153.39" stroke="#D8AA58" stroke-width="10" stroke-linecap="round"/>
<path d="M1253.16 4146.42C1250.63 4154.92 1247.19 4163.82 1248.84 4172.79C1248.97 4173.54 1249.27 4173.7 1250.06 4173.65C1252.58 4173.52 1254.29 4172.14 1255.76 4170.15C1259.3 4165.39 1260.71 4158.41 1260.05 4152.54C1259.92 4151.38 1259.23 4150.17 1257.91 4151.25C1256.81 4152.14 1257.45 4154.81 1257.6 4155.93C1258.03 4159.12 1258.71 4162.28 1259.29 4165.44C1259.48 4166.48 1259.62 4166.74 1259.21 4165.66C1258.71 4164.36 1258.36 4163.59 1257.14 4162.81C1256.56 4162.44 1254.3 4161.85 1254.55 4163.26" stroke="#D8AA58" stroke-width="10" stroke-linecap="round"/>
<path d="M1318.79 4103.13C1316.77 4103.5 1315.81 4104.4 1314.47 4105.91C1313.49 4107 1311.67 4108.12 1310.99 4109.38C1310.25 4110.76 1308.6 4111.46 1307.66 4112.67C1306.22 4114.53 1303.94 4115.95 1302.08 4117.35C1298.51 4120.03 1294.55 4121.61 1290.76 4123.8C1287.19 4125.87 1283.25 4127.31 1279.6 4129.24C1276.65 4130.8 1272.8 4132.55 1269.52 4133.23C1266.48 4133.86 1262.28 4134.67 1259.62 4136.29C1257.25 4137.74 1254.37 4138.43 1252.08 4139.99C1250.76 4140.89 1248.86 4142.43 1248.25 4143.91C1248.15 4144.15 1247.71 4144.57 1247.41 4144.34C1246.83 4143.88 1249.79 4142.31 1249.89 4142.26C1255.82 4139 1262.26 4137.3 1268.44 4134.69C1277.37 4130.94 1285.91 4126.35 1295.46 4124.24C1295.84 4124.15 1303.68 4122.39 1303.77 4122.89C1304.07 4124.5 1299.99 4128.45 1299.28 4129.39C1295.49 4134.47 1291.65 4139.43 1287.43 4144.15C1285.48 4146.32 1283.43 4148.41 1281.38 4150.48C1281.21 4150.65 1279.02 4152.43 1279.8 4151.1C1281.17 4148.79 1283.75 4146.96 1285.59 4145.06C1289.42 4141.12 1292.82 4136.86 1296.06 4132.42C1297.25 4130.8 1298.53 4129.08 1299.23 4127.16C1299.51 4126.4 1297.58 4127.03 1297.27 4127.08C1293.41 4127.79 1290.51 4129.1 1289.95 4133.07" stroke="#D8AA58" stroke-width="10" stroke-linecap="round"/>
<path d="M1256.19 4181.06C1256.98 4181 1259.42 4182.51 1260.29 4182.97C1261.59 4183.64 1263.68 4183.26 1265.05 4183.01C1272.64 4181.62 1278.36 4176.29 1285.16 4172.9C1289.01 4170.97 1292.85 4169.14 1296.78 4167.4C1300.95 4165.55 1306.02 4165.15 1310.48 4164.34C1318.31 4162.91 1325.71 4162.64 1333.66 4163.32C1337.81 4163.67 1341.88 4164.2 1346.05 4164.27" stroke="#D8AA58" stroke-width="10" stroke-linecap="round"/>
<path d="M1262.95 4176.96C1266.23 4176.36 1270.1 4176.21 1273.18 4174.93C1276.69 4173.47 1278.97 4170.55 1282.13 4168.63C1286.59 4165.92 1290.43 4162.42 1295.11 4160C1298.73 4158.13 1302.58 4157.21 1306.56 4156.48C1308.34 4156.15 1310.13 4155.82 1311.92 4155.5C1317.61 4154.46 1300.48 4157.23 1294.79 4158.27C1286.3 4159.82 1276.45 4160.27 1268.74 4164.44C1268.36 4164.65 1263.16 4167.73 1264.65 4167.79C1270.02 4168.04 1275.48 4166.71 1279.79 4163.52C1281.24 4162.44 1282.68 4161.39 1283.95 4160.11C1284.22 4159.84 1285 4159.47 1284.26 4160.06C1283.38 4160.75 1274.88 4166.38 1274.51 4165.47C1274.07 4164.42 1280.67 4159.24 1281.44 4158.55C1285.5 4154.94 1289.44 4151.19 1293.57 4147.67C1295.41 4146.11 1297.49 4144.01 1299.56 4142.77C1300.71 4142.08 1301.71 4140.08 1301.13 4141.9C1300.71 4143.25 1298.21 4155.91 1294.93 4152.53" stroke="#D8AA58" stroke-width="10" stroke-linecap="round"/>
<path d="M1319.35 4164.86C1319.65 4166.5 1320.75 4167.25 1321.95 4168.34C1324.22 4170.39 1326.65 4172.32 1329.17 4174.07C1335.26 4178.27 1343.45 4180.51 1350.85 4179.45C1358.49 4178.37 1367.08 4177.26 1374.01 4173.63C1376.56 4172.3 1379.3 4170.81 1381.49 4168.95C1382.33 4168.24 1383.82 4167.57 1383.6 4166.34" stroke="#D8AA58" stroke-width="10" stroke-linecap="round"/>
<path d="M1359.92 4171.74C1365.74 4203.56 1370.86 4235.5 1376.68 4267.32" stroke="#D8AA58" stroke-width="10" stroke-linecap="round"/>
<path d="M1367.09 4167.93C1368.67 4176.57 1373.06 4202.58 1371.48 4193.93" stroke="#D8AA58" stroke-width="10" stroke-linecap="round"/>
<path d="M1358.86 4177.65C1359.68 4182.14 1360.5 4186.62 1361.32 4191.1C1362.6 4198.13 1363.05 4205.29 1364.15 4212.37C1366.85 4229.6 1369.37 4246.85 1372.5 4264.01C1372.64 4264.76 1373.56 4270.6 1373.32 4270.44" stroke="#D8AA58" stroke-width="10" stroke-linecap="round"/>
<path d="M1398.87 4122.8C1400.31 4130.7 1401.22 4138.55 1402.21 4146.5C1403.22 4154.64 1404 4162.8 1404.7 4170.98C1407.67 4205.86 1410.24 4240.76 1413.74 4275.6C1414.72 4285.37 1415.84 4295.12 1416.81 4304.9C1417.05 4307.35 1417.17 4308.08 1417.01 4309.98" stroke="#D8AA58" stroke-width="10" stroke-linecap="round"/>
<path d="M1389.94 4154.1C1391.01 4160.01 1392.09 4165.91 1393.17 4171.82C1393.65 4174.43 1394.13 4177.05 1394.61 4179.67C1394.68 4180.05 1394.72 4180.35 1394.83 4179.69C1396.39 4170.3 1397.55 4160.64 1397.79 4151.12C1397.8 4150.82 1397.64 4148.68 1397.91 4148.43C1399.07 4147.38 1398.37 4151.54 1398.41 4153.11C1398.58 4158.88 1398.65 4164.65 1398.84 4170.42C1399.15 4179.87 1399.28 4189.33 1399.26 4198.78C1399.25 4199.45 1399.26 4200.01 1399.16 4200.66" stroke="#D8AA58" stroke-width="10" stroke-linecap="round"/>
<path d="M1402.62 4200.03C1403.23 4203.34 1404.18 4206.17 1405.76 4209.17C1410.87 4218.85 1417.19 4227.91 1423.56 4236.79C1429.12 4244.55 1434.23 4252.6 1440 4260.23C1441.77 4262.57 1444.49 4264.88 1445.71 4267.57" stroke="#D8AA58" stroke-width="10" stroke-linecap="round"/>
<path d="M1404.11 4206.19C1404.45 4207.41 1405.09 4208.44 1405.85 4209.45C1409.15 4213.81 1412.81 4217.92 1416.21 4222.21C1424.58 4232.78 1432.68 4243.56 1441.58 4253.71C1445.71 4258.41 1450.44 4262.86 1454.11 4267.94C1455.07 4269.27 1455.66 4270.84 1456.87 4271.96" stroke="#D8AA58" stroke-width="10" stroke-linecap="round"/>
<path d="M1410.29 4228.29C1411.53 4235.06 1412.77 4241.83 1414 4248.6C1414.42 4250.87 1415.25 4255.4 1414.31 4250.27C1413.4 4245.31 1411.64 4240.99 1409.98 4236.27C1409.93 4236.13 1409.15 4234.39 1409.32 4234.27C1410.05 4233.72 1413.21 4237.2 1413.58 4237.58C1417.18 4241.29 1420.5 4245.42 1423.29 4249.78C1424.55 4251.74 1421.93 4247.43 1421.57 4246.96C1420.99 4246.21 1416.61 4240.38 1415.32 4241.02C1414.96 4241.19 1415.43 4242.72 1415.49 4243.07" stroke="#D8AA58" stroke-width="10" stroke-linecap="round"/>
<path d="M1430.3 4236.07C1435.34 4235.15 1440.55 4234.59 1445.33 4232.69C1450.5 4230.63 1455.58 4227.91 1460.38 4225.13C1465.58 4222.13 1468.99 4218.35 1472.45 4213.35C1477.97 4205.36 1482.65 4196.7 1487.97 4188.56C1491.81 4182.68 1495.44 4176.67 1498.85 4170.52C1499.6 4169.17 1503.88 4163.63 1502.68 4162.79" stroke="#D8AA58" stroke-width="10" stroke-linecap="round"/>
<path d="M1414.04 4326.96C1415.54 4326.85 1417.86 4329.04 1418.99 4329.92C1421.17 4331.64 1423.41 4333.22 1425.67 4334.82C1430.33 4338.11 1434.13 4342.73 1438.51 4346.41C1444.04 4351.05 1452.57 4353.06 1457.46 4358.29C1461.18 4359.14 1460.28 4364.67 1460.96 4366.29C1461.6 4367.8 1467.85 4363.92 1469.29 4363.45C1476.64 4361.12 1484.07 4359.27 1491.65 4357.88C1496.99 4356.9 1502.21 4355.96 1507.66 4355.77C1511.11 4355.65 1515.71 4354.82 1519.08 4355.8" stroke="#D8AA58" stroke-width="10" stroke-linecap="round"/>
<path d="M1441.81 4342.42C1442.22 4343.82 1443.54 4344.98 1444.34 4346.2C1445.67 4348.24 1447.19 4350.05 1448.69 4351.96C1451.17 4355.11 1454.35 4357.67 1457.74 4359.76C1457.98 4359.91 1456.92 4358.35 1456.75 4358.15C1454.73 4355.66 1453.22 4352.82 1451.46 4350.15C1450.65 4348.93 1449.89 4347.56 1448.96 4346.43C1448.21 4345.51 1451 4347.46 1451.05 4347.49C1454.85 4349.86 1458.74 4352.06 1462.47 4354.54C1462.82 4354.77 1467.25 4357.82 1465.58 4356.05C1464.31 4354.7 1460.36 4349.54 1458.24 4350.05C1457.79 4350.16 1459.08 4361.55 1460.81 4362.05" stroke="#D8AA58" stroke-width="10" stroke-linecap="round"/>
<ellipse cx="1344.58" cy="4080.06" rx="15.5" ry="18.5" transform="rotate(-10.361 1344.58 4080.06)" fill="#AE8336"/>
<ellipse cx="1376.13" cy="4082.4" rx="17.7913" ry="19.5" transform="rotate(19.1977 1376.13 4082.4)" fill="#D8AA58"/>
<ellipse cx="1350.35" cy="4130.87" rx="44.1342" ry="53.2586" transform="rotate(-96.608 1350.35 4130.87)" fill="#D8AA58"/>
<path fill-rule="evenodd" clip-rule="evenodd" d="M1343.27 4121.31L1340.44 4124.4C1339.96 4124.1 1339.51 4123.82 1339.07 4123.56C1339.75 4124.53 1340.09 4125.68 1339.95 4126.87C1339.62 4129.72 1336.71 4131.72 1333.45 4131.34C1330.6 4131.01 1328.42 4128.97 1328.14 4126.55C1327.98 4126.99 1327.82 4127.47 1327.66 4127.97L1325.01 4127.67C1328.51 4117.23 1332.68 4116.21 1343.27 4121.31Z" fill="#093B86"/>
<path d="M1354.69 4183.42L1379.23 4175.89L1359.28 4214.1L1354.69 4183.42Z" fill="#AE8336"/>
<path d="M1251.34 4182.5L1275.3 4174.56L1271.01 4178.9L1266.05 4182.35L1255.59 4186.29L1254.52 4185.98L1252.77 4184.78L1252.1 4183.88L1251.34 4182.5Z" fill="#AE8336"/>
<rect x="427.393" y="8041.53" width="49.0459" height="168.985" rx="2" fill="#5A5244"/>
<path fill-rule="evenodd" clip-rule="evenodd" d="M457.978 8027.7L459.401 8285.96C459.425 8290.33 454.229 8292.63 451.015 8289.67L112.453 7978.06L-326.942 8058.43L-403.837 8237.06C-405.985 8242.05 -413.43 8240.52 -413.43 8235.09V8046.32C-413.43 8041.41 -412.226 8036.58 -409.923 8032.24L-331.559 7884.73C-328.648 7879.25 -323.495 7875.43 -317.36 7874.5C-157.715 7850.23 200.947 7858.94 371.535 7869.59C374.431 7869.77 377.216 7870.1 379.992 7870.94C409.027 7879.76 430.714 7913.79 434.153 7927.56L456.098 8013.12C457.32 8017.89 457.951 8022.78 457.978 8027.7Z" fill="#8FBD9C"/>
<path fill-rule="evenodd" clip-rule="evenodd" d="M428.168 8259.35H322.428C323.227 8254.53 323.641 8249.59 323.641 8244.56C323.641 8191.07 276.729 8147.7 218.861 8147.7C160.993 8147.7 114.081 8191.07 114.081 8244.56C114.081 8249.59 114.496 8254.53 115.295 8259.35H-176.484C-175.596 8254.27 -175.134 8249.07 -175.134 8243.76C-175.134 8190.27 -222.046 8146.9 -279.914 8146.9C-337.783 8146.9 -384.694 8190.27 -384.694 8243.76C-384.694 8249.07 -384.233 8254.27 -383.345 8259.35H-438.199V8046.32C-438.199 8041.41 -436.995 8036.58 -434.692 8032.24L-356.328 7884.73C-353.417 7879.25 -348.265 7875.43 -342.129 7874.5C-182.484 7850.23 176.178 7858.94 346.766 7869.59C349.662 7869.77 352.447 7870.1 355.223 7870.94C384.258 7879.76 405.945 7913.79 409.384 7927.56L431.287 8012.96C432.536 8017.83 433.168 8022.84 433.168 8027.87V8254.35C433.168 8257.11 430.93 8259.35 428.168 8259.35Z" fill="#6CA37C"/>
<path d="M-76.4424 7905.22C-76.4424 7902.46 -74.2038 7900.22 -71.4424 7900.22H163.787C166.548 7900.22 168.787 7902.46 168.787 7905.22V8022.87C168.787 8023.42 168.339 8023.87 167.787 8023.87H-75.4424C-75.9947 8023.87 -76.4424 8023.42 -76.4424 8022.87V7905.22Z" fill="url(#paint0_linear_150_295)"/>
<path d="M208.915 7905.22C208.915 7902.46 211.154 7900.22 213.915 7900.22H337.594C345.326 7900.22 351.594 7906.49 351.594 7914.22V8022.87C351.594 8023.42 351.146 8023.87 350.594 8023.87H209.915C209.363 8023.87 208.915 8023.42 208.915 8022.87V7905.22Z" fill="url(#paint1_linear_150_295)"/>
<path d="M114.613 8233.59L113.488 8265.11C113.392 8267.8 111.19 8269.93 108.502 8269.93L-172.924 8270.5C-175.69 8270.51 -177.935 8268.27 -177.935 8265.5L-177.935 8233.42L114.613 8233.59Z" fill="#597B63"/>
<rect x="356.053" y="7903.69" width="40.1284" height="8.24316" rx="1" fill="#5A5244"/>
<rect x="364.97" y="7920.18" width="40.1284" height="8.24316" rx="1" fill="#5A5244"/>
<rect x="373.888" y="7936.66" width="40.1284" height="8.24316" rx="1" fill="#5A5244"/>
<rect x="378.346" y="7953.15" width="40.1284" height="8.24316" rx="1" fill="#5A5244"/>
<rect x="88.5293" y="8060.97" width="80.2569" height="16.4863" rx="1" fill="#5A5244"/>
<rect width="57.5246" height="9.12648" rx="1" transform="matrix(0.72967 -0.6838 0.738939 0.673773 30.5664 7993.14)" fill="white"/>
<rect width="81.7401" height="9.12648" rx="1" transform="matrix(0.72967 -0.6838 0.738939 0.673773 70.6953 7993.21)" fill="white"/>
<rect x="120.056" y="8242.32" width="37.0942" height="307.64" rx="5" transform="rotate(90 120.056 8242.32)" fill="#5A5244"/>
<rect x="466.534" y="8245.03" width="37.0942" height="130.287" rx="5" transform="rotate(90 466.534 8245.03)" fill="#5A5244"/>
<ellipse cx="219.238" cy="8245.49" rx="84.7156" ry="78.31" fill="#817E7A"/>
<ellipse rx="35.729" ry="33.0274" transform="matrix(1 0 0 -1 219.238 8243.55)" fill="#D0CCC0"/>
</g>
<defs>
<linearGradient id="paint0_linear_150_295" x1="46.1723" y1="7900.22" x2="46.1723" y2="8023.87" gradientUnits="userSpaceOnUse">
<stop stop-color="#E9FDF8"/>
<stop offset="1" stop-color="#D9F8F0" stop-opacity="0.54"/>
</linearGradient>
<linearGradient id="paint1_linear_150_295" x1="280.254" y1="7900.22" x2="280.254" y2="8023.87" gradientUnits="userSpaceOnUse">
<stop stop-color="#D9F8F0"/>
<stop offset="1" stop-color="#D9F8F0" stop-opacity="0.51"/>
</linearGradient>
<clipPath id="clip0_150_295">
<rect width="1440" height="14395" fill="white"/>
</clipPath>
</defs>
</svg>
