<svg width="236" height="385" viewBox="0 0 236 385" fill="none" xmlns="http://www.w3.org/2000/svg">
<rect width="13.1846" height="355.948" transform="matrix(0.99578 -0.091774 0.093119 0.995655 11.5684 29.9166)" fill="#E5C37D"/>
<path d="M34.6069 104.934C27.0999 61.3184 11.5684 39.254 11.5684 39.254C39.8155 25.1511 57.0316 18.0181 91.5561 7.44031C91.5561 7.44031 109.159 5.13125 114.595 11.8019C120.031 18.4725 119.254 21.5512 125.726 24.1169C132.197 26.6825 141.257 24.1169 141.257 24.1169L210.89 0L236 127.768C236 127.768 160.93 159.838 146.693 160.095C132.456 160.351 138.151 146.754 130.126 144.188C122.102 141.622 114.077 144.188 105.534 144.188C96.9921 144.188 34.6069 173.18 34.6069 173.18C34.6069 173.18 42.1138 148.55 34.6069 104.934Z" fill="black"/>
<path fill-rule="evenodd" clip-rule="evenodd" d="M170.207 61.9738C168.038 61.5487 166.259 60.3037 165.18 58.6646L154.33 66.9519C155.499 69.8354 156.138 72.9491 156.138 76.1969C156.138 82.8664 153.446 88.9702 148.987 93.6769L159.806 102.756C160.718 99.3405 164.31 97.1115 168.17 97.6978C172.283 98.3227 175.143 101.908 174.557 105.706C173.971 109.505 170.162 112.077 166.049 111.452C165.217 111.326 164.436 111.078 163.725 110.732C164.093 111.617 164.305 112.593 164.324 113.62C164.4 117.75 161.325 121.155 157.455 121.226C153.585 121.296 150.386 118.005 150.309 113.875C150.269 111.681 151.118 109.691 152.504 108.297L141.721 99.2488C141.377 99.437 141.029 99.619 140.676 99.7948C140.702 99.8398 140.728 99.885 140.753 99.9304C143.227 104.297 143.167 108.989 140.62 110.41C138.074 111.832 134.004 109.445 131.531 105.079C131.117 104.348 130.774 103.609 130.502 102.877C130.238 102.912 129.973 102.943 129.707 102.971C129.768 103.677 129.779 104.413 129.735 105.166C129.442 110.167 126.841 114.085 123.924 113.917C121.007 113.749 118.879 109.559 119.171 104.558C119.214 103.837 119.304 103.138 119.436 102.471C119.204 102.423 118.973 102.373 118.743 102.32C118.541 103.523 118.151 104.793 117.565 106.054C115.45 110.601 111.585 113.303 108.932 112.087C106.279 110.871 105.843 106.199 107.958 101.651C108.463 100.565 109.068 99.5842 109.733 98.7369C109.418 98.5508 109.108 98.3594 108.802 98.163L97.9683 107.254C99.3539 108.647 100.203 110.637 100.163 112.831C100.087 116.961 96.8876 120.252 93.0175 120.182C89.1475 120.112 86.072 116.707 86.1482 112.577C86.1671 111.549 86.3794 110.573 86.7473 109.689C86.0359 110.035 85.2551 110.282 84.423 110.409C80.3099 111.033 76.5009 108.461 75.9153 104.663C75.3298 100.865 78.1894 97.279 82.3025 96.6541C86.1621 96.0678 89.7539 98.2967 90.6659 101.712L102.037 92.1697C98.3775 87.6992 96.2148 82.1753 96.2148 76.1969C96.2148 72.8381 96.8975 69.6228 98.1447 66.6571L86.5146 56.5296C85.5398 59.9277 81.9075 62.091 78.0594 61.4346C73.9585 60.735 71.1654 57.0981 71.821 53.3112C72.4765 49.5243 76.3323 47.0214 80.4332 47.721C81.2625 47.8624 82.0383 48.124 82.7429 48.4827C82.3916 47.5915 82.1975 46.6124 82.1975 45.5849C82.1975 41.4543 85.3353 38.1058 89.206 38.1058C93.0767 38.1058 96.2145 41.4543 96.2145 45.5849C96.2145 47.7795 95.3288 49.7533 93.9179 51.1215L103.041 59.0655C108.536 53.0639 116.859 49.2374 126.176 49.2374C135.637 49.2374 144.074 53.1834 149.565 59.3461L161.27 50.4066C158.101 48.799 156.666 44.8425 158.06 41.222C159.546 37.3636 163.681 35.348 167.297 36.72C170.913 38.0919 172.639 42.3318 171.154 46.1901C170.853 46.9707 170.444 47.6758 169.953 48.2927C170.902 48.1232 171.907 48.1237 172.923 48.3228C177.005 49.1229 179.706 52.8273 178.956 56.597C178.207 60.3666 174.29 62.7739 170.207 61.9738Z" fill="white"/>
<path d="M109.085 75.1486C109.085 75.1486 111.631 80.2772 116.406 80.1169C121.181 79.9567 120.385 70.5007 120.385 70.5007C120.385 70.5007 120.067 63.4488 112.746 65.0515C105.424 66.6542 109.085 75.1486 109.085 75.1486Z" fill="black"/>
<path d="M141.246 75.8441C141.246 75.8441 138.7 80.9728 133.925 80.8125C129.15 80.6522 129.946 71.1963 129.946 71.1963C129.946 71.1963 130.264 64.1444 137.585 65.7471C144.907 67.3498 141.246 75.8441 141.246 75.8441Z" fill="black"/>
<path d="M125.142 82.5557C123.503 82.5557 119.733 87.5175 119.733 90.0785C119.733 92.6394 122.52 91.9992 124.815 92.1592C127.109 92.3193 129.896 92.7995 129.896 90.0785C129.896 87.3575 126.781 82.5557 125.142 82.5557Z" fill="black"/>
<ellipse cx="9.71389" cy="5.28474" rx="9.71389" ry="5.28474" transform="matrix(0.973451 0.228894 -0.232096 0.972693 2.45312 33.0741)" fill="black"/>
<ellipse cx="9.65856" cy="5.31507" rx="9.65856" ry="5.31507" transform="matrix(0.411967 -0.911199 0.913443 0.406966 9.25488 43.326)" fill="black"/>
<ellipse cx="9.65217" cy="5.31855" rx="9.65217" ry="5.31855" transform="matrix(0.281151 -0.959664 0.960763 0.277373 18.6816 183.811)" fill="black"/>
<ellipse cx="9.70299" cy="5.29074" rx="9.70299" ry="5.29074" transform="matrix(-0.891868 -0.452295 0.457589 -0.889164 29.3389 177.585)" fill="black"/>
<path d="M23.8311 164.911L37.0193 158.021L37.482 155.264L42.5722 169.275L34.2428 173.409L28.9213 175.247L25.4507 173.18L23.8311 164.911Z" fill="black"/>
</svg>
