<svg width="159" height="315" viewBox="0 0 159 315" fill="none" xmlns="http://www.w3.org/2000/svg">
<path d="M62.7707 137.422C65.2694 117.004 57.6671 109.525 44.4166 96.0491L25.1917 115.277L23.6855 137.766C23.5632 141.626 22.8968 143.871 20.3174 148.065C17.6366 152.748 16.2824 155.816 14.195 162.111C12.3122 172.951 12.4159 176.156 13.5695 179.476C15.4917 183.907 17.5329 186.464 22.2931 191.108C29.5768 194.594 30.4578 195.879 37.7723 194.761C45.0867 193.644 47.1114 189.79 47.8718 185.293C47.6097 179.126 46.2386 177.239 41.4501 176.881C43.2419 178.428 43.4912 179.473 40.9665 182.043C39.9136 183.397 38.9568 184.047 36.1586 184.196C28.422 181.525 29.4016 172.949 30.7416 171.472C32.0816 169.995 60.0033 150.404 62.7707 137.422Z" fill="#FF9CE2"/>
<path d="M21.0695 84.4493L25.0422 116.865L41.3204 99.1638L41.1651 96.5458L49.9748 96.57L57.6219 59.8356L55.6055 57.8443L38.1349 56.2075L24.5549 64.3481L21.0695 84.4493Z" fill="#FF9CE2"/>
<path d="M73.7975 79.5757C64.3797 77.4917 66.5141 64.5471 57.3867 60.214L31.009 87.3831C31.9187 89.7029 32.6597 91.0113 35.253 93.3883C37.9006 94.6807 39.6602 95.3905 46.5817 96.4523C51.9844 97.0025 55.1683 96.4079 61.4151 92.0341C65.1617 89.7017 67.144 88.8141 69.778 90.4143C76.2733 93.478 79.1597 94.4183 82.2607 93.987C86.32 91.9387 86.9506 88.8188 87.3784 84.2526C87.8062 79.6864 83.6801 79.4702 73.7975 79.5757Z" fill="#FF9CE2"/>
<path d="M46.3237 45.7595C49.6904 51.6424 52.1907 53.6945 58.633 53.3214C57.6424 56.1706 57.4555 57.7386 57.9634 60.4684C51.933 58.748 48.8975 57.9899 45.2078 57.6713C41.7894 57.4575 39.8613 57.8222 36.392 59.8494C30.9743 64.4407 29.1328 66.3151 26.7082 69.1561C24.1291 72.986 22.5135 75.7726 22.9495 83.624C23.1731 87.6504 22.9719 90.374 24.7496 98.6128C26.037 105.816 26.2666 109.583 25.1726 115.475L20.7738 113.261C20.323 106.59 18.6762 104.854 15.8595 101.585C19.1367 93.3772 17.7541 89.7396 13.11 83.9039C20.1987 77.9009 19.0645 73.4474 14.8769 65.0436C22.1431 63.3053 25.0103 60.2573 26.4401 48.503C36.2946 51.8802 40.5219 51.0106 46.3237 45.7595Z" fill="#DB019B"/>
<path d="M7.03888 118.783C12.49 116.726 14.4876 114.844 15.8728 109.998L39.1946 123.999C39.1946 123.999 40.8018 130.358 38.3762 132.734C35.9506 135.11 14.938 141.353 14.938 141.353C14.104 137.265 12.2676 135.483 7.10804 133.009C10.178 125.609 9.0515 123.156 7.03888 118.783Z" fill="#FF67D3"/>
<path d="M48.0107 134.638C49.2941 120.939 44.9129 108.66 39.0991 92.9475C49.4138 98.0509 52.2184 100.698 55.3668 105.286C60.7738 113.96 63.004 120.544 63.7871 128.706C64.1443 136.995 62.7983 141.511 58.8377 149.471C48.8244 164.161 42.3647 167.129 30.7226 171.671C38.9319 154.468 46.7274 148.336 48.0107 134.638Z" fill="#FFD9F4"/>
<path d="M7.63379 118.839C20.3814 124.629 27.2523 125.954 39.0727 125.291" stroke="#DB019B" stroke-width="3" stroke-linecap="round"/>
<path d="M7.48615 133.245C10.6883 132.002 21.462 129.81 38.9403 130.984" stroke="#DB019B" stroke-width="3" stroke-linecap="round"/>
<path d="M42.487 101.676C49.5003 101.965 50.8914 101.754 51.7495 101.142M45.3663 111.559C53.6381 112.173 57.0733 112.22 58.8165 111.217M48.1651 124.438C57.5048 125.697 61.319 125.888 63.185 124.444M47.4402 138.59C47.4402 138.59 56.3242 137.82 62.7269 140.022M44.1465 148.095C50.5707 149.543 53.1863 150.687 55.8662 153.398M39.159 156.439C44.4021 159.545 45.4871 161.143 45.6737 163.859" stroke="#FF9CE2" stroke-width="3" stroke-linecap="round"/>
<ellipse cx="80.7041" cy="87.7597" rx="2.79158" ry="3.78857" transform="rotate(12.6961 80.7041 87.7597)" fill="#B90384"/>
<circle cx="46.5368" cy="73.4168" r="2.99098" transform="rotate(5.35213 46.5368 73.4168)" fill="#1B365D"/>
<path d="M33.4287 87.2092C34.8653 89.3111 35.9729 90.5439 39.0995 92.9476L45.949 96.7936C47.7953 97.2215 49.1798 97.1563 52.1778 96.5761C54.503 96.1812 55.9503 95.5003 58.6298 93.9762C60.8011 92.1769 62.0109 92.0899 62.718 90.9546C60.4927 92.999 58.1882 92.8129 55.2362 93.8585C52.8805 94.5466 51.3968 95.326 48.5173 95.0315C46.6477 94.5853 45.9551 94.5912 41.3578 92.358C36.1279 90.1469 35.4392 88.5663 33.4287 87.2092Z" fill="#E400A2"/>
<path d="M131.614 198.754C131.15 181.88 124.068 176.738 111.67 167.418L98.4149 185.368L99.9369 203.803C100.309 206.95 100.042 208.854 98.4603 212.571C96.8562 216.699 96.1316 219.354 95.2058 224.717C95.0005 233.744 95.4757 236.332 96.8171 238.886C98.9177 242.247 100.886 244.073 105.316 247.261C111.652 249.201 112.524 250.136 118.324 248.337C124.123 246.538 125.296 243.163 125.364 239.421C124.399 234.448 123.056 233.084 119.126 233.378C120.769 234.414 121.099 235.232 119.364 237.626C118.674 238.853 117.977 239.498 115.725 239.96C109.12 238.736 108.869 231.657 109.776 230.295C110.683 228.933 130.952 209.627 131.614 198.754Z" fill="#FCB026"/>
<path d="M91.3089 160.854L98.4883 186.675L109.538 170.324L109.093 168.218L116.245 167.163L117.969 136.419L116.089 135.049L101.712 135.852L91.6845 144.116L91.3089 160.854Z" fill="#FCB026"/>
<path d="M133.504 150.464C125.607 149.922 125.759 139.157 117.823 136.754L99.7324 162.022C100.754 163.793 101.515 164.764 103.909 166.377C106.215 167.103 107.73 167.464 113.477 167.481C117.928 167.268 120.439 166.397 124.975 162.086C127.731 159.736 129.231 158.773 131.564 159.751C137.209 161.444 139.666 161.855 142.13 161.127C145.175 158.969 145.306 156.36 145.096 152.603C144.886 148.845 141.511 149.173 133.504 150.464Z" fill="#FCB026"/>
<path d="M107.083 126.374C110.533 130.737 112.812 132.098 117.995 131.009C117.539 133.442 117.578 134.737 118.324 136.89C113.22 136.23 110.664 135.985 107.631 136.177C104.83 136.421 103.31 136.952 100.742 139.02C96.9059 143.407 95.6402 145.153 94.0192 147.755C92.3936 151.177 91.4225 153.636 92.7344 159.954C93.4071 163.195 93.5762 165.429 96.0242 171.899C97.948 177.587 98.594 180.616 98.4251 185.531L94.5851 184.271C93.4053 178.912 91.8571 177.705 89.1723 175.395C90.8303 168.335 89.2644 165.551 84.7835 161.382C89.8037 155.646 88.3397 152.17 83.916 145.861C89.6006 143.564 91.5554 140.74 91.2814 131.027C99.6907 132.565 103.015 131.343 107.083 126.374Z" fill="#DD434B"/>
<path d="M84.1121 190.429C88.2848 188.094 89.6763 186.323 90.2091 182.221L110.844 190.737C110.844 190.737 112.924 195.702 111.246 197.926C109.567 200.151 93.2766 207.781 93.2766 207.781C92.1009 204.565 90.3932 203.344 85.9042 201.965C87.4925 195.585 86.279 193.732 84.1121 190.429Z" fill="#FF7D1E"/>
<path d="M119.296 198.296C118.666 187.022 113.612 177.592 106.977 165.55C115.97 168.433 118.569 170.239 121.684 173.578C127.131 179.958 129.744 185.028 131.375 191.557C132.677 198.24 132.136 202.069 129.893 209.012C123.559 222.155 118.679 225.352 109.785 230.458C114.348 215.496 119.926 209.569 119.296 198.296Z" fill="#FEE665"/>
<path d="M84.6025 190.401C95.6542 193.545 101.392 193.781 110.903 191.801" stroke="#CB492C" stroke-width="3" stroke-linecap="round"/>
<path d="M86.2404 202.11C88.6873 200.71 97.163 197.617 111.49 196.437" stroke="#CB492C" stroke-width="3" stroke-linecap="round"/>
<path d="M110.791 172.221C116.518 171.599 117.621 171.258 118.243 170.657M114.334 179.889C121.122 179.378 123.915 178.997 125.208 177.971M118.177 190C125.91 189.881 129.029 189.571 130.367 188.171M119.315 201.572C119.315 201.572 126.431 199.864 131.896 200.869M117.802 209.688C123.193 210.079 125.455 210.689 127.96 212.562M114.773 217.068C119.407 218.949 120.483 220.113 120.965 222.294" stroke="#FFB73A" stroke-width="3" stroke-linecap="round"/>
<ellipse cx="140.107" cy="156.263" rx="2.29091" ry="3.10909" transform="rotate(4.14494 140.107 156.263)" fill="#DF5933"/>
<circle cx="110.63" cy="148.793" r="2.45455" transform="rotate(-3.19904 110.63 148.793)" fill="#1B365D"/>
<path d="M101.676 161.585C103.098 163.116 104.147 163.981 106.978 165.55L113.006 167.836C114.556 167.958 115.672 167.736 118.034 166.899C119.873 166.295 120.964 165.566 122.953 164.002C124.495 162.277 125.467 162.059 125.902 161.051C124.345 162.981 122.453 163.112 120.185 164.32C118.357 165.166 117.248 165.98 114.875 166.092C113.303 165.958 112.742 166.048 108.739 164.796C104.225 163.64 103.473 162.441 101.676 161.585Z" fill="#F28422"/>
<path d="M58.7195 276.162C57.9299 263.983 52.6746 260.458 43.4663 254.059L34.3727 267.385L35.9689 280.663C36.3223 282.927 36.1808 284.309 35.1383 287.038C34.0905 290.063 33.6384 292.001 33.114 295.901C33.2088 302.428 33.6219 304.285 34.6598 306.094C36.268 308.466 37.7394 309.732 41.0258 311.917C45.6561 313.148 46.311 313.8 50.4528 312.344C54.5945 310.887 55.3509 308.418 55.2996 305.712C54.4682 302.145 53.4612 301.196 50.6299 301.514C51.8447 302.218 52.1052 302.801 50.9159 304.577C50.4509 305.482 49.9646 305.966 48.3495 306.361C43.5448 305.655 43.1725 300.547 43.7913 299.538C44.4101 298.53 58.5342 284.035 58.7195 276.162Z" fill="#8EB439"/>
<path d="M28.5772 249.864L34.4598 268.327L42.0032 256.215L41.6246 254.706L46.7637 253.751L47.1808 231.492L45.7861 230.553L35.4199 231.52L28.3978 237.761L28.5772 249.864Z" fill="#8EB439"/>
<path d="M58.7837 241.221C53.0634 241.043 52.8837 233.261 47.0853 231.738L34.6951 250.481C35.4807 251.734 36.0567 252.415 37.8302 253.516C39.5161 253.978 40.6201 254.198 44.7724 254.056C47.983 253.782 49.7739 253.085 52.9349 249.848C54.8627 248.076 55.9208 247.34 57.6326 247.983C61.7567 249.055 63.5431 249.285 65.3037 248.693C67.445 247.052 67.4695 245.164 67.2165 242.454C66.9635 239.745 64.5341 240.073 58.7837 241.221Z" fill="#8EB439"/>
<path d="M39.0454 224.528C41.6555 227.587 43.339 228.509 47.0541 227.582C46.7901 229.353 46.8536 230.287 47.4501 231.823C43.7448 231.484 41.8916 231.375 39.7052 231.596C37.6886 231.847 36.6046 232.272 34.8049 233.836C32.1513 237.108 31.2839 238.404 30.1827 240.327C29.1004 242.844 28.465 244.646 29.583 249.176C30.1564 251.499 30.3387 253.109 32.2817 257.717C33.8248 261.775 34.3731 263.947 34.3835 267.502L31.5752 266.695C30.5784 262.855 29.4273 262.024 27.4253 260.428C28.433 255.282 27.2267 253.313 23.877 250.422C27.3496 246.142 26.1982 243.67 22.8321 239.231C26.8774 237.418 28.2138 235.326 27.7542 228.315C33.8713 229.2 36.2404 228.228 39.0454 224.528Z" fill="#588001"/>
<path d="M24.1744 271.426C27.1263 269.627 28.0839 268.31 28.3584 265.332L43.4964 270.929C43.4964 270.929 45.1331 274.46 43.9803 276.112C42.8275 277.765 31.2631 283.716 31.2631 283.716C30.3271 281.424 29.0603 280.588 25.7798 279.713C26.7556 275.06 25.8289 273.754 24.1744 271.426Z" fill="#A4D140"/>
<path d="M49.8072 276.162C49.0483 268.034 45.143 261.357 40.0245 252.835C46.5999 254.676 48.5264 255.911 50.8668 258.24C54.9737 262.702 56.9983 266.295 58.3529 270.968C59.4732 275.762 59.1852 278.543 57.7517 283.619C53.5298 293.286 50.09 295.727 43.8018 299.656C46.6956 288.723 50.5661 284.29 49.8072 276.162Z" fill="#FEE665"/>
<path d="M24.5283 271.393C32.5978 273.367 36.7495 273.383 43.5685 271.696" stroke="#3E5A00" stroke-width="3" stroke-linecap="round"/>
<path d="M26.0262 279.808C27.7564 278.731 33.7968 276.268 44.1166 275.03" stroke="#3E5A00" stroke-width="3" stroke-linecap="round"/>
<path d="M42.9598 257.552C47.0805 256.949 47.8685 256.673 48.3015 256.222M45.7259 262.997C50.6162 262.445 52.6242 262.095 53.5303 261.318M48.7747 270.199C54.3586 269.905 56.6035 269.597 57.5325 268.549M49.909 278.529C49.909 278.529 55.0041 277.103 58.9794 277.682M49.0343 284.433C52.9393 284.571 54.5902 284.951 56.4509 286.236M47.0445 289.847C50.4431 291.081 51.2516 291.894 51.6591 293.457" stroke="#8EB439" stroke-width="3" stroke-linecap="round"/>
<ellipse cx="63.7112" cy="245.233" rx="1.65634" ry="2.24789" transform="rotate(2.01002 63.7112 245.233)" fill="#2F4500"/>
<circle cx="42.2122" cy="240.63" r="1.77465" transform="rotate(-5.33396 42.2122 240.63)" fill="#1B365D"/>
<path d="M36.0869 250.114C37.1558 251.181 37.9372 251.778 40.0246 252.835L44.4413 254.324C45.5648 254.371 46.3649 254.18 48.049 253.512C49.3613 253.026 50.1302 252.47 51.5248 251.286C52.5927 249.998 53.2885 249.815 53.5759 249.075C52.5034 250.512 51.1393 250.657 49.5332 251.591C48.2354 252.251 47.4561 252.869 45.7449 253.014C44.6057 252.96 44.2025 253.039 41.2764 252.243C37.9839 251.529 37.4084 250.684 36.0869 250.114Z" fill="#2F4500"/>
<ellipse cx="7.40406" cy="7.5851" rx="7.40406" ry="7.5851" transform="matrix(-0.5 -0.866025 -0.866025 0.5 131.175 13.1738)" fill="#A5D1FF" fill-opacity="0.5"/>
<path d="M126.327 12.5713C126.581 12.6585 127.301 11.6955 127.23 11.0991C127.158 10.5027 126.494 9.97338 126.099 10.2837C125.704 10.594 126.073 12.4841 126.327 12.5713Z" fill="white" fill-opacity="0.8"/>
<path d="M126.09 13.7237C126.177 13.6683 126.308 13.2984 126.243 13.1966C126.178 13.0947 126.026 13.0482 125.939 13.1036C125.852 13.1589 125.721 13.5288 125.786 13.6307C125.851 13.7325 126.003 13.779 126.09 13.7237Z" fill="white" fill-opacity="0.8"/>
<ellipse cx="9.97281" cy="10.2167" rx="9.97281" ry="10.2167" transform="matrix(-0.5 -0.866025 -0.866025 0.5 122.803 39.2493)" fill="#A5D1FF" fill-opacity="0.5"/>
<path d="M116.369 38.7616C116.729 38.9034 117.829 37.5576 117.764 36.6916C117.699 35.8257 116.776 35.0197 116.186 35.4432C115.597 35.8668 116.008 38.6198 116.369 38.7616Z" fill="white" fill-opacity="0.8"/>
<path d="M115.964 40.406C116.098 40.3286 116.349 39.8347 116.273 39.7039C116.198 39.573 115.988 39.5195 115.854 39.5969C115.72 39.6743 115.469 40.1683 115.545 40.2991C115.62 40.43 115.83 40.4834 115.964 40.406Z" fill="white" fill-opacity="0.8"/>
<ellipse cx="6.49744" cy="6.65632" rx="6.49744" ry="6.65632" transform="matrix(-0.5 -0.866025 -0.866025 0.5 146.004 37.4595)" fill="#A5D1FF" fill-opacity="0.5"/>
<path d="M141.479 36.757C141.714 36.849 142.432 35.9721 142.39 35.4085C142.349 34.8448 141.747 34.3209 141.363 34.5971C140.978 34.8732 141.244 36.6649 141.479 36.757Z" fill="white" fill-opacity="0.8"/>
<path d="M141.192 37.7949C141.326 37.7175 141.668 37.3807 141.638 37.3283C141.608 37.276 141.443 37.301 141.309 37.3784C141.175 37.4558 140.833 37.7927 140.864 37.8451C140.894 37.8974 141.058 37.8723 141.192 37.7949Z" fill="white" fill-opacity="0.8"/>
<ellipse cx="4.97896" cy="5.26314" rx="4.97896" ry="5.26314" transform="matrix(-0.5 -0.866025 -0.866025 0.5 123.124 79.2632)" fill="#A5D1FF" fill-opacity="0.5"/>
<path d="M119.792 78.8997C119.966 78.9564 120.47 78.297 120.427 77.8934C120.383 77.4898 119.931 77.1372 119.656 77.3512C119.381 77.5652 119.617 78.8429 119.792 78.8997Z" fill="white" fill-opacity="0.8"/>
<path d="M119.617 79.6831C119.678 79.6448 119.772 79.3929 119.728 79.3244C119.684 79.256 119.58 79.2259 119.519 79.2642C119.459 79.3025 119.365 79.5545 119.409 79.6229C119.453 79.6914 119.557 79.7215 119.617 79.6831Z" fill="white" fill-opacity="0.8"/>
<ellipse cx="4.23089" cy="4.44998" rx="4.23089" ry="4.44998" transform="matrix(-0.5 -0.866025 -0.866025 0.5 129.413 61.2385)" fill="#A5D1FF" fill-opacity="0.5"/>
<path d="M126.631 61.0618C126.787 61.1206 127.269 60.5404 127.245 60.1709C127.222 59.8014 126.826 59.4617 126.569 59.6455C126.312 59.8292 126.476 61.003 126.631 61.0618Z" fill="white" fill-opacity="0.8"/>
<path d="M126.448 61.7662C126.506 61.7325 126.618 61.5203 126.585 61.4648C126.553 61.4093 126.463 61.3875 126.405 61.4212C126.346 61.4549 126.235 61.6671 126.267 61.7226C126.299 61.7781 126.39 61.7999 126.448 61.7662Z" fill="white" fill-opacity="0.8"/>
</svg>
