<svg width="362" height="266" viewBox="0 0 362 266" fill="none" xmlns="http://www.w3.org/2000/svg">
<path d="M323.778 28.3424L173.762 15.1938L142.195 83.2744L294.528 104.604L323.778 28.3424Z" fill="#683F24"/>
<path d="M205.856 65.4508L306.114 76.2619" stroke="#513523" stroke-width="2"/>
<line y1="-1" x2="100.817" y2="-1" transform="matrix(0.993917 0.110133 -0.108216 0.994127 199.828 80.6447)" stroke="#513523" stroke-width="2"/>
<path d="M177.239 4.38281L172.316 14.9017C172.316 14.9017 185.512 27.1083 187.375 36.2316C189.289 45.6041 190.207 51.9439 185.927 60.4835C182.777 66.768 180.153 70.3131 174.343 74.2165C166.991 79.1562 149.437 78.8915 149.437 78.8915L147.699 93.7933C147.699 93.7933 167.343 90.2678 177.239 84.151C186.674 78.3187 191.302 72.1561 195.774 61.9445C199.84 52.6598 199.779 46.2836 198.38 36.2316C196.434 22.2397 177.239 4.38281 177.239 4.38281Z" fill="#292823"/>
<path d="M142.196 83.5666L123.661 80.3525L164.206 0L328.991 13.1486L323.199 28.3425L174.342 16.0705L142.196 83.5666Z" fill="#373634"/>
<path d="M187.954 35.9395C185.589 26.7464 174.053 16.0706 174.053 16.0706L142.775 82.6901C142.775 82.6901 160.056 84.0125 169.129 78.8916C177.737 74.0336 181.846 68.7937 185.637 59.607C189.175 51.0326 190.266 44.9294 187.954 35.9395Z" fill="#683F24"/>
<path d="M171.446 68.3728L160.441 64.2821" stroke="#492B18" stroke-width="2"/>
<path d="M181.872 44.4131L170.867 40.3224" stroke="#492B18" stroke-width="2"/>
<path d="M176.659 57.2694L165.654 53.1787" stroke="#492B18" stroke-width="2"/>
<path d="M123.371 80.3525L67.4775 106.358L229.657 130.902L294.818 104.897L123.371 80.3525Z" fill="#281910"/>
<path d="M309.877 106.358L341.734 23.9597C341.734 23.9597 356.614 44.5189 356.503 59.607C356.433 69.2945 355.011 75.223 350.132 83.5667C340.972 99.231 309.877 106.358 309.877 106.358Z" fill="#714528"/>
<path d="M343.761 22.7909L328.991 13.1486L294.238 105.189L310.456 108.403L343.761 22.7909Z" fill="#292823"/>
<path d="M217.204 239.012L79.0622 212.131L57.3418 111.909L67.478 106.65L230.236 130.609L294.239 105.189L304.086 108.987L287.578 209.793L217.204 239.012Z" fill="#373634"/>
<path d="M68.3467 106.358L124.241 80.3525" stroke="black"/>
<ellipse cx="114.104" cy="102.851" rx="12.7426" ry="7.01258" fill="#D09B46"/>
<ellipse cx="114.104" cy="100.514" rx="12.7426" ry="7.01258" fill="#FABB32"/>
<ellipse cx="251.376" cy="112.201" rx="12.7426" ry="7.01258" fill="#D09B46"/>
<ellipse cx="251.376" cy="109.864" rx="12.7426" ry="7.01258" fill="#FABB32"/>
<ellipse cx="205.62" cy="119.214" rx="12.7426" ry="7.01258" fill="#D09B46"/>
<ellipse cx="205.62" cy="116.876" rx="12.7426" ry="7.01258" fill="#FABB32"/>
<ellipse cx="218.361" cy="109.279" rx="12.7426" ry="7.01258" fill="#D09B46"/>
<ellipse cx="218.361" cy="106.942" rx="12.7426" ry="7.01258" fill="#FABB32"/>
<ellipse cx="281.496" cy="105.189" rx="12.7426" ry="7.01258" fill="#D09B46"/>
<ellipse cx="281.496" cy="102.851" rx="12.7426" ry="7.01258" fill="#FABB32"/>
<ellipse cx="256.589" cy="102.267" rx="12.7426" ry="7.01258" fill="#D09B46"/>
<ellipse cx="256.589" cy="99.9293" rx="12.7426" ry="7.01258" fill="#FABB32"/>
<ellipse cx="122.792" cy="113.37" rx="12.7426" ry="7.01258" fill="#D09B46"/>
<ellipse cx="122.792" cy="111.033" rx="12.7426" ry="7.01258" fill="#FABB32"/>
<ellipse cx="160.441" cy="119.214" rx="12.7426" ry="7.01258" fill="#D09B46"/>
<ellipse cx="160.441" cy="116.876" rx="12.7426" ry="7.01258" fill="#FABB32"/>
<ellipse cx="214.306" cy="98.1763" rx="12.7426" ry="7.01258" fill="#D09B46"/>
<ellipse cx="214.306" cy="95.8386" rx="12.7426" ry="7.01258" fill="#FABB32"/>
<ellipse cx="88.6186" cy="107.526" rx="12.7426" ry="7.01258" fill="#D09B46"/>
<ellipse cx="88.6186" cy="105.189" rx="12.7426" ry="7.01258" fill="#FABB32"/>
<ellipse cx="160.442" cy="99.345" rx="12.7426" ry="7.01258" fill="#D09B46"/>
<ellipse cx="160.442" cy="97.0075" rx="12.7426" ry="7.01258" fill="#FABB32"/>
<ellipse cx="182.452" cy="114.539" rx="12.7426" ry="7.01258" fill="#D09B46"/>
<ellipse cx="182.452" cy="112.201" rx="12.7426" ry="7.01258" fill="#FABB32"/>
<ellipse cx="182.452" cy="102.851" rx="12.7426" ry="7.01258" fill="#D09B46"/>
<ellipse cx="182.452" cy="100.514" rx="12.7426" ry="7.01258" fill="#FABB32"/>
<ellipse cx="227.051" cy="120.383" rx="12.7426" ry="7.01258" fill="#D09B46"/>
<ellipse cx="227.051" cy="118.045" rx="12.7426" ry="7.01258" fill="#FABB32"/>
<ellipse cx="137.273" cy="105.189" rx="12.7426" ry="7.01258" fill="#D09B46"/>
<ellipse cx="137.273" cy="102.851" rx="12.7426" ry="7.01258" fill="#FABB32"/>
<ellipse cx="156.966" cy="109.864" rx="12.7426" ry="7.01258" fill="#D09B46"/>
<ellipse cx="156.966" cy="107.526" rx="12.7426" ry="7.01258" fill="#FABB32"/>
<ellipse cx="201.566" cy="109.864" rx="12.7426" ry="7.01258" fill="#D09B46"/>
<ellipse cx="201.566" cy="107.526" rx="12.7426" ry="7.01258" fill="#FABB32"/>
<ellipse cx="232.843" cy="105.189" rx="12.7426" ry="7.01258" fill="#D09B46"/>
<ellipse cx="232.843" cy="102.851" rx="12.7426" ry="7.01258" fill="#FABB32"/>
<ellipse cx="188.823" cy="97.0073" rx="12.7426" ry="7.01258" fill="#D09B46"/>
<ellipse cx="188.823" cy="94.6699" rx="12.7426" ry="7.01258" fill="#FABB32"/>
<ellipse cx="126.847" cy="91.7479" rx="12.7426" ry="7.01258" fill="#D09B46"/>
<ellipse cx="126.847" cy="89.4104" rx="12.7426" ry="7.01258" fill="#FABB32"/>
<ellipse cx="154.07" cy="88.8261" rx="12.7426" ry="7.01258" fill="#D09B46"/>
<ellipse cx="154.07" cy="86.4885" rx="12.7426" ry="7.01258" fill="#FABB32"/>
<ellipse cx="144.223" cy="82.9822" rx="12.7426" ry="7.01258" fill="#D09B46"/>
<ellipse cx="144.223" cy="80.6447" rx="12.7426" ry="7.01258" fill="#FABB32"/>
<ellipse cx="152.332" cy="98.7605" rx="12.7426" ry="7.01258" fill="#D09B46"/>
<ellipse cx="152.332" cy="96.423" rx="12.7426" ry="7.01258" fill="#FABB32"/>
<ellipse cx="167.971" cy="102.851" rx="12.7426" ry="7.01258" fill="#D09B46"/>
<ellipse cx="167.971" cy="100.514" rx="12.7426" ry="7.01258" fill="#F7C45F"/>
<ellipse cx="108.312" cy="103.436" rx="12.7426" ry="7.01258" fill="#D09B46"/>
<ellipse cx="108.312" cy="101.098" rx="12.7426" ry="7.01258" fill="#F7C45F"/>
<ellipse cx="196.931" cy="118.63" rx="12.7426" ry="7.01258" fill="#D09B46"/>
<ellipse cx="196.931" cy="116.292" rx="12.7426" ry="7.01258" fill="#F7C45F"/>
<ellipse cx="141.327" cy="117.461" rx="12.7426" ry="7.01258" fill="#D09B46"/>
<ellipse cx="141.327" cy="115.123" rx="12.7426" ry="7.01258" fill="#F7C45F"/>
<ellipse cx="241.531" cy="119.214" rx="12.7426" ry="7.01258" fill="#D09B46"/>
<ellipse cx="241.531" cy="116.876" rx="12.7426" ry="7.01258" fill="#F7C45F"/>
<path d="M303.796 109.864L229.947 139.667L217.204 239.889L287.868 210.377L303.796 109.864Z" fill="#292823"/>
<path d="M213.439 153.692L74.7178 129.733L89.198 197.813L205.04 219.728L213.439 153.692Z" fill="#7D4D2D"/>
<path d="M286.709 133.531L245.006 152.524L237.186 215.345L275.704 199.859L286.709 133.531Z" fill="#7D4D2D"/>
<line y1="-1" x2="37.8463" y2="-1" transform="matrix(0.153043 0.988219 -0.987801 0.155722 95.5693 149.894)" stroke="#513523" stroke-width="2"/>
<line y1="-1" x2="32.3957" y2="-1" transform="matrix(0.125155 0.992137 -0.991856 0.127363 120.476 156.907)" stroke="#513523" stroke-width="2"/>
<line x1="151.595" y1="164.504" x2="151.595" y2="194.891" stroke="#513523" stroke-width="2"/>
<path d="M183.899 166.841L179.266 201.612" stroke="#513523" stroke-width="2"/>
<path d="M68.3468 106.357L57.3418 112.201L229.947 140.252L304.375 109.279L294.529 105.189L229.947 130.609L68.3468 106.357Z" fill="#222020"/>
<path d="M152.043 156.03V142.589L141.327 140.836L130.901 139.083V153.706L133.218 159.244L146.777 161.29L152.043 156.03Z" fill="#2E2D29"/>
<path d="M286.709 133.531L245.006 152.231L237.187 215.345L275.994 199.566L286.709 133.531Z" fill="#714528"/>
<path d="M256.301 158.952L250.22 201.32" stroke="#492B18" stroke-width="2"/>
<path d="M271.65 153.4L265.857 194.307" stroke="#492B18" stroke-width="2"/>
<path d="M336.521 86.4886L325.516 82.3979" stroke="#492B18" stroke-width="2"/>
<path d="M346.946 62.5288L335.941 58.4381" stroke="#492B18" stroke-width="2"/>
<path d="M341.734 75.3852L330.729 71.2946" stroke="#492B18" stroke-width="2"/>
<path d="M343.761 22.791L339.706 33.0177C339.706 33.0177 350.296 44.64 352.159 53.7633C354.073 63.1358 352.964 69.4755 348.684 78.0151C345.534 84.2997 342.91 87.8447 337.1 91.7481C329.748 96.6879 314.8 96.7154 314.8 96.7154L310.456 108.111C310.456 108.111 330.1 107.215 339.996 101.098C349.431 95.266 354.059 89.6877 358.531 79.4761C362.596 70.1914 362.535 63.8152 361.137 53.7633C359.19 39.7713 343.761 22.791 343.761 22.791Z" fill="#21201D"/>
<path d="M150.595 142.508L130.322 139.083V152.537L132.765 157.919L146.198 160.121L150.595 155.473V142.508Z" fill="#373634"/>
<path d="M211.412 51.1395L310.457 60.1913" stroke="#513523" stroke-width="2"/>
<path d="M209.675 35.3552L317.698 44.9975" stroke="#513523" stroke-width="2"/>
<ellipse cx="42.8618" cy="230.246" rx="12.7426" ry="7.01258" fill="#D09B46"/>
<ellipse cx="42.8618" cy="227.909" rx="12.7426" ry="7.01258" fill="#FABB32"/>
<ellipse cx="87.4614" cy="230.246" rx="12.7426" ry="7.01258" fill="#D09B46"/>
<ellipse cx="87.4614" cy="227.909" rx="12.7426" ry="7.01258" fill="#FABB32"/>
<ellipse cx="118.739" cy="225.571" rx="12.7426" ry="7.01258" fill="#D09B46"/>
<ellipse cx="118.739" cy="223.234" rx="12.7426" ry="7.01258" fill="#FABB32"/>
<ellipse cx="74.7182" cy="217.39" rx="12.7426" ry="7.01258" fill="#D09B46"/>
<ellipse cx="74.7182" cy="215.053" rx="12.7426" ry="7.01258" fill="#FABB32"/>
<ellipse cx="12.7426" cy="212.131" rx="12.7426" ry="7.01258" fill="#D09B46"/>
<ellipse cx="12.7426" cy="209.793" rx="12.7426" ry="7.01258" fill="#FABB32"/>
<ellipse cx="39.9653" cy="209.209" rx="12.7426" ry="7.01258" fill="#D09B46"/>
<ellipse cx="39.9653" cy="206.871" rx="12.7426" ry="7.01258" fill="#FABB32"/>
<ellipse cx="30.1186" cy="203.365" rx="12.7426" ry="7.01258" fill="#D09B46"/>
<ellipse cx="30.1186" cy="201.027" rx="12.7426" ry="7.01258" fill="#FABB32"/>
<ellipse cx="38.228" cy="219.143" rx="12.7426" ry="7.01258" fill="#D09B46"/>
<ellipse cx="38.228" cy="216.806" rx="12.7426" ry="7.01258" fill="#FABB32"/>
<ellipse cx="158.705" cy="235.506" rx="12.7426" ry="7.01258" fill="#D09B46"/>
<ellipse cx="158.705" cy="233.168" rx="12.7426" ry="7.01258" fill="#FABB32"/>
<ellipse cx="143.066" cy="255.375" rx="12.7426" ry="7.01258" fill="#D09B46"/>
<ellipse cx="143.066" cy="253.037" rx="12.7426" ry="7.01258" fill="#FABB32"/>
<ellipse cx="174.343" cy="250.7" rx="12.7426" ry="7.01258" fill="#D09B46"/>
<ellipse cx="174.343" cy="248.362" rx="12.7426" ry="7.01258" fill="#FABB32"/>
<ellipse cx="130.323" cy="242.518" rx="12.7426" ry="7.01258" fill="#D09B46"/>
<ellipse cx="130.323" cy="240.181" rx="12.7426" ry="7.01258" fill="#FABB32"/>
<ellipse cx="205.621" cy="251.284" rx="12.7426" ry="7.01258" fill="#D09B46"/>
<ellipse cx="205.621" cy="248.947" rx="12.7426" ry="7.01258" fill="#FABB32"/>
<ellipse cx="232.843" cy="248.362" rx="12.7426" ry="7.01258" fill="#D09B46"/>
<ellipse cx="232.843" cy="246.025" rx="12.7426" ry="7.01258" fill="#FABB32"/>
<ellipse cx="222.997" cy="242.518" rx="12.7426" ry="7.01258" fill="#D09B46"/>
<ellipse cx="222.997" cy="240.181" rx="12.7426" ry="7.01258" fill="#FABB32"/>
<ellipse cx="231.106" cy="258.297" rx="12.7426" ry="7.01258" fill="#D09B46"/>
<ellipse cx="231.106" cy="255.959" rx="12.7426" ry="7.01258" fill="#FABB32"/>
</svg>
