<svg width="482" height="195" viewBox="0 0 482 195" fill="none" xmlns="http://www.w3.org/2000/svg">
<path d="M481.457 115.169C486.107 121.026 369.068 130.931 363.774 134.721C347.236 146.562 410.85 145.207 308.111 145.207C149.032 148.164 35.0544 155.104 11.0886 139.817C14.3114 132.173 12.5196 145.231 40.0622 110.516C110.171 63.6979 90.4931 40.1297 259.358 26.1162C413.563 48.0261 470.778 101.719 481.457 115.169Z" fill="#FFE8BC"/>
<path d="M0.0381165 143.741C-1.27693 146.45 31.823 151.031 33.3202 152.784C37.9973 158.26 20.0066 157.634 49.0624 157.634C94.0518 159.001 126.286 162.211 133.064 155.14C132.152 151.605 132.659 157.645 124.87 141.589C105.042 119.935 110.607 109.035 62.8504 102.553C19.2393 112.687 3.05846 137.52 0.0381165 143.741Z" fill="#FFE8BC"/>
<rect x="198.84" y="13.0488" width="119.992" height="69.3231" fill="#594939"/>
<path d="M197.008 43.6328L182.353 8.97119L298.681 13.4568L325.244 79.9254H314.252L294.101 17.9424L200.214 13.8646L208 43.6328H197.008Z" fill="#786753"/>
<path d="M357.303 24.8748C356.501 50.0181 346.12 60.9395 324.786 79.5177L298.681 13.4568C329.04 4.92077 342.151 6.65094 357.303 24.8748Z" fill="#917862"/>
<path d="M213.641 0C193.339 2.08382 187.609 4.35649 182.353 8.97123L298.681 13.4568L320.206 8.56344L213.641 0Z" fill="#B49A89"/>
<path d="M155.789 121.927C144.983 105.516 140.509 94.9306 140.218 69.3232L240.059 72.9933L326.16 78.7023C326.079 102.56 324.29 114.671 314.252 131.306L155.789 121.927Z" fill="#B49A89"/>
<path d="M326.16 78.7021C326.689 99.7799 324.589 112.07 314.71 131.306L240.975 126.82C238.291 105.979 239.208 94.2845 244.639 73.4009L326.16 78.7021Z" fill="#917862"/>
<path d="M293.643 62.4309C307.778 65.6692 312.63 69.8489 318.374 79.5578L240.517 74.2566L147.546 70.5866C147.546 70.5866 153.499 66.5087 158.079 64.4698C162.659 62.4309 168.613 62.4309 168.613 62.4309C168.613 62.4309 171.361 56.7219 172.735 54.683C174.109 52.6441 194.26 46.1196 194.26 46.1196C194.26 46.1196 193.802 44.0807 197.466 42.4495C201.13 40.8184 209.374 44.4885 209.374 44.4885C209.374 44.4885 213.037 32.6627 219.907 33.4783C226.638 34.2774 236.447 44.0803 236.84 44.4761C236.868 44.1876 255.644 42.4602 261.126 44.4885C266.692 46.5481 267.08 54.683 267.08 54.683C267.08 54.683 282.651 51.8284 287.689 53.0519C292.727 54.2754 293.643 62.4309 293.643 62.4309Z" fill="#F7CD82"/>
<path d="M183.471 89.5802L184.334 71.77L209.957 72.7537L209.095 90.5638C199.538 95.9547 193.914 95.4142 183.471 89.5802Z" fill="#CAC7C1"/>
<ellipse cx="214.869" cy="50.1571" rx="8.70173" ry="2.03892" fill="#EEC140"/>
<ellipse cx="189.222" cy="58.3128" rx="8.70173" ry="2.03892" fill="#EEC140"/>
<ellipse cx="223.113" cy="56.2742" rx="6.86978" ry="1.63113" fill="#EEC140"/>
<ellipse cx="264.332" cy="68.5077" rx="10.5337" ry="2.4467" fill="#EEC140"/>
<ellipse cx="278.987" cy="59.9442" rx="8.70173" ry="2.03892" fill="#EEC140"/>
<path fill-rule="evenodd" clip-rule="evenodd" d="M197.816 84.4141C200.242 83.9781 202.129 82.0987 202.254 79.7835C202.4 77.0712 200.072 74.7881 197.055 74.6839C194.038 74.5797 191.474 76.694 191.328 79.4063C191.223 81.3448 192.382 83.064 194.154 83.9253C194.054 84.5537 193.479 88.7363 195.72 88.8138C197.695 88.882 197.833 85.6215 197.816 84.4141Z" fill="#644747"/>
<path d="M193.63 34.024L185.975 36.2013L181.704 44.1733L196.602 52.5064L201.5 36.9091L193.63 34.024Z" fill="#ACDDF1"/>
<path d="M188.996 43.8108L186.013 36.0882L193.795 34.032L196.182 41.6573L188.996 43.8108Z" fill="#ACDDF1"/>
<path d="M196.854 41.3024L196.591 52.7203L188.269 43.8102L196.854 41.3024Z" fill="#60BDE0"/>
<path d="M201.53 37.0557L196.627 41.7824L196.699 52.5186L201.53 37.0557Z" fill="#60BDE0"/>
<path d="M181.801 44.0651L189.095 43.4664L196.456 52.4529L181.801 44.0651Z" fill="#60BDE0"/>
<path d="M280.474 51.6481L272.78 49.5402L264.494 54.0194L272.04 68.6428L285.357 58.1034L280.474 51.6481Z" fill="#ACDDF1"/>
<path d="M271.004 57.4443L272.928 49.4081L280.622 51.7794L278.254 59.4204L271.004 57.4443Z" fill="#ACDDF1"/>
<path d="M278.696 59.3841L271.912 68.8426L270.034 56.9564L278.696 59.3841Z" fill="#60BDE0"/>
<path d="M285.356 58.1027L278.254 59.4201L272.04 68.642L285.356 58.1027Z" fill="#60BDE0"/>
<path d="M264.494 54.0192L270.856 57.3127L271.892 68.5107L264.494 54.0192Z" fill="#60BDE0"/>
<path d="M481.503 163.261C481.503 185.524 443.784 193.299 308.157 193.299C130.477 196.601 32.5506 196.508 13.2349 169.118C27.1851 155.741 49.5919 151.276 78.6936 138.861C96.6783 131.189 123.912 126.513 148.517 119.433C166.507 114.257 168.281 96.7494 188.222 92.0432C252.25 96.5021 223.204 97.7424 267.558 86.6289C291.566 90.04 267.558 101.916 332.732 94.2726C368.859 123.892 379.272 100.697 399.979 108.633C419.054 115.942 434.616 123.455 446.837 130.582C470.356 144.297 481.503 156.587 481.503 163.261Z" fill="#FFE8BC"/>
<path d="M394.183 110.834C427.725 120.544 466.796 133.128 497.201 159.881C506.37 168.877 504.48 174.418 488.974 179.628C421.369 194.278 367.287 191.692 353.406 193.642C326.936 193.642 293.084 187.432 284.012 182.814C275.078 178.265 307.44 163.705 300.823 163.705C253.806 163.705 369.502 138.545 281.866 130.264C244.666 118.161 241.287 105.103 288.304 105.103C318.681 105.103 320.855 100.961 327.294 97.4578C320.855 88.8587 382.157 105.649 394.183 110.834Z" fill="#EFD59E"/>
</svg>
